<svg width="27" height="42" viewBox="0 0 27 42" fill="none" xmlns="http://www.w3.org/2000/svg">
<path d="M1.5957 4.09448C1.5957 11.5807 3.42336 18.6513 3.69008 25.8528C3.86056 30.4556 6.83165 35.3218 6.83165 39.6989" stroke="black" stroke-width="3" stroke-linecap="round"/>
<path d="M2.64258 4.09438C2.64258 3.20773 2.70207 5.80383 2.87529 6.18876C3.98086 8.6456 6.12619 10.548 7.29675 12.9955C9.48615 17.5733 12.1988 21.6069 14.6853 26.0272C16.6643 29.5455 19.1325 33.0475 21.492 36.3245C23.2414 38.7543 24.6336 40.175 24.6336 36.5573C24.6336 30.7955 22.5392 25.8096 22.5392 19.8604C22.5392 13.9069 22.5392 7.95347 22.5392 2" stroke="black" stroke-width="3" stroke-linecap="round"/>
</svg>
