<svg width="62" height="105" viewBox="0 0 62 105" fill="none" xmlns="http://www.w3.org/2000/svg">
<path d="M5.10271 10C5.10271 28.9693 6.28365 47.4232 8.41084 66.2751C9.42604 75.2721 10.0618 84.7941 12.8217 93.4684C14.3883 98.3922 13.9504 90.3423 13.9244 89.0621C13.6083 73.4713 8.41084 58.1675 8.41084 42.418C8.41084 38.4285 8.65971 39.1979 8.34958 42.5439C7.50139 51.695 7.11694 60.7174 7.36939 69.9261C7.64246 79.8868 8.36385 90.0164 9.7586 99.8891C10.5723 105.649 10.6163 102.325 10.6163 98.6301C10.6163 83.429 8.03042 67.8979 7.36939 52.6155C6.93422 42.5546 4 33.5312 4 23.5967" stroke="black" stroke-opacity="0.99" stroke-width="3"/>
<path d="M12 51.9235C20.5037 51.9235 29.0074 51.9235 37.5111 51.9235C40.1352 51.9235 39.3856 51.8044 37.0756 51.9769C32.4654 52.3211 27.8115 53.7091 23.2 54.3278C20.1115 54.7422 16.2544 55.2981 13.12 54.8087C9.2351 54.2022 20.5294 52.4454 24.32 51.496C28.8214 50.3687 35.2333 50 40 50" stroke="black" stroke-opacity="0.99" stroke-width="3"/>
<path d="M13 98C28.4777 98 43.8668 96.5945 59.3361 96.5945C72.572 96.5945 32.8643 96.5945 19.6284 96.5945C12.2365 96.5945 15.9208 97.2171 20.3788 95.8917C25.2239 94.4511 30.5419 95.1889 35.5115 95.1889" stroke="black" stroke-opacity="0.99" stroke-width="3"/>
<path d="M4.80248 4.12832C16.4475 4.12832 28.0816 3.55399 39.7205 3.55399C40.1328 3.55399 45.1289 3.18203 44.9974 3.10728C44.0633 2.57633 42.1365 2.86646 41.0958 2.69249C28.1493 0.528227 14.9895 4.12832 2.07977 4.12832C-10.8788 4.12832 40.9555 4.12832 40.9555 4.12832C40.9555 4.12832 34.1438 4.07705 30.7383 4.12832C26.3185 4.19487 22.0568 4.93045 17.7704 6.10659C16.8915 6.34776 15.8022 6.11426 15.4126 7" stroke="black" stroke-opacity="0.99" stroke-width="3"/>
</svg>
