<svg width="72" height="136" viewBox="0 0 72 136" fill="none" xmlns="http://www.w3.org/2000/svg">
<path d="M8.41074 31.2903C8.41074 40.8968 8.41074 50.5032 8.41074 60.1097C8.41074 71.8228 8.41074 83.5359 8.41074 95.249C8.41074 102.247 9.40357 110.074 7.73575 116.99C6.04546 123.999 4.34809 108.311 4.15831 106.499C1.04542 76.7692 3.55082 45.9758 3.55082 16.1222C3.55082 14.1337 3.55082 -8.50217 3.55082 3.48218C3.55082 21.5996 3.55082 39.717 3.55082 57.8344C3.55082 76.9209 3.55082 96.0074 3.55082 115.094C3.55082 117.025 3.19142 119.738 2.60584 116.105C1.42372 108.772 2.33584 100.721 2.33584 93.353C2.33584 67.1976 3.44902 41.7202 8.14075 15.8694C8.75538 12.4829 8.39581 6.76847 10.2332 3.67178C10.3872 3.41233 10.8407 12.1045 10.8407 13.3414C10.8407 36.7583 11.2406 60.2076 10.7732 83.6202C10.6469 89.9466 10.6658 96.83 9.35573 103.086C8.4841 107.248 7.19931 97.0275 7.19576 96.6394C7.01846 77.2166 7.19576 18.9452 7.19576 38.3688C7.19576 68.2438 5.98078 157.862 5.98078 127.987" stroke="#E21D20" stroke-width="3"/>
<path d="M33 78C33 60.8123 41.7554 46.0745 48.625 30.7509C50.8358 25.8194 53.1011 16.8486 56.875 13.0087C57.2211 12.6565 55.5673 23.1194 55 24.4553C49.3953 37.6528 41.6374 50.2741 36.4375 63.501C35.1365 66.8104 33.9576 64.2502 34.1875 61.9112C34.5658 58.0619 35.5129 54.2953 37.5625 51.0369C39.8589 47.386 42.0048 43.6524 44.25 39.9718C46.7547 35.8659 45.4301 40.6353 45.375 43.6602C45.199 53.3284 39.7525 63.3586 35.3125 71.6408C33.6825 74.6813 34.125 70.1645 34.125 68.8427C34.125 62.9339 35.9677 58.4104 39 53.3262C44.7156 43.7429 50.4744 34.2038 56.125 24.5825C56.9047 23.2549 58.7912 18.3071 60 20.7669" stroke="#E21D20" stroke-width="3"/>
<path d="M12 23.7886C12 36.2672 16.1051 46.8681 23.4693 56.9443C33.3722 70.4943 21.7656 42.0589 20.7141 39.2187C19.072 34.7835 18.2025 30.1229 16.5493 25.7014C15.6292 23.241 13.4654 20.6895 13.1533 18.0501C12.5329 12.8022 13.9458 28.6706 15.46 33.7353C19.6677 47.8088 25.5693 61.1118 30.4533 74.9248C32.2604 80.0356 28.1455 68.6424 26.9933 66.6359C23.1342 59.9155 19.3597 52.8511 16.1648 45.7861C13.5605 40.0271 15.9918 47.1299 16.8056 49.3567C20.0134 58.1351 24.5328 68.5155 30.8378 75.6262C33.3446 78.4534 34.598 76.5123 33.7211 73.4583C30.5097 62.2734 22.9383 52.511 19.1763 41.5141C18.2898 38.9227 18.8655 46.8429 18.92 48.1453C19.0904 52.2148 29.0909 74.7033 30.4533 71.9918" stroke="#E21D20" stroke-width="3"/>
<path d="M57.3187 19C57.3187 37.6204 59.7791 55.2216 62.604 73.64C63.6763 80.6313 63.5268 89.7423 66.6602 96.2059C67.1526 97.2217 66.674 89.558 66.4143 88.2191C63.6276 73.8477 62.5543 59.1847 59.777 44.8621C59.7006 44.4681 58.6934 40.5297 57.8718 40.8687C55.5636 41.8209 57.3266 61.9164 57.4416 64.2586C58.3415 82.5908 64.6426 99.0963 69.4257 116.363C71.7093 124.607 66.5797 99.4542 64.5706 91.1349C61.2892 77.5471 56.3986 63.9922 55.1062 49.9965C54.855 47.2758 54 33.7174 54 35.6709C54 43.8351 54.9579 50.7288 57.1958 58.8073C58.1383 62.2096 69.2521 95.6877 69.4872 95.4453" stroke="#E21D20" stroke-width="3"/>
</svg>
