<svg width="41" height="110" viewBox="0 0 41 110" fill="none" xmlns="http://www.w3.org/2000/svg">
<path d="M29.3466 3.21029C26.3635 3.21029 19.8371 0.584097 17.7857 3.06876C15.506 5.83001 12.0089 7.28774 9.99301 10.3074C8.61196 12.3761 6.85591 14.0893 6.06706 16.5148C5.25688 19.0058 4.83091 21.5016 4.21259 24.0364C3.78571 25.7865 4.13368 28.0111 4.13368 29.799C4.13368 31.9835 3.78994 34.4951 4.40988 36.613C5.67553 40.9369 9.7744 44.373 12.4591 47.7742C16.178 52.4856 19.3833 57.5802 23.5859 61.8875C28.1198 66.5343 31.0689 71.4475 32.7201 77.8407C33.6774 81.547 33.963 84.9012 33.963 88.7188C33.963 91.9968 34.2176 95.385 33.3909 98.5859C32.6489 101.459 31.1981 105.277 28.9915 107.301C27.8234 108.372 22.2788 108.024 20.9028 107.503C18.9499 106.763 17.0648 105.415 15.5761 103.944C14.3684 102.751 13.3744 101.531 12.4985 100.062C12.1494 99.4765 11.7817 98.4815 11.2359 98.2018" stroke="black" stroke-opacity="0.99" stroke-width="3"/>
<path d="M24.6918 3C22.1215 3 19.5513 3 16.9811 3C15.1871 3 13.2773 5.83868 12.1069 6.99938C8.38414 10.6913 6.04772 15.186 3.6771 19.8661C2.39646 22.3943 2.39864 24.1719 2.39864 26.9963C2.39864 29.2261 1.73647 31.4676 2.11898 33.7023C2.68846 37.0294 5.52747 40.0085 7.79214 42.2666C9.60043 44.0697 11.6193 45.5757 13.5652 47.2154C14.9229 48.3594 16.3506 50.3641 18.0598 50.9925C21.0997 52.1103 24.0023 55.1172 25.7904 57.739C29.5987 63.3226 32.4434 70.1845 34.5599 76.6047C35.9793 80.9104 36.2833 85.6983 36.8371 90.1784C37.2594 93.5946 36.9965 98.087 34.4001 100.641C32.7977 102.218 28.9029 102.328 26.8492 102.782C24.2748 103.352 22.6218 102.734 20.357 101.732C18.0243 100.7 16.2743 99.237 14.9835 96.9248C13.9498 95.0733 13.1141 93.0592 12.1868 91.1479C11.911 90.5793 11.8941 89.788 11.3878 89.532" stroke="black" stroke-opacity="0.99" stroke-width="3"/>
<path d="M33.2068 3.31152C28.7198 3.31152 23.0353 2.38877 18.7238 3.71951C13.7532 5.25362 9.31377 7.02314 7.70056 12.1648C6.75303 15.1847 6.36242 18.768 6.13156 21.9155C5.89362 25.1597 6.0511 28.4562 6.0511 31.7071C6.0511 33.7578 5.86614 35.926 6.49364 37.9085C8.83892 45.318 15.8224 50.4026 21.4192 55.1662C26.0497 59.1073 31.1632 64.6476 33.1867 70.5471C36.1116 79.0749 39 88.7369 39 97.8208C39 100.995 35.1568 102.855 32.7642 104.206C29.6268 105.977 25.8427 107.44 22.2641 107.878C15.6199 108.689 10.7665 105.402 7.13733 99.8811" stroke="black" stroke-opacity="0.99" stroke-width="3"/>
</svg>
