<svg width="43" height="107" viewBox="0 0 43 107" fill="none" xmlns="http://www.w3.org/2000/svg">
<path d="M35.719 8.4792C35.5762 6.62812 33.3851 5.12044 31.7406 4.51215C27.6262 2.9902 23.6602 2.19343 19.283 2.0077C15.5336 1.84861 13.976 4.17646 11.7079 7.0166C8.73725 10.7365 3.85462 15.2351 2.80671 20.0197C1.89983 24.1604 2.08336 28.6295 2.08336 32.8425C2.08336 34.2719 1.86046 35.9186 2.14364 37.3305C2.54999 39.3564 4.64054 41.2314 6.0015 42.6599C12.7708 49.7652 21.0601 55.0491 28.6865 61.1328C33.0521 64.6153 36.2914 68.9055 36.8041 74.6568C37.3827 81.1478 36.7358 86.5857 34.1116 92.5887C32.1444 97.0889 28.7672 101.009 23.7436 101.705C18.4446 102.439 13.0099 101.724 7.87015 100.443" stroke="black" stroke-opacity="0.99" stroke-width="3"/>
<path d="M33.8263 4.23656C33.4763 1.47537 24.1167 2.04954 22.2862 2.04954C14.5055 2.04954 8.64932 7.60829 6.29024 14.7667C4.47735 20.2677 2.63435 26.287 5.44835 31.7769C7.12478 35.0475 9.83211 37.8907 12.1014 40.768C14.6672 44.0214 17.349 46.948 20.5203 49.6376C25.8669 54.1722 32.4748 59.5233 34.9351 66.263C37.3126 72.7759 37.8955 81.569 35.3047 88.0726C34.2358 90.756 31.208 93.6974 28.9392 95.4436C25.067 98.4241 20.2021 100.717 15.51 102.086C12.9259 102.839 4.25738 104.533 4.25738 99.7367" stroke="black" stroke-opacity="0.99" stroke-width="3"/>
<path d="M36.3526 5.16117C33.8652 4.279 31.7101 3.51085 29.0436 3.17985C24.4273 2.60684 21.0358 3.42484 16.8076 5.32291C12.9928 7.03537 9.19316 9.06803 7.27939 12.9449C5.31243 16.9296 4.05568 21.4919 3.20752 25.8235C1.63022 33.8789 9.37978 40.2492 15.0974 44.6259C22.0806 49.9713 29.9044 54.0639 34.3573 61.9927C35.7632 64.496 37.4707 66.7769 38.1849 69.5743C38.9251 72.4736 39.4355 75.3027 40.0172 78.2275C40.7965 82.1451 41.8997 88.1768 39.7322 91.6924C35.8757 97.9475 31.9535 102.156 24.707 104.066C19.373 105.471 13.61 104.874 8.13448 104.874" stroke="black" stroke-opacity="0.99" stroke-width="3"/>
</svg>
