<svg width="425.879883" height="312.870911" viewBox="0 0 425.88 312.871" fill="none" xmlns="http://www.w3.org/2000/svg" xmlns:xlink="http://www.w3.org/1999/xlink">
	<desc>
			Created with Pixso.
	</desc>
	<defs/>
	<path id="Vector 1174" d="M22.62 151.26C22.62 135.94 22.07 119.08 33.08 106.96C48.3 90.22 66.13 82.19 88.57 88.92C94.81 90.8 100.73 94.14 106.46 97C112.09 99.82 109.38 88.6 109.71 85.03C110.58 75.41 119.29 67.08 124.21 59.34C129.75 50.63 141.33 44.23 150.55 40.36C172.81 31.03 195.21 35.41 214.55 48.08C216.75 49.53 217.19 49.83 217.43 47.36C217.92 42.46 223.88 39.04 226.96 35.96C236.03 26.89 242.45 17.76 253.73 11C261.95 6.06 269.08 4.08 278.55 3.13C290.12 1.98 304.75 -0.38 316.14 3.21C331.24 7.96 336.92 16.82 336.92 31.78" stroke="#E2901D" stroke-opacity="1.000000" stroke-width="3.000000" stroke-linecap="round"/>
	<path id="Vector 1175" d="M339.52 29.18C341.83 17.61 365.48 15.67 374.29 18.5C387.51 22.75 399.03 36.21 403.44 48.95C405.71 55.49 405.25 65.52 403.15 72.04C402.23 74.94 388.83 98.65 389.16 99.02C389.97 99.94 394.13 99.47 395.43 100.04C399.04 101.61 403.18 103.34 406.04 106.1C412.42 112.24 417.05 118.43 420.69 126.52C429.68 146.5 420.8 177.93 401.86 189.5C399.43 190.99 395.66 192.67 392.77 192.82C388.04 193.07 388.03 193.08 391.61 198.09C397.42 206.22 397.96 211.08 397.96 220.75C397.96 230.37 385.41 240.82 378.41 246.07C369.04 253.1 356.02 259.47 344.13 260.29C334.43 260.96 322.26 261.98 313.61 257.11C309.49 254.79 303.59 247.37 299.25 247.37" stroke="#E2901D" stroke-opacity="1.000000" stroke-width="3.000000" stroke-linecap="round"/>
	<path id="Vector 1176" d="M299.25 247.37C298.89 250.27 292.1 254.52 290.16 256.46C284.02 262.6 273.52 267.32 265.49 270.46C255.04 274.55 243.78 278.83 233.59 273.27C226.06 269.16 226.78 263.94 221.62 258.77C216.8 253.96 214.83 245.57 214.83 257.18C214.83 285.66 175.12 305.28 150.04 297.3C144.98 295.69 139.86 289.59 136.91 285.32C133.9 280.98 133.43 279.76 130.56 283.3C121.87 294.04 108.41 309.17 93.4 310.94C77.74 312.78 62.51 308.08 49.96 298.67C41.38 292.23 42.1 280.59 42.1 271.04C42.1 268.43 43.33 263.35 39.93 263.03C32.09 262.28 26.78 261.26 20.6 255.67C9.22 245.38 5.18 235.3 8.04 220.1C9.15 214.22 12.55 208.09 16.77 203.86C18.77 201.87 22.24 200.77 23.92 198.67C24.25 198.26 16.4 194.66 14.54 192.25C9.66 185.93 5.95 180.59 2.85 173.34C-2.76 160.25 10.19 143.1 23.92 149.97" stroke="#E2901D" stroke-opacity="1.000000" stroke-width="3.000000" stroke-linecap="round"/>
</svg>
