<svg width="183" height="58" viewBox="0 0 183 58" fill="none" xmlns="http://www.w3.org/2000/svg">
<path d="M1.50391 14.2136C4.68391 8.80761 17.5715 7.52774 21.3979 12.5314C23.0172 14.649 23.2263 17.0689 23.2263 19.6259C23.2263 23.8217 20.2389 25.3137 17.9237 28.4393C14.1585 33.5223 9.53908 38.2319 6.4774 43.7986C5.90478 44.8397 2.68277 50.3839 4.86832 49.7594C13.3259 47.343 24.2754 49.1012 33.1002 49.1012" stroke="#E21D20" stroke-width="3" stroke-linecap="round"/>
<path d="M57.4595 17.5049C53.4417 17.9514 53.4235 24.8562 52.5225 27.3788C51.1254 31.2908 53.8465 34.8776 56.1429 37.7646C59.6369 42.157 64.8261 42.5187 70.0029 42.5187C73.119 42.5187 78.4286 37.6503 79.511 34.6196C81.3907 29.3564 79.3121 17.26 73.2576 15.5302C70.2204 14.6624 66.5664 14.4777 63.3838 15.0182C59.7152 15.6412 51.5352 15.9186 51.5352 20.7962" stroke="#E21D20" stroke-width="3" stroke-linecap="round"/>
<path d="M102.22 16.1887C102.22 10.1894 103.724 6.59036 109.461 3.8281C111.338 2.92415 113.862 2.57963 115.678 3.53554C122.068 6.89884 124.231 21.0951 120.651 26.9768C117.213 32.6258 111.63 37.375 106.864 41.8607C105.946 42.7246 99.0053 49.0185 99.6968 50.7471C100.131 51.8324 106.116 52.256 106.974 52.3927C111.323 53.0855 115.644 53.9982 119.993 54.6601C122.178 54.9926 131.572 54.4861 132.5 56.3423" stroke="#E21D20" stroke-width="3" stroke-linecap="round"/>
<path d="M160.803 4.33984C160.803 10.0935 160.803 15.8471 160.803 21.6008C160.803 24.429 159.957 28.7631 161.315 31.3283C162.387 33.352 172.017 31.775 174.627 32.6448" stroke="#E21D20" stroke-width="3" stroke-linecap="round"/>
<path d="M179.236 1.70703C179.236 11.1908 179.236 20.6746 179.236 30.1583C179.236 35.1717 178.976 42.6569 181.211 47.1267" stroke="#E21D20" stroke-width="3" stroke-linecap="round"/>
</svg>
