<svg width="185" height="128" viewBox="0 0 185 128" fill="none" xmlns="http://www.w3.org/2000/svg">
<path d="M1.58984 100.478C1.58984 96.9853 2.01429 107.497 2.9064 110.875C4.25257 115.971 5.62679 121.121 6.90147 126.219" stroke="black" stroke-opacity="0.99" stroke-width="3" stroke-linecap="round"/>
<path d="M1.99805 99.2526C2.00743 99.2292 5.46976 102.913 5.76612 103.248C8.77064 106.642 12.0112 110.114 14.4372 113.962C15.7339 116.019 17.6939 117.978 18.7501 120.091" stroke="black" stroke-opacity="0.99" stroke-width="3" stroke-linecap="round"/>
<path d="M4.4502 116.005C7.17376 114.571 9.5101 113.145 12.6219 113.145" stroke="black" stroke-opacity="0.99" stroke-width="3" stroke-linecap="round"/>
<path d="M14.665 93.5324C14.665 94.4999 14.8893 95.0421 15.3687 95.9385C17.4674 99.8622 19.6239 103.76 21.5656 107.765C22.4916 109.675 23.2729 111.697 24.4711 113.462C24.6538 113.732 25.2883 114.803 25.2883 114.37" stroke="black" stroke-opacity="0.99" stroke-width="3" stroke-linecap="round"/>
<path d="M20.3848 102.93C20.3848 100.81 26.7834 99.3144 27.7393 101.704" stroke="black" stroke-opacity="0.99" stroke-width="3" stroke-linecap="round"/>
<path d="M27.3311 92.7152C27.3311 94.2818 28.1327 95.8433 28.7838 97.2324C29.9945 99.8152 31.0827 102.493 32.4384 104.996C33.1841 106.372 34.0608 109.972 35.5028 110.693" stroke="black" stroke-opacity="0.99" stroke-width="3" stroke-linecap="round"/>
<path d="M35.9111 91.8981C36.0433 93.088 37.0692 94.5618 37.5682 95.5981C38.7992 98.1548 39.9461 100.672 41.0185 103.293C41.3145 104.017 42.2488 106.303 42.8571 106.607" stroke="black" stroke-opacity="0.99" stroke-width="3" stroke-linecap="round"/>
<path d="M34.2764 87.8122C36.6594 87.5739 39.3509 85.2486 41.6309 84.3619C42.7554 83.9246 43.8007 83.2754 44.8996 82.9091" stroke="black" stroke-opacity="0.99" stroke-width="3" stroke-linecap="round"/>
<path d="M50.6201 81.2748C50.6201 86.8605 51.0287 103.613 51.0287 98.0268" stroke="black" stroke-opacity="0.99" stroke-width="3" stroke-linecap="round"/>
<path d="M51.8457 79.6404C52.6177 79.7369 53.9129 81.0145 54.5242 81.4791C56.4124 82.9141 58.2108 84.1637 59.9947 85.7692C61.2943 86.9389 63.1135 88.3568 64.0125 89.8551C64.1492 90.0829 64.9205 91.2273 64.9205 90.6723" stroke="black" stroke-opacity="0.99" stroke-width="3" stroke-linecap="round"/>
<path d="M64.5127 73.9202C64.5127 72.752 65.028 76.2162 65.5115 77.2797C66.5785 79.6273 68.4319 82.961 70.1421 84.8613C71.0763 85.8992 71.0501 85.4685 71.0501 84.3619C71.0501 79.995 71.6435 75.6476 72.2758 71.3325C72.4336 70.2562 72.0478 65.3409 72.7752 64.6135C73.1904 64.1984 76.5223 69.5744 76.7703 69.9252C79.1442 73.2825 82.145 76.8144 84.0341 80.4576C84.5714 81.494 85.4038 82.6601 85.7592 83.7263" stroke="black" stroke-opacity="0.99" stroke-width="3" stroke-linecap="round"/>
<path d="M86.9844 61.254C86.9844 62.8518 87.7039 63.8287 88.4825 65.2491C90.1269 68.249 91.2709 71.4879 92.8862 74.4877C93.4511 75.5369 93.1023 73.7376 93.1359 73.2165C93.4474 68.3871 94.4355 63.5811 95.1561 58.8025C95.2925 57.8981 95.3172 54.7372 96.0641 53.9903C96.3258 53.7286 96.4496 54.4142 96.4727 54.4897C96.8823 55.8304 97.5549 57.0687 98.2886 58.2577C100.77 62.28 103.877 66.5789 105.371 71.0601" stroke="black" stroke-opacity="0.99" stroke-width="3" stroke-linecap="round"/>
<path d="M82.8984 48.1792C83.5928 48.1792 85.1318 48.4571 85.7585 48.0884C86.569 47.6117 86.1876 46.1261 86.9843 45.7277" stroke="black" stroke-opacity="0.99" stroke-width="3" stroke-linecap="round"/>
<path d="M115.994 48.5879C109.624 42.5925 107.414 56.1758 107.414 59.8013C107.414 63.0601 110.219 66.9468 113.134 68.4043C116.536 70.105 120.916 67.3644 123.349 64.9313" stroke="black" stroke-opacity="0.99" stroke-width="3" stroke-linecap="round"/>
<path d="M124.574 42.459C129.215 46.6779 134.403 52.7431 136.423 58.8025" stroke="black" stroke-opacity="0.99" stroke-width="3" stroke-linecap="round"/>
<path d="M136.423 38.7818C136.423 40.6011 132.208 49.0164 133.836 49.4505C136.834 50.2499 139.343 51.9912 142.121 53.2412C143.069 53.6677 143.717 53.7775 144.187 54.7167" stroke="black" stroke-opacity="0.99" stroke-width="3" stroke-linecap="round"/>
<path d="M145.412 35.5131C143.964 34.3064 147.501 38.6539 148.454 40.2799C150.052 43.0059 151.944 45.9394 153.084 48.9057C153.366 49.6381 153.237 46.9987 153.266 46.6811C153.646 42.5808 154.36 38.4148 155.037 34.3554C155.273 32.9358 155.478 31.3792 156.013 30.0426C156.049 29.9512 157.448 31.616 157.533 31.7223C161.392 36.5076 164.709 43.1475 166.659 48.9965" stroke="black" stroke-opacity="0.99" stroke-width="3" stroke-linecap="round"/>
<path d="M168.293 26.9328C168.293 29.6478 169.126 32.3752 169.837 34.9683C170.35 36.8444 170.912 38.7183 171.562 40.5523C171.593 40.6402 172.547 43.1693 172.583 43.14C172.988 42.816 172.794 41.3126 172.833 40.8928C173.062 38.4256 173.655 35.9924 173.99 33.5383C174.692 28.4077 174.642 23.1535 175.965 18.1255C176.275 16.949 176.929 17.0246 177.282 18.2163C179.046 24.1791 180.482 30.3245 181.572 36.4438C181.969 38.6735 182.415 41.6944 183.411 43.6848" stroke="black" stroke-opacity="0.99" stroke-width="3" stroke-linecap="round"/>
<path d="M165.842 13.858C168.241 13.858 170.094 13.5221 171.063 10.9071C171.59 9.48244 172.072 7.96734 170.541 7.11632C169.148 6.34282 171.227 9.53427 171.766 9.95373C173.599 11.3791 174.915 2.46578 175.239 1.6004" stroke="black" stroke-opacity="0.99" stroke-width="3" stroke-linecap="round"/>
</svg>
