<svg width="160" height="163" viewBox="0 0 160 163" fill="none" xmlns="http://www.w3.org/2000/svg">
<path d="M69.9779 28.347C69.0107 20.6092 44.5652 31.4977 41.2624 33.7843C31.1861 40.7601 29.9356 56.1112 27.3294 66.9176C25.7273 73.5605 27.1524 81.886 24.4408 87.9869C15.4266 108.269 43.9012 128.404 57.7441 135.733C66.5134 140.375 85.5991 140.748 94.4455 136.922C108.122 131.008 118.623 126.929 126.559 114.324C135.578 100.001 142.019 76.2958 130.297 61.2254C120.936 49.1892 107.263 32.9347 90.5375 32.9347C74.2976 32.9347 50.3533 40.2444 53.2413 60.4608C54.4651 69.0271 61.3551 81.9746 67.769 87.2223C74.5845 92.7986 86.4795 95.9472 94.9553 97.0773C99.5997 97.6966 101.783 93.517 104.301 90.2808C106.868 86.9799 76.3225 64.565 66.9194 81.0204C65.4591 83.5761 64.5405 86.9245 65.4752 90.1958C67.3929 96.9078 80.9033 101.75 86.7994 101.75" stroke="#E2901D" stroke-width="44" stroke-linecap="round"/>
<path d="M65.2666 91.2156C74.1795 91.2156 82.8176 87.8756 91.4517 85.9133C93.3393 85.4843 96.2395 84.4645 97.7329 83.303C97.8452 83.2156 97.5697 86.5219 97.5697 87.5448C97.5697 95.1311 97.5697 102.717 97.5697 110.304C97.5697 113.846 99.4236 130.126 103.443 130.126" stroke="black" stroke-opacity="0.99" stroke-width="3" stroke-linecap="round"/>
<path d="M88.0254 113.974C93.8044 113.974 99.3937 111.084 104.748 109.243C106.909 108.5 109.298 106.633 111.519 106.633" stroke="black" stroke-opacity="0.99" stroke-width="3" stroke-linecap="round"/>
<path d="M24.3323 19.8673C19.1746 25.0249 16.4146 30.983 13.2917 37.4022C11.1811 41.7409 8.88361 46.0041 7.84364 50.788C6.59601 56.5271 6.81569 62.5249 5.67883 68.3229C5.12512 71.1468 3.71048 74.1316 3.55011 77.0182C3.46087 78.6246 2.62072 80.1777 2.57594 81.7447C2.48745 84.8421 2.57594 87.9547 2.57594 91.0534C2.57594 98.1464 1.66984 106.829 5.49843 113.134C7.80221 116.929 9.84124 121.145 12.1372 125.005C13.4577 127.225 15.1126 128.789 16.5389 130.85C18.5598 133.769 21.8255 136.274 24.3323 138.715C27.2399 141.546 30.173 143.604 33.4966 145.859C37.3132 148.449 41.2681 150.125 45.4391 152.101C47.5334 153.093 49.5833 153.898 51.6088 155.023C54.1592 156.44 56.6529 158.485 59.4743 159.425C62.2476 160.35 65.2644 160.472 68.1696 160.472C70.6076 160.472 72.8799 160.796 75.3135 160.796" stroke="black" stroke-opacity="0.99" stroke-width="3" stroke-linecap="round"/>
<path d="M75.3135 160.796C77.5865 160.796 79.8596 160.796 82.1326 160.796C84.8431 160.796 87.4599 160.147 90.1063 160.147C96.9445 160.147 102.532 156.082 109.084 154.626C111.791 154.025 115.356 153.225 117.365 151.217C119.58 149.002 122.37 147.384 124.996 145.697C125.446 145.407 126.143 145.169 126.439 144.704C126.993 143.834 127.406 143.91 128.243 143.225C130.535 141.35 132.975 139.179 135.062 137.092C137.222 134.932 139.093 132.517 140.745 129.948C141.98 128.026 143.704 126.483 144.732 124.427C145.301 123.288 146.083 122.314 146.68 121.18C147.523 119.579 147.761 117.828 148.376 115.949C149.384 112.863 150.854 110.029 151.875 106.965C153.219 102.933 155.487 98.9534 156.566 94.8778C157.203 92.4718 158.349 89.9933 158.442 87.4813C158.544 84.7357 158.442 81.967 158.442 79.219C158.442 76.7114 158.588 73.8272 157.54 71.4979C156.603 69.4161 156.431 66.5336 155.195 64.6787" stroke="black" stroke-opacity="0.99" stroke-width="3" stroke-linecap="round"/>
<path d="M155.195 64.6788C155.195 61.0923 152.265 58.9506 150.577 55.9113C149.117 53.2837 148.028 49.682 145.959 47.6129C144.191 45.8454 143.536 43.1601 141.882 41.2988C139.828 38.9889 137.729 36.8216 135.549 34.6421C134.109 33.2016 132.261 32.4066 130.841 30.9078C129.892 29.906 128.593 28.01 127.413 27.3358C124.813 25.8499 122.707 23.5631 120.125 22.0681C118.727 21.2585 117.32 20.5115 115.886 19.7049C114.651 19.0101 112.71 18.6741 111.682 17.7746C110.72 16.9324 109.047 15.869 107.858 15.3933C106.855 14.9922 104.685 13.6663 104.214 12.7234" stroke="black" stroke-opacity="0.99" stroke-width="3" stroke-linecap="round"/>
<path d="M22.3838 22.1404C24.3829 18.3643 28.4849 16.6554 31.6383 14.2028C33.1442 13.0315 34.8595 11.8725 36.419 10.7751C37.5418 9.98501 38.5527 8.79627 39.594 7.8707C40.3808 7.17137 41.1845 7.26236 42.1196 6.95065C45.4381 5.84448 49.1349 4.79132 52.5828 4.29876C55.1238 3.93577 57.4987 2.92272 60.0514 2.63908C62.0682 2.41499 64.0068 2.3324 66.0588 2.3324C69.3288 2.3324 72.4511 2.81411 75.638 2.98184C77.0641 3.0569 77.331 3.63128 78.777 3.63128C81.2581 3.63128 84.5243 3.39826 86.8229 4.44308C90.4866 6.1084 94.6813 6.4422 98.3685 8.17738C100.327 9.09898 102.313 9.93616 103.889 11.4246C104.691 12.1823 106.399 12.8723 106.811 13.6976" stroke="black" stroke-opacity="0.99" stroke-width="3" stroke-linecap="round"/>
<path d="M75.4093 5.84499C78.182 5.84499 80.7237 5.76306 83.3906 6.6116C85.8727 7.40138 88.3012 8.50009 90.6904 9.53326C92.2496 10.2075 93.9126 10.5961 95.4946 11.2113C96.4273 11.574 97.61 11.6364 98.4758 12.1312C98.9116 12.3802 98.2882 11.6312 98.0244 11.5094C96.9627 11.0194 96.0017 10.1929 94.8046 9.98471C93.971 9.83974 93.1878 9.38438 92.3429 9.20957C91.2161 8.97644 90.211 8.66479 89.0465 8.59628C88.2746 8.55088 80.3326 8.24921 80.3326 8.53666C80.3326 9.15132 84.4687 9.96318 84.9153 10.0869C86.721 10.5873 88.5061 11.1799 90.3327 11.6031C90.6092 11.6672 90.967 11.8246 91.2526 11.8246C91.9445 11.8246 89.9402 11.3687 89.2594 11.2454C87.703 10.9633 86.088 10.7751 84.5149 10.6065C83.8584 10.5362 83.2729 10.3799 82.6495 10.1721C82.349 10.0719 83.3933 10.138 83.4928 10.138C87.6888 10.138 91.6905 11.1462 95.7671 11.9438C97.0592 12.1966 98.3175 12.2846 99.6343 12.2846C99.9636 12.2846 100.293 12.2846 100.622 12.2846C100.781 12.2846 101.099 12.4436 101.099 12.2846C101.099 11.9714 99.1613 11.542 98.9869 11.4839C96.4318 10.6322 94.0301 9.49626 91.5422 8.48555C89.0119 7.45759 86.1285 7.36495 83.4843 6.88418C81.8517 6.58735 80.1418 6.68062 78.5098 6.33903C77.1005 6.04405 75.864 5.69166 74.4041 5.69166C73.8831 5.69166 71.4983 5.38739 71.2695 5.84499" stroke="#E2901D" stroke-width="3" stroke-linecap="round"/>
<path d="M47.395 28.9636C47.395 32.1827 47.2798 35.5404 50.6019 36.8323C52.5953 37.6075 54.2713 36.2642 54.3433 34.249C54.4209 32.076 54.4386 29.609 52.0569 28.8151C50.2603 28.2163 48.464 27.8261 48.464 30.2998" stroke="black" stroke-opacity="0.99" stroke-width="3" stroke-linecap="round"/>
<path d="M78.1268 25.2223C75.5936 25.2223 74.6526 27.7161 74.6526 29.9138C74.6526 31.9705 75.0575 34.0243 77.0578 35.1102C78.301 35.785 80.412 36.5003 81.7494 35.5853C82.6605 34.9619 84.4794 33.3936 84.5405 32.1705C84.5921 31.1402 84.857 29.3813 84.2733 28.4886C81.8464 24.7768 77.5925 25.5137 74.1182 27.093" stroke="black" stroke-opacity="0.99" stroke-width="3" stroke-linecap="round"/>
<path d="M65.0323 47.136C65.0323 49.5382 64.6301 51.1226 65.6855 53.5349C66.2604 54.849 67.6721 54.6208 68.9815 54.886C70.7321 55.2405 72.754 55.6706 73.8512 54.0249C74.7947 52.6096 75.8149 50.0015 73.4503 49.2739C72.3251 48.9277 66.3685 47.1522 66.3685 49.5412" stroke="black" stroke-opacity="0.99" stroke-width="3" stroke-linecap="round"/>
</svg>
