<svg width="139" height="146" viewBox="0 0 139 146" fill="none" xmlns="http://www.w3.org/2000/svg">
<path d="M8.1377 107.12C8.51749 103.702 13.1046 100.102 15.1609 97.4905C19.573 91.8859 24.9667 87.033 30.0037 81.996C35.1773 76.8224 41.7372 70.9451 48.5391 68.1668C52.1992 66.6719 55.5879 64.0352 59.6532 63.895C67.2131 63.6343 76.957 62.9352 83.7275 66.7187C87.223 68.6721 89.6973 73.9654 91.6919 77.2897C96.2844 84.9438 101.355 92.1111 104.58 100.459C106.85 106.335 111.096 124.497 111.096 118.198" stroke="#E21D20" stroke-width="3" stroke-linecap="round"/>
<path d="M75.9077 5.46484C75.9077 11.2992 73.1826 16.1405 72.1427 21.7558C70.8405 28.7879 69.1147 35.9121 67.5813 42.8977C63.519 61.4035 62.875 81.3468 62.875 100.242C62.875 109.836 65.0483 118.91 66.7486 128.262C67.735 133.687 68.2925 139.012 70.043 144.263" stroke="#E2901D" stroke-width="3" stroke-linecap="round"/>
<path d="M8.78906 55.6409C17.3677 55.6409 25.3845 52.9347 33.9133 52.3465C41.0485 51.8544 47.9078 51.0794 55.0914 51.0794C60.935 51.0794 66.8991 50.6284 72.6132 52.0569C78.8991 53.6284 86.4832 54.8343 92.1623 57.9578C101.296 62.9815 109.475 69.497 117.612 75.6968C120.299 77.744 124.406 82.5185 126.228 85.6161C126.953 86.8487 130.24 90.9883 130.645 90.1776" stroke="#E21D20" stroke-width="3" stroke-linecap="round"/>
<path d="M55.707 6.76807C55.707 9.65242 59.1704 12.1864 61.0649 14.0809C63.9272 16.9431 67.0666 20.7381 70.6947 22.5521C75.9336 25.1716 80.4742 25.6655 86.3339 25.6655C92.7745 25.6655 99.1279 19.9202 104.58 17.1942" stroke="#E21D20" stroke-width="3" stroke-linecap="round"/>
<path d="M14.2451 106.306C16.4747 108.535 24.7034 113.243 22.4144 111.075C21.4066 110.12 13.8272 108.458 13.9139 109.021C14.0763 110.077 18.3875 114.734 19.5662 114.21C20.1256 113.961 19.7261 112.587 19.5441 112.223C18.5401 110.215 15.812 107.796 13.6269 107.189C12.626 106.911 11.8458 107.229 12.5229 108.337C15.0736 112.511 18.2608 115.607 22.1936 118.228" stroke="#E2901D" stroke-width="3" stroke-linecap="round"/>
<path d="M40.0775 92.7933C39.2312 92.8991 39.68 95.5493 39.68 96.1051C39.68 103.083 39.79 109.546 42.3958 116.153C43.1302 118.015 44.7773 120.98 47.0103 121.386C48.5512 121.666 48.0329 116.577 48.026 115.844C48.0017 113.267 47.8625 109.879 45.3765 108.381C42.7895 106.822 40.209 106.703 37.2955 106.703C36.1063 106.703 34.906 106.683 33.7849 107.145C33.5546 107.24 31.3982 108.449 32.2615 108.911C33.7721 109.72 32.2186 106.926 31.1354 106.527C28.6549 105.613 24.5625 106.491 22.3921 107.697C21.4026 108.246 20.5193 108.598 19.7205 109.397C18.7205 110.397 21.5371 111.25 22.1934 111.87C24.508 114.056 27.3817 115.6 29.7444 117.831C31.962 119.925 34.6983 121.605 37.0747 123.55C40.1654 126.078 45.4829 127.438 49.1962 128.738C53.5792 130.272 67.5953 130.946 62.9515 130.946C56.417 130.946 50.7799 130.818 44.8466 127.767C44.3292 127.501 42.1615 125.798 43.8972 127.148C44.7625 127.821 46.3181 127.786 47.3194 128.164C48.8132 128.728 50.2738 129.465 51.8015 129.93C56.9563 131.499 61.6916 132.138 67.1465 132.138C69.8397 132.138 73.2706 132.151 75.934 132.624C77.3622 132.878 78.2682 132.741 79.7758 132.403C82.5474 131.782 86.5888 131.457 88.9607 129.732C90.3472 128.723 91.8443 127.668 93.4207 126.972C96.0493 125.81 98.541 123.838 101.082 122.401C103.225 121.19 104.909 119.412 106.845 117.919C108.917 116.321 111.202 115.192 113.182 113.459C115.655 111.295 117.683 108.027 119.54 105.334C122.89 100.478 125.091 94.9318 126.937 89.3931C128.503 84.695 129.57 79.9257 128.615 75.0416C127.621 69.9617 127.094 64.8246 126.716 59.7187C126.418 55.69 123.958 51.9757 122.521 48.2817C120.842 43.9633 118.027 40.3634 115.787 36.381C114.452 34.0088 112.928 32.0159 111.393 29.7794C109.019 26.3203 105.743 24.0817 102.782 21.1685C99.4151 17.8557 96.3665 15.7232 91.7868 14.7214C87.8307 13.856 83.8153 12.2011 79.7316 12.116C68.4424 11.8809 57.2117 13.1085 46.2376 15.4942C39.3526 16.9909 32.1894 20.2355 28.1547 26.5117C25.7882 30.1929 23.465 33.6887 22.2817 37.9487C20.5617 44.1405 18.8943 50.2356 18.2191 56.6497C17.4493 63.9626 16.6294 71.0717 16.6294 78.4418C16.6294 82.9636 14.6522 88.2306 16.1437 92.705C17.5918 97.0494 18.0208 101.548 21.3985 105.113C23.1048 106.914 25.3041 108.257 27.5586 109.264C32.9573 111.677 38.937 112.096 44.7583 112.488C48.818 112.761 53.0042 113.01 55.1355 108.911C57.7852 103.815 57.9174 96.3803 57.9174 90.7841C57.9174 80.4711 55.3491 70.1801 50.5872 61.0434C48.0414 56.1589 45.6082 53.5816 40.0333 53.1391C38.4387 53.0126 36.6196 52.8751 35.0434 53.2274C33.2228 53.6344 33.7187 55.7886 33.7187 57.2017C33.7187 65.7427 36.2968 73.5648 41.8438 80.2523C42.8315 81.4431 45.6413 84.8885 45.2661 83.3876C44.7219 81.2108 42.021 80.2083 40.0554 79.1263C37.4967 77.7177 34.459 76.0116 31.577 78.0223C28.5075 80.1638 28.4986 86.2341 28.3314 89.4372C28.0812 94.2272 28.3496 99.2753 29.9652 103.833C31.1486 107.171 33.348 108.485 36.5669 109.794C44.9782 113.216 52.2107 110.19 59.5513 105.908" stroke="#E2901D" stroke-width="17" stroke-linecap="round"/>
<path d="M48.0262 65.371C42.4803 71.5007 41.039 82.3141 46.2378 89.106C48.9008 92.5852 52.3399 95.8929 56.0188 98.2689C61.462 101.784 68.0433 102.223 74.3445 101.581C80.3562 100.968 84.8615 99.1939 88.8285 94.4713C94.9821 87.1455 98.7354 79.0741 99.3823 69.5439C99.7922 63.5038 100.343 56.4247 97.8367 50.7104C95.9625 46.4372 91.9304 43.475 87.7907 41.6138C79.048 37.6829 67.2846 36.6643 59.2424 42.7619C47.8812 51.376 46.0216 67.5576 47.0989 80.7822C47.9242 90.9138 52.7628 100.629 62.0906 105.356C68.4352 108.572 75.8531 109.285 82.8671 109.397C90.4836 109.518 98.3377 107.789 104.615 103.281C116.886 94.4677 117.616 73.3882 111.747 60.7785C106.225 48.9168 93.7554 42.2536 81.2774 40.6644C66.4567 38.7769 52.6317 43.8062 43.6103 56.0094C35.5869 66.8628 32.0585 82.4732 36.1034 95.6194C37.4278 99.9236 39.267 104.654 43.0363 107.41C48.5984 111.477 55.6017 113.432 62.4218 112.355C79.2124 109.704 91.2695 91.62 93.5092 75.7923C95.3981 62.4445 90.2911 50.8854 79.8643 42.4086C72.2257 36.1986 59.6974 30.6613 49.7925 34.8134C42.5246 37.8601 38.6337 46.1921 37.7594 53.5145C36.5802 63.3899 37.7379 73.4476 45.0676 80.9147C50.515 86.4643 57.455 90.196 65.0271 91.8659C72.2971 93.4692 81.8868 94.7052 88.8505 91.2698C103.177 84.2019 104.551 64.2015 103.092 50.3351C101.846 38.4976 94.3505 28.8028 83.3087 24.1271C72.4761 19.54 59.1023 24.0665 51.6913 32.6497C45.6848 39.6062 42.1973 49.7677 42.1973 58.9459C42.1973 71.7285 50.1282 83.7272 60.2801 91.0711C70.0475 98.1369 82.2915 99.8 92.2286 92.0426C102.435 84.0747 102.937 67.7509 99.4044 56.2964C95.5025 43.645 85.7763 32.4483 72.799 28.8962C60.1854 25.4437 45.7885 25.4047 35.3527 34.2835C28.2337 40.3404 25.1357 46.8914 24.9976 56.0756C24.8508 65.8409 27.2021 76.1206 34.6241 83.0343C37.3483 85.5718 40.7825 85.8751 44.4052 85.7942C51.217 85.642 56.099 82.6628 60.0814 77.2054C67.7832 66.6511 68.9885 51.0215 61.5386 40.0241C55.9802 31.8188 45.1332 30.266 37.7373 37.0655C33.4267 41.0285 30.9014 46.1702 29.281 51.726C27.9458 56.3039 26.6968 58.643 30.8044 62.9423C33.7941 66.0714 37.4605 68.5721 41.27 70.6258C50.8907 75.8125 67.6504 81.7514 78.4071 83.8733C82.1604 84.6137 91.3273 86.596 94.7898 81.7095C95.2164 81.1076 95.6042 73.6447 95.6288 72.9662C95.8292 67.4423 95.913 61.9702 93.7963 56.7822C91.3949 50.8965 84.8076 42.146 77.546 47.4427C67.2806 54.9304 66.9617 72.6073 66.7935 83.9616C66.6549 93.313 68.9212 104.633 80.0851 105.643C90.8681 106.619 96.123 94.7099 97.5718 85.9267C98.9325 77.6774 99.1029 65.3737 87.7687 65.9009C79.6378 66.279 73.8292 74.9757 71.3418 81.842C69.4846 86.9687 66.6927 97.7592 71.9379 101.978C79.2006 107.82 84.34 92.3199 85.3841 87.7151C86.6559 82.1062 87.3324 75.9604 86.8855 70.2063C86.7007 67.827 85.9826 65.2712 83.3087 64.7527C77.9415 63.7122 74.2999 70.7198 73.373 74.9092C72.1744 80.3269 71.1898 91.9049 79.511 92.0205C89.2352 92.1556 90.858 74.9311 90.6831 68.2854C90.5214 62.1416 86.1892 48.4623 77.4356 50.5338C74.5681 51.2124 72.3676 53.981 70.9443 56.3627C66.4107 63.949 65.1683 73.4869 64.0777 82.0628C63.1286 89.5263 62.5093 97.1191 62.7971 104.65C62.9259 108.02 63.0952 112.196 65.1154 115.093C66.1967 116.644 68.2423 116.42 68.8689 114.63C69.775 112.041 65.6701 110.002 63.6803 109.706C57.9951 108.859 56.5542 113.296 56.7695 118.14C56.881 120.649 61.1341 121.263 62.9738 121.584C66.4171 122.186 71.4546 123.259 74.477 120.966C76.6467 119.32 78.4024 117.116 80.3059 115.182C82.0833 113.376 83.791 111.58 84.9646 109.331C85.3631 108.567 85.9454 107.905 85.4724 107.101C85.0247 106.339 83.6113 106.686 83.0879 107.189C80.0762 110.085 86.612 112.829 88.5193 114.055C90.2889 115.193 91.8621 114.082 93.73 113.459" stroke="#E2901D" stroke-width="17" stroke-linecap="round"/>
<path d="M100.486 113.459C94.8196 120.903 85.1941 126.319 76.0665 128.164C69.8704 129.416 62.2639 130.419 55.9965 128.76C52.3761 127.802 49.1045 125.545 45.4206 124.808C42.9176 124.307 40.2006 124.255 37.7812 123.395C34.9417 122.385 31.9041 121.838 29.1483 120.613C27.3919 119.832 25.0082 117.89 24.0921 116.241C23.6221 115.395 22.6149 114.621 21.7959 114.166C20.5261 113.46 19.7016 111.982 18.8152 110.898C17.1861 108.907 16.028 106.37 15.0397 104.009C14.288 102.214 12.6302 100.729 12.2356 98.9534C12.0039 97.9106 11.4629 97.7639 11.4629 96.5688C11.4629 95.1868 11.0654 93.9335 11.0654 92.5725C11.0654 89.4667 11.0654 86.3609 11.0654 83.2551C11.0654 79.587 11.4629 75.936 11.4629 72.3259C11.4629 68.5552 11.9559 64.2345 13.0526 60.6019C14.2717 56.5633 14.7765 52.3008 16.0553 48.2817C17.3602 44.1808 19.3393 39.9875 21.4868 36.2706C23.5608 32.6809 26.1864 29.5156 28.9495 26.4454C32.75 22.2227 37.4714 17.68 43.6543 17.68" stroke="#E2901D" stroke-width="17" stroke-linecap="round"/>
<path d="M24.975 92.7933C24.975 95.6843 24.4918 99.4991 25.0633 102.42C25.6215 105.273 27.6204 107.024 28.6401 109.573C30.2037 113.483 34.752 117.558 37.6042 120.525C38.5928 121.553 39.6618 122.707 40.4745 123.881C41.6446 125.571 43.2866 126.316 44.7579 127.678C47.5033 130.22 52.119 132.349 55.7754 132.911C58.9655 133.402 61.8568 133.728 65.1369 133.728C69.4362 133.728 73.4638 132.646 77.6337 131.719C79.071 131.399 80.4533 130.457 81.8067 129.93C83.6103 129.229 85.7594 128.604 87.3706 127.568C88.9896 126.527 90.94 125.886 92.7359 125.183C97.3021 123.397 101.231 119.384 104.857 116.241" stroke="#E2901D" stroke-width="17" stroke-linecap="round"/>
<path d="M68.6918 6.94952C66.5319 13.0798 64.2313 19.1945 62.3109 25.4077C61.9909 26.4431 61.9355 26.9715 61.9355 27.9468C61.9355 29.4261 61.9355 30.9054 61.9355 32.3847" stroke="#E21D20" stroke-width="3" stroke-linecap="round"/>
<path d="M61.9355 31.9873C61.9355 36.5577 61.9355 41.1281 61.9355 45.6985C61.9355 54.6712 63.8651 63.9852 64.9383 72.8779C66.7251 87.6825 68.6178 102.222 73.4167 116.374C76.096 124.275 78.0882 133.054 83.3965 139.689" stroke="#E21D20" stroke-width="3" stroke-linecap="round"/>
<path d="M25.7704 128.959C25.7704 126.664 25.2152 123.566 26.212 121.43C27.4194 118.843 29.144 116.227 30.959 114.033C32.9109 111.675 35.2665 109.697 37.2957 107.41C39.9042 104.469 42.5292 101.541 45.7299 99.2404C55.585 92.1571 66.8738 90.4087 78.8266 90.4087C88.0913 90.4087 98.0622 95.5511 105.277 100.963C108.564 103.427 111.608 106.145 114.396 109.088C115.302 110.044 115.574 111.363 116.383 112.267C116.966 112.918 117.991 113.874 116.781 112.664" stroke="#E21D20" stroke-width="3" stroke-linecap="round"/>
<path d="M17.8213 25.2311C18.5768 26.6582 20.248 28.1823 21.4864 29.2054C23.539 30.9009 25.5735 32.8634 27.7569 34.3719C31.4069 36.8937 34.6766 39.0165 38.7965 40.819C43.4383 42.8498 47.6173 44.8494 52.7063 45.5881C58.1836 46.3832 64.8737 46.5434 70.2814 45.6985C71.2935 45.5403 72.4212 45.5192 73.3724 45.1023C79.7668 42.3003 86.0994 38.9449 92.1397 35.4538C93.8373 34.4726 94.9381 32.9741 96.4893 31.8107C98.7006 30.1522 100.939 28.7621 102.671 26.6442C103.48 25.6563 104.79 23.4403 105.829 22.8466C107.4 21.9489 107.603 20.1008 108.832 18.8723" stroke="#E21D20" stroke-width="3" stroke-linecap="round"/>
<path d="M3.11656 92.3958C3.11656 90.4888 2.32171 88.6351 2.32171 86.6332C2.32171 84.6582 1.84948 82.0558 2.41003 80.164C3.06443 77.9554 3.30754 75.4033 3.49191 73.0987C3.75884 69.762 4.56919 66.464 5.192 63.163C5.89219 59.452 7.09081 56.3101 7.09081 52.4547C7.09081 50.6763 6.99217 48.865 7.09081 47.0894C7.19887 45.1443 8.49089 42.4398 9.07793 40.5319C9.9726 37.6243 11.1755 35.1543 12.4119 32.4068C14.3918 28.007 17.9512 23.5625 21.1994 20.0645C24.3459 16.676 28.3443 14.7475 32.1286 12.3148C37.2682 9.0107 44.1248 8.39354 49.7919 6.35338C54.6395 4.60826 59.6437 3.91252 64.6291 2.66616C67.1072 2.04663 70.5229 2.57784 73.0633 2.57784C76.301 2.57784 79.6192 2.18042 82.9106 2.18042C87.1627 2.18042 91.8567 3.22236 95.7165 5.05071C100.319 7.23081 104.157 10.3851 108.434 12.9992C110.345 14.1669 112.023 16.62 113.424 18.2761C115.593 20.84 118.528 23.922 119.937 26.9753C121.515 30.3933 124.153 33.9437 126.495 36.9551C127.713 38.5216 127.765 40.8186 129.1 42.3203C130.389 43.77 131.296 47.1941 131.794 49.0765C134.204 58.1817 136.651 68.0137 136.651 77.4924C136.651 82.0381 137.555 86.3985 136.453 91.0269C135.782 93.8424 134.703 96.6961 133.781 99.4612C133.248 101.059 132.159 102.499 131.86 104.142C130.623 110.946 124.628 117.843 118.767 121.099C117.576 121.76 116.488 123.792 114.992 123.792C113.542 123.792 112.7 125.45 111.614 126.089C108.47 127.938 106.063 131.364 102.87 133.242C95.7505 137.43 88.1536 140.8 80.0182 142.052C76.5748 142.582 73.2232 142.869 69.6631 142.869C65.9895 142.869 60.2334 143.292 56.9676 141.478C55.0303 140.402 52.2236 140.26 50.101 139.601C48.2211 139.018 46.1583 138.148 44.25 137.724C41.1165 137.028 37.8752 136.08 34.9105 134.832C33.3682 134.183 31.5476 132.914 29.9427 132.558C27.7238 132.065 25.1001 129.188 22.9878 128.076C22.4795 127.808 21.9927 127.164 21.6189 126.773C19.193 124.234 16.6553 121.793 14.2445 119.244C13.5469 118.507 12.9531 117.335 12.456 116.44C11.4484 114.626 10.9306 112.52 9.65199 110.876C7.36434 107.935 5.93586 104.418 5.47903 100.764C5.04601 97.2996 3.51399 93.4551 3.51399 90.0113" stroke="black" stroke-opacity="0.99" stroke-width="3" stroke-linecap="round"/>
</svg>
