<svg width="256" height="44" viewBox="0 0 256 44" fill="none" xmlns="http://www.w3.org/2000/svg">
<path d="M2.16459 2.54102C2.16459 10.3757 1.13971 19.9503 3.44449 27.4409C4.90331 32.182 4.21444 38.0564 6.35335 42.3342" stroke="#E21D20" stroke-width="3" stroke-linecap="round"/>
<path d="M2.16406 5.68233C2.76834 0.848091 18.9191 8.19166 18.9191 14.5834C18.9191 18.1677 19.7583 21.3902 15.2539 21.3902C13.3111 21.3902 5.76595 21.3902 11.5888 21.3902C17.6767 21.3902 30.6832 27.0776 28.2856 35.4691C26.7096 40.9851 10.1497 41.2868 5.30563 41.2868" stroke="#E21D20" stroke-width="3" stroke-linecap="round"/>
<path d="M41.957 22.4375H54.5233" stroke="#E21D20" stroke-width="3" stroke-linecap="round"/>
<path d="M120.774 5.16699C120.774 12.8769 120.232 18.3782 117.632 25.529C116.474 28.7133 114.535 32.1981 111.931 34.4301C110.478 35.6756 107.941 36.0685 107.16 37.6299" stroke="#E21D20" stroke-width="3" stroke-linecap="round"/>
<path d="M139.626 3.07275C139.626 10.6746 139.626 18.2764 139.626 25.8782C139.626 27.884 138.941 35.8781 137.531 36.5828" stroke="#E21D20" stroke-width="3" stroke-linecap="round"/>
<path d="M140.672 2.02558C140.672 1.09183 143.307 6.24834 143.813 7.26153C146.172 11.9781 148.944 15.8625 150.678 20.8168C152.499 26.0188 156.781 30.455 158.474 35.5356" stroke="#E21D20" stroke-width="3" stroke-linecap="round"/>
<path d="M142.766 26.1113H153.238" stroke="#E21D20" stroke-width="3" stroke-linecap="round"/>
<path d="M173.134 3.07275C173.134 9.57598 172.069 16.3949 173.366 22.7366C173.792 24.8158 174.657 33.6794 176.275 34.4884" stroke="#E21D20" stroke-width="3" stroke-linecap="round"/>
<path d="M173.133 3.07275H182.558" stroke="#E21D20" stroke-width="3" stroke-linecap="round"/>
<path d="M177.32 33.4414H194.075" stroke="#E21D20" stroke-width="3" stroke-linecap="round"/>
<path d="M238.059 3.07275V32.3941" stroke="#E21D20" stroke-width="3" stroke-linecap="round"/>
<path d="M43.293 41.3871C47.0161 41.3871 50.755 40.9043 54.3967 40.9043" stroke="#E21D20" stroke-width="3" stroke-linecap="round"/>
<path d="M202.387 2.89586C202.387 8.01349 206.857 12.6858 208.18 17.6472C209.169 21.3577 211.488 24.8546 212.525 28.4826C212.811 29.4841 214.939 35.0951 214.939 32.5862C214.939 27.1777 215.491 21.5594 218.318 16.7889C219.574 14.6699 219.657 11.5231 220.732 9.17186C221.739 6.96792 222.082 4.53993 223.146 2.41309" stroke="#E21D20" stroke-width="3" stroke-linecap="round"/>
<path d="M239.562 3.37891C239.839 6.14862 243.299 9.24349 244.632 11.6128C246.305 14.5883 247.332 17.8616 248.977 20.7854C250.048 22.6909 251.066 24.669 252.007 26.5519C252.603 27.7426 254.046 30.0668 254.046 31.3795" stroke="#E21D20" stroke-width="3" stroke-linecap="round"/>
<path d="M239.078 22.6897C237.476 22.6897 242.325 22.8369 243.879 22.4483C245.525 22.0369 247.52 21.7241 249.216 21.7241" stroke="#E21D20" stroke-width="3" stroke-linecap="round"/>
<path d="M173.902 21.2416C175.951 21.2416 185.201 22.3002 185.972 20.7588" stroke="#E21D20" stroke-width="3" stroke-linecap="round"/>
<path d="M102.938 7.24121C103.262 10.1572 108.638 14.18 110.394 16.4138C112.21 18.7257 115.501 22.2109 118.386 23.1726" stroke="#E21D20" stroke-width="3" stroke-linecap="round"/>
<path d="M42.7305 41.7848C42.7305 31.2022 42.7305 20.6196 42.7305 10.0369C42.7305 8.41537 42.7305 6.79384 42.7305 5.17231C42.7305 2.9824 43.5867 3.38008 45.5468 3.38008C48.6644 3.38008 51.3211 2.35596 54.5079 2.35596" stroke="#E21D20" stroke-width="3" stroke-linecap="round"/>
<path d="M69.3594 5.94043C69.3594 7.96242 69.6796 9.76896 70.2697 11.6869C70.8837 13.6823 70.4161 15.9037 71.0094 17.8317C72.6058 23.02 71.4076 29.9206 71.4076 35.3841C71.4076 39.7562 74.08 38.7125 77.8084 38.7125C80.6248 38.7125 89.0738 38.7125 86.2575 38.7125" stroke="#E21D20" stroke-width="3" stroke-linecap="round"/>
</svg>
