<svg width="56" height="142" viewBox="0 0 56 142" fill="none" xmlns="http://www.w3.org/2000/svg">
<path d="M2.44452 43.2353C2.95472 40.1741 7.07839 37.8154 9.31545 35.9904C15.6293 30.8396 21.3935 25.1855 27.1238 19.3974C30.6336 15.8521 39.1296 8.52502 39.4634 2.85105C39.7264 -1.62061 39.7024 11.8209 40.258 16.2657C41.7241 27.995 45.3213 39.6788 46.1941 51.4617C46.486 55.4019 48.2389 59.6176 48.9051 63.6144C49.4475 66.8687 52.695 70.2602 49.1388 71.8408C44.8182 73.761 41.9581 80.6652 41.1461 84.9283C40.6762 87.3951 38.8936 100.657 45.3528 94.5569C49.6708 90.4787 50.5572 87.3882 52.5041 81.9368C53.7385 78.4806 53.7661 67.3294 53.7661 70.9994" stroke="#E21D20" stroke-width="3" stroke-linecap="round"/>
<path d="M1.60315 43.2352C1.60315 47.9913 3.75339 54.0095 5.15547 58.5663C6.80033 63.9121 8.39177 69.307 9.82957 74.7387C11.5225 81.1342 14.7669 89.0359 15.0646 95.5852C15.4171 103.342 19.2712 111.173 19.2712 118.956" stroke="#E21D20" stroke-width="3" stroke-linecap="round"/>
<path d="M20.1126 119.797C14.9132 121.747 9.1752 122.97 9.1752 129.472C9.1752 131.738 8.33386 133.648 8.33386 135.782C8.33386 141.07 13.1208 139.989 17.1679 139.989C21.41 139.989 20.9539 134.282 20.9539 131.155C20.9539 126.964 22.6366 121.925 22.6366 117.273" stroke="#E21D20" stroke-width="3" stroke-linecap="round"/>
</svg>
