<svg width="71" height="119" viewBox="0 0 71 119" fill="none" xmlns="http://www.w3.org/2000/svg">
<path d="M1.50452 21.3556C1.50452 37.413 2.71642 52.8595 4.54744 68.7894C5.65305 78.4083 11.1703 106.753 11.1703 97.0708" stroke="#E21D20" stroke-width="3" stroke-linecap="round"/>
<path d="M3.00793 22.2687C16.0332 16.733 30.9804 16.6566 44.0465 11.1443C48.7336 9.167 53.2272 6.48334 57.5079 3.75926C61.396 1.28505 59.3776 1.86808 59.3776 4.60059C59.3776 11.097 58.6283 17.5088 58.5362 23.9514C58.3721 35.4382 58.9429 46.9581 59.3776 58.2593C59.587 63.7038 62.0151 68.704 63.7712 73.7773C64.7393 76.574 65.2145 77.5264 63.7712 78.8253C62.1085 80.3217 59.813 83.4075 58.7232 85.369C57.5151 87.5436 54.5895 97.8408 57.6949 99.4848C60.3552 100.893 64.591 91.3017 65.4539 89.5757C67.8765 84.7306 68.6323 81.4976 68.6323 76.1143" stroke="#E21D20" stroke-width="3" stroke-linecap="round"/>
<path d="M10.58 98.8305C5.92202 99.8656 4.73667 107.982 3.1949 111.451C0.269545 118.033 6.78555 117.63 10.393 114.162C12.7647 111.881 18.3189 100.176 13.9453 97.9891" stroke="#E21D20" stroke-width="3" stroke-linecap="round"/>
</svg>
