<svg width="490" height="358" viewBox="0 0 490 358" fill="none" xmlns="http://www.w3.org/2000/svg">
<path d="M124.31 107.325C119.492 109.292 115.756 112.778 111.129 114.667C105.672 116.894 100.338 120.052 94.6634 122.368C88.4604 124.9 82.5587 126.915 75.7668 126.65C65.9769 126.267 56.4243 130.443 46.9382 131.554C42.5807 132.064 38.1622 134.646 34.1134 136.298C29.3512 138.242 23.323 139.681 19.1085 142.641C12.4271 147.333 8.6131 154.545 5.34536 161.768C1.02308 171.321 1.51644 176.408 5.44111 186.022C8.82973 194.324 18.8292 196.479 26.8222 198.103C34.298 199.622 42.7304 197.492 49.658 194.664C54.1323 192.838 57.2425 190.637 61.082 187.822C64.7852 185.108 66.9983 181.158 70.4459 178.335C77.4627 172.591 80.9802 162.342 86.6178 155.502C93.6937 146.917 101.436 139.011 110.905 133.333C118.218 128.947 125.711 124.402 133.66 121.157C138.345 119.245 145.881 115.245 148.1 110.361C149.071 108.223 150.116 105.691 149.232 103.526C148.535 101.819 145.789 98.8559 143.64 99.435C135.807 101.546 129.597 104.517 122.132 109.195" stroke="black" stroke-width="3" stroke-linecap="round"/>
<path d="M90.4582 124.823C91.7305 127.94 92.7035 132.913 94.9211 135.497C96.5761 137.425 98.9778 138.555 101.212 139.494" stroke="black" stroke-width="3" stroke-linecap="round"/>
<path d="M85.4652 125.431C87.219 129.728 88.9727 134.024 90.7265 138.321C91.9253 141.258 92.3284 142.559 95.5857 143.22" stroke="black" stroke-width="3" stroke-linecap="round"/>
<path d="M88.88 126.457C90.929 131.476 92.3166 137.8 96.8881 140.896" stroke="#E21D20" stroke-width="3" stroke-linecap="round"/>
<path d="M223.338 215.813C218.387 217.417 214.403 220.617 209.649 222.157C204.042 223.974 198.489 226.728 192.658 228.618C186.284 230.683 180.25 232.256 173.496 231.488C163.762 230.381 153.926 233.838 144.384 234.243C140 234.429 135.403 236.676 131.242 238.024C126.349 239.61 120.231 240.599 115.809 243.238C108.798 247.422 104.46 254.332 100.667 261.292C95.6484 270.499 95.7636 275.608 98.9652 285.488C101.73 294.018 111.542 296.907 119.393 299.119C126.735 301.187 135.302 299.688 142.42 297.381C147.018 295.892 150.282 293.927 154.32 291.405C158.214 288.972 160.714 285.197 164.361 282.637C171.784 277.428 176.051 267.469 182.18 261.065C189.872 253.027 198.179 245.717 208.042 240.756C215.661 236.923 223.469 232.946 231.637 230.299C236.451 228.74 244.263 225.309 246.837 220.602C247.964 218.543 249.193 216.095 248.473 213.87C247.904 212.116 245.385 208.958 243.199 209.376C235.231 210.901 228.818 213.404 221.027 217.516" stroke="black" stroke-width="3" stroke-linecap="round"/>
<path d="M188.282 230.754C189.32 233.957 189.922 238.989 191.942 241.73C193.45 243.775 195.761 245.08 197.92 246.182" stroke="black" stroke-width="3" stroke-linecap="round"/>
<path d="M183.258 230.991C184.689 235.406 186.119 239.82 187.55 244.235C188.528 247.252 188.834 248.58 192.033 249.481" stroke="black" stroke-width="3" stroke-linecap="round"/>
<path d="M186.588 232.267C188.259 237.425 189.175 243.833 193.504 247.259" stroke="#E21D20" stroke-width="3" stroke-linecap="round"/>
<path d="M281.625 156.715C276.548 155.57 271.49 156.291 266.614 155.192C260.865 153.896 254.683 153.433 248.704 152.085C242.168 150.611 236.175 148.887 230.757 144.782C222.948 138.865 212.725 136.823 204.31 132.306C200.444 130.231 195.343 129.819 191.077 128.857C186.059 127.726 180.292 125.456 175.143 125.472C166.978 125.496 159.723 129.228 152.91 133.28C143.899 138.641 141.392 143.095 139.108 153.226C137.136 161.973 144.104 169.462 149.729 175.368C154.99 180.892 163.124 183.971 170.423 185.617C175.138 186.68 178.948 186.654 183.707 186.544C188.297 186.437 192.373 184.464 196.815 184.122C205.857 183.427 214.607 177.035 223.144 174.652C233.86 171.661 244.733 169.609 255.748 170.371C264.256 170.959 273.001 171.52 281.377 173.409C286.313 174.521 294.782 175.554 299.397 172.818C301.416 171.621 303.722 170.142 304.237 167.861C304.642 166.063 304.086 162.062 301.992 161.306C294.361 158.555 287.567 157.438 278.769 157.001" stroke="black" stroke-width="3" stroke-linecap="round"/>
<path d="M243.85 151.691C243.11 154.975 241.062 159.611 241.402 162.998C241.655 165.527 242.978 167.828 244.273 169.877" stroke="black" stroke-width="3" stroke-linecap="round"/>
<path d="M239.408 149.332C238.387 153.859 237.367 158.387 236.346 162.914C235.648 166.008 235.235 167.306 237.527 169.713" stroke="black" stroke-width="3" stroke-linecap="round"/>
<path d="M241.622 152.128C240.429 157.417 237.948 163.397 239.926 168.552" stroke="#E21D20" stroke-width="3" stroke-linecap="round"/>
<path d="M315.381 301.279C310.508 299.45 305.399 299.471 300.721 297.714C295.203 295.642 289.143 294.337 283.405 292.182C277.132 289.827 271.432 287.298 266.628 282.49C259.703 275.559 249.856 272.135 242.139 266.508C238.594 263.923 233.598 262.816 229.504 261.279C224.688 259.471 219.286 256.433 214.183 255.742C206.092 254.648 198.395 257.35 191.091 260.431C181.429 264.507 178.337 268.575 174.686 278.298C171.535 286.692 177.41 295.065 182.173 301.686C186.628 307.879 194.263 312.044 201.268 314.674C205.793 316.372 209.571 316.869 214.3 317.412C218.862 317.935 223.169 316.539 227.616 316.809C236.668 317.359 246.211 312.226 254.994 311.035C266.019 309.541 277.071 308.997 287.877 311.261C296.224 313.01 304.81 314.763 312.848 317.781C317.585 319.56 325.833 321.743 330.779 319.665C332.944 318.756 335.43 317.607 336.252 315.418C336.9 313.692 336.898 309.652 334.927 308.618C327.745 304.846 321.168 302.809 312.512 301.172" stroke="black" stroke-width="3" stroke-linecap="round"/>
<path d="M278.651 291.127C277.467 294.279 274.804 298.59 274.676 301.992C274.581 304.532 275.576 306.993 276.578 309.2" stroke="black" stroke-width="3" stroke-linecap="round"/>
<path d="M274.574 288.182C272.942 292.527 271.311 296.871 269.68 301.216C268.565 304.186 267.977 305.414 269.918 308.113" stroke="black" stroke-width="3" stroke-linecap="round"/>
<path d="M276.383 291.255C274.477 296.331 271.201 301.914 272.453 307.291" stroke="#E21D20" stroke-width="3" stroke-linecap="round"/>
<path d="M378.381 267.279C373.508 265.45 368.399 265.471 363.721 263.714C358.203 261.642 352.143 260.337 346.405 258.182C340.132 255.827 334.432 253.298 329.628 248.49C322.703 241.559 312.856 238.135 305.139 232.508C301.594 229.923 296.598 228.816 292.504 227.279C287.688 225.471 282.286 222.433 277.183 221.742C269.092 220.648 261.395 223.35 254.091 226.431C244.429 230.507 241.337 234.575 237.686 244.298C234.535 252.692 240.41 261.065 245.173 267.686C249.628 273.879 257.263 278.044 264.268 280.674C268.793 282.372 272.571 282.869 277.3 283.412C281.862 283.935 286.169 282.539 290.616 282.809C299.668 283.359 309.211 278.226 317.994 277.035C329.019 275.541 340.071 274.997 350.877 277.261C359.224 279.01 367.81 280.763 375.848 283.781C380.585 285.56 388.833 287.743 393.779 285.665C395.944 284.756 398.43 283.607 399.252 281.418C399.9 279.692 399.898 275.652 397.927 274.618C390.745 270.846 384.168 268.809 375.512 267.172" stroke="black" stroke-width="3" stroke-linecap="round"/>
<path d="M341.651 257.127C340.467 260.279 337.804 264.59 337.676 267.992C337.581 270.532 338.576 272.993 339.578 275.2" stroke="black" stroke-width="3" stroke-linecap="round"/>
<path d="M337.574 254.182C335.942 258.527 334.311 262.871 332.68 267.216C331.565 270.186 330.977 271.414 332.918 274.113" stroke="black" stroke-width="3" stroke-linecap="round"/>
<path d="M339.383 257.255C337.477 262.331 334.201 267.914 335.453 273.291" stroke="#E21D20" stroke-width="3" stroke-linecap="round"/>
<path d="M429.381 211.279C424.508 209.45 419.399 209.471 414.721 207.714C409.203 205.642 403.143 204.337 397.405 202.182C391.132 199.827 385.432 197.298 380.628 192.49C373.703 185.559 363.856 182.135 356.139 176.508C352.594 173.923 347.598 172.816 343.504 171.279C338.688 169.471 333.286 166.433 328.183 165.742C320.092 164.648 312.395 167.35 305.091 170.431C295.429 174.507 292.337 178.575 288.686 188.298C285.535 196.692 291.41 205.065 296.173 211.686C300.628 217.879 308.263 222.044 315.268 224.674C319.793 226.372 323.571 226.869 328.3 227.412C332.862 227.935 337.169 226.539 341.616 226.809C350.668 227.359 360.211 222.226 368.994 221.035C380.019 219.541 391.071 218.997 401.877 221.261C410.224 223.01 418.81 224.763 426.848 227.781C431.585 229.56 439.833 231.743 444.779 229.665C446.944 228.756 449.43 227.607 450.252 225.418C450.9 223.692 450.898 219.652 448.927 218.618C441.745 214.846 435.168 212.809 426.512 211.172" stroke="black" stroke-width="3" stroke-linecap="round"/>
<path d="M392.651 201.127C391.467 204.279 388.804 208.59 388.676 211.992C388.581 214.532 389.576 216.993 390.578 219.2" stroke="black" stroke-width="3" stroke-linecap="round"/>
<path d="M388.574 198.182C386.942 202.527 385.311 206.871 383.68 211.216C382.565 214.186 381.977 215.414 383.918 218.113" stroke="black" stroke-width="3" stroke-linecap="round"/>
<path d="M390.383 201.255C388.477 206.331 385.201 211.914 386.453 217.291" stroke="#E21D20" stroke-width="3" stroke-linecap="round"/>
<path d="M346.327 162.584C342.604 166.221 340.457 170.857 336.882 174.349C332.666 178.468 328.914 183.403 324.53 187.686C319.737 192.368 315.029 196.457 308.638 198.77C299.424 202.102 292.148 209.569 283.779 214.171C279.935 216.285 276.814 220.341 273.686 223.397C270.007 226.991 264.965 230.595 262.175 234.924C257.753 241.787 256.936 249.904 256.63 257.826C256.224 268.304 258.597 272.83 265.854 280.258C272.12 286.672 282.195 284.902 290.211 283.396C297.708 281.987 304.717 276.838 310.07 271.609C313.527 268.232 315.579 265.021 318.075 260.968C320.483 257.059 321.046 252.566 323.176 248.653C327.512 240.688 326.911 229.87 329.557 221.41C332.878 210.792 337.072 200.552 343.705 191.725C348.828 184.908 354.057 177.876 360.198 171.876C363.818 168.34 369.293 161.796 369.508 156.435C369.603 154.09 369.617 151.35 367.982 149.677C366.694 148.359 363.035 146.648 361.262 147.994C354.8 152.9 350.167 157.992 345.014 165.136" stroke="black" stroke-width="3" stroke-linecap="round"/>
<path d="M321.558 191.544C323.911 193.952 326.685 198.192 329.713 199.75C331.972 200.913 334.623 201.056 337.046 201.084" stroke="black" stroke-width="3" stroke-linecap="round"/>
<path d="M317.162 193.988C320.405 197.307 323.648 200.627 326.891 203.946C329.108 206.215 329.971 207.269 333.238 206.655" stroke="black" stroke-width="3" stroke-linecap="round"/>
<path d="M320.712 193.651C324.501 197.53 328.168 202.865 333.569 204.011" stroke="#E21D20" stroke-width="3" stroke-linecap="round"/>
<path d="M439.176 249.503C434.775 252.282 431.707 256.367 427.481 259.036C422.497 262.182 417.797 266.224 412.615 269.497C406.95 273.074 401.491 276.09 394.758 277.015C385.051 278.35 376.376 284.131 367.23 286.883C363.029 288.147 359.13 291.462 355.432 293.797C351.083 296.543 345.399 299.013 341.767 302.664C336.009 308.452 333.514 316.22 331.559 323.902C328.973 334.064 330.348 338.986 335.893 347.767C340.68 355.348 350.902 355.722 359.056 355.924C366.683 356.113 374.613 352.542 380.94 348.547C385.026 345.966 387.703 343.255 390.992 339.813C394.163 336.493 395.652 332.217 398.553 328.835C404.458 321.953 406.13 311.247 410.485 303.527C415.951 293.837 422.192 284.7 430.523 277.453C436.957 271.856 443.54 266.072 450.8 261.488C455.078 258.786 461.799 253.531 463.13 248.334C463.712 246.059 464.298 243.383 463.05 241.406C462.065 239.847 458.844 237.41 456.829 238.356C449.485 241.803 443.891 245.814 437.358 251.725" stroke="black" stroke-width="3" stroke-linecap="round"/>
<path d="M408.902 272.649C410.7 275.495 412.527 280.222 415.162 282.378C417.129 283.987 419.691 284.681 422.055 285.215" stroke="black" stroke-width="3" stroke-linecap="round"/>
<path d="M404.094 274.12C406.572 278.044 409.049 281.968 411.527 285.891C413.221 288.574 413.845 289.784 417.168 289.866" stroke="black" stroke-width="3" stroke-linecap="round"/>
<path d="M407.636 274.533C410.531 279.117 413.002 285.101 418.045 287.35" stroke="#E21D20" stroke-width="3" stroke-linecap="round"/>
<path d="M241.387 225.914C237.019 223.084 232.024 222.012 227.829 219.295C222.883 216.09 217.242 213.518 212.098 210.186C206.475 206.543 201.448 202.853 197.784 197.128C192.502 188.876 183.615 183.425 177.282 176.276C174.372 172.992 169.728 170.843 166.058 168.465C161.741 165.669 157.114 161.545 152.277 159.778C144.608 156.978 136.51 157.971 128.716 159.418C118.406 161.332 114.515 164.644 108.868 173.36C103.994 180.886 107.941 190.323 111.177 197.809C114.204 204.812 120.772 210.514 127.052 214.582C131.108 217.209 134.692 218.503 139.196 220.045C143.54 221.532 148.046 221.09 152.332 222.305C161.057 224.779 171.477 221.807 180.312 222.523C191.401 223.422 202.313 225.256 212.385 229.78C220.164 233.274 228.176 236.824 235.382 241.492C239.629 244.243 247.219 248.14 252.495 247.169C254.804 246.744 257.479 246.154 258.75 244.191C259.752 242.644 260.614 238.697 258.911 237.265C252.701 232.044 246.713 228.647 238.608 225.195" stroke="black" stroke-width="3" stroke-linecap="round"/>
<path d="M207.68 208.138C205.85 210.964 202.325 214.605 201.472 217.902C200.836 220.362 201.282 222.979 201.788 225.349" stroke="black" stroke-width="3" stroke-linecap="round"/>
<path d="M204.327 204.389C201.804 208.284 199.281 212.179 196.758 216.074C195.033 218.736 194.196 219.811 195.515 222.862" stroke="black" stroke-width="3" stroke-linecap="round"/>
<path d="M205.437 207.778C202.489 212.328 198.094 217.081 198.167 222.602" stroke="#E21D20" stroke-width="3" stroke-linecap="round"/>
<path d="M356.628 26.5095C356.628 31.7141 358.444 36.4897 358.444 41.4875C358.444 47.3813 359.352 53.5134 359.352 59.6426C359.352 66.3425 358.987 72.5681 356.175 78.7559C352.12 87.6752 352.377 98.0974 349.82 107.3C348.646 111.527 349.366 116.594 349.366 120.967C349.366 126.11 348.421 132.235 349.568 137.256C351.387 145.215 356.623 151.472 362.075 157.227C369.287 164.839 374.182 166.304 384.567 166.304C393.534 166.304 399.308 157.86 403.832 151.074C408.063 144.727 409.278 136.115 409.278 128.632C409.278 123.799 408.416 120.088 407.261 115.47C406.148 111.015 403.327 107.473 402.016 103.215C399.349 94.5475 391.19 87.4178 386.988 79.6133C381.713 69.8177 377.32 59.6622 375.641 48.7495C374.344 40.3204 372.968 31.6665 372.968 23.0801C372.968 18.0204 372.113 9.53134 368.429 5.63103C366.817 3.92425 364.867 2 362.529 2C360.685 2 356.905 3.42249 356.628 5.63103C355.622 13.681 356.027 20.5534 357.536 29.2327" stroke="black" stroke-width="3" stroke-linecap="round"/>
<path d="M360.035 64.4632C363.402 64.4632 368.374 65.4419 371.604 64.3652C374.015 63.5616 375.969 61.7652 377.683 60.0513" stroke="black" stroke-width="3" stroke-linecap="round"/>
<path d="M358.711 69.3161C363.352 69.3161 367.992 69.3161 372.633 69.3161C375.805 69.3161 377.162 69.4346 379.006 66.6689" stroke="black" stroke-width="3" stroke-linecap="round"/>
<path d="M435.628 26.5095C435.628 31.7141 437.444 36.4897 437.444 41.4875C437.444 47.3813 438.352 53.5134 438.352 59.6426C438.352 66.3425 437.987 72.5681 435.175 78.7559C431.12 87.6752 431.377 98.0974 428.82 107.3C427.646 111.527 428.366 116.594 428.366 120.967C428.366 126.11 427.421 132.235 428.568 137.256C430.387 145.215 435.623 151.472 441.075 157.227C448.287 164.839 453.182 166.304 463.567 166.304C472.534 166.304 478.308 157.86 482.832 151.074C487.063 144.727 488.278 136.115 488.278 128.632C488.278 123.799 487.416 120.088 486.261 115.47C485.148 111.015 482.327 107.473 481.016 103.215C478.349 94.5475 470.19 87.4178 465.988 79.6133C460.713 69.8177 456.32 59.6622 454.641 48.7495C453.344 40.3204 451.968 31.6665 451.968 23.0801C451.968 18.0204 451.113 9.53134 447.429 5.63103C445.817 3.92425 443.867 2 441.529 2C439.685 2 435.905 3.42249 435.628 5.63103C434.622 13.681 435.027 20.5534 436.536 29.2327" stroke="black" stroke-width="3" stroke-linecap="round"/>
<path d="M439.035 64.4632C442.402 64.4632 447.374 65.4419 450.604 64.3652C453.015 63.5616 454.969 61.7652 456.683 60.0513" stroke="black" stroke-width="3" stroke-linecap="round"/>
<path d="M437.711 69.3161C442.352 69.3161 446.992 69.3161 451.633 69.3161C454.805 69.3161 456.162 69.4346 458.006 66.6689" stroke="black" stroke-width="3" stroke-linecap="round"/>
<path d="M402.628 65.5095C402.628 70.7141 404.444 75.4897 404.444 80.4875C404.444 86.3813 405.352 92.5134 405.352 98.6426C405.352 105.342 404.987 111.568 402.175 117.756C398.12 126.675 398.377 137.097 395.82 146.3C394.646 150.527 395.366 155.594 395.366 159.967C395.366 165.11 394.421 171.235 395.568 176.256C397.387 184.215 402.623 190.472 408.075 196.227C415.287 203.839 420.182 205.304 430.567 205.304C439.534 205.304 445.308 196.86 449.832 190.074C454.063 183.727 455.278 175.115 455.278 167.632C455.278 162.799 454.416 159.088 453.261 154.47C452.148 150.015 449.327 146.473 448.016 142.215C445.349 133.547 437.19 126.418 432.988 118.613C427.713 108.818 423.32 98.6622 421.641 87.7495C420.344 79.3204 418.968 70.6665 418.968 62.0801C418.968 57.0204 418.113 48.5313 414.429 44.631C412.817 42.9242 410.867 41 408.529 41C406.685 41 402.905 42.4225 402.628 44.631C401.622 52.681 402.027 59.5534 403.536 68.2327" stroke="black" stroke-width="3" stroke-linecap="round"/>
<path d="M406.035 103.463C409.402 103.463 414.374 104.442 417.604 103.365C420.015 102.562 421.969 100.765 423.683 99.0513" stroke="black" stroke-width="3" stroke-linecap="round"/>
<path d="M404.711 108.316C409.352 108.316 413.992 108.316 418.633 108.316C421.805 108.316 423.162 108.435 425.006 105.669" stroke="black" stroke-width="3" stroke-linecap="round"/>
<path d="M440.104 66.5416C442.775 66.5416 445.453 66.5972 448.124 66.5416C449.097 66.5213 454.797 67.1742 455.288 65.454C455.459 64.8555 456.207 64.1876 456.498 63.6052" stroke="#E21D20" stroke-width="3" stroke-linecap="round"/>
<path d="M407.069 105.448C410.967 105.448 414.8 105.693 418.679 105.693C420.577 105.693 422.275 105.625 423.219 103.735" stroke="#E21D20" stroke-width="3" stroke-linecap="round"/>
<path d="M360.822 66.2969C364.896 66.2969 368.714 67.1259 372.758 67.2756C374.066 67.3241 374.832 67.9314 375.504 66.4192C375.878 65.5768 376.505 64.584 377.462 64.584" stroke="#E21D20" stroke-width="3" stroke-linecap="round"/>
</svg>
