<svg width="299" height="310" viewBox="0 0 299 310" fill="none" xmlns="http://www.w3.org/2000/svg">
<path d="M9.62848 26.5095C9.62848 31.7141 11.444 36.4897 11.444 41.4875C11.444 47.3813 12.3517 53.5134 12.3517 59.6426C12.3517 66.3425 11.9873 72.5681 9.1746 78.7559C5.12041 87.6752 5.37654 98.0974 2.82029 107.3C1.64604 111.527 2.36642 116.594 2.36642 120.967C2.36642 126.11 1.42059 132.235 2.56814 137.256C4.38736 145.215 9.62299 151.472 15.075 157.227C22.2865 164.839 27.1822 166.304 37.5672 166.304C46.5339 166.304 52.3076 157.86 56.8319 151.074C61.0635 144.727 62.2784 136.115 62.2784 128.632C62.2784 123.799 61.4158 120.088 60.2612 115.47C59.1476 111.015 56.3267 107.473 55.0163 103.215C52.3494 94.5475 44.1904 87.4178 39.9879 79.6133C34.7134 69.8177 30.3198 59.6622 28.641 48.7495C27.3442 40.3204 25.9681 31.6665 25.9681 23.0801C25.9681 18.0204 25.113 9.53134 21.4293 5.63103C19.8174 3.92425 17.8674 2 15.5289 2C13.6854 2 9.90454 3.42249 9.62848 5.63103C8.62223 13.681 9.02678 20.5534 10.5362 29.2327" stroke="black" stroke-width="3" stroke-linecap="round"/>
<path d="M13.0352 64.4632C16.4018 64.4632 21.3741 65.4419 24.6042 64.3652C27.0149 63.5616 28.969 61.7652 30.6829 60.0513" stroke="black" stroke-width="3" stroke-linecap="round"/>
<path d="M11.7109 69.3161C16.3516 69.3161 20.9923 69.3161 25.633 69.3161C28.8051 69.3161 30.162 69.4346 32.0058 66.6689" stroke="black" stroke-width="3" stroke-linecap="round"/>
<path d="M88.6285 26.5095C88.6285 31.7141 90.444 36.4897 90.444 41.4875C90.444 47.3813 91.3517 53.5134 91.3517 59.6426C91.3517 66.3425 90.9873 72.5681 88.1746 78.7559C84.1204 87.6752 84.3765 98.0974 81.8203 107.3C80.646 111.527 81.3664 116.594 81.3664 120.967C81.3664 126.11 80.4206 132.235 81.5681 137.256C83.3874 145.215 88.623 151.472 94.075 157.227C101.287 164.839 106.182 166.304 116.567 166.304C125.534 166.304 131.308 157.86 135.832 151.074C140.063 144.727 141.278 136.115 141.278 128.632C141.278 123.799 140.416 120.088 139.261 115.47C138.148 111.015 135.327 107.473 134.016 103.215C131.349 94.5475 123.19 87.4178 118.988 79.6133C113.713 69.8177 109.32 59.6622 107.641 48.7495C106.344 40.3204 104.968 31.6665 104.968 23.0801C104.968 18.0204 104.113 9.53134 100.429 5.63103C98.8174 3.92425 96.8674 2 94.5289 2C92.6854 2 88.9045 3.42249 88.6285 5.63103C87.6222 13.681 88.0268 20.5534 89.5362 29.2327" stroke="black" stroke-width="3" stroke-linecap="round"/>
<path d="M92.0352 64.4632C95.4018 64.4632 100.374 65.4419 103.604 64.3652C106.015 63.5616 107.969 61.7652 109.683 60.0513" stroke="black" stroke-width="3" stroke-linecap="round"/>
<path d="M90.7109 69.3161C95.3516 69.3161 99.9923 69.3161 104.633 69.3161C107.805 69.3161 109.162 69.4346 111.006 66.6689" stroke="black" stroke-width="3" stroke-linecap="round"/>
<path d="M165.628 26.5095C165.628 31.7141 167.444 36.4897 167.444 41.4875C167.444 47.3813 168.352 53.5134 168.352 59.6426C168.352 66.3425 167.987 72.5681 165.175 78.7559C161.12 87.6752 161.377 98.0974 158.82 107.3C157.646 111.527 158.366 116.594 158.366 120.967C158.366 126.11 157.421 132.235 158.568 137.256C160.387 145.215 165.623 151.472 171.075 157.227C178.287 164.839 183.182 166.304 193.567 166.304C202.534 166.304 208.308 157.86 212.832 151.074C217.063 144.727 218.278 136.115 218.278 128.632C218.278 123.799 217.416 120.088 216.261 115.47C215.148 111.015 212.327 107.473 211.016 103.215C208.349 94.5475 200.19 87.4178 195.988 79.6133C190.713 69.8177 186.32 59.6622 184.641 48.7495C183.344 40.3204 181.968 31.6665 181.968 23.0801C181.968 18.0204 181.113 9.53134 177.429 5.63103C175.817 3.92425 173.867 2 171.529 2C169.685 2 165.905 3.42249 165.628 5.63103C164.622 13.681 165.027 20.5534 166.536 29.2327" stroke="black" stroke-width="3" stroke-linecap="round"/>
<path d="M169.035 64.4632C172.402 64.4632 177.374 65.4419 180.604 64.3652C183.015 63.5616 184.969 61.7652 186.683 60.0513" stroke="black" stroke-width="3" stroke-linecap="round"/>
<path d="M167.711 69.3161C172.352 69.3161 176.992 69.3161 181.633 69.3161C184.805 69.3161 186.162 69.4346 188.006 66.6689" stroke="black" stroke-width="3" stroke-linecap="round"/>
<path d="M244.628 26.5095C244.628 31.7141 246.444 36.4897 246.444 41.4875C246.444 47.3813 247.352 53.5134 247.352 59.6426C247.352 66.3425 246.987 72.5681 244.175 78.7559C240.12 87.6752 240.377 98.0974 237.82 107.3C236.646 111.527 237.366 116.594 237.366 120.967C237.366 126.11 236.421 132.235 237.568 137.256C239.387 145.215 244.623 151.472 250.075 157.227C257.287 164.839 262.182 166.304 272.567 166.304C281.534 166.304 287.308 157.86 291.832 151.074C296.063 144.727 297.278 136.115 297.278 128.632C297.278 123.799 296.416 120.088 295.261 115.47C294.148 111.015 291.327 107.473 290.016 103.215C287.349 94.5475 279.19 87.4178 274.988 79.6133C269.713 69.8177 265.32 59.6622 263.641 48.7495C262.344 40.3204 260.968 31.6665 260.968 23.0801C260.968 18.0204 260.113 9.53134 256.429 5.63103C254.817 3.92425 252.867 2 250.529 2C248.685 2 244.905 3.42249 244.628 5.63103C243.622 13.681 244.027 20.5534 245.536 29.2327" stroke="black" stroke-width="3" stroke-linecap="round"/>
<path d="M248.035 64.4632C251.402 64.4632 256.374 65.4419 259.604 64.3652C262.015 63.5616 263.969 61.7652 265.683 60.0513" stroke="black" stroke-width="3" stroke-linecap="round"/>
<path d="M246.711 69.3161C251.352 69.3161 255.992 69.3161 260.633 69.3161C263.805 69.3161 265.162 69.4346 267.006 66.6689" stroke="black" stroke-width="3" stroke-linecap="round"/>
<path d="M56.6285 69.5095C56.6285 74.7141 58.444 79.4897 58.444 84.4875C58.444 90.3813 59.3517 96.5134 59.3517 102.643C59.3517 109.342 58.9873 115.568 56.1746 121.756C52.1204 130.675 52.3765 141.097 49.8203 150.3C48.646 154.527 49.3664 159.594 49.3664 163.967C49.3664 169.11 48.4206 175.235 49.5681 180.256C51.3874 188.215 56.623 194.472 62.075 200.227C69.2865 207.839 74.1822 209.304 84.5672 209.304C93.5339 209.304 99.3076 200.86 103.832 194.074C108.063 187.727 109.278 179.115 109.278 171.632C109.278 166.799 108.416 163.088 107.261 158.47C106.148 154.015 103.327 150.473 102.016 146.215C99.3494 137.547 91.1904 130.418 86.9879 122.613C81.7134 112.818 77.3198 102.662 75.641 91.7495C74.3442 83.3204 72.9681 74.6665 72.9681 66.0801C72.9681 61.0204 72.113 52.5313 68.4293 48.631C66.8174 46.9242 64.8674 45 62.5289 45C60.6854 45 56.9045 46.4225 56.6285 48.631C55.6222 56.681 56.0268 63.5534 57.5362 72.2327" stroke="black" stroke-width="3" stroke-linecap="round"/>
<path d="M60.0352 107.463C63.4018 107.463 68.3741 108.442 71.6042 107.365C74.0149 106.562 75.969 104.765 77.6829 103.051" stroke="black" stroke-width="3" stroke-linecap="round"/>
<path d="M58.7109 112.316C63.3516 112.316 67.9923 112.316 72.633 112.316C75.8051 112.316 77.162 112.435 79.0058 109.669" stroke="black" stroke-width="3" stroke-linecap="round"/>
<path d="M131.628 65.5095C131.628 70.7141 133.444 75.4897 133.444 80.4875C133.444 86.3813 134.352 92.5134 134.352 98.6426C134.352 105.342 133.987 111.568 131.175 117.756C127.12 126.675 127.377 137.097 124.82 146.3C123.646 150.527 124.366 155.594 124.366 159.967C124.366 165.11 123.421 171.235 124.568 176.256C126.387 184.215 131.623 190.472 137.075 196.227C144.287 203.839 149.182 205.304 159.567 205.304C168.534 205.304 174.308 196.86 178.832 190.074C183.063 183.727 184.278 175.115 184.278 167.632C184.278 162.799 183.416 159.088 182.261 154.47C181.148 150.015 178.327 146.473 177.016 142.215C174.349 133.547 166.19 126.418 161.988 118.613C156.713 108.818 152.32 98.6622 150.641 87.7495C149.344 79.3204 147.968 70.6665 147.968 62.0801C147.968 57.0204 147.113 48.5313 143.429 44.631C141.817 42.9242 139.867 41 137.529 41C135.685 41 131.905 42.4225 131.628 44.631C130.622 52.681 131.027 59.5534 132.536 68.2327" stroke="black" stroke-width="3" stroke-linecap="round"/>
<path d="M135.035 103.463C138.402 103.463 143.374 104.442 146.604 103.365C149.015 102.562 150.969 100.765 152.683 99.0513" stroke="black" stroke-width="3" stroke-linecap="round"/>
<path d="M133.711 108.316C138.352 108.316 142.992 108.316 147.633 108.316C150.805 108.316 152.162 108.435 154.006 105.669" stroke="black" stroke-width="3" stroke-linecap="round"/>
<path d="M211.628 65.5095C211.628 70.7141 213.444 75.4897 213.444 80.4875C213.444 86.3813 214.352 92.5134 214.352 98.6426C214.352 105.342 213.987 111.568 211.175 117.756C207.12 126.675 207.377 137.097 204.82 146.3C203.646 150.527 204.366 155.594 204.366 159.967C204.366 165.11 203.421 171.235 204.568 176.256C206.387 184.215 211.623 190.472 217.075 196.227C224.287 203.839 229.182 205.304 239.567 205.304C248.534 205.304 254.308 196.86 258.832 190.074C263.063 183.727 264.278 175.115 264.278 167.632C264.278 162.799 263.416 159.088 262.261 154.47C261.148 150.015 258.327 146.473 257.016 142.215C254.349 133.547 246.19 126.418 241.988 118.613C236.713 108.818 232.32 98.6622 230.641 87.7495C229.344 79.3204 227.968 70.6665 227.968 62.0801C227.968 57.0204 227.113 48.5313 223.429 44.631C221.817 42.9242 219.867 41 217.529 41C215.685 41 211.905 42.4225 211.628 44.631C210.622 52.681 211.027 59.5534 212.536 68.2327" stroke="black" stroke-width="3" stroke-linecap="round"/>
<path d="M215.035 103.463C218.402 103.463 223.374 104.442 226.604 103.365C229.015 102.562 230.969 100.765 232.683 99.0513" stroke="black" stroke-width="3" stroke-linecap="round"/>
<path d="M213.711 108.316C218.352 108.316 222.992 108.316 227.633 108.316C230.805 108.316 232.162 108.435 234.006 105.669" stroke="black" stroke-width="3" stroke-linecap="round"/>
<path d="M103.628 103.509C103.628 108.714 105.444 113.49 105.444 118.487C105.444 124.381 106.352 130.513 106.352 136.643C106.352 143.342 105.987 149.568 103.175 155.756C99.1204 164.675 99.3765 175.097 96.8203 184.3C95.646 188.527 96.3664 193.594 96.3664 197.967C96.3664 203.11 95.4206 209.235 96.5681 214.256C98.3874 222.215 103.623 228.472 109.075 234.227C116.287 241.839 121.182 243.304 131.567 243.304C140.534 243.304 146.308 234.86 150.832 228.074C155.063 221.727 156.278 213.115 156.278 205.632C156.278 200.799 155.416 197.088 154.261 192.47C153.148 188.015 150.327 184.473 149.016 180.215C146.349 171.547 138.19 164.418 133.988 156.613C128.713 146.818 124.32 136.662 122.641 125.75C121.344 117.32 119.968 108.666 119.968 100.08C119.968 95.0204 119.113 86.5313 115.429 82.631C113.817 80.9242 111.867 79 109.529 79C107.685 79 103.905 80.4225 103.628 82.631C102.622 90.681 103.027 97.5534 104.536 106.233" stroke="black" stroke-width="3" stroke-linecap="round"/>
<path d="M107.035 141.463C110.402 141.463 115.374 142.442 118.604 141.365C121.015 140.562 122.969 138.765 124.683 137.051" stroke="black" stroke-width="3" stroke-linecap="round"/>
<path d="M105.711 146.316C110.352 146.316 114.992 146.316 119.633 146.316C122.805 146.316 124.162 146.435 126.006 143.669" stroke="black" stroke-width="3" stroke-linecap="round"/>
<path d="M103.628 103.509C103.628 108.714 105.444 113.49 105.444 118.487C105.444 124.381 106.352 130.513 106.352 136.643C106.352 143.342 105.987 149.568 103.175 155.756C99.1204 164.675 99.3765 175.097 96.8203 184.3C95.646 188.527 96.3664 193.594 96.3664 197.967C96.3664 203.11 95.4206 209.235 96.5681 214.256C98.3874 222.215 103.623 228.472 109.075 234.227C116.287 241.839 121.182 243.304 131.567 243.304C140.534 243.304 146.308 234.86 150.832 228.074C155.063 221.727 156.278 213.115 156.278 205.632C156.278 200.799 155.416 197.088 154.261 192.47C153.148 188.015 150.327 184.473 149.016 180.215C146.349 171.547 138.19 164.418 133.988 156.613C128.713 146.818 124.32 136.662 122.641 125.75C121.344 117.32 119.968 108.666 119.968 100.08C119.968 95.0204 119.113 86.5313 115.429 82.631C113.817 80.9242 111.867 79 109.529 79C107.685 79 103.905 80.4225 103.628 82.631C102.622 90.681 103.027 97.5534 104.536 106.233" stroke="black" stroke-width="3" stroke-linecap="round"/>
<path d="M107.035 141.463C110.402 141.463 115.374 142.442 118.604 141.365C121.015 140.562 122.969 138.765 124.683 137.051" stroke="black" stroke-width="3" stroke-linecap="round"/>
<path d="M105.711 146.316C110.352 146.316 114.992 146.316 119.633 146.316C122.805 146.316 124.162 146.435 126.006 143.669" stroke="black" stroke-width="3" stroke-linecap="round"/>
<path d="M174.628 112.509C174.628 117.714 176.444 122.49 176.444 127.487C176.444 133.381 177.352 139.513 177.352 145.643C177.352 152.342 176.987 158.568 174.175 164.756C170.12 173.675 170.377 184.097 167.82 193.3C166.646 197.527 167.366 202.594 167.366 206.967C167.366 212.11 166.421 218.235 167.568 223.256C169.387 231.215 174.623 237.472 180.075 243.227C187.287 250.839 192.182 252.304 202.567 252.304C211.534 252.304 217.308 243.86 221.832 237.074C226.063 230.727 227.278 222.115 227.278 214.632C227.278 209.799 226.416 206.088 225.261 201.47C224.148 197.015 221.327 193.473 220.016 189.215C217.349 180.547 209.19 173.418 204.988 165.613C199.713 155.818 195.32 145.662 193.641 134.75C192.344 126.32 190.968 117.666 190.968 109.08C190.968 104.02 190.113 95.5313 186.429 91.631C184.817 89.9242 182.867 88 180.529 88C178.685 88 174.905 89.4225 174.628 91.631C173.622 99.681 174.027 106.553 175.536 115.233" stroke="black" stroke-width="3" stroke-linecap="round"/>
<path d="M178.035 150.463C181.402 150.463 186.374 151.442 189.604 150.365C192.015 149.562 193.969 147.765 195.683 146.051" stroke="black" stroke-width="3" stroke-linecap="round"/>
<path d="M176.711 155.316C181.352 155.316 185.992 155.316 190.633 155.316C193.805 155.316 195.162 155.435 197.006 152.669" stroke="black" stroke-width="3" stroke-linecap="round"/>
<path d="M142.628 168.509C142.628 173.714 144.444 178.49 144.444 183.487C144.444 189.381 145.352 195.513 145.352 201.643C145.352 208.342 144.987 214.568 142.175 220.756C138.12 229.675 138.377 240.097 135.82 249.3C134.646 253.527 135.366 258.594 135.366 262.967C135.366 268.11 134.421 274.235 135.568 279.256C137.387 287.215 142.623 293.472 148.075 299.227C155.287 306.839 160.182 308.304 170.567 308.304C179.534 308.304 185.308 299.86 189.832 293.074C194.063 286.727 195.278 278.115 195.278 270.632C195.278 265.799 194.416 262.088 193.261 257.47C192.148 253.015 189.327 249.473 188.016 245.215C185.349 236.547 177.19 229.418 172.988 221.613C167.713 211.818 163.32 201.662 161.641 190.75C160.344 182.32 158.968 173.666 158.968 165.08C158.968 160.02 158.113 151.531 154.429 147.631C152.817 145.924 150.867 144 148.529 144C146.685 144 142.905 145.422 142.628 147.631C141.622 155.681 142.027 162.553 143.536 171.233" stroke="black" stroke-width="3" stroke-linecap="round"/>
<path d="M146.035 206.463C149.402 206.463 154.374 207.442 157.604 206.365C160.015 205.562 161.969 203.765 163.683 202.051" stroke="black" stroke-width="3" stroke-linecap="round"/>
<path d="M144.711 211.316C149.352 211.316 153.992 211.316 158.633 211.316C161.805 211.316 163.162 211.435 165.006 208.669" stroke="black" stroke-width="3" stroke-linecap="round"/>
<path d="M249.104 66.5416C251.775 66.5416 254.453 66.5972 257.124 66.5416C258.097 66.5213 263.797 67.1742 264.288 65.454C264.459 64.8555 265.207 64.1876 265.498 63.6052" stroke="#E21D20" stroke-width="3" stroke-linecap="round"/>
<path d="M216.069 105.448C219.967 105.448 223.8 105.693 227.679 105.693C229.577 105.693 231.275 105.625 232.219 103.735" stroke="#E21D20" stroke-width="3" stroke-linecap="round"/>
<path d="M169.822 66.2969C173.896 66.2969 177.714 67.1259 181.758 67.2756C183.066 67.3241 183.832 67.9314 184.504 66.4192C184.878 65.5768 185.505 64.584 186.462 64.584" stroke="#E21D20" stroke-width="3" stroke-linecap="round"/>
<path d="M183.77 152.675C185.646 152.675 187.522 152.675 189.398 152.675C190.047 152.675 190.706 152.709 191.355 152.675C192.115 152.635 195.465 150.692 195.026 150.472" stroke="#E21D20" stroke-width="3" stroke-linecap="round"/>
<path d="M147.065 208.22C149.043 208.22 151.034 208.955 152.938 208.955" stroke="#E21D20" stroke-width="3" stroke-linecap="round"/>
<path d="M158.566 208.465C158.308 208.465 159.336 208.465 159.545 208.465C160.113 208.465 160.475 208.036 161.013 207.976C161.995 207.867 162.701 206.997 163.704 206.997" stroke="#E21D20" stroke-width="3" stroke-linecap="round"/>
<path d="M107.914 143.131C109.77 143.131 111.683 142.991 113.528 143.145C114.862 143.256 115.998 143.621 117.335 143.621C118.458 143.621 119.159 143.507 120.203 143.186C120.689 143.036 121.366 142.7 121.862 142.642C122.529 142.563 122.867 141.65 123.33 141.418" stroke="#E21D20" stroke-width="3" stroke-linecap="round"/>
<path d="M60.6875 109.119C63.7978 109.119 66.7337 109.853 69.8772 109.853C72.4915 109.853 74.4029 108.951 76.8374 108.14" stroke="#E21D20" stroke-width="3" stroke-linecap="round"/>
<path d="M13.9512 66.5416C19.373 66.5416 25.7519 67.6466 30.3458 64.584" stroke="#E21D20" stroke-width="3" stroke-linecap="round"/>
<path d="M92.9878 66.5417C91.5831 66.5417 95.7973 66.5417 97.202 66.5417C98.6219 66.5417 99.9617 67.0311 101.307 67.0311C102.345 67.0311 104.03 67.3757 104.978 66.9767C105.735 66.658 109.842 65.0144 109.382 64.0947" stroke="#E21D20" stroke-width="3" stroke-linecap="round"/>
<path d="M137.033 105.204C140.35 105.204 143.607 105.448 146.943 105.448C148.891 105.448 151.695 105.244 152.694 103.246" stroke="#E21D20" stroke-width="3" stroke-linecap="round"/>
</svg>
