<svg width="133" height="58" viewBox="0 0 133 58" fill="none" xmlns="http://www.w3.org/2000/svg">
<path d="M11.4697 31.0057C13.4337 38.8176 14.5688 48.3417 17.8836 55.8001C18.1546 56.4099 18.2984 55.8317 18.4181 55.5923" stroke="black" stroke-opacity="0.99" stroke-width="3" stroke-linecap="round"/>
<path d="M2.91804 36.3506C-1.55888 36.3506 11.5733 33.9943 15.7458 32.3716C18.5057 31.2983 23.0136 29.9367 25.9012 29.9367" stroke="black" stroke-opacity="0.99" stroke-width="3" stroke-linecap="round"/>
<path d="M36.5906 26.1953C36.5906 33.4332 34.8778 43.6148 38.1941 50.2474" stroke="black" stroke-opacity="0.99" stroke-width="3" stroke-linecap="round"/>
<path d="M37.125 26.1953C38.7207 30.344 43.0066 33.6621 45.6769 37.182C47.4963 39.5804 48.8892 42.2353 51.0218 44.368" stroke="black" stroke-opacity="0.99" stroke-width="3" stroke-linecap="round"/>
<path d="M36.5908 42.7645C39.8138 42.7645 44.8788 39.9568 47.8151 38.4886" stroke="black" stroke-opacity="0.99" stroke-width="3" stroke-linecap="round"/>
<path d="M52.625 20.8503C52.625 24.3505 55.5449 27.7228 56.9009 30.8869C57.6911 32.7307 59.501 37.6507 61.1769 38.4886" stroke="black" stroke-opacity="0.99" stroke-width="3" stroke-linecap="round"/>
<path d="M55.832 29.4022C55.9536 28.4293 62.163 28.4167 63.2852 28.066C64.9291 27.5522 66.5043 26.7356 68.1253 26.1953" stroke="black" stroke-opacity="0.99" stroke-width="3" stroke-linecap="round"/>
<path d="M66.5225 16.5744C66.5225 20.0375 68.6257 23.4185 69.7294 26.7297C70.6463 29.4805 72.031 32.0311 72.9364 34.7471" stroke="black" stroke-opacity="0.99" stroke-width="3" stroke-linecap="round"/>
<path d="M75.6084 14.9709C75.6084 17.7118 77.7722 21.4943 78.8153 24.0276C79.5762 25.8755 80.0271 30.4926 81.7847 31.748C81.9974 31.8999 86.5877 30.5012 87.2484 30.4712C89.0616 30.3888 91.7386 29.873 93.2466 28.8677" stroke="black" stroke-opacity="0.99" stroke-width="3" stroke-linecap="round"/>
<path d="M91.1089 10.1605C88.3809 10.5015 95.37 26.2713 95.4739 26.5219C95.9488 27.6672 96.6297 29.9522 97.6416 28.3332C98.43 27.0718 101.277 26.9243 102.571 27.2939C103.354 27.5178 103.235 31.9909 104.471 32.6092" stroke="black" stroke-opacity="0.99" stroke-width="3" stroke-linecap="round"/>
<path d="M107.144 6.41907C107.144 12.8673 110.208 20.5647 113.023 26.1953" stroke="black" stroke-opacity="0.99" stroke-width="3" stroke-linecap="round"/>
<path d="M110.35 15.5054C108.391 15.5054 114.27 15.5054 116.23 15.5054C119.188 15.5054 120.284 16.5453 122.109 18.7124C123.085 19.8713 124.687 25.0887 123.06 26.1953C120.942 27.6351 116.62 26.7298 114.092 26.7298" stroke="black" stroke-opacity="0.99" stroke-width="3" stroke-linecap="round"/>
<path d="M125.316 2.14313C125.316 9.20186 126.674 17.0079 130.661 22.9883" stroke="black" stroke-opacity="0.99" stroke-width="3" stroke-linecap="round"/>
</svg>
