<svg width="214" height="52" viewBox="0 0 214 52" fill="none" xmlns="http://www.w3.org/2000/svg">
<path d="M1.9375 12.7939C2.56835 19.1024 4.90553 28.7652 7.3406 34.5485C8.74247 37.878 6.7107 48.4523 9.6156 49.9047" stroke="#E21D20" stroke-width="3" stroke-linecap="round"/>
<path d="M3.21875 8.95538C10.115 8.95538 16.6095 8.07397 21.1343 14.3585C26.1259 21.2912 29.3858 27.3551 32.0116 35.7576C32.8967 38.59 32.826 41.8198 32.6514 44.7865C32.5217 46.9926 27.246 46.0662 25.6132 46.0662C20.1677 46.0662 14.4292 47.3459 9.61716 47.3459" stroke="#E21D20" stroke-width="3" stroke-linecap="round"/>
<path d="M53.168 5.31152C53.168 18.058 54.4477 31.3801 54.4477 43.702" stroke="#E21D20" stroke-width="3" stroke-linecap="round"/>
<path d="M55.7266 7.87109H73.6421" stroke="#E21D20" stroke-width="3" stroke-linecap="round"/>
<path d="M55.7266 27.0664H76.2015" stroke="#E21D20" stroke-width="3" stroke-linecap="round"/>
<path d="M55.7266 41.1426H74.9218" stroke="#E21D20" stroke-width="3" stroke-linecap="round"/>
<path d="M112.573 7.91309C106.985 7.91309 99.0058 11.5706 97.2883 17.5818C95.4402 24.05 101.535 25.7839 106.175 28.1036C111.619 30.8258 116.412 32.5635 116.412 39.2653C116.412 44.7604 99.6134 44.6369 95.9375 45.0239" stroke="#E21D20" stroke-width="3" stroke-linecap="round"/>
<path d="M130.488 7.91309C130.488 14.8831 131.411 21.6053 131.768 28.388C131.919 31.2579 132.06 40.0512 134.327 41.1848" stroke="#E21D20" stroke-width="3" stroke-linecap="round"/>
<path d="M163.221 5.31152C150.316 5.31152 149.145 14.9636 149.145 25.1466C149.145 36.2009 149.426 44.9817 162.51 44.9817C171.832 44.9817 176.533 32.7822 165.78 32.1849C161.644 31.9551 155.288 28.3458 163.221 28.3458C168.016 28.3458 171.454 27.0661 176.018 27.0661" stroke="#E21D20" stroke-width="3" stroke-linecap="round"/>
<path d="M189.938 9.59131C189.938 21.9316 196.336 33.713 196.336 45.4224" stroke="#E21D20" stroke-width="3" stroke-linecap="round"/>
<path d="M189.938 7.03182C190.671 13.6302 199.745 19.1467 202.734 24.3786C205.203 28.6995 208.253 37.1234 211.976 40.0192C212.991 40.808 211.692 23.3623 211.692 21.6771C211.692 15.0891 211.692 8.50108 211.692 1.91309" stroke="#E21D20" stroke-width="3" stroke-linecap="round"/>
<path d="M1.9375 12.7939C2.56835 19.1024 4.90553 28.7652 7.3406 34.5485C8.74247 37.878 6.7107 48.4523 9.6156 49.9047" stroke="#E21D20" stroke-width="3" stroke-linecap="round"/>
<path d="M3.21875 8.95538C10.115 8.95538 16.6095 8.07397 21.1343 14.3585C26.1259 21.2912 29.3858 27.3551 32.0116 35.7576C32.8967 38.59 32.826 41.8198 32.6514 44.7865C32.5217 46.9926 27.246 46.0662 25.6132 46.0662C20.1677 46.0662 14.4292 47.3459 9.61716 47.3459" stroke="#E21D20" stroke-width="3" stroke-linecap="round"/>
<path d="M53.168 5.31152C53.168 18.058 54.4477 31.3801 54.4477 43.702" stroke="#E21D20" stroke-width="3" stroke-linecap="round"/>
<path d="M55.7266 7.87109H73.6421" stroke="#E21D20" stroke-width="3" stroke-linecap="round"/>
<path d="M55.7266 27.0664H76.2015" stroke="#E21D20" stroke-width="3" stroke-linecap="round"/>
<path d="M55.7266 41.1426H74.9218" stroke="#E21D20" stroke-width="3" stroke-linecap="round"/>
<path d="M112.573 7.91309C106.985 7.91309 99.0058 11.5706 97.2883 17.5818C95.4402 24.05 101.535 25.7839 106.175 28.1036C111.619 30.8258 116.412 32.5635 116.412 39.2653C116.412 44.7604 99.6134 44.6369 95.9375 45.0239" stroke="#E21D20" stroke-width="3" stroke-linecap="round"/>
<path d="M130.488 7.91309C130.488 14.8831 131.411 21.6053 131.768 28.388C131.919 31.2579 132.06 40.0512 134.327 41.1848" stroke="#E21D20" stroke-width="3" stroke-linecap="round"/>
<path d="M163.221 5.31152C150.316 5.31152 149.145 14.9636 149.145 25.1466C149.145 36.2009 149.426 44.9817 162.51 44.9817C171.832 44.9817 176.533 32.7822 165.78 32.1849C161.644 31.9551 155.288 28.3458 163.221 28.3458C168.016 28.3458 171.454 27.0661 176.018 27.0661" stroke="#E21D20" stroke-width="3" stroke-linecap="round"/>
<path d="M189.938 9.59131C189.938 21.9316 196.336 33.713 196.336 45.4224" stroke="#E21D20" stroke-width="3" stroke-linecap="round"/>
<path d="M189.938 7.03182C190.671 13.6302 199.745 19.1467 202.734 24.3786C205.203 28.6995 208.253 37.1234 211.976 40.0192C212.991 40.808 211.692 23.3623 211.692 21.6771C211.692 15.0891 211.692 8.50108 211.692 1.91309" stroke="#E21D20" stroke-width="3" stroke-linecap="round"/>
</svg>
