<svg width="197" height="79" viewBox="0 0 197 79" fill="none" xmlns="http://www.w3.org/2000/svg">
<path d="M2.07391 17.7955C2.07391 30.3004 13.8804 45.1185 19.9248 55.3391C21.1012 57.3282 31.4003 79.2412 31.4003 71.6315C31.4003 61.4926 28.0171 52.6041 26.3001 42.5884C25.2602 36.5225 23.555 30.5805 22.5457 24.525C22.069 21.6647 23.1449 30.3359 24.0333 33.0963C27.5365 43.9812 36.0441 52.4461 43.3009 60.9352C47.9966 66.4282 52.6393 72.45 58.1767 77.1568C59.8938 78.6164 59.4233 69.4491 59.3809 68.7272C58.8594 59.8622 56.3576 50.8434 54.6348 42.1634C53.512 36.5059 49.1543 19.7583 50.7388 25.3042C52.7507 32.3457 58.8106 39.0128 63.1352 44.7135C64.7113 46.7911 82.7213 74.2746 82.4028 61.856C82.0268 47.1919 71.9673 34.6693 70.9273 20.629C70.8078 19.0163 76.3356 26.9049 77.5151 28.2086C85.6137 37.1596 93.6979 45.842 102.946 53.639C110.701 60.1782 113.25 64.5756 113.004 52.6473C112.784 41.9829 109.989 31.5287 107.267 21.2665C106.219 17.3192 101.191 6.54905 104.079 9.4368C104.324 9.68204 104.848 12.031 104.929 12.1994C106.64 15.7764 109.894 18.4559 112.579 21.2665C120.466 29.5197 127.742 38.0822 136.664 45.2802C137.739 46.1477 146.987 54.6321 147.36 50.5221C148.113 42.2385 146.593 34.7116 143.606 27.0043C140.677 19.4487 137.376 12.035 134.114 4.6199C131.323 -1.72162 135.382 7.25984 137.372 9.57848C154.558 29.5987 176.078 45.1679 194.608 63.6978" stroke="black" stroke-opacity="0.99" stroke-width="3" stroke-linecap="round"/>
</svg>
