<svg width="884" height="73" viewBox="0 0 884 73" fill="none" xmlns="http://www.w3.org/2000/svg">
<path d="M2 25.9155C2 40.0501 5.83905 82.2796 5.83905 68.1451" stroke="black" stroke-width="3" stroke-linecap="round"/>
<path d="M3.2793 48.95H21.1949" stroke="black" stroke-width="3" stroke-linecap="round"/>
<path d="M25.0342 23.3562C25.0342 38.2148 28.8732 52.113 28.8732 66.8654" stroke="black" stroke-width="3" stroke-linecap="round"/>
<path d="M54.4673 24.6359C46.5141 24.6359 36.5518 22.1401 36.5518 32.9538C36.5518 40.3068 47.1054 40.9143 53.1876 44.1155C56.3115 45.7596 66.652 61.2429 58.9462 62.9553C56.0195 63.6057 52.348 63.0264 49.3486 63.0264C44.8196 63.0264 43.9669 60.3794 40.3908 59.1873" stroke="black" stroke-width="3" stroke-linecap="round"/>
<path d="M74.9414 20.7969V61.7467" stroke="black" stroke-width="3" stroke-linecap="round"/>
<path d="M77.501 20.7968C83.7037 20.7968 93.9714 18.5537 99.2556 22.0765" stroke="black" stroke-width="3" stroke-linecap="round"/>
<path d="M78.7812 38.7124C84.0304 38.7124 89.2106 39.9921 94.1374 39.9921" stroke="black" stroke-width="3" stroke-linecap="round"/>
<path d="M77.501 61.7468H97.9759" stroke="black" stroke-width="3" stroke-linecap="round"/>
<path d="M160 30.636C160.631 36.9444 162.968 46.6073 165.403 52.3906C166.805 55.72 164.773 66.2943 167.678 67.7468" stroke="black" stroke-width="3" stroke-linecap="round"/>
<path d="M161.28 26.7969C168.177 26.7969 174.671 25.9155 179.196 32.2C184.187 39.1328 187.447 45.1966 190.073 53.5992C190.958 56.4316 190.887 59.6613 190.713 62.628C190.583 64.8341 185.308 63.9077 183.675 63.9077C178.229 63.9077 172.491 65.1874 167.679 65.1874" stroke="black" stroke-width="3" stroke-linecap="round"/>
<path d="M202.229 20.3984C202.229 33.1449 203.509 46.467 203.509 58.7889" stroke="black" stroke-width="3" stroke-linecap="round"/>
<path d="M204.789 22.9578H222.705" stroke="black" stroke-width="3" stroke-linecap="round"/>
<path d="M204.789 42.1531H225.264" stroke="black" stroke-width="3" stroke-linecap="round"/>
<path d="M204.789 56.2295H223.984" stroke="black" stroke-width="3" stroke-linecap="round"/>
<path d="M259.816 20.3984C254.228 20.3984 246.248 24.0559 244.53 30.0672C242.682 36.5353 248.778 38.2692 253.417 40.589C258.861 43.3111 263.655 45.0489 263.655 51.7507C263.655 57.2458 246.856 57.1223 243.18 57.5092" stroke="black" stroke-width="3" stroke-linecap="round"/>
<path d="M277.731 20.3984C277.731 27.3684 278.654 34.0907 279.011 40.8734C279.162 43.7433 279.303 52.5366 281.57 53.6702" stroke="black" stroke-width="3" stroke-linecap="round"/>
<path d="M312.283 20.3984C299.378 20.3984 298.206 30.0505 298.206 40.2335C298.206 51.2878 298.488 60.0686 311.572 60.0686C320.894 60.0686 325.594 47.8691 314.842 47.2718C310.706 47.042 304.35 43.4327 312.283 43.4327C317.077 43.4327 320.515 42.153 325.079 42.153" stroke="black" stroke-width="3" stroke-linecap="round"/>
<path d="M336.597 21.6782C336.597 34.0185 342.995 45.7999 342.995 57.5093" stroke="black" stroke-width="3" stroke-linecap="round"/>
<path d="M336.597 19.1187C337.33 25.7171 346.404 31.2336 349.394 36.4655C351.863 40.7865 354.913 49.2104 358.636 52.1061C359.65 52.8949 358.351 35.4492 358.351 33.764C358.351 27.176 358.351 20.588 358.351 14" stroke="black" stroke-width="3" stroke-linecap="round"/>
<path d="M429 17.2361C429 31.6618 432.142 45.7397 432.142 60.1709" stroke="black" stroke-width="3" stroke-linecap="round"/>
<path d="M429 17.2361C429 23.8053 433.639 32.3046 437.378 38.1799C438.076 39.2772 449.241 56.6089 449.886 54.3531C451.315 49.3496 447.849 43.0466 447.849 37.9472C447.849 32.8126 447.72 22.7311 449.944 18.2833" stroke="black" stroke-width="3" stroke-linecap="round"/>
<path d="M465.651 17.2361C465.651 24.522 467.265 30.706 468.56 37.8308C468.946 39.9552 471.381 53.3936 471.935 52.8405" stroke="black" stroke-width="3" stroke-linecap="round"/>
<path d="M486.596 14.0945C486.596 21.5807 488.423 28.6513 488.69 35.8528C488.861 40.4556 491.832 45.3218 491.832 49.6989" stroke="black" stroke-width="3" stroke-linecap="round"/>
<path d="M487.643 14.0944C487.643 13.2077 487.702 15.8038 487.875 16.1888C488.981 18.6456 491.126 20.548 492.297 22.9955C494.486 27.5733 497.199 31.6069 499.685 36.0272C501.664 39.5455 504.133 43.0475 506.492 46.3245C508.241 48.7543 509.634 50.175 509.634 46.5573C509.634 40.7955 507.539 35.8096 507.539 29.8604C507.539 23.9069 507.539 17.9535 507.539 12" stroke="black" stroke-width="3" stroke-linecap="round"/>
<path d="M529.53 12V49.6988" stroke="black" stroke-width="3" stroke-linecap="round"/>
<path d="M530.577 12C531.35 18.9576 539.944 27.6504 544.714 32.4202C547.576 35.2818 549.854 39.0345 551.521 42.3685" stroke="black" stroke-width="3" stroke-linecap="round"/>
<path d="M530.577 37.1326C533.165 37.1326 544.777 39.1022 546.285 36.0854" stroke="black" stroke-width="3" stroke-linecap="round"/>
<path d="M617.227 12.6279C617.227 20.4626 616.202 30.0372 618.507 37.5278C619.966 42.2689 619.277 48.1433 621.416 52.4211" stroke="black" stroke-width="3" stroke-linecap="round"/>
<path d="M617.227 15.7695C617.831 10.9352 633.982 18.2788 633.982 24.6706C633.982 28.2548 634.821 31.4773 630.316 31.4773C628.374 31.4773 620.828 31.4773 626.651 31.4773C632.739 31.4773 645.746 37.1647 643.348 45.5562C641.772 51.0722 625.212 51.3739 620.368 51.3739" stroke="black" stroke-width="3" stroke-linecap="round"/>
<path d="M654.926 8.43921C654.926 22.0706 657.02 62.911 657.02 49.2796" stroke="black" stroke-width="3" stroke-linecap="round"/>
<path d="M658.067 14.7222C660.558 14.7222 668.492 13.581 669.586 15.7694" stroke="black" stroke-width="3" stroke-linecap="round"/>
<path d="M657.021 32.5244H669.587" stroke="black" stroke-width="3" stroke-linecap="round"/>
<path d="M657.021 48.2324H674.823" stroke="black" stroke-width="3" stroke-linecap="round"/>
<path d="M692.624 15.7695C692.624 18.6339 691.693 23.6223 692.857 26.2414C694.338 29.574 692.545 33.4845 693.904 36.7133C694.669 38.5296 695.497 45.5486 697.86 45.3235C699.946 45.1249 702.028 45.0908 704.143 45.0908C707.202 45.0908 709.439 46.138 712.521 46.138" stroke="black" stroke-width="3" stroke-linecap="round"/>
<path d="M718.805 11.5806C718.805 20.2902 733.342 28.9926 740.796 31.4772" stroke="black" stroke-width="3" stroke-linecap="round"/>
<path d="M748.125 13.675C748.125 21.385 747.584 26.8863 744.984 34.0371C743.826 37.2214 741.886 40.7061 739.282 42.9382C737.829 44.1836 735.292 44.5765 734.512 46.1379" stroke="black" stroke-width="3" stroke-linecap="round"/>
<path d="M766.975 11.5806C766.975 19.1824 766.975 26.7842 766.975 34.386C766.975 36.3919 766.29 44.3859 764.881 45.0906" stroke="black" stroke-width="3" stroke-linecap="round"/>
<path d="M768.022 10.5334C768.022 9.59964 770.657 14.7562 771.164 15.7693C773.522 20.486 776.295 24.3703 778.029 29.3246C779.85 34.5266 784.131 38.9628 785.825 44.0435" stroke="black" stroke-width="3" stroke-linecap="round"/>
<path d="M770.116 34.6189H780.588" stroke="black" stroke-width="3" stroke-linecap="round"/>
<path d="M800.485 11.5806C800.485 18.0838 799.421 24.9027 800.718 31.2445C801.143 33.3236 802.009 42.1872 803.627 42.9963" stroke="black" stroke-width="3" stroke-linecap="round"/>
<path d="M800.485 11.5806H809.91" stroke="black" stroke-width="3" stroke-linecap="round"/>
<path d="M799.438 31.4773H810.957" stroke="black" stroke-width="3" stroke-linecap="round"/>
<path d="M804.674 41.9492H821.429" stroke="black" stroke-width="3" stroke-linecap="round"/>
<path d="M827.712 9.48628C828.371 16.0773 833.566 23.1733 836.089 29.1502C836.76 30.7392 843.42 44.0401 843.42 37.5277C843.42 26.3859 846.561 -6.89145 846.561 4.25033" stroke="black" stroke-width="3" stroke-linecap="round"/>
<path d="M865.411 11.5806V40.9019" stroke="black" stroke-width="3" stroke-linecap="round"/>
<path d="M865.411 5.29761C865.411 12.4065 870.55 20.3609 874.836 25.7178C876.561 27.8748 881.735 36.5276 882.166 35.6661" stroke="black" stroke-width="3" stroke-linecap="round"/>
<path d="M866.458 31.4773H875.883" stroke="black" stroke-width="3" stroke-linecap="round"/>
</svg>
