<svg width="99" height="54" viewBox="0 0 99 54" fill="none" xmlns="http://www.w3.org/2000/svg">
<path d="M1.60938 29.558C1.60938 34.6776 4.71172 38.6714 5.915 43.4845C6.58814 46.1771 9.62675 53.7131 9.62675 50.9377" stroke="black" stroke-opacity="0.99" stroke-width="3" stroke-linecap="round"/>
<path d="M2.67773 29.0236C5.61013 29.0236 8.53828 28.5971 11.3484 28.4891C14.0151 28.3865 13.9396 27.372 14.8523 30.2113C16.4753 35.2608 18.5995 41.0908 20.8504 45.5928" stroke="black" stroke-opacity="0.99" stroke-width="3" stroke-linecap="round"/>
<path d="M20.8506 27.4201C20.8506 30.748 22.588 33.5675 24.0575 36.5065C25.0009 38.3932 26.563 42.5696 28.3335 43.4548" stroke="black" stroke-opacity="0.99" stroke-width="3" stroke-linecap="round"/>
<path d="M19.7812 25.8166C24.5233 25.8166 28.5131 22.0752 33.1435 22.0752" stroke="black" stroke-opacity="0.99" stroke-width="3" stroke-linecap="round"/>
<path d="M24.0576 34.3685C28.7831 33.9389 33.1385 31.696 37.9544 31.696" stroke="black" stroke-opacity="0.99" stroke-width="3" stroke-linecap="round"/>
<path d="M28.334 41.3169H38.4893" stroke="black" stroke-opacity="0.99" stroke-width="3" stroke-linecap="round"/>
<path d="M43.834 17.7993C43.834 23.0771 47.6977 27.1195 49.4165 31.9633C50.2997 34.4524 51.2629 36.933 52.3858 39.1789" stroke="black" stroke-opacity="0.99" stroke-width="3" stroke-linecap="round"/>
<path d="M48.6445 29.0236H55.0584" stroke="black" stroke-opacity="0.99" stroke-width="3" stroke-linecap="round"/>
<path d="M55.5928 16.7303C57.4997 23.2137 61.493 29.0862 63.6101 35.4375" stroke="black" stroke-opacity="0.99" stroke-width="3" stroke-linecap="round"/>
<path d="M64.6787 15.1268C64.9085 17.6542 66.0352 20.3799 67.1136 22.6394C68.8453 26.2677 70.3296 30.4491 72.6367 33.7449C74.1634 35.9259 73.6402 34.3106 73.7948 32.379C74.185 27.5009 75.4064 22.7301 75.903 17.8883C76.2874 14.1403 76.7138 10.4004 77.3877 6.69369C77.776 4.55843 77.2957 4.49388 78.041 6.81247C79.6859 11.93 80.6361 17.2233 82.1982 22.3721C82.84 24.4879 83.1198 26.7089 84.4549 28.4891" stroke="black" stroke-opacity="0.99" stroke-width="3" stroke-linecap="round"/>
<path d="M86.0586 2.8335C86.0586 8.82496 87.6621 14.6263 87.6621 20.4717" stroke="black" stroke-opacity="0.99" stroke-width="3" stroke-linecap="round"/>
<path d="M87.6621 2.29901H93.5415" stroke="black" stroke-opacity="0.99" stroke-width="3" stroke-linecap="round"/>
<path d="M87.1279 12.4543H94.0763" stroke="black" stroke-opacity="0.99" stroke-width="3" stroke-linecap="round"/>
<path d="M87.6621 19.4027C87.6621 20.1412 87.9036 25.8527 88.0778 25.6978C90.4133 23.6218 93.4033 22.0752 96.7485 22.0752" stroke="black" stroke-opacity="0.99" stroke-width="3" stroke-linecap="round"/>
</svg>
