<svg width="102" height="52" viewBox="0 0 102 52" fill="none" xmlns="http://www.w3.org/2000/svg">
<path d="M1.9375 4.82861C1.9375 18.9632 5.77655 61.1927 5.77655 47.0581" stroke="#E21D20" stroke-width="3" stroke-linecap="round"/>
<path d="M3.21875 27.8633H21.1343" stroke="#E21D20" stroke-width="3" stroke-linecap="round"/>
<path d="M24.9727 2.26953C24.9727 17.1282 28.8117 31.0263 28.8117 45.7787" stroke="#E21D20" stroke-width="3" stroke-linecap="round"/>
<path d="M54.4038 3.54873C46.4506 3.54873 36.4883 1.05298 36.4883 11.8667C36.4883 19.2197 47.0419 19.8271 53.1242 23.0283C56.248 24.6725 66.5885 40.1557 58.8827 41.8681C55.956 42.5185 52.2845 41.9392 49.2851 41.9392C44.7561 41.9392 43.9034 39.2922 40.3273 38.1002" stroke="#E21D20" stroke-width="3" stroke-linecap="round"/>
<path d="M75.9375 2.61719V43.567" stroke="#E21D20" stroke-width="3" stroke-linecap="round"/>
<path d="M78.4961 2.6169C84.6988 2.6169 94.9665 0.373779 100.251 3.89658" stroke="#E21D20" stroke-width="3" stroke-linecap="round"/>
<path d="M79.7773 20.5327C85.0265 20.5327 90.2067 21.8124 95.1335 21.8124" stroke="#E21D20" stroke-width="3" stroke-linecap="round"/>
<path d="M77.4375 40.6602H97.9124" stroke="#E21D20" stroke-width="3" stroke-linecap="round"/>
</svg>
