<svg width="45" height="53" viewBox="0 0 45 53" fill="none" xmlns="http://www.w3.org/2000/svg">
<path d="M1.56445 2.9536C1.56445 11.53 2.59872 17.8417 5.93997 25.8607C8.10619 31.0596 9.63298 36.2963 11.4094 41.6254C12.1019 43.7029 13.1083 49.0202 14.884 50.4408C17.3616 52.4229 18.1942 40.3831 19.1952 37.9577C22.1019 30.9145 26.2047 22.9983 29.9409 16.2732C32.1948 12.2163 32.1666 -1.31209 33.9947 2.9536C34.6553 4.49502 33.9947 7.6322 33.9947 9.32384C33.9947 13.8959 35.4697 18.5054 37.212 22.6434C39.1886 27.3378 39.9704 33.214 40.8797 38.2151C41.4616 41.4152 41.5037 46.6473 43.2605 49.2826" stroke="#E21D20" stroke-width="3" stroke-linecap="round"/>
</svg>
