<svg width="64" height="168" viewBox="0 0 64 168" fill="none" xmlns="http://www.w3.org/2000/svg">
<path d="M9.62848 26.5095C9.62848 31.7141 11.444 36.4897 11.444 41.4875C11.444 47.3813 12.3517 53.5134 12.3517 59.6426C12.3517 66.3425 11.9873 72.5681 9.1746 78.7559C5.12041 87.6752 5.37654 98.0974 2.82029 107.3C1.64604 111.527 2.36642 116.594 2.36642 120.967C2.36642 126.11 1.42059 132.235 2.56814 137.256C4.38736 145.215 9.62299 151.472 15.075 157.227C22.2865 164.839 27.1822 166.304 37.5672 166.304C46.5339 166.304 52.3076 157.86 56.8319 151.074C61.0635 144.727 62.2784 136.115 62.2784 128.632C62.2784 123.799 61.4158 120.088 60.2612 115.47C59.1476 111.015 56.3267 107.473 55.0163 103.215C52.3494 94.5475 44.1904 87.4178 39.9879 79.6133C34.7134 69.8177 30.3198 59.6622 28.641 48.7495C27.3442 40.3204 25.9681 31.6665 25.9681 23.0801C25.9681 18.0204 25.113 9.53134 21.4293 5.63103C19.8174 3.92425 17.8674 2 15.5289 2C13.6854 2 9.90454 3.42249 9.62848 5.63103C8.62223 13.681 9.02678 20.5534 10.5362 29.2327" stroke="black" stroke-width="3" stroke-linecap="round"/>
<path d="M13.0352 64.4632C16.4018 64.4632 21.3741 65.4419 24.6042 64.3652C27.0149 63.5616 28.969 61.7652 30.6829 60.0513" stroke="black" stroke-width="3" stroke-linecap="round"/>
<path d="M11.7109 69.3161C16.3516 69.3161 20.9923 69.3161 25.633 69.3161C28.8051 69.3161 30.162 69.4346 32.0058 66.6689" stroke="black" stroke-width="3" stroke-linecap="round"/>
<path d="M13.9512 66.5416C19.373 66.5416 25.7519 67.6466 30.3458 64.584" stroke="#E21D20" stroke-width="3" stroke-linecap="round"/>
</svg>
