<svg width="44.663086" height="43.827271" viewBox="0 0 44.6631 43.8273" fill="none" xmlns="http://www.w3.org/2000/svg" xmlns:xlink="http://www.w3.org/1999/xlink">
	<desc>
			Created with Pixso.
	</desc>
	<defs/>
	<path id="Vector 846" d="M11.46 4.29C9.63 4.29 6.86 6.16 5.93 7.68C4.7 9.69 3.62 11.4 2.86 13.67C1.27 18.44 1.5 23.18 1.5 28.16C1.5 30.14 2.65 33.24 3.82 34.85C5.16 36.71 6.91 38.42 8.88 39.59C11.21 40.97 14.65 41.53 17.3 41.92C20.63 42.4 23.94 42.32 27.31 42.32C30.14 42.32 32.74 42.15 35.46 41.29C37.83 40.53 40.02 37.98 41.34 35.98C43.05 33.4 43.15 30.78 43.15 27.73C43.15 26.08 43.24 24.47 42.81 22.86C42.29 20.89 41.34 18.98 40.55 17.1C39.26 14.02 37.25 10.73 34.88 8.36C34.28 7.76 33.73 7.28 32.98 6.84C30.51 5.41 27.81 3.6 25.04 2.82C23.42 2.36 21.81 1.74 20.11 1.59C18.41 1.43 16.3 1.42 14.71 2.03C13.62 2.44 12.23 2.68 11.29 3.38C10.77 3.77 9.7 4.19 9.42 4.74" stroke="#E21D20" stroke-opacity="1.000000" stroke-width="3.000000" stroke-linecap="round"/>
	<path id="Vector 847" d="M36.59 12.21C35.71 12.16 34.96 11.65 34.17 11.29C32.3 10.44 30.44 9.56 28.6 8.62C26.61 7.59 24.72 6.51 22.44 6.31C19.7 6.08 17.61 6.1 15.08 7.36C12.83 8.49 9.75 9.49 8.15 11.56C6.78 13.34 5.54 14.64 4.67 16.79C3.92 18.64 3.16 20.59 3.09 22.62C2.95 26.15 1.66 31.84 4.44 34.62" stroke="#E21D20" stroke-opacity="1.000000" stroke-width="3.000000" stroke-linecap="round"/>
	<path id="Vector 848" d="M24.36 18.32C22.59 18.32 20.01 17.7 18.7 19C17.27 20.44 17.12 22.37 17.12 24.32C17.12 26.71 16.93 28.76 18.48 30.75C19.65 32.25 22.13 32.68 23.91 32.59C25.61 32.49 28.95 31.01 29.75 29.42C30.49 27.93 30.53 25.5 30.24 23.88C29.95 22.32 29.03 20.71 27.76 19.8C26.76 19.07 25.75 18.63 24.54 18.37C23.38 18.13 22.06 18.31 20.97 17.87" stroke="#000000" stroke-opacity="1.000000" stroke-width="3.000000" stroke-linecap="round"/>
	<path id="Vector 1178" d="M20.75 23.89C20.75 25.85 20.5 27.99 23.17 28.13C25.19 28.23 26.8 28.42 26.8 26.01C26.8 23.45 26.62 18.56 22.9 18.45C19.68 18.36 19.54 18.7 19.54 21.78C19.54 24.58 27 30.4 27.97 26.01C28.98 21.47 14.58 26.1 18.63 29.34C21.16 31.36 26.95 27.13 24.85 25.24C23.23 23.78 19.5 25.41 20.18 27.79C20.6 29.27 25.1 26.2 25.59 25.71C26.73 24.57 29.22 22.08 26.46 22.08C23.82 22.08 23.17 21.74 23.17 24.5C23.17 27.14 25.29 23.39 24.04 21.78C22.94 20.37 20.31 20.54 19.54 22.08" stroke="#000000" stroke-opacity="0.990000" stroke-width="3.000000" stroke-linecap="round"/>
</svg>
