<svg width="202" height="201" viewBox="0 0 202 201" fill="none" xmlns="http://www.w3.org/2000/svg">
<path d="M90.1442 1.98682C80.6339 1.98682 74.0393 4.93392 66.6903 10.8831C61.2483 15.2886 56.3383 19.966 51.7284 25.2673C48.601 28.8639 45.0149 29.8692 41.2146 32.7194C28.7876 42.0397 19.4485 52.8176 10.8864 65.1851C5.53899 72.9091 7.99799 87.3426 7.99799 96.1487C7.99799 114.1 6.64735 130.464 16.8943 146.176C21.1474 152.697 23.0351 157.886 29.8921 161.658C36.3921 165.233 41.5085 171.129 47.9735 174.656C58.2074 180.238 66.3786 187.954 77.6663 192.044C95.1774 198.388 117.266 192.856 135.088 190.426C150.72 188.294 160.108 180.548 171.251 169.803C175.418 165.784 181.068 160.829 184.248 155.881C186.603 152.217 186.772 149.671 187.945 145.367C191.648 131.792 199.326 120.62 199.326 105.969C199.326 99.5609 200.235 92.3835 198.286 86.2126C194.265 73.4784 188.27 61.5115 183.959 49.01C181.703 42.4651 175.595 37.5039 170.5 32.9505C163.178 26.4079 156.355 19.3258 149.414 12.3851C144.242 7.21258 136.77 5.10629 129.658 5.10629C114.192 5.10629 98.4932 4.06647 82.8654 4.06647" stroke="black" stroke-opacity="0.99" stroke-width="3" stroke-linecap="round"/>
<path d="M81.8262 3.02686C81.8262 13.812 88.3467 26.1604 92.2244 36.0702C95.7866 45.1735 98.8377 53.8026 103.2 62.528C106.879 69.8857 107.946 78.0734 110.71 85.7507C112.809 91.5809 115.365 97.471 117.18 103.37C119.702 111.565 123.034 119.542 125.268 127.806C128.362 139.255 130.966 150.772 133.817 162.178C134.891 166.47 135.703 171.202 137.457 175.06C137.968 176.186 140.056 185.861 140.056 181.877" stroke="black" stroke-opacity="0.99" stroke-width="3" stroke-linecap="round"/>
<path d="M28.7949 147.563C37.6964 147.563 47.0166 139.511 53.2308 133.987C61.9344 126.251 71.5212 119.69 80.093 111.804C93.2574 99.6929 107.729 86.9947 124.228 79.974C129.25 77.8371 136.224 74.0492 139.536 69.6335C143.541 64.2933 149.511 61.1607 154.094 56.5779C158.854 51.8182 168.998 50.8589 175.41 50.8589" stroke="black" stroke-opacity="0.99" stroke-width="3" stroke-linecap="round"/>
<path d="M118.22 9.26562C118.22 28.7776 117.561 47.9836 115.967 67.3803C114.487 85.3809 112.61 103.439 110.132 121.336C108.642 132.098 105.742 143.168 105.742 154.032C105.742 168.171 104.702 210.572 104.702 196.434" stroke="black" stroke-opacity="0.99" stroke-width="3" stroke-linecap="round"/>
<path d="M11.1182 98.691C50.9708 98.691 89.9286 87.2529 129.889 87.2529C144.848 87.2529 160.246 86.136 174.891 89.3903C181.908 90.9498 188.852 92.452 196.207 92.452" stroke="black" stroke-opacity="0.99" stroke-width="3" stroke-linecap="round"/>
<path d="M117.18 77.894C112.667 78.3453 110.447 82.632 106.319 84.133C103.039 85.3257 103.662 87.314 103.662 90.3719C103.662 99.5261 118.788 107.095 124.921 99.2105C130.168 92.4637 109.822 86.5606 105.51 89.3321C98.0906 94.102 102.597 111.684 112.038 106.374C115.784 104.267 120.175 96.3149 120.299 91.9894C120.395 88.6142 121.425 77.2422 115.1 79.0494C105.711 81.732 98.426 106.275 108.052 108.28C114.491 109.621 121.062 110.522 123.187 103.081C124.599 98.1415 122.928 93.3616 118.219 91.0074C114.731 89.2632 104.285 87.4032 101.062 89.9098C93.5305 95.7678 108.899 103.342 115.1 98.6905" stroke="black" stroke-opacity="0.99" stroke-width="3" stroke-linecap="round"/>
<path d="M95.1239 4.43427C89.9896 4.43427 83.1237 3.12852 78.4173 5.2464C72.9531 7.70525 68.0294 10.126 62.9868 13.3677C58.1353 16.4865 53.7054 20.642 49.4127 24.5054C44.193 29.2031 35.9774 31.3789 29.8056 34.715C22.6529 38.5814 18.2959 45.2444 15.5354 52.6978C11.352 63.9929 6.28675 74.5087 2.7154 85.937C1.49427 89.8447 2.19332 94.5938 2.19332 98.641C2.19332 104.316 1.47488 110.537 2.77341 116.102C4.04403 121.547 4.81265 129.334 10.0245 132.808C13.6272 135.21 13.8365 141.277 17.3917 143.308C22.2917 146.108 24.3893 152.974 28.2974 156.882C36.1682 164.753 43.5729 171.875 52.8353 178.288C55.6036 180.204 59.1125 182.486 62.4068 183.218C65.8848 183.991 69.5201 183.545 72.7324 185.075C76.5616 186.898 80.82 187.529 84.9143 188.439C88.4163 189.217 91.4065 191.236 95.1239 191.34C105.516 191.628 118.165 194.819 128.537 192.152C135.204 190.437 141.695 187.231 148.144 184.843C154.921 182.333 160.442 174.8 167.403 171.732C192.791 160.545 195.364 127.965 195.364 103.108C195.364 90.3864 193.671 80.4163 188.286 68.3023C185.461 61.9443 180.508 54.3226 176.047 48.8692C173.286 45.4955 170.665 42.0916 167.693 38.8917C164.772 35.7458 161.9 32.4905 158.818 29.4942C156.872 27.6022 153.693 26.317 152.553 23.7513C149.893 17.7674 139.681 13.7786 134.802 9.59708C131.074 6.40174 128.425 6.12606 123.838 5.42042C111.128 3.46499 97.6264 4.43427 84.6822 4.43427" stroke="#E21D20" stroke-width="3" stroke-linecap="round"/>
<path d="M46.2195 154.157C44.9334 153.405 48.4427 156.169 49.7288 156.92C54.6707 159.809 59.0556 164.321 63.4544 167.949C66.7251 170.646 71.0311 173.703 75.224 174.67C78.8027 175.495 82.5893 175.782 86.0747 176.701C86.4112 176.79 88.4571 176.214 88.8756 176.084C89.6979 175.829 85.7284 174.991 85.344 174.89C78.6862 173.134 72.4169 168.758 66.5057 165.303C64.8621 164.342 63.1762 163.427 61.582 162.385C57.7844 159.904 56.1382 154.566 54.0306 150.813C51.5272 146.355 53.0446 150.443 54.0765 151.987C56.7745 156.023 63.4073 158.508 67.4339 160.862C71.4423 163.205 78.8717 168.827 84.0281 166.844C84.7643 166.561 80.6609 165.711 80.4186 165.644C74.1478 163.91 68.6392 160.215 63.0829 156.895C61.0389 155.674 57.0606 153.68 56.3711 151.192C56.2377 150.711 55.7341 149.04 56.328 149.387C64.8947 154.395 72.6173 160.491 82.3468 163.528C84.458 164.187 86.5596 164.285 88.6918 163.875C90.2774 163.57 85.3629 162.34 85.0121 162.238C77.8501 160.148 71.4374 156.795 65.0115 153.039C61.6681 151.085 57.4659 149.454 55.3171 146.107C51.22 139.725 57.7858 144.544 60.7492 146.276C68.3213 150.702 75.7911 155.629 83.747 159.323C86.7645 160.724 91.463 162.433 94.8663 161.591C96.8086 161.11 90.0175 157.826 89.776 157.706C82.2712 153.962 74.6835 150.513 67.5985 145.969C64.7336 144.131 62.7358 141.747 61.2507 138.739C60.5397 137.298 60.6342 136.243 62.3327 137.235C67.8329 140.45 73.0002 143.544 79.1739 145.3C79.4186 145.369 84.6411 146.699 84.6534 145.457C84.6689 143.898 73.2669 138.669 71.5666 137.65C68.0335 135.532 64.4863 130.055 71.0561 133.792C79.1013 138.367 88.626 146.854 98.312 146.164C99.9435 146.047 100.869 145.336 98.9524 144.442C94.3518 142.295 90.052 139.912 85.6553 137.342C83.2903 135.959 78.1551 134.093 76.6429 131.678C75.9881 130.633 75.336 129.174 77.0979 130.204C79.5947 131.664 82.032 133.006 84.774 133.979C85.6745 134.299 93.835 136.822 92.4265 135.011C89.0579 130.679 84.5831 127.237 80.952 123.123C79.5632 121.55 81.1245 122.591 81.6521 122.9C83.6729 124.081 85.6938 125.262 87.7146 126.443C89.9812 127.768 94.5549 131.678 97.2702 131.317C97.4386 131.294 91.5462 121.807 90.8755 120.618C90.5433 120.029 88.8173 117.234 89.5643 116.53C90.1041 116.021 92.5069 117.879 93.0407 118.166C93.9494 118.656 100.619 119.748 97.7067 118.046C96.6926 117.453 93.572 111.749 94.6699 112.039C97.0827 112.676 99.9098 113.639 102.098 114.917" stroke="#E2901D" stroke-width="3" stroke-linecap="round"/>
<path d="M129.303 109.648C129.598 106.403 132.523 104.084 134.258 101.559C134.551 101.134 135.2 99.8145 135.2 100.331C135.2 102.91 133.95 104.792 132.989 107.15C131.897 109.826 130.989 112.563 129.753 115.177C128.417 118.004 131.721 114.786 132.497 114.173C135.456 111.837 137.604 109.067 139.767 106.023C140.73 104.668 141.955 103.225 142.49 101.621C143.706 97.972 139.398 108.69 138.354 112.392C138.191 112.968 136.119 119.324 137.043 119.231C138.926 119.043 140.801 116.006 141.999 114.808C144.351 112.456 147.033 110.292 148.818 107.436C149.394 106.514 150.631 103.57 150.517 104.651C150.44 105.388 149.543 106.329 149.207 106.945C147.968 109.212 146.803 111.56 145.726 113.907C143.954 117.769 142.358 121.717 140.729 125.641C139.888 127.667 138.568 129.408 137.698 131.395C137.528 131.785 138.357 130.853 138.681 130.576C139.912 129.523 141.247 128.634 142.572 127.709C146.283 125.118 148.979 121.361 151.029 117.368C152.837 113.847 154.369 110.112 155.473 106.31C155.655 105.681 157.572 101.59 156.865 100.883C156.654 100.672 156.555 101.409 156.497 101.703C156.119 103.591 155.532 105.436 155.104 107.313C153.974 112.275 153.315 117.443 151.787 122.303C150.163 127.466 146.3 133.313 142.777 137.476C142.35 137.98 142.438 138.859 142.04 139.258C139.778 141.52 146.711 134.886 149.125 132.787C155.174 127.527 159.93 119.85 163.357 112.699C164.403 110.515 164.975 108.293 165.793 106.044C165.973 105.549 166.142 105.101 166.162 104.569C166.168 104.419 166.221 103.981 166.162 104.119C163.058 111.363 160.565 119.099 157.848 126.46C156.333 130.564 152.257 141.679 150.272 146.794C149.199 149.557 149.801 148.861 148.756 149.906C147.975 150.688 147.226 151.486 146.504 152.323C145.665 153.293 144.408 154.612 143.309 155.271C142.133 155.977 145.69 153.903 146.831 153.142C149.883 151.107 152.198 148.53 154.572 145.77C161.775 137.394 169.348 128.715 171.978 117.634C173.109 112.865 173.165 107.379 173.165 102.481C173.165 100.739 173.165 100.111 173.165 102.399C173.165 107.651 173.334 112.94 172.715 118.166C172.051 123.773 170.143 129.202 168.66 134.63C167.417 139.179 165.628 143.753 163.418 147.92C160.037 154.296 155.854 161.154 150.763 166.329C150.155 166.947 148.963 167.708 148.49 168.418C147.314 170.182 151.68 165.617 153.179 164.118C159.449 157.848 165.014 151.917 169.418 144.152C173.866 136.31 175.542 126.777 177.302 118.043C178.224 113.468 179.18 108.883 180.189 104.344C180.955 100.898 182.065 111.17 182.564 114.665C183.627 122.105 183.396 129.44 181.029 136.596C179.861 140.124 178.493 143.369 176.564 146.548C174.432 150.063 171.708 152.638 169.193 155.845C165.282 160.831 160.851 164.742 155.841 168.623C153.353 170.55 151.166 174.235 148.101 175.257" stroke="#E2901D" stroke-width="3" stroke-linecap="round"/>
<path d="M119.909 71.5783C121.145 71.5783 122.382 71.5783 123.619 71.5783C124.513 71.5783 124.69 71.6105 123.998 70.9186C122.717 69.6374 121.708 68.1308 120.403 66.8784C118.782 65.3221 120.346 65.6416 121.855 65.6416C122.175 65.6416 127.297 66.397 127.297 66.0539C127.297 63.5247 124.955 61.2895 124.955 58.8145" stroke="#E2901D" stroke-width="3" stroke-linecap="round"/>
<path d="M124.064 58.5177C124.889 58.5177 131.463 58.4629 131.435 58.3363C131.271 57.5965 129.899 56.9621 129.374 56.5388C127.678 55.1728 126.113 53.7836 124.262 52.614C122.977 51.8028 121.872 50.8733 120.683 49.9425C119.571 49.072 120.945 49.3159 121.739 49.3159C125.693 49.3159 128.942 50.6044 132.738 51.3937C134.813 51.8251 136.986 52.6637 139.136 52.581C140.161 52.5416 136.182 48.5691 135.772 48.1945C135.501 47.9473 133.562 45.8162 133.562 46.0507" stroke="#E2901D" stroke-width="3" stroke-linecap="round"/>
<path d="M133.563 45.4569C134.745 45.4569 135.926 45.4569 137.108 45.4569C138.662 45.4569 135.947 44.0961 135.707 43.9398C132.121 41.6076 128.618 39.1084 125.152 36.6014C124.896 36.4161 122.283 34.6952 123.009 35.0678C128.075 37.6696 132.426 41.2213 136.96 44.6324C139.909 46.8507 142.7 49.2459 145.832 51.2122C146.496 51.6294 147.133 52.1227 147.811 52.515C147.887 52.5594 148.001 52.7256 148.042 52.6469C148.696 51.3821 148.817 48.4869 149.097 47.2874C149.772 44.3925 150.19 41.8442 153.236 43.7749C153.521 43.9555 155.504 45.1359 155.495 45.1271C152.687 42.1186 149.555 39.7198 146.36 37.1456C140.324 32.284 135.586 25.8487 128.286 22.8976C127.396 22.5382 126.564 21.9318 127.725 23.3099C131.868 28.2293 136.393 32.9525 141.445 36.9477C144.035 38.9957 146.602 41.0357 149.097 43.1977C150.093 44.0614 149.703 44.0823 148.305 43.7749C141.326 42.2395 134.807 38.1688 130.347 32.5942C128.909 30.7961 130.779 32.8588 131.584 33.4187C136.827 37.0646 142.819 39.8351 148.437 42.8514C150.05 43.7169 151.716 44.4579 153.352 45.2755C153.905 45.5522 154.908 46.3982 155.594 46.3474C156.873 46.2527 152.404 37.6601 152.098 36.9642C148.673 29.1791 145.404 20.111 136.366 17.8515C135.045 17.5212 133.79 17.5547 132.441 17.5547C131.782 17.5547 131.122 17.5547 130.462 17.5547C129.619 17.5547 132.502 17.9742 132.755 18.0329C141.817 20.1366 145.768 28.2743 151.785 34.4247C153.839 36.524 156.01 38.6453 157.771 41.0044C158.34 41.7662 158.833 43.2502 159.684 43.6759" stroke="#E2901D" stroke-width="3" stroke-linecap="round"/>
</svg>
