<svg width="194" height="200" viewBox="0 0 194 200" fill="none" xmlns="http://www.w3.org/2000/svg">
<path d="M128.105 3.19963C119.08 3.19963 110.258 2.15981 101.301 2.15981C88.3703 2.15981 69.1638 1.26864 57.9169 10.0163C41.3249 22.9211 23.2725 37.3341 11.6447 55.422C9.09443 59.389 8.78496 64.9706 8.46741 69.5751C7.84827 78.5526 6.44553 87.1932 6.44553 96.2062C6.44553 103.943 5.58765 111.887 8.06303 119.313C10.3342 126.127 12.9866 132.745 15.3418 139.474C19.1783 150.436 29.2303 162.029 37.8713 169.341C49.8619 179.486 63.6677 189.003 79.2333 191.87C87.4686 193.387 95.5884 195.189 103.727 197.127C118.178 200.568 128.445 191.626 140.641 185.169C151.703 179.312 156.04 173.167 161.379 162.755C165.16 155.382 171.079 149.017 174.839 141.496C178.118 134.939 180.854 126.572 182.407 119.429C185.59 104.788 186.335 89.5175 186.335 74.4854C186.335 65.8443 185.889 56.1593 182.985 47.9121C181.23 42.9287 179.95 36.3727 176.399 32.3147C170.356 25.4084 164.364 22.4005 156.989 17.7572C151.102 14.0504 144.535 12.2236 139.023 7.93661C134.102 4.10895 127.996 3.19963 121.866 3.19963" stroke="black" stroke-opacity="0.99" stroke-width="3" stroke-linecap="round"/>
<path d="M74.0342 7.35889C74.0342 15.6854 80.045 22.9211 82.1217 30.8127C84.3653 39.3384 87.895 47.4395 90.6714 55.7685C93.3574 63.8267 96.7782 71.329 98.99 79.6845C101.662 89.7772 104.366 99.8734 106.5 110.07C109.863 126.141 113.481 142.153 117.476 158.133C119.075 164.532 120.006 170.979 121.635 177.312C122.293 179.873 123.792 190.811 122.906 190.368" stroke="black" stroke-opacity="0.99" stroke-width="3" stroke-linecap="round"/>
<path d="M34.5205 40.6333C42.7081 41.1149 51.5168 49.951 58.4942 53.6889C69.4978 59.5837 78.2922 69.5428 88.5914 76.565C102.574 86.0983 113.966 98.2428 125.794 110.071C131.015 115.291 136.739 119.22 141.622 124.801C144.881 128.525 148.056 132.332 151.559 135.835C155.174 139.451 158.902 142.984 162.419 146.695C164.067 148.435 170.203 157.064 166.578 149.815" stroke="black" stroke-opacity="0.99" stroke-width="3" stroke-linecap="round"/>
<path d="M12.6836 118.62C32.9204 118.62 51.3502 109.801 69.9895 103.023C75.6152 100.977 80.1405 96.8566 85.7024 94.473C90.4566 92.4355 95.3206 90.714 100.029 88.6961C102.89 87.4699 106.855 87.584 110.023 86.3854C115.822 84.1911 121.917 82.3022 127.526 79.6843C138.415 74.603 150.675 71.3107 162.187 67.8996C165.647 66.8746 169.785 67.3601 173.337 66.571C177.12 65.7302 180.374 63.5093 184.255 63.5093" stroke="black" stroke-opacity="0.99" stroke-width="3" stroke-linecap="round"/>
<path d="M105.228 78.0669C100.239 78.0669 90.6709 81.4433 90.6709 87.0209C90.6709 94.2338 93.6941 100.92 101.647 102.792C106.088 103.837 109.388 94.666 109.388 91.0647C109.388 82.03 96.802 80.9979 92.7505 87.1942C88.2244 94.1165 94.3023 99.7467 101.647 101.405C106.64 102.533 110.238 99.5748 111.236 94.473C112.036 90.3835 113.75 77.4986 108.117 76.2183C98.4936 74.0312 91.7107 76.7572 91.7107 86.9631C91.7107 92.4182 92.8619 99.9032 100.029 99.9032" stroke="black" stroke-opacity="0.99" stroke-width="3" stroke-linecap="round"/>
<path d="M107.257 75.9625C100.27 75.9625 93.6841 75.2607 93.6841 83.7181C93.6841 89.9915 106.284 102.628 108.98 92.4433C110.961 84.9598 88.1888 85.4268 89.2676 95.1362C89.4044 96.3667 102.74 96.497 104.348 96.2673C106.756 95.9233 108.753 93.6213 109.949 91.6893C113.559 85.8587 104.266 87.1442 100.47 86.6265" stroke="#E21D20" stroke-width="3" stroke-linecap="round"/>
<path d="M108.983 5.67329C98.3387 5.67329 87.8012 3.58496 77.1942 3.58496C74.9554 3.58496 73.4497 4.3872 71.3933 4.62912C68.6769 4.9487 65.1621 5.44003 62.1119 5.90532C56.2095 6.80568 50.5694 8.31815 44.8252 9.84994C41.9906 10.6058 40.2607 13.0285 37.516 14.0266C30.5824 16.5479 24.144 30.9954 19.7072 36.4181C10.7922 47.3142 7.07137 60.8132 4.56684 74.5881C2.84319 84.0682 2.47852 93.3778 2.47852 103.013C2.47852 111.033 4.81413 117.286 6.65517 124.65C8.84386 133.405 18.4932 142.001 23.3618 149.304C32.5277 163.053 45.3431 173.635 59.5015 182.253C64.8422 185.504 71.3287 191.534 77.8903 191.534C85.5327 191.534 92.9349 192.579 100.572 192.579C109.861 192.579 122.534 193.402 130.911 189.214C142.173 183.583 151.405 177.637 160.379 168.331C164.842 163.702 170.551 159.186 173.663 153.48C176.678 147.954 178.428 141.886 181.031 136.194C183.025 131.831 183.238 127.188 184.163 122.562C185.61 115.325 187.122 107.563 189.152 100.46C192.238 89.6596 191.472 76.3808 191.472 65.1906C191.472 55.4278 184.024 44.2969 180.508 35.3739C178.874 31.2259 177.294 26.9723 175.346 22.96C172.575 17.2549 169.5 17.3471 163.048 15.7669C158.237 14.5888 153.016 15.0708 148.081 15.0708C141.868 15.0708 135.443 12.3832 129.634 10.6621C125.65 9.48148 121.87 7.55093 117.859 6.65944C113.315 5.64983 108.181 5.05773 103.762 3.58496" stroke="#E21D20" stroke-width="3" stroke-linecap="round"/>
<path d="M20.0792 57.1245C20.0792 55.66 19.4578 60.0095 19.4578 61.474C19.4578 67.1018 17.7565 73.0623 16.8343 78.5958C16.1486 82.7102 15.677 87.8819 16.9724 91.9204C18.078 95.3673 19.7594 98.7236 20.735 102.138C20.8292 102.468 22.3757 103.919 22.7027 104.209C23.3452 104.781 22.0508 100.996 21.9432 100.619C20.0796 94.0968 20.7005 86.6045 20.7005 79.873C20.7005 78.0013 20.6391 76.1163 20.735 74.2463C20.9635 69.7918 24.7825 65.7463 26.9831 62.0954C29.5969 57.7588 26.8029 61.075 25.982 62.7167C23.8359 67.0091 25.05 73.8722 25.05 78.4577C25.05 83.0223 23.9329 92.1179 28.2949 95.5105C28.9176 95.9948 27.566 92.0902 27.5009 91.8514C25.8147 85.6687 26.2297 79.1597 26.2927 72.7965C26.3159 70.4556 26.0266 66.0896 27.8461 64.2701C28.1979 63.9183 29.3995 62.6618 29.3995 63.3381C29.3995 73.0937 28.0187 82.673 30.3315 92.4382C30.8334 94.5571 31.82 96.3895 33.2657 97.9959C34.3408 99.1905 32.9065 94.4091 32.8169 94.0606C30.9871 86.9447 30.6422 79.8381 30.6422 72.5203C30.6422 68.7129 29.9216 64.3371 31.7468 60.8526C35.227 54.2087 34.3703 62.1727 34.3703 65.5473C34.3703 74.1704 33.8808 82.9551 34.7155 91.5407C35.0321 94.797 35.9381 99.6327 38.4091 102.104C39.8194 103.514 39.2211 96.1204 39.2031 95.8557C38.6421 87.6281 37.7811 79.4768 38.133 71.2086C38.2752 67.8652 39.3371 64.9865 41.2052 62.2334C42.0997 60.9153 43.0693 60.4717 43.0693 62.406C43.0693 68.6695 43.0051 74.5905 44.6227 80.7015C44.6868 80.9438 46.1902 86.0365 47.2807 85.4307C48.6497 84.6702 47.3966 72.398 47.4188 70.4491C47.4648 66.3995 50.435 60.6718 50.5256 68.1018C50.6365 77.2005 48.088 89.4957 53.6323 97.3745C54.5662 98.7016 55.659 99.134 55.4619 97.0639C54.9885 92.0938 54.875 87.2617 54.875 82.2549C54.875 79.5617 53.884 74.277 55.2202 71.7954C55.7988 70.7209 56.7391 69.4439 56.7391 71.4502C56.7391 74.2936 56.8113 77.028 57.3605 79.8385C57.5408 80.7615 59.5015 88.94 60.3637 86.846C62.426 81.8375 63.1476 76.3316 64.8858 71.2086C65.5506 69.2491 65.4381 71.091 65.4381 71.6918C65.4381 73.9932 65.4381 76.2945 65.4381 78.5958C65.4381 81.1769 64.359 86.9988 66.0594 89.1243C66.1649 89.2562 71.4395 79.5478 72.1349 78.3887C72.4794 77.8146 74.0385 74.9628 75.0346 75.2474C75.7542 75.453 75.3585 78.4142 75.3798 79.01C75.416 80.0243 77.8652 86.2272 77.8652 82.9108C77.8652 81.756 81.2515 76.2775 81.5588 77.3531C82.2342 79.7168 82.836 82.5941 82.836 85.0855" stroke="#E2901D" stroke-width="3" stroke-linecap="round"/>
<path d="M21.0698 132.478C20.0699 131.408 22.5856 135.01 23.5855 136.08C27.4279 140.192 30.2545 145.709 33.3587 150.381C35.6668 153.856 38.8533 157.956 42.5571 160.023C45.7183 161.786 49.2383 163.09 52.2825 164.919C52.5765 165.096 54.6969 165.1 55.1343 165.089C55.9937 165.068 52.464 163.186 52.1283 162.985C46.3133 159.491 41.6515 153.593 37.0555 148.675C35.7776 147.307 34.4458 145.972 33.2391 144.54C30.3647 141.13 30.3929 135.566 29.508 131.396C28.457 126.443 28.6797 130.774 29.2008 132.534C30.5634 137.135 36.1364 141.321 39.2672 144.671C42.3837 148.006 47.7776 155.414 53.2809 154.915C54.0666 154.844 50.4132 152.914 50.2025 152.784C44.7492 149.418 40.6084 144.379 36.3099 139.686C34.7286 137.96 31.5363 134.968 31.6234 132.396C31.6403 131.899 31.6603 130.16 32.122 130.654C38.7828 137.782 44.3143 145.724 52.6714 151.28C54.4847 152.485 56.4567 153.151 58.6098 153.337C60.2109 153.476 55.8984 150.962 55.5951 150.768C49.3997 146.818 44.2955 141.862 39.2993 136.515C36.6997 133.733 33.1856 131.028 32.1402 127.236C30.1467 120.005 34.9583 126.409 37.2623 128.875C43.1498 135.175 48.79 141.928 55.2617 147.631C57.7163 149.794 61.6799 152.709 65.1725 152.827C67.1657 152.894 61.6806 147.901 61.4866 147.72C55.4594 142.091 49.2649 136.723 43.8768 130.442C41.698 127.902 40.5084 125.074 39.9936 121.787C39.7472 120.213 40.1528 119.227 41.4734 120.64C45.7499 125.217 49.7456 129.587 55.0998 132.947C55.3121 133.08 59.8876 135.775 60.2708 134.588C60.7517 133.097 51.4573 124.986 50.1429 123.547C47.4116 120.557 45.671 114.344 50.8101 119.711C57.1034 126.283 63.636 137.007 73.0663 138.978C74.6546 139.31 75.7484 138.879 74.1909 137.502C70.4517 134.193 67.0697 130.74 63.6512 127.082C61.8124 125.114 57.4802 121.93 56.7621 119.204C56.4512 118.024 56.2664 116.449 57.6362 117.915C59.5776 119.993 61.4973 121.941 63.8174 123.62C64.5793 124.171 71.5958 128.808 70.7961 126.689C68.8833 121.622 65.6514 117.106 63.4235 112.176C62.5715 110.291 63.7468 111.713 64.157 112.152C65.7283 113.834 67.2995 115.515 68.8708 117.197C70.6331 119.083 73.8195 124.073 76.5132 124.465C76.6803 124.489 73.9056 113.795 73.6224 112.473C73.4821 111.818 72.6742 108.67 73.5962 108.198C74.2624 107.857 75.9951 110.291 76.4174 110.712C77.1364 111.428 83.161 114.288 80.8966 111.865C80.1082 111.021 78.8419 104.706 79.8008 105.282C81.9081 106.548 84.3124 108.239 86.0134 110.06" stroke="#E2901D" stroke-width="3" stroke-linecap="round"/>
<path d="M65.0486 177.048C63.6116 176.766 67.7595 178.215 69.1965 178.497C74.7185 179.583 80.2388 182.402 85.4904 184.375C89.3952 185.841 94.3788 187.302 98.5913 186.81C102.187 186.39 105.804 185.388 109.343 185.09C109.685 185.061 111.407 183.823 111.755 183.558C112.439 183.038 108.476 183.578 108.086 183.611C101.326 184.181 94.0946 182.126 87.4896 180.828C85.653 180.466 83.7916 180.163 81.9752 179.708C77.6485 178.625 74.4159 174.097 71.2581 171.233C67.5073 167.832 70.2221 171.213 71.6746 172.335C75.4722 175.269 82.4407 175.402 86.94 176.287C91.4189 177.167 100.128 180.018 104.298 176.393C104.894 175.875 100.802 176.448 100.555 176.466C94.1631 176.928 87.8565 175.265 81.6249 173.975C79.3325 173.501 74.9928 172.942 73.5585 170.806C73.2811 170.393 72.2801 168.971 72.9437 169.102C82.516 170.984 91.6489 174.187 101.677 173.802C103.853 173.718 105.841 173.104 107.696 171.995C109.076 171.171 104.108 171.655 103.748 171.676C96.4131 172.099 89.3734 171.066 82.1931 169.654C78.4573 168.92 74.0247 168.782 70.9578 166.319C65.1102 161.622 72.7592 164 76.0705 164.651C84.5316 166.314 93.0567 168.49 101.642 169.327C104.898 169.645 109.818 169.689 112.719 167.741C114.375 166.629 107.005 165.79 106.742 165.756C98.5606 164.719 90.3963 163.991 82.3513 162.051C79.0982 161.266 76.4785 159.669 74.1376 157.305C73.0167 156.173 72.7686 155.136 74.6666 155.509C80.8124 156.718 86.6097 157.923 92.918 157.515C93.1681 157.499 98.4552 157.006 98.0711 155.819C97.589 154.329 85.3057 153.191 83.3977 152.793C79.4331 151.967 74.386 147.947 81.6939 149.292C90.6431 150.938 102.216 155.811 111.016 151.891C112.498 151.231 113.133 150.242 111.064 150.036C106.096 149.542 101.333 148.721 96.4202 147.755C93.7776 147.235 88.4011 147.188 86.2239 145.398C85.2812 144.623 84.2096 143.454 86.1782 143.841C88.9682 144.39 91.6652 144.846 94.5288 144.85C95.4692 144.851 103.872 144.505 101.984 143.255C97.4676 140.265 92.2044 138.495 87.5129 135.801C85.7186 134.77 87.5041 135.236 88.0937 135.352C90.3518 135.796 92.6098 136.24 94.8679 136.684C97.4006 137.182 102.905 139.364 105.318 138.106C105.468 138.028 96.9599 130.979 95.9567 130.073C95.4599 129.624 92.9625 127.544 93.4339 126.622C93.7745 125.956 96.6038 126.915 97.1925 127.009C98.1946 127.169 104.754 125.963 101.499 125.323C100.366 125.1 95.6441 120.721 96.7588 120.627C99.2084 120.42 102.148 120.385 104.592 120.865" stroke="#E2901D" stroke-width="3" stroke-linecap="round"/>
<path d="M171.604 126.912C171.318 128.349 172.778 124.205 173.064 122.768C174.164 117.249 176.997 111.736 178.983 106.489C180.46 102.588 181.933 97.6085 181.452 93.3947C181.041 89.7982 180.048 86.178 179.758 82.6385C179.73 82.2968 178.497 80.5717 178.234 80.2228C177.715 79.537 178.245 83.5017 178.277 83.892C178.83 90.653 176.756 97.8795 175.441 104.481C175.075 106.317 174.767 108.177 174.307 109.993C173.213 114.317 168.677 117.538 165.805 120.688C162.394 124.43 165.782 121.724 166.908 120.274C169.852 116.484 170.002 109.516 170.899 105.019C171.791 100.543 174.664 91.8407 171.049 87.6611C170.533 87.0643 171.095 91.1578 171.113 91.4048C171.558 97.7978 169.879 104.1 168.574 110.328C168.093 112.62 167.524 116.958 165.384 118.387C164.97 118.663 163.546 119.66 163.678 118.997C165.585 109.43 168.811 100.305 168.451 90.276C168.373 88.0999 167.764 86.11 166.66 84.2521C165.839 82.8704 166.311 87.8399 166.331 88.1992C166.735 95.5355 165.684 102.572 164.254 109.749C163.51 113.483 163.361 117.915 160.89 120.976C156.179 126.812 158.575 119.169 159.235 115.859C160.92 107.402 163.117 98.8826 163.976 90.2995C164.302 87.044 164.359 82.1246 162.418 79.2183C161.311 77.5596 160.453 84.9275 160.419 85.1907C159.361 93.3692 158.612 101.532 156.651 109.572C155.858 112.823 154.254 115.438 151.884 117.773C150.749 118.891 149.712 119.137 150.09 117.24C151.314 111.097 152.534 105.303 152.142 98.9934C152.126 98.7433 151.647 93.4549 150.459 93.836C148.968 94.3143 147.799 106.595 147.396 108.502C146.559 112.464 142.527 117.501 143.89 110.197C145.56 101.252 150.462 89.6916 146.564 80.8811C145.908 79.3972 144.921 78.7595 144.71 80.8282C144.202 85.795 143.369 90.556 142.391 95.4663C141.864 98.1076 141.804 103.484 140.008 105.657C139.231 106.597 138.059 107.666 138.451 105.698C139.007 102.91 139.47 100.214 139.481 97.3504C139.485 96.4099 139.16 88.006 137.905 89.8911C134.904 94.3999 133.12 99.6586 130.414 104.343C129.379 106.135 129.85 104.351 129.967 103.761C130.417 101.504 130.867 99.2474 131.316 96.9905C131.821 94.4591 134.017 88.9604 132.765 86.5435C132.687 86.3936 125.617 94.884 124.708 95.8848C124.258 96.3805 122.172 98.8726 121.251 98.3988C120.585 98.0565 121.552 95.2297 121.647 94.6413C121.81 93.6395 120.62 87.0775 119.972 90.33C119.747 91.4625 115.355 96.1736 115.264 95.0587C115.063 92.6085 115.035 89.669 115.522 87.2257" stroke="#E2901D" stroke-width="3" stroke-linecap="round"/>
</svg>
