<svg width="51.299805" height="47.161774" viewBox="0 0 51.2998 47.1618" fill="none" xmlns="http://www.w3.org/2000/svg" xmlns:xlink="http://www.w3.org/1999/xlink">
	<desc>
			Created with Pixso.
	</desc>
	<defs/>
	<path id="Vector 840" d="M4.4 14.63C4.4 19.79 -0.51 24.23 2.15 29.55C4.42 34.1 9.43 39.84 13.96 42.22C20.37 45.6 27.61 47.07 34.25 43.74C41.53 40.1 45.33 35.6 48.28 28.06C50.65 22.01 50.44 16.47 46.46 11.34C42.2 5.87 36.2 1.5 29.14 1.5C23.54 1.5 19.17 1.45 14.25 4.18C11.94 5.47 10.34 7.84 8.25 9.55C6.51 10.98 3.21 13.29 3.21 15.82" stroke="#E21D20" stroke-opacity="1.000000" stroke-width="3.000000" stroke-linecap="round"/>
	<path id="Vector 841" d="M16.94 11.05C13.85 11.05 11.18 15.8 9.91 18.21C8.38 21.12 8.58 24.76 8.58 28.03C8.58 34.86 13.87 39.44 18.73 42.68" stroke="#E21D20" stroke-opacity="1.000000" stroke-width="3.000000" stroke-linecap="round"/>
	<path id="Vector 842" d="M16.94 11.64C23.67 11.64 33.77 9.59 39.33 14.03C43.81 17.62 46.79 23.81 46.79 29.55" stroke="#E21D20" stroke-opacity="1.000000" stroke-width="3.000000" stroke-linecap="round"/>
	<path id="Vector 843" d="M28.88 18.81C27.27 18.81 24.65 18.19 23.8 19.7C23.08 21.01 23.51 23.3 23.51 24.78C23.51 27.66 23.57 32.92 27.69 33.13C30.01 33.25 31.51 33.04 33.36 31.61C34.4 30.79 36.43 28.09 35.31 26.7C32.5 23.18 30.93 22.39 26.49 22.39" stroke="#000000" stroke-opacity="1.000000" stroke-width="3.000000" stroke-linecap="round"/>
	<path id="Vector 1177" d="M29.37 23.29C32.23 23.29 31.24 19.56 29.67 22.38C29.32 23.01 28.49 28.19 28.9 28.6C29.58 29.28 29.97 26.05 29.97 25.84C29.97 24.23 29.25 24.5 27.86 24.5C25.79 24.5 27.18 28.71 28.02 29.47C29.76 31.03 31.41 28.18 31.75 26.61C32.53 23.14 27.02 25.85 28.29 27.12C29.35 28.17 32.26 21.47 30.28 23.02C28.53 24.37 27.87 26.89 26.95 28.73" stroke="#000000" stroke-opacity="0.990000" stroke-width="3.000000" stroke-linecap="round"/>
</svg>
