<svg width="59" height="65" viewBox="0 0 59 65" fill="none" xmlns="http://www.w3.org/2000/svg">
<path d="M2.33105 2.47888C2.33105 16.9074 3.86851 31.3113 4.6475 45.3332C4.80423 48.1543 6.04871 59.3534 8.12217 60.3901" stroke="#E21D20" stroke-width="3" stroke-linecap="round"/>
<path d="M3.48926 3.63708C3.92537 7.56213 7.87485 10.5242 10.1812 13.5463C13.6617 18.107 16.7981 22.9486 20.3479 27.445C21.823 29.3135 28.2417 42.2431 30.7075 37.8047C31.7533 35.9224 31.512 33.2785 32.1875 31.1771C33.6135 26.7407 35.6248 22.9882 37.5282 18.7583C39.3174 14.7822 40.4585 10.1161 42.8045 6.59699C44.8271 3.56307 42.7647 13.8909 42.8689 17.5358C43.0228 22.9243 46.0137 28.9658 47.7592 34.0083C49.6732 39.5378 51.4698 45.4878 53.0355 51.1243C53.8284 53.9787 54.0656 61.3555 56.7676 62.7065" stroke="#E21D20" stroke-width="3" stroke-linecap="round"/>
</svg>
