<svg width="333" height="593" viewBox="0 0 333 593" fill="none" xmlns="http://www.w3.org/2000/svg">
<path d="M93.5399 34.0633C93.5399 43.7249 95.7088 56.1285 93.4475 65.5164C92.1751 70.7992 86.763 72.5645 83.5615 76.2565C81.165 79.0202 76.6484 83.2351 73.5831 86.2294C50.8802 108.406 50.3001 139.982 50.3001 169.082C50.3001 188.304 55.5379 206.588 56.9524 225.51C57.5012 232.852 63.2345 241.381 65.6373 248.524C67.8317 255.047 70.2569 264.34 70.2569 271.198C70.2569 292.165 71.4278 313.555 71.92 334.445C72.2631 349.005 75.2462 363.019 75.2462 377.746C75.2462 381.764 81.1021 406.976 74.4146 408.347C63.8545 410.512 56.1709 415.874 46.974 420.366C37.4078 425.038 26.6284 428.913 17.8702 435.197C10.2123 440.692 -5.54864 442.828 6.22876 453.694C13.8883 460.76 21.8572 473.145 25.7236 482.419C29.6438 491.823 37.9214 500.618 42.9087 509.696C45.5253 514.459 46.4207 516.857 50.3001 520.436C54.7196 524.513 57.2337 528.476 60.2785 533.392C62.8714 537.578 67.9157 540.892 70.2569 545.752C72.9904 551.426 77.5799 549.994 70.2569 552.997C64.6302 555.304 57.1452 557.475 51.1316 558.708C48.561 559.235 48.7901 561.432 49.561 560.924C52.7584 558.817 56.6816 557.337 60.2785 555.725C69.1095 551.768 84.5661 548.053 94.3715 548.053C111.27 548.053 98.6856 535.61 94.8334 528.107C87.9122 514.627 83.254 499.781 78.5723 485.744C76.9132 480.769 73.8862 473.024 73.5831 468.27C73.2088 462.4 70.8664 462.753 77.8331 459.831C90.2799 454.612 103.443 453.81 115.529 446.79C127.555 439.804 141.071 436.887 154.242 432.214C162.15 429.408 176.4 421.593 183.346 428.378C190.773 435.633 196.673 449.573 200.346 458.723C206.057 472.949 215.76 480.145 226.493 491.284C235.912 501.06 244.87 511.097 254.488 520.777C264.399 530.751 272.79 543.423 283.499 552.315C287.128 555.328 290.366 543.082 293.293 540.382C298.987 535.129 305.67 529.946 313.065 526.914C313.766 526.627 318.695 526.44 316.391 526.573C312.77 526.782 309.43 528.107 305.581 528.107C301.539 528.107 278.325 532.535 278.141 529.642C277.859 525.22 276.235 519.388 273.151 515.833C267.68 509.523 266.216 501.176 261.51 494.353C255.745 485.995 253.767 475.946 247.559 467.673C243.687 462.514 241.196 456.35 238.227 450.711C231.698 438.309 226.887 425.438 221.227 413.035C218.539 407.146 208.295 390.103 215.776 384.736C228.739 375.434 235.949 362.604 244.879 349.788C248.537 344.539 256.271 336.065 256.521 330.183C256.93 320.566 262.287 310.983 265.575 301.884C274.031 278.48 271.488 253.805 271.488 229.431C271.488 211.179 270.097 187.391 261.51 170.616C256.416 160.663 256.503 146.594 248.945 137.628C242.659 130.173 228.847 119.737 228.249 109.244C227.3 92.6131 230.558 76.4961 229.912 59.8054C229.174 40.7424 215.822 25.0522 211.525 7.21308C208.055 -7.19495 208.292 12.316 208.292 17.186C208.292 22.4715 208.598 23.7223 205.335 26.7328C202.599 29.2568 208.279 37.1319 202.379 37.1319C200.206 37.1319 188.335 35.909 188.335 38.6662C188.335 40.4199 197.16 42.9475 199.145 43.3543C207.721 45.1126 211.618 54.929 211.618 61.6807C211.618 70.6705 203.303 76.6505 203.303 85.4623C203.303 95.8033 199.976 106.032 199.976 116.915C199.976 128.618 206.604 137.115 213.281 147.26C220.12 157.652 222.805 170.168 229.08 180.589C231.338 184.339 231.575 188.634 231.575 192.863C231.575 196.665 223.046 196.616 219.933 197.892C215.232 199.82 209.871 200.352 204.966 202.495C201.658 203.941 197.485 206.452 194.063 207.354C186.824 209.262 190.355 207.797 187.965 202.836C186.023 198.805 186.376 193.825 185.101 189.709C183.423 184.289 186.372 176.958 177.802 181.271C175.26 182.55 173.542 189.538 172.074 192.096C167.256 200.492 155.777 200.131 147.497 203.603C138.302 207.459 121.878 212.042 111.834 212.042C100.295 212.042 103.518 199.412 103.518 191.755C103.518 179.897 94.4089 172.906 90.2138 162.262C86.0878 151.795 82.2426 141.048 86.8876 129.531C90.2756 121.131 94.6744 107.486 102.687 101.572C107.971 97.6723 107.225 82.3812 108.415 76.3417C110.108 67.7539 107.87 60.4707 112.203 52.4749C112.875 51.2353 118.412 42.3879 118.116 42.0758C117.444 41.3669 111.156 48.6103 107.768 45.4853C105.107 43.0295 106.07 36.5501 105.089 33.3814C102.802 25.9969 101.641 38.1822 101.486 38.3252C100.347 39.3761 96.6364 29.6309 94.3715 29.6309C91.5439 29.6309 94.6439 39.1689 95.203 40.2005" stroke="#E2901D" stroke-width="3" stroke-linecap="round"/>
<path d="M151.314 571.973C161.491 571.973 171.559 572.973 181.779 572.973C188.335 572.973 207.526 568.973 200.969 568.973" stroke="#E21D20" stroke-width="3" stroke-linecap="round"/>
<path d="M186.314 557.973C197.955 557.973 209.153 565.905 221.107 565.905C221.735 565.905 227.344 566 226.148 567.888C223.571 571.956 217.38 576.268 213.915 579.29C210.071 582.642 205.101 588.186 200.207 590.692C199.125 591.246 199.592 591.014 199.592 589.701" stroke="#E21D20" stroke-width="3" stroke-linecap="round"/>
<path d="M284.364 120.974C284.364 134.068 283.95 147.137 285.519 160.079C286.427 167.574 295.569 173.654 300.41 179.019C305.782 184.974 311.406 191.295 316.092 197.737C324.961 209.93 330.314 224.512 330.314 239.071C330.314 247.315 326.039 258.406 322.534 265.977C320.965 269.367 318.737 272.709 317.429 276.171C316.578 278.425 317.547 280.512 314.998 277.397" stroke="#E21D20" stroke-width="3" stroke-linecap="round"/>
<path d="M309.314 256.974C309.314 267.199 309.84 281.71 315.059 290.931C315.412 291.554 319.33 285.171 320.314 283.956C322.623 281.109 327.828 276.097 331.314 274.467" stroke="#E21D20" stroke-width="3" stroke-linecap="round"/>
<path d="M276.689 140.974C276.689 133.873 275.559 125.781 277.225 118.868C277.7 116.893 278.181 110.25 281.448 114.211C287.905 122.042 293.701 129.753 301.314 136.934" stroke="#E21D20" stroke-width="3" stroke-linecap="round"/>
<path d="M170.757 208.152C170.757 213.08 168.529 217.061 167.366 221.714" stroke="#E21D20" stroke-width="3" stroke-linecap="round"/>
<path d="M178.668 213.803C178.668 216.709 178.051 219.248 176.407 221.714" stroke="#E21D20" stroke-width="3" stroke-linecap="round"/>
<path d="M151.544 227.365C151.544 229.115 155.42 231.423 156.912 232.136C160.316 233.764 163.313 235.282 167.084 235.841C171.145 236.443 176.217 237.173 180.237 235.966C181.892 235.47 186.973 234.487 187.709 233.015" stroke="#E21D20" stroke-width="3" stroke-linecap="round"/>
<path d="M174.085 237.833C174.085 239.267 174.574 240.122 175.269 241.362C176.164 242.957 176.812 244.684 177.79 246.228C178.21 246.891 178.779 247.752 179.678 247.752C180.583 247.752 180.402 247.724 180.851 247.013C181.963 245.252 182.616 243.221 181.589 241.315C180.892 240.02 180.403 238.656 179.572 237.41" stroke="#E21D20" stroke-width="3" stroke-linecap="round"/>
</svg>
