<svg width="275" height="510" viewBox="0 0 275 510" fill="none" xmlns="http://www.w3.org/2000/svg">
<path d="M58.8223 182.177C58.8223 170.337 65.5159 161.994 71.6113 151.905C79.4747 138.889 84.2446 123.587 90.1473 109.814C102.314 81.4261 117.038 54.9252 131.347 27.7378C134.258 22.2082 136.93 15.8345 139.28 10.254C139.712 9.2276 144.54 -1.17047 144.784 2.96916C144.98 6.30663 146.241 8.95694 146.241 12.4395C146.241 18.7092 145.49 11.0489 147.86 9.52556C150.675 7.71596 157.897 3.78318 157.897 8.79707C157.897 15.6389 153.677 17.4988 148.507 20.4529C142.08 24.1254 142.454 33.3292 139.765 39.4746C137.694 44.2094 138.247 50.1003 136.609 55.0157C133.168 65.3382 128.996 75.2408 125.843 85.6931C119.51 106.692 112.71 127.248 106.822 147.858C104.747 155.119 107.965 155.719 113.378 161.132C118.883 166.637 119.193 172.374 127.3 164.694C133.334 158.977 141.955 153.03 145.593 145.753C146.903 143.134 162.268 122.457 162.268 131.183C162.268 141.969 157.681 143.798 152.069 151.905C147.215 158.916 144.506 165.491 154.335 169.065C164.153 172.635 175.181 176.253 183.313 182.906C189.675 188.111 198.669 189.914 204.844 194.966C208.586 198.028 215.835 199.358 216.176 205.489C216.714 215.176 213.038 217.776 208.082 225.887C192.623 251.183 181.315 279.479 164.453 303.835C156.796 314.895 152.487 329.484 147.374 340.988C143.676 349.31 138.684 343.346 135.718 338.074C134.157 335.299 137.456 343.169 137.499 343.902C137.707 347.444 133.974 347.578 131.024 346.735C126.33 345.394 133.356 326.599 133.776 325.042C136.064 316.543 140.34 309.628 143.894 301.731C147.343 294.066 149.04 285.692 152.069 277.852C155.088 270.039 157.429 261.697 161.539 254.298C162.669 252.265 167.524 234.942 169.553 239" stroke="#E2901D" stroke-width="3" stroke-linecap="round"/>
<path d="M57.3652 183.634C57.3652 194.966 57.3652 206.299 57.3652 217.631C57.3652 227.542 59.8066 236.471 61.4124 246.284C63.7714 260.701 69.0211 273.108 69.0211 287.889C69.0211 300.867 70.478 313.017 70.478 325.69C70.478 345.595 69.0211 365.098 69.0211 384.697C69.0211 400.605 70.3134 414.641 77.1154 429.216C81.2326 438.039 85.1645 446.697 89.4188 455.442C94.5519 465.993 96.4894 477.78 101.398 488.143C102.546 490.567 105.73 499.799 101.803 499.799C98.1757 499.799 83.3215 502.563 82.2148 506.436C81.315 509.585 97.2789 505.627 101.075 505.627C102.458 505.627 107.905 506.418 108.279 504.736C109.48 499.331 108.239 492.533 108.359 487.01C108.912 461.584 112.73 436.525 112.73 411.004C112.73 403.399 114.187 396.668 114.187 389.068C114.187 381.907 113.572 378.869 121.472 378.869C128.185 378.869 132.644 386.132 138.956 387.935C145.759 389.879 152.81 395.267 159.192 398.458C164.282 401.003 168.162 401.393 173.6 402.505C193.783 406.633 207.515 421.409 224.108 431.968C229.724 435.542 234.913 440.443 240.944 443.3C249.745 447.469 247.922 448.028 254.381 439.415C261.01 430.577 266.226 420.116 272.998 411.651C273.282 411.297 261.038 415.144 257.7 416.022C250.351 417.956 244.196 418.208 236.574 418.208C227.503 418.208 224.517 413.692 217.309 409.466C203.702 401.489 186.429 382.47 184.041 365.757C182.678 356.213 171.781 343.179 167.772 335.16C165.399 330.415 162.268 324.571 162.268 319.133" stroke="#E2901D" stroke-width="3" stroke-linecap="round"/>
<path d="M18.028 247.741C14.9546 220.081 14.0367 188.479 22.7227 161.456C26.9788 148.215 32.4976 135.039 38.4257 122.441C41.9794 114.89 42.3345 94.2613 50.0815 90.3878" stroke="#E21D20" stroke-width="3" stroke-linecap="round"/>
<path d="M26.7695 94.7587C33.3928 88.1354 39.7507 81.2155 47.1672 75.4942C48.9472 74.1211 60.28 63.6499 60.28 69.2616C60.28 75.4573 61.0172 82.1474 60.1991 88.2832C59.8603 90.8245 58.1023 107.887 55.9091 103.501" stroke="#E21D20" stroke-width="3" stroke-linecap="round"/>
<path d="M2 240.457C6.37373 244.393 10.3553 248.65 14.4653 252.76C15.5987 253.893 16.3615 254.446 17.3792 255.755C22.1436 261.88 29.6514 242.838 31.1396 240.457" stroke="#E21D20" stroke-width="3" stroke-linecap="round"/>
<path d="M211.805 314.762C211.805 317.276 211.741 327.228 216.176 327.228C217.305 327.228 222.445 318.692 223.461 317.676C226.938 314.199 231.24 307.478 236.573 307.478" stroke="#E21D20" stroke-width="3" stroke-linecap="round"/>
<path d="M220.547 324.961C220.547 300.053 224.709 277.797 230.746 253.65C234.625 238.134 244.766 226.078 249.686 211.317" stroke="#E21D20" stroke-width="3" stroke-linecap="round"/>
<path d="M236.574 217.145C236.574 212.387 251.021 187.507 252.601 190.272C256.057 196.32 259.886 216.826 259.886 209.86" stroke="#E21D20" stroke-width="3" stroke-linecap="round"/>
<path d="M129.014 175.438C129.014 178.498 142.553 183.827 143.791 181.349" stroke="#E21D20" stroke-width="3" stroke-linecap="round"/>
<path d="M139.358 165.094C139.358 166.248 139.393 168.525 138.373 169.035" stroke="#E21D20" stroke-width="3" stroke-linecap="round"/>
<path d="M143.299 168.542V172.975" stroke="#E21D20" stroke-width="3" stroke-linecap="round"/>
<path d="M130.008 178.471C130.008 180.091 129.784 181.906 130.273 183.463C130.662 184.702 131.502 186.23 132.65 186.915C133.631 187.5 134.947 187.867 136.057 187.407C136.638 187.166 137.36 186.808 137.797 186.341C138.598 185.484 138.979 184.28 139.437 183.226" stroke="#E21D20" stroke-width="3" stroke-linecap="round"/>
</svg>
