<svg width="315" height="446" viewBox="0 0 315 446" fill="none" xmlns="http://www.w3.org/2000/svg">
<path d="M10.3435 320.813C10.3435 312.153 9.57496 302.485 8.28336 293.928C5.77769 277.328 6.63527 260.329 6.63527 243.558C6.63527 233.472 7.96602 222.23 5.70821 212.296C2.42815 197.864 2 181.22 2 166.407C2 158.18 4.48818 148.29 8.69538 141.171C11.4951 136.433 13.6172 131.113 16.8329 126.647C19.6495 122.735 23.3449 119.926 26.1034 115.986C30.6077 109.551 34.0497 101.498 39.5457 96.0025C44.3489 91.1992 49.0016 86.15 54.43 81.8391C58.8147 78.3572 62.7162 75.1408 67.7693 72.4656C70.6584 70.9361 75.7104 67.3111 78.9454 66.8003C82.3054 66.2698 86.3632 61.5459 89.143 59.3839C92.3027 56.9263 96.0585 55.3689 99.2891 52.946C109.438 45.3342 123.203 40.9993 135.496 38.2676C141.255 36.9878 148.869 37.8351 154.758 38.0616C158.064 38.1888 162.492 43.6783 160.011 46.8686C156.964 50.7863 165.576 49.1863 168.406 49.1863C170.365 49.1863 174.746 51.3857 176.08 53.1005C176.53 53.6796 161.31 56.9751 159.599 57.7358C157.746 58.5593 156.843 60.2856 155.427 61.7015C154.534 62.5945 154.071 66.6153 153.47 66.7488C147.984 67.9679 142.312 68.2806 136.783 69.5814C125.438 72.2508 114.651 78.1912 103.976 82.7662C99.4268 84.7158 94.7794 85.8007 90.3791 88.3285C83.7834 92.1175 76.8345 95.5805 71.323 100.895C64.8288 107.158 59.8024 112.728 54.43 120.054C50.5832 125.3 48.2128 132.086 46.035 138.183C45.1114 140.769 44.7751 143.072 43.5114 145.6C41.9612 148.7 44.1289 148.327 46.7046 149.308C52.8597 151.653 59.9595 152.231 65.9667 155.076C66.7656 155.455 70.3046 158.191 70.5504 157.085C71.6927 151.945 75.5212 147.156 78.5334 142.819C79.6885 141.155 92.7473 121.724 93.8298 126.595C95.0707 132.18 94.7053 138.103 94.7053 143.952C94.7053 147.299 94.7053 150.647 94.7053 153.995C94.7053 158.43 94.0092 159.878 98.9286 158.785C108.991 156.548 119.491 156.737 129.418 153.428C135.115 151.529 141.236 151.306 146.826 149.102C154.663 146.011 162.335 143.408 169.797 139.677C173.135 138.008 179.173 138.79 182.775 138.389C190.114 137.574 197.495 137.068 204.819 136.123C215.196 134.784 225.873 135.483 236.338 135.402C248.386 135.309 259.202 132.621 271.206 132.621C279.675 132.621 289.237 132.544 297.678 133.6C301.491 134.076 306.771 135.585 309.576 138.389C310.003 138.817 313.537 141.65 312.872 141.84C308.523 143.083 304.008 142.393 299.584 143.025C298.166 143.227 280.212 145.138 285.215 147.917C288.488 149.736 291.965 150.171 295.155 152.501C299.398 155.602 288.73 156.612 286.554 157.188C281.389 158.555 276.716 158.816 271.566 159.712C266.025 160.675 260.597 162.072 255.086 163.008C252.149 163.506 248.949 163.214 245.969 163.214C237.756 163.214 229.421 164.716 221.506 166.922C216.969 168.186 212.445 169.787 207.806 170.63C202.019 171.682 196.835 174.133 191.17 175.266C187.133 176.073 184.662 177.499 180.2 176.914C174.173 176.123 168.078 175.895 161.968 176.244C154.766 176.656 146.379 178.286 140.131 181.961C137.153 183.713 136.423 186.769 136.423 189.892C136.423 199.138 135.971 208.67 131.324 216.931C127.803 223.191 122.652 229.227 120.199 236.039C117.28 244.147 111.45 250.241 107.684 257.773C105.578 261.985 103.231 266.222 103.049 270.958C102.931 274.024 101.651 274.346 103.512 277.241C105.803 280.804 107.107 284.644 109.126 288.314C114.185 297.512 119.779 305.767 123.907 315.611C127.86 325.037 131.127 334.737 135.496 343.989C139.548 352.57 144.108 362.121 149.607 369.947C153.144 374.98 157.313 380.31 160.011 385.707C162.584 390.852 167.013 396.15 170.775 400.539C174.421 404.793 178.363 411.064 183.702 413.312C188.332 415.261 195.012 413.001 199.153 411.252C203.204 409.542 205.93 407.426 209.248 404.711C210.724 403.503 218.505 397 214.656 401.157C204.661 411.952 195.648 427.171 181.848 433.707C178.41 435.336 173.518 436.921 169.591 435.561C162.602 433.142 158.98 419.939 155.891 413.982C151.21 404.954 149.25 395.434 143.479 387.097C141.582 384.358 139.598 377.363 135.496 377.363" stroke="#E2901D" stroke-width="3" stroke-linecap="round"/>
<path d="M10.3438 321.74C10.9322 324.388 18.3814 325.765 20.7473 326.581C25.403 328.186 29.6284 330.492 34.4471 331.731C43.0546 333.945 51.3263 337.372 59.9926 339.56C64.2187 340.627 69.3779 341.551 73.3834 343.268C76.133 344.446 79.1384 343.811 82.0874 344.453C90.7196 346.329 118.907 354.634 111.341 368.504C109.227 372.381 102.818 374.117 99.8044 377.363C94.7833 382.77 87.9119 385.821 83.1174 391.681C82.3314 392.641 80.2537 392.832 79.8727 393.689C78.5985 396.556 77.9604 399.153 76.216 401.878C72.7536 407.288 69.4827 412.57 65.9669 417.947C62.56 423.158 63.8272 427.271 69.2631 429.741C73.9504 431.872 78.84 433.512 83.5809 435.355C88.6467 437.325 96.12 439.826 100.268 443.184C103.115 445.488 99.1431 440.141 97.4867 439.269C95.2183 438.076 88.796 434.594 88.4222 431.853C87.837 427.561 92.754 418.68 96.5597 416.505C99.6068 414.764 102.234 412.282 104.903 410.016C112.013 403.979 117.107 395.739 124.32 389.878C128.423 386.544 131.302 379.292 134.054 374.788C136.071 371.487 135.973 369.984 137.144 366.032C139.225 359.008 136.311 347.472 131.736 342.135C128.236 338.051 123.503 336.443 119.118 333.637C110.972 328.423 104.152 321.015 95.7356 316.28C88.5521 312.24 81.4473 309.503 75.9585 303.405C75.2058 302.568 72.2716 306.8 70.6022 308.04C66.9643 310.742 61.7247 315.112 57.1599 316.126C54.4768 316.722 51.1151 316.177 48.3529 316.177C44.412 316.177 45.2387 313.693 42.7906 312.469" stroke="#E2901D" stroke-width="3" stroke-linecap="round"/>
<path d="M7.03711 78.6685C7.03711 81.1634 7.42215 73.4982 8.74085 71.3803C12.8222 64.8253 17.2478 57.7301 22.1815 51.7872C30.7045 41.5209 40.56 32.9714 51.3345 25.1898C56.4021 21.5299 64.8825 18.6474 71.1168 18.1856C76.6048 17.779 85.8143 17.1312 90.5206 14.7781" stroke="#E21D20" stroke-width="3" stroke-linecap="round"/>
<path d="M78.5957 2C86.579 2 94.699 4.90507 101.975 7.91578C103.302 8.46479 105.291 9.48984 106.707 9.66685C107.028 9.70689 107.865 9.95499 107.559 10.5187C102.069 20.6539 91.7975 29.9173 84.5588 38.6305" stroke="#E21D20" stroke-width="3" stroke-linecap="round"/>
<path d="M84.1746 151.397C84.1746 152.545 84.0499 155.893 83.1895 156.323" stroke="#E21D20" stroke-width="3" stroke-linecap="round"/>
<path d="M88.6074 152.875V155.831" stroke="#E21D20" stroke-width="3" stroke-linecap="round"/>
<path d="M85.0926 164.052C82.8715 164.052 81.1697 165.231 81.1697 167.552C81.1697 169.061 80.8145 170.944 81.7751 172.237C82.2983 172.942 83.7401 174.384 84.7536 173.739C86.3049 172.752 86.6183 171.501 86.6183 169.719C86.6183 168.039 87.2564 165.573 85.3106 164.924" stroke="#E21D20" stroke-width="3" stroke-linecap="round"/>
</svg>
