<svg width="274" height="309" viewBox="0 0 274 309" fill="none" xmlns="http://www.w3.org/2000/svg">
<path d="M11.707 187.426C26.1617 187.426 39.3977 187.211 52.5978 180.611C57.0487 178.386 61.3676 176.024 65.8242 173.796C69.6079 171.904 75.6688 171.221 78.7477 168.142C84.9758 161.914 79.3611 153.094 76.6779 146.535C74.0292 140.061 71.2812 133.358 69.156 126.746C68.0909 123.433 68.9541 118.704 68.9541 115.287C68.9541 111.792 68.1698 108.421 68.0454 104.938C67.6231 93.1139 63.502 81.4676 63.502 69.2974C63.502 62.7377 62.703 55.4695 64.6126 49.1044C65.5267 46.0573 65.918 40.9333 68.2473 38.6041C73.3122 33.5391 81.6514 38.4021 87.6326 38.4021C93.171 38.4021 98.6132 39.3108 104.191 39.3108C108.467 39.3108 108.027 36.3919 108.027 32.7481C108.027 27.0156 107.119 21.3236 107.119 15.6851C107.119 9.23814 110.473 7.14864 115.297 3.01398C120.91 -1.79707 126.119 11.8665 127.817 15.6851C129.126 18.6318 128.955 22.6362 130.745 25.4786C140.809 41.4633 165.865 37.4935 182.338 37.4935C187.885 37.4935 194.449 36.4603 199.804 37.9478C206.438 39.7904 207.899 43.4791 211.567 48.751C221.493 63.0197 228.452 79.3262 238.878 93.1251C243.016 98.6017 245.01 105.538 246.652 112.106C247.654 116.114 249.769 120.924 248.823 125.181C248.125 128.322 242.206 131.864 239.786 133.612C235.315 136.842 230.948 140.163 226.156 142.901" stroke="#E2901D" stroke-width="3" stroke-linecap="round"/>
<path d="M193.443 80.2015C193.708 84.9739 197.705 89.7481 199.602 94.0337C202.494 100.568 203.638 107.023 206.165 113.621C209.625 122.655 214.219 131.815 216.867 141.083C219.313 149.643 220.704 157.811 220.704 166.728C220.704 170.982 219.563 176.834 220.906 180.863C222.335 185.151 225.623 188.972 227.771 192.878C228.935 194.993 229.791 197.547 229.791 199.946C229.791 203.536 228.673 203.471 227.065 206.508C223.054 214.084 212.983 213.675 206.872 218.119C195.419 226.448 201.523 203.498 200.511 200.35C198.6 194.404 196.664 188.335 189.809 188.335" stroke="#E2901D" stroke-width="3" stroke-linecap="round"/>
<path d="M201.623 213.778C192.099 213.778 182.593 216.843 174.312 221.502C170.993 223.368 163.457 226.5 159.722 226.5C151.39 226.5 142.945 230.134 134.582 230.134C129.461 230.134 133.217 233.644 133.471 237.202C133.836 242.301 134.564 246.945 136.652 251.539C139.304 257.372 141.379 263.084 144.376 268.703C147.222 274.041 152.085 280.977 156.189 285.564C157.827 287.396 160.95 291.994 159.621 294.651C157.705 298.484 148.485 302.271 144.426 302.778C132.734 304.24 136.168 293.632 141.448 287.179C144.578 283.354 137.155 275.011 135.289 272.64C130.509 266.569 123.874 260.768 119.841 254.214C115.174 246.63 106.211 239.133 106.211 229.226" stroke="#E2901D" stroke-width="3" stroke-linecap="round"/>
<path d="M78.9492 216.504C89.3954 216.504 99.663 223.208 109.844 223.773C124.878 224.609 140.232 223.773 155.279 223.773" stroke="#E2901D" stroke-width="3" stroke-linecap="round"/>
<path d="M78.0402 217.413C85.311 231.954 96.5681 245.011 105.25 258.758C108.435 263.801 111.181 268.39 113.479 273.953C115.301 278.363 118.238 282.573 119.84 286.977C121.074 290.371 128.403 301.644 120.95 301.92C114.202 302.17 107.359 302.499 100.757 302.829C93.6701 303.183 85.8136 308.49 78.545 306.413C76.9184 305.948 86.7326 301.198 87.127 301.012C91.5133 298.934 95.9499 297.5 100.303 295.156C102.823 293.798 106.341 292.014 107.068 288.744C107.452 287.013 97.0799 279.048 95.1033 277.386C88.4398 271.782 83.8263 264.323 76.7277 259.212C71.5927 255.515 66.622 250.07 62.4916 245.279C56.8479 238.732 50.892 231.293 46.6906 223.824C44.7394 220.355 42.6016 217.031 42.6016 212.869C42.6016 208.86 45.1979 208.054 48.0032 205.6C54.4374 199.97 61.5072 195.849 70.064 193.989C81.3936 191.526 92.8996 192.065 104.19 188.537C108.846 187.082 118.966 184.723 121.707 180.611C123.602 177.769 127.117 177.011 128.725 173.796C130.376 170.492 129.835 167.019 129.835 163.346C129.835 145.245 119.338 126.805 112.772 110.491C107.378 97.0886 98.828 85.374 93.4878 72.0234" stroke="#E2901D" stroke-width="3" stroke-linecap="round"/>
<path d="M6.2542 187.426C5.83303 191.217 -1.83205 201.056 4.48731 201.056C8.95304 201.056 8.98025 201.137 8.98025 205.6C8.98025 208.629 8.98025 211.658 8.98025 214.687C8.98025 215.686 9.80998 213.801 10.3938 213.324C12.0595 211.961 14.0517 210.914 16.0478 210.143C20.8461 208.289 25.8453 206.908 30.7382 205.196C35.8239 203.416 41.7983 203.767 46.7411 201.46C49.6274 200.113 53.9319 198.33 57.1404 198.33" stroke="#E2901D" stroke-width="3" stroke-linecap="round"/>
<path d="M5.34692 186.517C5.34692 181.679 3.84751 178.339 9.43599 178.339C14.0945 178.339 15.3424 185.165 15.3424 189.243" stroke="#E2901D" stroke-width="3" stroke-linecap="round"/>
<path d="M139.777 192.423C144.8 192.982 150.795 203.398 154.513 206.631C156.975 208.772 161.643 216.602 161.643 213.339" stroke="#E21D20" stroke-width="3" stroke-linecap="round"/>
<path d="M141.68 191.473C147.628 191.473 152.056 186.719 157.841 186.719" stroke="#E21D20" stroke-width="3" stroke-linecap="round"/>
<path d="M146.434 193.374C142.385 193.374 154.569 193.041 158.582 193.585C164.293 194.36 169.724 196.857 175.483 197.177C187.387 197.838 199.444 198.552 211.504 196.965C216.29 196.336 220.705 193.851 225.13 192.212C232.293 189.559 239.673 185.181 246.045 181.015C249.751 178.592 252.557 175.057 255.975 172.459C257.458 171.332 260.721 169.199 261.468 167.705" stroke="#E21D20" stroke-width="3" stroke-linecap="round"/>
<path d="M249.109 152.495C254.564 153.101 260.898 156.535 265.799 158.938C268.638 160.33 274.146 160.03 271.503 163.427C267.251 168.895 260.518 177.639 260.518 184.818" stroke="#E21D20" stroke-width="3" stroke-linecap="round"/>
</svg>
