<svg width="240" height="136" viewBox="0 0 240 136" fill="none" xmlns="http://www.w3.org/2000/svg">
<path d="M8.41074 31.2903C8.41074 40.8968 8.41074 50.5032 8.41074 60.1097C8.41074 71.8228 8.41074 83.5359 8.41074 95.249C8.41074 102.247 9.40357 110.074 7.73575 116.99C6.04546 123.999 4.34809 108.311 4.15831 106.499C1.04542 76.7692 3.55082 45.9758 3.55082 16.1222C3.55082 14.1337 3.55082 -8.50217 3.55082 3.48218C3.55082 21.5996 3.55082 39.717 3.55082 57.8344C3.55082 76.9209 3.55082 96.0074 3.55082 115.094C3.55082 117.025 3.19142 119.738 2.60584 116.105C1.42372 108.772 2.33584 100.721 2.33584 93.353C2.33584 67.1976 3.44902 41.7202 8.14075 15.8694C8.75538 12.4829 8.39581 6.76847 10.2332 3.67178C10.3872 3.41233 10.8407 12.1045 10.8407 13.3414C10.8407 36.7583 11.2406 60.2076 10.7732 83.6202C10.6469 89.9466 10.6658 96.83 9.35573 103.086C8.4841 107.248 7.19931 97.0275 7.19576 96.6394C7.01846 77.2166 7.19576 18.9452 7.19576 38.3688C7.19576 68.2438 5.98078 157.862 5.98078 127.987" stroke="#E21D20" stroke-width="3"/>
<path d="M33 78C33 60.8123 41.7554 46.0745 48.625 30.7509C50.8358 25.8194 53.1011 16.8486 56.875 13.0087C57.2211 12.6565 55.5673 23.1194 55 24.4553C49.3953 37.6528 41.6374 50.2741 36.4375 63.501C35.1365 66.8104 33.9576 64.2502 34.1875 61.9112C34.5658 58.0619 35.5129 54.2953 37.5625 51.0369C39.8589 47.386 42.0048 43.6524 44.25 39.9718C46.7547 35.8659 45.4301 40.6353 45.375 43.6602C45.199 53.3284 39.7525 63.3586 35.3125 71.6408C33.6825 74.6813 34.125 70.1645 34.125 68.8427C34.125 62.9339 35.9677 58.4104 39 53.3262C44.7156 43.7429 50.4744 34.2038 56.125 24.5825C56.9047 23.2549 58.7912 18.3071 60 20.7669" stroke="#E21D20" stroke-width="3"/>
<path d="M232.719 23.4792C232.576 21.6281 230.385 20.1204 228.741 19.5121C224.626 17.9902 220.66 17.1934 216.283 17.0077C212.534 16.8486 210.976 19.1765 208.708 22.0166C205.737 25.7365 200.855 30.2351 199.807 35.0197C198.9 39.1604 199.083 43.6295 199.083 47.8425C199.083 49.2719 198.86 50.9186 199.144 52.3305C199.55 54.3564 201.641 56.2314 203.001 57.6599C209.771 64.7652 218.06 70.0491 225.686 76.1328C230.052 79.6153 233.291 83.9055 233.804 89.6568C234.383 96.1478 233.736 101.586 231.112 107.589C229.144 112.089 225.767 116.009 220.744 116.705C215.445 117.439 210.01 116.724 204.87 115.443" stroke="black" stroke-opacity="0.99" stroke-width="3"/>
<path d="M12 23.7886C12 36.2672 16.1051 46.8681 23.4693 56.9443C33.3722 70.4943 21.7656 42.0589 20.7141 39.2187C19.072 34.7835 18.2025 30.1229 16.5493 25.7014C15.6292 23.241 13.4654 20.6895 13.1533 18.0501C12.5329 12.8022 13.9458 28.6706 15.46 33.7353C19.6677 47.8088 25.5693 61.1118 30.4533 74.9248C32.2604 80.0356 28.1455 68.6424 26.9933 66.6359C23.1342 59.9155 19.3597 52.8511 16.1648 45.7861C13.5605 40.0271 15.9918 47.1299 16.8056 49.3567C20.0134 58.1351 24.5328 68.5155 30.8378 75.6262C33.3446 78.4534 34.598 76.5123 33.7211 73.4583C30.5097 62.2734 22.9383 52.511 19.1763 41.5141C18.2898 38.9227 18.8655 46.8429 18.92 48.1453C19.0904 52.2148 29.0909 74.7033 30.4533 71.9918" stroke="#E21D20" stroke-width="3"/>
<path d="M233.353 20.1612C230.865 19.279 228.71 18.5109 226.044 18.1799C221.427 17.6068 218.036 18.4248 213.808 20.3229C209.993 22.0354 206.193 24.068 204.279 27.9449C202.312 31.9296 201.056 36.4919 200.208 40.8235C198.63 48.8789 206.38 55.2492 212.097 59.6259C219.081 64.9713 226.904 69.0639 231.357 76.9927C232.763 79.496 234.471 81.7769 235.185 84.5743C235.925 87.4736 236.435 90.3027 237.017 93.2275C237.797 97.1451 238.9 103.177 236.732 106.692C232.876 112.948 228.954 117.156 221.707 119.066C216.373 120.471 210.61 119.874 205.134 119.874" stroke="black" stroke-opacity="0.99" stroke-width="3"/>
<path d="M57.3187 19C57.3187 37.6204 59.7791 55.2216 62.604 73.64C63.6763 80.6313 63.5268 89.7423 66.6602 96.2059C67.1526 97.2217 66.674 89.558 66.4143 88.2191C63.6276 73.8477 62.5543 59.1847 59.777 44.8621C59.7006 44.4681 58.6934 40.5297 57.8718 40.8687C55.5636 41.8209 57.3266 61.9164 57.4416 64.2586C58.3415 82.5908 64.6426 99.0963 69.4257 116.363C71.7093 124.607 66.5797 99.4542 64.5706 91.1349C61.2892 77.5471 56.3986 63.9922 55.1062 49.9965C54.855 47.2758 54 33.7174 54 35.6709C54 43.8351 54.9579 50.7288 57.1958 58.8073C58.1383 62.2096 69.2521 95.6877 69.4872 95.4453" stroke="#E21D20" stroke-width="3"/>
<path d="M165.692 22C163.122 22 160.551 22 157.981 22C156.187 22 154.277 24.8387 153.107 25.9994C149.384 29.6913 147.048 34.186 144.677 38.8661C143.396 41.3943 143.399 43.1719 143.399 45.9963C143.399 48.2261 142.736 50.4676 143.119 52.7023C143.688 56.0294 146.527 59.0085 148.792 61.2666C150.6 63.0697 152.619 64.5757 154.565 66.2154C155.923 67.3594 157.351 69.3641 159.06 69.9925C162.1 71.1103 165.002 74.1172 166.79 76.739C170.599 82.3226 173.443 89.1845 175.56 95.6047C176.979 99.9104 177.283 104.698 177.837 109.178C178.259 112.595 177.996 117.087 175.4 119.641C173.798 121.218 169.903 121.328 167.849 121.782C165.275 122.352 163.622 121.734 161.357 120.732C159.024 119.7 157.274 118.237 155.983 115.925C154.95 114.073 154.114 112.059 153.187 110.148C152.911 109.579 152.894 108.788 152.388 108.532" stroke="black" stroke-opacity="0.99" stroke-width="3"/>
<path d="M174.207 22.3115C169.72 22.3115 164.035 21.3888 159.724 22.7195C154.753 24.2536 150.314 26.0231 148.701 31.1648C147.753 34.1847 147.362 37.768 147.132 40.9155C146.894 44.1597 147.051 47.4562 147.051 50.7071C147.051 52.7578 146.866 54.926 147.494 56.9085C149.839 64.318 156.822 69.4026 162.419 74.1662C167.05 78.1073 172.163 83.6476 174.187 89.5471C177.112 98.0749 180 107.737 180 116.821C180 119.995 176.157 121.855 173.764 123.206C170.627 124.977 166.843 126.44 163.264 126.878C156.62 127.689 151.766 124.402 148.137 118.881" stroke="black" stroke-opacity="0.99" stroke-width="3"/>
<path d="M79.1027 28C79.1027 46.9693 80.2837 65.4232 82.4108 84.2751C83.426 93.2721 84.0618 102.794 86.8217 111.468C88.3883 116.392 87.9504 108.342 87.9244 107.062C87.6083 91.4713 82.4108 76.1675 82.4108 60.418C82.4108 56.4285 82.6597 57.1979 82.3496 60.5439C81.5014 69.695 81.1169 78.7174 81.3694 87.9261C81.6425 97.8868 82.3639 108.016 83.7586 117.889C84.5723 123.649 84.6163 120.325 84.6163 116.63C84.6163 101.429 82.0304 85.8979 81.3694 70.6155C80.9342 60.5546 78 51.5312 78 41.5967" stroke="black" stroke-opacity="0.99" stroke-width="3"/>
<path d="M86 69.9235C94.5037 69.9235 103.007 69.9235 111.511 69.9235C114.135 69.9235 113.386 69.8044 111.076 69.9769C106.465 70.3211 101.812 71.7091 97.2 72.3278C94.1115 72.7422 90.2544 73.2981 87.12 72.8087C83.2351 72.2022 94.5294 70.4454 98.32 69.496C102.821 68.3687 109.233 68 114 68" stroke="black" stroke-opacity="0.99" stroke-width="3"/>
<path d="M87 116C102.478 116 117.867 114.594 133.336 114.594C146.572 114.594 106.864 114.594 93.6284 114.594C86.2365 114.594 89.9208 115.217 94.3788 113.892C99.2239 112.451 104.542 113.189 109.511 113.189" stroke="black" stroke-opacity="0.99" stroke-width="3"/>
<path d="M78.8025 22.1283C90.4475 22.1283 102.082 21.554 113.72 21.554C114.133 21.554 119.129 21.182 118.997 21.1073C118.063 20.5763 116.137 20.8665 115.096 20.6925C102.149 18.5282 88.9895 22.1283 76.0798 22.1283C63.1212 22.1283 114.955 22.1283 114.955 22.1283C114.955 22.1283 108.144 22.0771 104.738 22.1283C100.318 22.1949 96.0568 22.9304 91.7704 24.1066C90.8915 24.3478 89.8022 24.1143 89.4126 25" stroke="black" stroke-opacity="0.99" stroke-width="3"/>
</svg>
