<svg width="408" height="68" viewBox="0 0 408 68" fill="none" xmlns="http://www.w3.org/2000/svg">
<path d="M2.33105 5.47888C2.33105 19.9074 3.86851 34.3113 4.6475 48.3332C4.80423 51.1543 6.04871 62.3534 8.12217 63.3901" stroke="#E21D20" stroke-width="3" stroke-linecap="round"/>
<path d="M3.48926 6.63708C3.92537 10.5621 7.87485 13.5242 10.1812 16.5463C13.6617 21.107 16.7981 25.9486 20.3479 30.445C21.823 32.3135 28.2417 45.2431 30.7075 40.8047C31.7533 38.9224 31.512 36.2785 32.1875 34.1771C33.6135 29.7407 35.6248 25.9882 37.5282 21.7583C39.3174 17.7822 40.4585 13.1161 42.8045 9.59699C44.8271 6.56307 42.7647 16.8909 42.8689 20.5358C43.0228 25.9243 46.0137 31.9658 47.7592 37.0083C49.6732 42.5378 51.4698 48.4878 53.0355 54.1243C53.8284 56.9787 54.0656 64.3555 56.7676 65.7065" stroke="#E21D20" stroke-width="3" stroke-linecap="round"/>
<path d="M70.667 12.4282C70.667 24.0377 72.7661 34.041 76.9729 44.8585C79.033 50.156 82.2492 66.7576 82.2492 61.0736" stroke="#E21D20" stroke-width="3" stroke-linecap="round"/>
<path d="M74.1416 39.0674C88.346 26.4413 113.521 27.7429 113.521 50.6496C113.521 53.8392 114.624 57.8044 110.626 58.6929C107.047 59.4881 102.843 60.3006 99.3651 61.331C93.7848 62.9845 83.0271 63.7878 79.9327 57.599" stroke="#E21D20" stroke-width="3" stroke-linecap="round"/>
<path d="M121.629 5.47888C121.629 19.9393 122.85 33.5267 125.039 47.7541C125.762 52.4532 128.578 57.6346 128.578 62.2319" stroke="#E21D20" stroke-width="3" stroke-linecap="round"/>
<path d="M174.907 11.27C166.02 10.3813 156.688 1.19598 148.268 10.1117C142.48 16.2401 143.972 30.5898 145.694 37.9091C147.713 46.4908 149.675 60.2126 158.949 63.6474C168.103 67.0379 172.511 65.1668 180.698 61.0736" stroke="#E21D20" stroke-width="3" stroke-linecap="round"/>
<path d="M211.97 10.1118C211.97 20.9468 211.667 31.8645 213.192 42.5421C214.008 48.2528 215.444 54.1748 215.444 59.9155" stroke="#E21D20" stroke-width="3" stroke-linecap="round"/>
<path d="M211.97 8.95361C215.799 9.3791 220.263 17.4334 221.815 20.5359C224.63 26.166 228.762 32.1851 232.432 37.2658C235.566 41.6061 238.67 48.2659 242.727 51.7436C244.684 53.4212 246.74 55.3304 247.875 57.599" stroke="#E21D20" stroke-width="3" stroke-linecap="round"/>
<path d="M267.564 8.9536C267.564 17.53 268.599 23.8417 271.94 31.8607C274.106 37.0596 275.633 42.2963 277.409 47.6254C278.102 49.7029 279.108 55.0202 280.884 56.4408C283.362 58.4229 284.194 46.3831 285.195 43.9577C288.102 36.9145 292.205 28.9983 295.941 22.2732C298.195 18.2163 298.167 4.68791 299.995 8.9536C300.655 10.495 299.995 13.6322 299.995 15.3238C299.995 19.8959 301.47 24.5054 303.212 28.6434C305.189 33.3378 305.97 39.214 306.88 44.2151C307.462 47.4152 307.504 52.6473 309.261 55.2826" stroke="#E21D20" stroke-width="3" stroke-linecap="round"/>
<path d="M339.374 2.00415C339.374 15.5531 337.389 31.9536 341.691 44.8584" stroke="#E21D20" stroke-width="3" stroke-linecap="round"/>
<path d="M344.008 61.0736C346.447 61.0736 349.404 56.5604 347.225 54.3817C345.999 53.1554 342.641 57.4945 345.166 58.7572" stroke="#E21D20" stroke-width="3" stroke-linecap="round"/>
<path d="M364.856 2.00415C364.856 11.6346 364.856 21.265 364.856 30.8954C364.856 34.3876 363.596 43.07 367.172 44.8584" stroke="#E21D20" stroke-width="3" stroke-linecap="round"/>
<path d="M375.537 56.4407C380.627 56.6443 371.653 59.9154 369.488 59.9154C369.488 56.1985 372.457 56.3174 375.48 56.4385L375.537 56.4407Z" stroke="#E21D20" stroke-width="3" stroke-linecap="round"/>
<path d="M392.653 2.00415C392.653 7.19471 392.653 12.3853 392.653 17.5758C392.653 19.4835 391.618 27.3522 393.232 28.6433C394.771 29.8742 397.286 42.3787 397.286 44.8584" stroke="#E21D20" stroke-width="3" stroke-linecap="round"/>
<path d="M400.761 54.1243C401.324 59.1934 404.908 54.976 405.973 54.1243C406.105 54.0189 403.077 51.535 403.077 56.4408" stroke="#E21D20" stroke-width="3" stroke-linecap="round"/>
</svg>
