<svg width="125" height="47" viewBox="0 0 125 47" fill="none" xmlns="http://www.w3.org/2000/svg">
<path d="M1.9375 1.91309C1.9375 16.3388 5.07907 30.4167 5.07907 44.8479" stroke="#E21D20" stroke-width="3" stroke-linecap="round"/>
<path d="M1.9375 1.91309C1.9375 8.48227 6.57623 16.9816 10.315 22.8569C11.0133 23.9542 22.1786 41.2859 22.8231 39.0301C24.2527 34.0266 20.7869 27.7236 20.7869 22.6242C20.7869 17.4896 20.6574 7.40813 22.8813 2.96028" stroke="#E21D20" stroke-width="3" stroke-linecap="round"/>
<path d="M38.5898 1.91309C38.5898 9.199 40.2033 15.383 41.4987 22.5078C41.885 24.6322 44.3199 38.0706 44.873 37.5175" stroke="#E21D20" stroke-width="3" stroke-linecap="round"/>
<path d="M59.9375 6.77148C59.9375 14.2577 61.7652 21.3283 62.0319 28.5298C62.2024 33.1326 65.1734 37.9988 65.1734 42.3759" stroke="#E21D20" stroke-width="3" stroke-linecap="round"/>
<path d="M60.9844 6.77114C60.9844 5.88449 61.0439 8.48059 61.2171 8.86552C62.3227 11.3224 64.468 13.2247 65.6386 15.6722C67.8279 20.2501 70.5406 24.2836 73.0271 28.7039C75.0061 32.2223 77.4743 35.7243 79.8338 39.0013C81.5832 41.4311 82.9754 42.8518 82.9754 39.234C82.9754 33.4723 80.881 28.4863 80.881 22.5372C80.881 16.5837 80.881 10.6302 80.881 4.67676" stroke="#E21D20" stroke-width="3" stroke-linecap="round"/>
<path d="M102.875 4.67676V42.3756" stroke="#E21D20" stroke-width="3" stroke-linecap="round"/>
<path d="M103.855 5.146C103.855 8.02711 107.928 10.4814 108.898 13.1486C110.194 16.7146 112.516 20.2125 114.171 23.6492C116.198 27.8593 117.461 32.3036 119.629 36.4859C120.716 38.5809 121.696 40.6494 123.006 42.6151" stroke="#E21D20" stroke-width="3" stroke-linecap="round"/>
<path d="M104.691 28.46H115.099" stroke="#E21D20" stroke-width="3" stroke-linecap="round"/>
<path d="M1.9375 1.91309C1.9375 16.3388 5.07907 30.4167 5.07907 44.8479" stroke="#E21D20" stroke-width="3" stroke-linecap="round"/>
<path d="M1.9375 1.91309C1.9375 8.48227 6.57623 16.9816 10.315 22.8569C11.0133 23.9542 22.1786 41.2859 22.8231 39.0301C24.2527 34.0266 20.7869 27.7236 20.7869 22.6242C20.7869 17.4896 20.6574 7.40813 22.8813 2.96028" stroke="#E21D20" stroke-width="3" stroke-linecap="round"/>
<path d="M38.5898 1.91309C38.5898 9.199 40.2033 15.383 41.4987 22.5078C41.885 24.6322 44.3199 38.0706 44.873 37.5175" stroke="#E21D20" stroke-width="3" stroke-linecap="round"/>
<path d="M59.9375 6.77148C59.9375 14.2577 61.7652 21.3283 62.0319 28.5298C62.2024 33.1326 65.1734 37.9988 65.1734 42.3759" stroke="#E21D20" stroke-width="3" stroke-linecap="round"/>
<path d="M60.9844 6.77114C60.9844 5.88449 61.0439 8.48059 61.2171 8.86552C62.3227 11.3224 64.468 13.2247 65.6386 15.6722C67.8279 20.2501 70.5406 24.2836 73.0271 28.7039C75.0061 32.2223 77.4743 35.7243 79.8338 39.0013C81.5832 41.4311 82.9754 42.8518 82.9754 39.234C82.9754 33.4723 80.881 28.4863 80.881 22.5372C80.881 16.5837 80.881 10.6302 80.881 4.67676" stroke="#E21D20" stroke-width="3" stroke-linecap="round"/>
<path d="M102.875 4.67676V42.3756" stroke="#E21D20" stroke-width="3" stroke-linecap="round"/>
<path d="M103.855 5.146C103.855 8.02711 107.928 10.4814 108.898 13.1486C110.194 16.7146 112.516 20.2125 114.171 23.6492C116.198 27.8593 117.461 32.3036 119.629 36.4859C120.716 38.5809 121.696 40.6494 123.006 42.6151" stroke="#E21D20" stroke-width="3" stroke-linecap="round"/>
<path d="M104.691 28.46H115.099" stroke="#E21D20" stroke-width="3" stroke-linecap="round"/>
</svg>
