<svg width="97.262695" height="113.474663" viewBox="0 0 97.2627 113.475" fill="none" xmlns="http://www.w3.org/2000/svg" xmlns:xlink="http://www.w3.org/1999/xlink">
	<desc>
			Created with Pixso.
	</desc>
	<defs/>
	<path id="Vector 1126" d="M1.5 65.48C9.93 57.06 14.05 46.57 17.1 35.23C18.39 30.45 17.63 24.88 17.63 19.95C17.63 16.91 17.86 22.03 18.1 22.9C26.04 51.47 23.73 81.95 29.01 111.02" stroke="#000000" stroke-opacity="0.990000" stroke-width="3.000000" stroke-linecap="round"/>
	<path id="Vector 1127" d="M28.06 96.79C28.4 93.43 32.93 89.33 36.39 89.2C40.9 89.03 42.29 88.55 42.29 93.21C42.29 97.76 39.57 98.4 37.34 102.06C35.37 105.28 33.12 108.17 31.86 111.97" stroke="#000000" stroke-opacity="0.990000" stroke-width="3.000000" stroke-linecap="round"/>
	<path id="Vector 1128" d="M54.97 47.99C63.39 39.56 67.52 29.07 70.57 17.74C71.86 12.95 71.09 7.38 71.09 2.45C71.09 -0.59 71.32 4.53 71.57 5.4C79.5 33.97 77.19 64.46 82.48 93.52" stroke="#000000" stroke-opacity="0.990000" stroke-width="3.000000" stroke-linecap="round"/>
	<path id="Vector 1129" d="M81.53 79.29C81.86 75.94 86.4 71.84 89.86 71.7C94.37 71.53 95.76 71.05 95.76 75.71C95.76 80.26 93.04 80.9 90.8 84.56C88.83 87.79 86.59 90.67 85.32 94.47" stroke="#000000" stroke-opacity="0.990000" stroke-width="3.000000" stroke-linecap="round"/>
</svg>
