<svg width="26.369141" height="28.921539" viewBox="0 0 26.3691 28.9215" fill="none" xmlns="http://www.w3.org/2000/svg" xmlns:xlink="http://www.w3.org/1999/xlink">
	<desc>
			Created with Pixso.
	</desc>
	<defs/>
	<path id="Vector 714" d="M3.64 25.4C6.18 27.95 10.81 27.47 13.87 26.25C15.87 25.44 17.43 23.42 18.79 21.83C20.24 20.13 22.62 18.13 23.54 16.07C24.32 14.3 25.6 9.26 24.32 7.44C22.82 5.3 19.98 4.62 18.14 2.97C15.98 1.05 5.43 0.68 4.37 3.87C4.37 9.99 -1.58 20.19 3.64 25.4Z" stroke="#E21D20" stroke-opacity="1.000000" stroke-width="3.000000"/>
	<path id="Vector 1134" d="M10.66 6.79C10.69 9.1 9.55 13.81 12.82 13.81C13.96 13.81 14.37 13.84 14.86 12.73C15.72 10.8 14.66 9.49 12.82 9.49C10.87 9.49 7.96 8.92 7.96 11.65C7.96 13.42 7.61 15.6 7.99 17.32C8.74 20.68 16.31 16.31 17.41 15.43C22.01 11.75 14.9 9.12 14.44 10.03" stroke="#E21D20" stroke-opacity="1.000000" stroke-width="12.000000" stroke-linecap="round"/>
</svg>
