<svg width="63.108398" height="120.779999" viewBox="0 0 63.1084 120.78" fill="none" xmlns="http://www.w3.org/2000/svg" xmlns:xlink="http://www.w3.org/1999/xlink">
	<desc>
			Created with Pixso.
	</desc>
	<defs/>
	<path id="Vector 726" d="M39.27 60.95C32.67 63.22 27.91 65.31 21.98 60.62C17.75 57.28 14.45 48.91 15.73 43.69C17.36 37.03 27.99 33.36 33.76 32.07C39.33 30.82 47.82 38.47 49.89 43.27C52.23 48.69 55.89 56.58 54.59 62.55C53.32 68.45 48.42 72.96 43.56 76.02C33.72 82.21 18.05 78.68 14.03 66.97C10.16 55.7 9.85 46.42 15.1 35.29C18.87 27.28 27.87 11.87 22.79 2.8C20.34 -1.57 6.92 4.95 3.75 6.2C-3.04 8.88 7.56 21.77 8.88 24.31C22.89 51.08 42.67 74.15 58.71 99.64C62.56 105.75 63 108.5 57.41 113.25C55.47 114.9 48.3 122.69 46.36 117.54C45.77 115.98 44.06 112.96 45.25 111.75" stroke="#000000" stroke-opacity="0.990000" stroke-width="3.000000" stroke-linecap="round"/>
</svg>
