<svg width="1150" height="416" viewBox="0 0 1150 416" fill="none" xmlns="http://www.w3.org/2000/svg">
<path d="M28.3805 175.077C56.0688 233.402 189.88 312.577 164.38 269.077C138.88 225.577 126.38 175.077 150.88 175.077C175.38 175.077 1059.38 210.077 1109.38 175.077C1159.38 140.077 1162.38 63.077 1109.38 33.077C1056.38 3.07705 73.3805 -18.423 28.3805 33.077C-16.6196 84.577 4.59839 124.981 28.3805 175.077Z" stroke="black" stroke-width="3"/>
<path d="M219 314C219 328.912 207.583 341 193.5 341C179.417 341 168 328.912 168 314C168 299.088 179.417 287 193.5 287C207.583 287 219 299.088 219 314ZM171.515 314C171.515 326.856 181.358 337.278 193.5 337.278C205.642 337.278 215.485 326.856 215.485 314C215.485 301.144 205.642 290.722 193.5 290.722C181.358 290.722 171.515 301.144 171.515 314Z" fill="black"/>
<path d="M266 364C266 375.598 257.046 385 246 385C234.954 385 226 375.598 226 364C226 352.402 234.954 343 246 343C257.046 343 266 352.402 266 364ZM228.926 364C228.926 373.901 236.57 381.928 246 381.928C255.43 381.928 263.074 373.901 263.074 364C263.074 354.099 255.43 346.072 246 346.072C236.57 346.072 228.926 354.099 228.926 364Z" fill="black"/>
<path d="M302 400C302 408.837 295.284 416 287 416C278.716 416 272 408.837 272 400C272 391.163 278.716 384 287 384C295.284 384 302 391.163 302 400ZM275.178 400C275.178 406.964 280.471 412.61 287 412.61C293.529 412.61 298.822 406.964 298.822 400C298.822 393.036 293.529 387.39 287 387.39C280.471 387.39 275.178 393.036 275.178 400Z" fill="black"/>
</svg>
