<svg width="327.667969" height="324.910583" viewBox="0 0 327.668 324.911" fill="none" xmlns="http://www.w3.org/2000/svg" xmlns:xlink="http://www.w3.org/1999/xlink">
	<desc>
			Created with Pixso.
	</desc>
	<defs/>
	<path id="Vector 1062" d="M28.38 62.07C28.38 54.81 33.83 45.78 37.39 39.76C43.88 28.78 51.77 15.52 64.57 11.25C83.84 4.83 114.1 9.69 130 22.7C130.78 23.33 131.39 24.79 132.37 24.55C146.87 20.92 157.52 5.87 172.25 2.24C179.84 0.37 189.85 2.24 197.73 2.24C206.64 2.24 220.22 12.66 226.53 18.34C234.39 25.42 241.13 33.9 242.34 44.78C242.54 46.58 241.26 53.94 242.71 55.12C244.67 56.73 251.68 55.44 254.08 55.71C260.57 56.45 266.77 58.56 272.99 60.44C290.38 65.72 306.15 74.39 315.82 90.28C324.62 104.74 326.16 120.14 326.16 136.81C326.16 155.92 310.3 169.75 291.01 169.75C286.83 169.75 300.14 199.76 301.57 203.72C305.66 215.1 308.67 232.44 299.5 241.61C288.8 252.32 274.25 260.96 258.44 255.42C252.32 253.28 246.52 243.44 239.75 244.2C236.54 244.55 232.16 255.66 231.18 258.23C228.22 266.04 226.42 273.84 222.77 281.42C214.05 299.52 209.97 313.06 189.23 319.97C176.29 324.29 155.98 326.04 145.36 315.98C137.39 308.43 138.76 298.53 135.98 288.8C134.38 283.18 117.59 289.53 113.9 290.06C99.63 292.1 83.85 292.54 70.92 286.07C59.71 280.47 48.32 267.95 48.32 254.83C48.32 251.2 47.02 245.07 49.65 242.13C51.44 240.12 56.26 237.55 52.3 237.55C31.96 237.55 14.84 226.92 7.11 208.01C-2.37 184.84 -1.31 159.65 22.39 146.48C28.07 143.33 18.28 132.63 16.71 127.5C15.53 123.68 15.61 119.8 15.01 115.91C13.63 106.93 11.78 95.46 15.75 86.73C17.13 83.7 17.4 79.56 20.4 77.72C22.34 76.54 23.96 74 25.05 72.04C27.53 67.58 31.03 64.56 31.03 59.41" stroke="#000000" stroke-opacity="0.990000" stroke-width="3.000000" stroke-linecap="round"/>
</svg>
