<svg width="378" height="304" viewBox="0 0 378 304" fill="none" xmlns="http://www.w3.org/2000/svg">
<path d="M314.143 29.1317C323.193 14.9101 343.246 2.0611 360.357 2.0611C363.527 3.64656 373.577 4.87179 364.804 7.37853C360.567 8.58899 357.534 15.1456 353.396 17.3366C340.897 23.9535 332.513 42.2665 332.513 56.0089C332.513 76.7501 331.829 98.1487 341.214 116.918C348.33 131.15 353.983 148.317 362.967 161.294C369.907 171.318 376.019 190.109 376.019 202.19C376.019 223.897 379.352 258.527 352.525 264.839C337.17 268.452 322.091 271.646 306.409 273.927C292.299 275.979 273.56 271.78 260.195 277.407C249.513 281.905 235.909 281.805 224.424 284.852C211.854 288.187 199.662 293.316 186.525 294.326C177.729 295.003 168.643 296.163 159.841 296.163C152.606 296.163 146.379 299.283 139.345 299.644C108.365 301.233 71.8525 305.613 42.7609 292.683C27.25 285.789 12.7816 278.92 4.47538 263.969C-2.47343 251.461 7.11977 228.051 15.0136 218.722C34.7585 195.387 68.9356 196.969 96.7086 196.969C118.363 196.969 142.323 193.266 160.614 181.307C169.77 175.32 179.346 169.794 188.072 162.938C196.536 156.287 207.271 150.143 215.142 143.021C223.267 135.67 231.889 128.982 239.603 121.268C244.24 116.63 251.458 115.684 255.942 110.827C260.49 105.899 266.767 102.612 271.604 97.7749C280.786 88.593 283.025 74.3128 291.52 64.7101C301.38 53.5638 306.474 41.1825 314.143 29.1317Z" stroke="black" stroke-opacity="0.99" stroke-width="3" stroke-linecap="round"/>
</svg>
