<svg width="350" height="240" viewBox="0 0 350 240" fill="none" xmlns="http://www.w3.org/2000/svg">
<path d="M30.4439 59.7818C30.4439 55.4381 29.6037 50.284 30.6044 46.0587C32.0205 40.0795 34.5172 35.7038 37.6667 30.5298C39.3106 27.829 41.0447 25.7332 43.4047 23.6682C46.1247 21.2882 48.4532 20.3955 52.1121 19.0135C59.5116 16.2187 68.6778 11.2428 76.7095 10.7074C83.2592 10.2708 89.7097 10.4861 96.0103 11.9513C104.311 13.8818 109.602 21.5412 117.438 24.3905C118.96 24.9441 119.839 26.8751 121.45 27.6808C123.001 28.4563 123.893 30.0395 125.383 30.8909C128.582 32.719 127.073 31.7634 128.513 28.7241C132.286 20.7587 139.375 13.9305 146.69 8.90172C150.243 6.45874 153.918 3.23322 158.326 2.68215C162.734 2.13124 166.969 2 171.448 2C181.805 2 192.849 3.11878 199.095 12.8341C201.416 16.4446 202.811 20.3175 204.873 24.0293C205.649 25.4267 206.492 31.3096 207.963 28.0018C209.417 24.7284 209.805 23.0295 212.617 20.2173C216.538 16.2966 221.798 11.2872 227.263 9.62399C237.492 6.51098 248.499 4.31514 259.405 4.88909C266.504 5.26274 274.029 13.3966 277.461 18.9734C279.903 22.9416 280.773 26.4241 282.156 30.8508C282.581 32.212 283.24 34.1765 283.24 35.5857C283.24 36.6865 284.15 35.9468 285.406 35.9468C288.823 35.9468 292.264 35.8249 295.679 35.9468C307.453 36.3673 316.272 46.1277 325.573 51.877C334.936 57.665 344.691 62.5077 347.161 73.8662C347.895 77.2443 347.522 80.9 347.522 84.3391C347.522 87.7738 348.226 91.9641 346.8 95.1732C344.769 99.7416 341.81 103.38 337.57 106.409C332.975 109.691 326.784 109.75 321.359 110.983C316.266 112.141 319.955 111.411 321.881 112.909C333.538 121.975 340.959 137.191 341.704 152.072C342.165 161.294 341.486 167.888 334.922 174.904C327.832 182.483 318.02 184.735 307.957 184.735C304.947 184.735 306.09 197.112 305.469 199.903C303.997 206.529 300.346 210.561 294.435 213.626C287.008 217.477 278.011 217.693 269.837 217.197C264.451 216.871 261.225 213.748 257.157 210.697C254.449 208.665 249.103 204.73 248.009 201.347C246.703 197.312 245.513 196.459 242.792 199.181C241.105 200.868 239.101 201.69 237.014 202.792C233.207 204.801 231.823 208.325 229.751 211.82C224.293 221.031 214.539 228.111 205.635 233.81C199.675 237.624 187.792 239.511 181.56 235.615C175.672 231.936 170.223 226.723 166.954 220.528C166.201 219.102 162.178 208.071 160.092 209.694C148.46 218.741 138.074 230.284 123.055 233.288C118.977 234.104 114.849 233.85 110.696 233.85C105.522 233.85 100.163 234.5 95.288 232.566C86.8719 229.226 83.4416 223.09 82.4877 214.027C82.264 211.902 82.4476 209.664 82.4476 207.527C82.4476 205.118 81.7595 206.632 80.2406 207.487C72.4252 211.883 66.8765 217.32 57.7298 219.404C50.8332 220.976 38.9476 223.43 33.333 217.96C27.1182 211.904 26.4105 208.902 26.0702 200.224C25.77 192.57 22.4989 185.063 22.4989 177.552C22.4989 172.687 26.1348 169.497 30.4439 167.401C32.8895 166.211 35.322 166.055 37.6667 164.752C38.4716 164.305 42.8602 162.964 41.5589 161.863C39.9974 160.542 38.5274 159.492 36.7839 158.412C32.4918 155.755 28.9331 151.892 24.746 149.023C21.0044 146.459 17.036 144.189 13.4705 141.399C9.6112 138.378 3.2495 132.492 2.31541 127.355C1.28928 121.711 2.65631 113.626 8.05346 110.501C13.7907 107.18 19.4567 107.294 25.7893 105.847C29.2009 105.067 32.3553 104.264 27.1536 102.035C16.6767 97.5448 15.6626 83.1342 18.0048 73.505C19.574 67.0537 24.2082 60.5041 31.1662 60.5041" stroke="black" stroke-opacity="0.99" stroke-width="3" stroke-linecap="round"/>
</svg>
