<svg width="348" height="683" viewBox="0 0 348 683" fill="none" xmlns="http://www.w3.org/2000/svg">
<path d="M90.6697 81.0301C90.6697 68.261 90.1067 58.3593 97.2335 47.2732C103.817 37.0325 114.927 27.4715 125.364 21.8514C146.853 10.2807 175.818 23.5853 192.878 36.8545C197.487 40.4394 203.66 24.4837 206.943 21.0179C215.852 11.6139 225.52 4.9221 238.825 4.13948C266.721 2.49851 298.009 -4.5309 312.381 25.8105C317.636 36.9029 313.703 56.4599 312.069 67.9024C310.483 79.0036 323.576 83.2249 331.656 90.407C350.927 107.537 348.761 144.911 337.282 165.318C334.655 169.989 311.371 190.621 313.84 193.553C322.432 203.756 333.423 211.878 337.803 225.018C344.065 243.802 342.536 264.091 338.637 283.155C334.367 304.031 321.949 318.376 302.588 324.83" stroke="#E2901D" stroke-width="3" stroke-linecap="round"/>
<path d="M302.587 326.705C320.685 326.705 343.38 350.284 343.845 367.963C344.313 385.75 343.009 400.427 332.489 415.681C329.101 420.594 315.605 438.735 308.213 439.228C306.11 439.368 310.928 438.939 312.068 440.27C315.369 444.121 320.772 445.329 324.05 449.543C329.56 456.628 330.718 462.236 330.718 471.109C330.718 497.521 329.114 519.501 308.213 537.79C304.277 541.233 289.665 546.116 289.876 546.125C301.224 546.597 308.007 564.889 310.089 574.255C313.08 587.717 315.715 599.077 315.715 613.222C315.715 633.467 311.909 640.681 298.732 655.834C287.873 668.322 263.021 681.152 246.326 681.152C234.073 681.152 229.957 680.05 220.174 672.713C217.451 670.67 206.123 661.263 205.484 662.398C201.975 668.637 196.18 678.389 188.189 679.277C167.676 681.556 147.711 682.861 131.927 666.149C128.739 662.773 125.424 654.55 119.737 657.71C112.257 661.865 104.741 666.509 96.7119 669.483C80.2084 675.595 45.8363 679.277 37.7416 658.231C34.0772 648.703 26.906 640.414 26.906 629.475C26.906 626.512 25.6872 607.423 29.8233 606.241C31.0051 605.903 20.8825 593.2 17.1124 590.3C9.68574 584.588 4.04411 573.131 2.63026 563.941C0.616056 550.848 4.07096 540.829 13.3616 531.538C16.9906 527.909 34.4438 517.607 32.5322 513.305C29.6398 506.798 18.1992 501.458 13.7784 495.073C6.80343 484.998 6.27683 475.753 6.27683 463.608C6.27683 447.901 8.33121 435.525 17.9459 422.35C22.2766 416.415 31.9971 405.471 40.0337 405.471" stroke="#E2901D" stroke-width="3" stroke-linecap="round"/>
<path d="M40.0337 405.471C36.7383 405.059 27.5522 396.74 25.0307 394.219C19.2346 388.423 16.1294 377.576 14.1951 369.839C9.34528 350.439 21.9271 334.438 38.1583 325.871C40.1469 324.822 51.1341 319.756 49.4106 318.787C44.5494 316.052 40.1519 310.987 36.2829 307.118C23.1986 294.033 24.0787 268.587 25.1348 251.69C26.7987 225.068 47.8247 210.062 69.1021 198.241C75.4951 194.69 63.7306 184.846 61.6006 180.113C56.6476 169.106 50.8666 156.959 49.5148 144.793C48.5026 135.683 48.7818 124.991 49.5148 115.829C50.2433 106.723 57.2414 100.918 60.6629 93.22C63.7519 86.2698 81.578 77.2793 88.7936 77.2793" stroke="#E2901D" stroke-width="3" stroke-linecap="round"/>
</svg>
