<svg width="392" height="699" viewBox="0 0 392 699" fill="none" xmlns="http://www.w3.org/2000/svg">
<path d="M107.608 39.8094C107.608 31.0517 124.532 11.853 133.704 10.5428C146.007 8.78527 160.184 6.12375 170.491 15.3451C173.166 17.7391 177.16 19.922 179.37 22.6844C181.954 25.9146 181.72 20.1151 184.354 17.7009C196.966 6.13962 208.363 2.29749 225.218 2.29749C238.423 2.29749 254.754 9.62252 260.555 21.8689C262.67 26.3327 262.549 30.9434 262.549 35.732C262.549 38.8604 266.323 34.9165 269.073 34.9165C282.576 34.9165 292.312 38.2207 302.054 47.6017C306.533 51.9153 311.947 54.9574 316.37 59.3808C324.91 67.9209 317.048 76.7214 311.477 85.476" stroke="black" stroke-width="3" stroke-linecap="round"/>
<path d="M313.108 87.1069C325.537 87.1069 338.914 92.676 346.633 102.601C353.824 111.846 360.776 126.412 352.976 137.757C350.264 141.702 346.66 146.338 343.281 149.717C342.934 150.065 339.715 152.345 340.2 152.345C346.927 152.345 349.798 155.287 355.513 158.144C364.068 162.421 375.085 176.159 375.085 185.87C375.085 189.767 377.037 201.643 373.454 204.173C369.921 206.666 361.4 212.332 359.137 215.952C358.172 217.497 355.751 217.496 357.144 217.583C359.466 217.728 362.996 219.651 364.936 220.845C369.104 223.41 373.031 226.283 375.447 230.631C380.173 239.137 386.501 246.411 386.501 256.726C386.501 264.507 382.99 274.666 373.454 274.666" stroke="black" stroke-width="3" stroke-linecap="round"/>
<path d="M373.454 276.297C384.316 287.16 389.763 300.516 389.763 315.531C389.763 327.407 385.181 334.21 375.085 341.535C374.526 341.94 364.193 351.121 364.393 351.321C366.114 353.042 370.05 353.969 371.823 356.576C375.036 361.303 377.395 369.373 378.256 374.97C379.355 382.112 381.486 392.238 379.887 399.434C378.246 406.816 365.565 410.801 360.406 414.928C358.01 416.845 343.522 417.902 348.989 418.19C357.619 418.644 369.796 435.559 374.269 442.02C380.007 450.309 382.487 457.842 381.518 468.025C380.393 479.83 368.455 490.481 360.406 498.107C355.878 502.396 338.356 506.607 344.459 507.892C348.438 508.73 350.967 509.87 353.882 512.785C361.82 520.723 373.454 531.993 373.454 544.589C373.454 555.773 358.295 561.138 350.62 564.976" stroke="black" stroke-width="3" stroke-linecap="round"/>
<path d="M350.62 564.976C350.918 567.657 354.106 572.515 355.603 574.761C359.068 579.959 360.714 585.311 362.761 591.161C366.058 600.58 367.425 614.543 362.852 623.69C357.688 634.018 343.995 647.009 331.864 648.063C324.743 648.683 313.942 650.275 309.121 644.077C308.261 642.971 308.215 638.138 308.215 639.999C308.215 642.703 308.365 645.455 308.215 648.154C307.815 655.358 291.478 659.902 286.65 662.833C279.674 667.068 270.975 669.356 262.911 669.356C255.144 669.356 254.908 666.737 250.769 661.564C245.894 655.47 249.68 670.549 249.41 672.709C248.121 683.024 231.508 692.289 222.59 694.636C210.025 697.943 182.632 699.787 182.632 681.589C182.632 675.442 174.808 683.032 173.752 684.035C164.697 692.637 147.451 697.083 135.334 697.083C119.921 697.083 118.289 690.366 115.4 676.243C114.43 671.496 110.796 656.309 119.025 656.309" stroke="black" stroke-width="3" stroke-linecap="round"/>
<path d="M114.132 656.309C99.3954 663.677 83.5512 672.618 66.7436 672.618C62.2754 672.618 51.9799 674.665 48.9844 670.172C44.6102 663.611 44.0009 657.368 44.0009 649.785C44.0009 644.558 42.0638 634.943 45.9943 630.576C48.7348 627.531 41.9702 628.583 39.9235 628.583C25.2088 628.583 15.3391 628.155 9.75093 612.273C3.02737 593.164 -3.78076 573.645 8.84485 555.28C12.2412 550.34 17.7452 551.062 21.8925 547.669C27.0191 543.475 18.5786 537.873 16.2747 534.35C8.93571 523.125 7.05855 508.908 8.21059 495.66C9.33829 482.691 29.8841 467.118 42.3699 467.118" stroke="black" stroke-width="3" stroke-linecap="round"/>
<path d="M42.37 467.118C36.4306 455.9 26.8549 447.839 24.4296 434.499C21.7492 419.757 19.9369 397.98 35.8462 389.558C37.3354 388.769 43.1078 387.215 42.7325 386.839C39.5253 383.632 35.1719 381.635 31.8595 378.322C26.065 372.528 17.3917 366.194 15.0063 357.845C9.61838 338.987 14.6129 320.451 29.3224 307.376C34.0358 303.186 39.4512 300.131 44.7258 296.775C46.5478 295.615 51.2966 296.812 48.5314 294.6C45.2581 291.982 40.7778 290.29 37.4772 286.989C29.796 279.308 26.8032 270.044 22.8892 260.26C19.1012 250.789 36.0906 253.464 42.37 253.464" stroke="black" stroke-width="3" stroke-linecap="round"/>
<path d="M44.0012 250.202C42.6789 244.913 32.6031 239.066 30.2287 232.443C26.2256 221.276 19.8889 202.435 25.3359 190.763C29.108 182.68 33.5107 178.092 41.4642 173.547C42.5563 172.923 30.9735 162.242 29.3227 160.5C12.1049 142.325 24.7465 115.662 41.5548 101.967C50.3088 94.8338 61.5082 91.9997 72.5428 91.9997C77.6589 91.9997 69.5768 86.0677 68.4655 83.845" stroke="black" stroke-width="3" stroke-linecap="round"/>
<path d="M70.0963 85.476C69.5548 79.5191 66.069 73.9076 64.2973 68.2604C62.5021 62.5382 63.5725 55.4735 63.5725 49.5044C63.5725 38.405 65.222 29.8241 75.8952 24.7684C87.0706 19.4747 110.87 14.1938 110.87 31.6546" stroke="black" stroke-width="3" stroke-linecap="round"/>
</svg>
