<svg width="1252" height="124" viewBox="0 0 1252 124" fill="none" xmlns="http://www.w3.org/2000/svg">
<path d="M677.956 108.443C677.041 112.561 667.68 117.517 663.892 118.206C659.703 118.968 655.259 117.019 653.106 113.359C649.456 107.155 644.71 115.145 641.636 117.66C636.884 121.548 632.216 121.961 626.344 121.961C618.069 121.961 611.438 106.705 602.996 111.174C600.654 112.414 597.087 116.947 595.077 118.957C591.796 122.237 588.822 121.961 583.949 121.961C575.51 121.961 572.449 109.108 565.585 107.146C563.221 106.471 557.203 113.555 554.116 114.861C549.05 117.004 545.533 117.045 539.711 117.045C536.067 117.045 533.742 109.455 530.494 111.174C527.377 112.825 526.589 117.299 522.507 118.206C519.086 118.966 514.338 118.469 510.833 118.274C506.239 118.019 503.382 110.248 499.773 108.443" stroke="black" stroke-width="3" stroke-linecap="round"/>
<path d="M501.002 108.444C496.321 108.719 492.475 113.359 487.485 113.359C485.56 113.359 476.246 114.513 475.196 112.676C469.272 102.308 466.009 118.274 457.993 118.274C453.981 118.274 448.109 119.408 444.475 117.592C442.587 116.647 436.348 108.515 433.689 111.174C427.375 117.488 413.954 123.114 403.924 120.459C401.629 119.851 389.177 107.4 389.177 110.287C389.177 116.809 362.941 118.681 360.914 115.134C360.239 113.953 356.487 104.892 354.77 107.897C352.851 111.255 348.418 114.942 344.939 116.772C334.938 122.036 322.565 123.909 316.676 112.13" stroke="black" stroke-width="3" stroke-linecap="round"/>
<path d="M315.444 112.13C308.86 112.13 297.263 118.526 291.482 112.745C288.917 110.18 288.632 104.535 284.109 109.058C281.187 111.981 277.877 114.432 274.278 116.431C271.956 117.721 264.104 118.007 261.99 116.363C260.655 115.325 253.513 106.91 251.545 110.355C249.501 113.932 235.138 120.24 231.815 116.363C230.272 114.562 226.732 110.576 224.51 109.399C221.228 107.662 218.934 112.802 215.908 114.315C210.781 116.878 193.581 120.471 189.147 115.544C187.842 114.093 187.126 107.187 183.685 110.628C181.202 113.111 177.575 113.55 175.083 115.544C172.29 117.778 165.039 118.274 161.566 118.274C155.355 118.274 153.725 117.533 149.551 113.359" stroke="black" stroke-width="3" stroke-linecap="round"/>
<path d="M148.158 112.286C148.054 111.554 146.77 112.93 146.42 113.155C145.383 113.822 144.219 113.739 143.265 114.347C141.634 115.385 139.113 115.67 137.149 115.763C134.802 115.875 132.616 116.656 130.195 116.31C127.879 115.98 126.544 112.435 125.302 110.838C124.742 110.118 124.283 108.291 123.241 108.23C120.658 108.078 119.549 109.548 118.026 111.578C115.128 115.443 108.673 120.52 103.54 119.787C100.4 119.339 97.5925 116.71 95.427 114.604C94.3195 113.527 91.0349 108.23 89.9221 108.23C86.9028 108.23 84.7317 111.678 82.0993 112.995C78.961 114.564 73.9284 115.763 70.4456 115.763C67.8367 115.763 63.0227 116.754 60.659 115.634C58.8731 114.788 58.8817 112.267 57.7617 111.707" stroke="black" stroke-width="3" stroke-linecap="round"/>
<path d="M57.7594 111.707C53.8902 112.094 51.6366 116.758 47.2002 116.922C42.372 117.101 39.5281 116.655 36.0294 113.156C35.3318 112.458 34.4199 110.291 33.5506 111.257C31.7874 113.216 30.7802 115.471 28.0778 116.472C24.2572 117.887 17.2936 120.267 15.7803 114.862C14.4224 110.013 15.4732 104.999 14.7501 100.118C14.3329 97.302 14.2994 94.5974 14.2994 91.7478C14.2994 89.3768 10.6278 89.8615 8.63353 89.1081C5.44234 87.9025 3.77472 86.103 2.83887 82.7339C1.48758 77.8693 1.7933 72.6011 3.5793 67.9575C4.49693 65.5717 7.71745 55.499 10.2432 55.499" stroke="black" stroke-width="3" stroke-linecap="round"/>
<path d="M918.812 36.9363C918.812 30.244 925.704 22.1555 932.548 22.1555C939.675 22.1555 943.391 23.7296 949.046 28.1276C954.448 32.3293 955.076 25.0404 958.451 20.8865C964.499 13.4433 986.562 8.31421 994.06 15.437C994.805 16.145 1004.53 24.5216 1004.73 24.0218C1007.18 17.9103 1010.78 14.1343 1016.83 10.8087C1028.95 4.14273 1046.14 6.19653 1056.62 14.7652C1058.5 16.3101 1061.05 17.2327 1062.29 19.4681C1062.56 19.9633 1064.56 23.2614 1065.28 22.902C1070.64 20.2201 1075.53 14.257 1081.4 11.4059C1093.76 5.40469 1109.48 8.0887 1119.7 16.0342C1125.09 20.2333 1130.92 9.03238 1136.49 6.03111C1141.92 3.10781 1149.27 2 1155.3 2C1164.38 2 1169.47 3.94917 1176.73 9.39037C1181.55 13.0073 1178.9 14.5026 1185.46 11.4059C1192.12 8.26087 1202.37 7.37481 1209.72 7.37481C1215.19 7.37481 1221.58 6.618 1225.85 10.8834C1229.1 14.1315 1230.55 18.9537 1230.55 23.4992C1230.55 25.5099 1230.05 25.7676 1228.91 27.2318C1228.29 28.0333 1237.23 33.3818 1238.31 34.2489C1245.66 40.1271 1249.36 47.7429 1249.36 57.0918C1249.36 63.195 1251.27 69.9447 1244.51 72.5444C1242.84 73.1886 1232.81 72.5667 1234.58 74.56C1239.58 80.1803 1241.34 84.9042 1243.32 92.0281C1248.57 110.924 1230.87 111.222 1217.11 110.84C1209.3 110.623 1211.63 102.722 1208.38 98.8213C1205.12 94.914 1201.64 101.602 1198.97 103.45C1188.65 110.596 1170.41 114.309 1158.29 111.885C1150.48 110.324 1151.7 107.551 1149.26 102.181C1147.86 99.1038 1148.27 95.4537 1143.21 97.7015C1135.55 101.105 1130.58 110.169 1123.06 112.855C1113.07 116.421 1099.78 117.886 1094.54 107.406C1092.87 104.07 1093.22 105.741 1090.13 108.824C1086.06 112.898 1082.58 115.968 1078.04 119.499C1074.35 122.368 1066.46 121.59 1061.99 121.59C1054.16 121.59 1052.11 118.109 1048.55 111.512C1047.25 109.084 1045.86 101.624 1042.43 101.434C1038.84 101.234 1037.34 105.025 1034.37 106.51C1030.59 108.402 1027.65 111.416 1023.62 112.855C1018.86 114.556 1012.58 113.527 1007.57 113.527C1001.31 113.527 999.394 112.386 997.046 106.809C995.132 102.264 998.895 101.755 995.105 105.167C986.772 112.666 977.606 113.527 966.887 113.527C960.908 113.527 956.509 113.834 953.151 108.078C951.818 105.792 951.372 95.4919 953.077 93.4464C954.738 91.4529 952.787 98.8654 952.106 100.09C949.644 104.522 943.921 107.765 939.266 109.198C928.327 112.563 920.336 105.715 921.574 94.5662C922.105 89.7903 925.873 84.595 930.906 83.9659C933.832 83.6001 927.405 79.5528 926.203 78.5911C921.789 75.0603 915.526 62.9761 924.187 62.4666C929.959 62.1271 924.929 61.3791 924.187 60.4511C922.219 57.9909 919.728 56.5901 918.14 53.7326C915.684 49.3106 913.77 38.28 921.5 38.28" stroke="black" stroke-width="3" stroke-linecap="round"/>
<path d="M12.1211 55.7451C12.1211 39.8026 30.8173 31.3211 43.1574 42.4273C46.5756 45.5036 49.6426 50.0914 49.6426 42.7168C49.6426 35.8389 61.842 31.773 67.3611 31.773C71.5853 31.773 82.5004 39.7304 84.6164 36.4053C90.3747 27.3565 101.784 21.3504 112.178 21.3504C114.559 21.3504 130.257 32.387 130.939 31.194C135.929 22.4624 145.737 16.6295 156.475 18.2815C163.662 19.3872 168.401 28.7315 173.904 32.5836C174.747 33.1738 176.147 29.6392 176.857 29.2252C178.34 28.3601 180.621 27.3336 182.242 26.7933C184.3 26.1073 191.158 25.0427 192.954 26.0405C196.28 27.8884 199.521 29.4812 202.276 32.2362C203.942 33.9023 208.656 39.0688 211.194 39.0688C211.967 39.0688 214.546 32.3934 215.942 31.2519C221.147 26.9929 227.956 24.6547 234.702 24.4771C241.894 24.2879 245.527 27.0063 249.757 32.2941C253.269 36.6839 257.126 27.9069 261.222 25.751C268.128 22.1165 278.811 24.5498 284.673 29.1094C287.023 30.937 288.956 34.4727 291.68 35.7104C292.915 36.2721 294.795 31.9918 295.617 31.2519C297.533 29.5278 299.707 28.4739 301.871 27.0828C309.239 22.3459 317.251 22.1523 325.032 26.5617C328.452 28.4997 331.486 28.9399 334.412 31.5414C335.141 32.1892 335.53 29.5519 335.744 29.1673C336.837 27.2005 337.629 25.2679 338.929 23.377C344.604 15.1228 357.885 12.647 366.491 16.9497C371.056 19.232 374.878 22.2274 378.998 25.2878C380.096 26.1031 385.647 31.8186 386.236 29.1673C387.87 21.8124 401.596 19.2658 407.95 19.2658C415 19.2658 417.536 25.8841 423.352 27.546C426.027 28.3104 431.344 24.7408 434.238 24.4192C440.046 23.7739 445.581 23.4349 451.493 23.4349C455.655 23.4349 458.857 26.2824 461.684 29.1094C462.235 29.6603 466.221 35.5993 466.548 32.8153C467.307 26.3697 489.571 21.3504 495.153 21.3504C496.688 21.3504 500.979 20.6142 501.985 21.8715C502.686 22.7471 503.377 23.381 503.838 24.4771C504.073 25.0347 503.963 29.2919 504.533 28.9936C510.528 25.8536 512.283 20.3081 519.472 20.3081C521.863 20.3081 529.524 19.0365 531.111 20.8871C533.15 23.266 534.019 26.7487 536.148 28.8778C537.989 30.7188 539.341 28.0435 541.07 27.0828C548.91 22.7275 557.972 23.4349 566.606 23.4349C574.296 23.4349 577.818 27.236 582.761 32.1783C583.164 32.5816 583.843 30.1868 584.093 29.6885C585.01 27.8532 586.039 26.0046 587.509 24.5351C591.344 20.7003 597.867 19.2658 603.085 19.2658C611.504 19.2658 624.659 18.6399 629.141 27.6039" stroke="black" stroke-width="3" stroke-linecap="round"/>
<path d="M631.227 29.6886C638.862 28.8402 644.862 19.8548 653.114 24.7089C655.631 26.1897 660.4 34.9102 663.537 31.7731C667.057 28.253 669.945 24.9384 675.002 22.9718C680.245 20.9327 688.654 20.0732 693.705 22.9139C695.532 23.9419 706.27 32.3864 706.27 29.1675C706.27 23.9788 716.722 19.5461 720.803 17.7605C727.361 14.8917 734.048 18.4883 739.622 21.3505C742.094 22.6199 749.816 30.669 750.045 26.5618C750.284 22.2474 756.745 19.5295 760.236 18.4553C764.21 17.2323 768.781 17.1814 772.974 17.1814C774.981 17.1814 778.44 16.546 780.27 17.413C782.493 18.4659 783.777 21.1542 785.945 22.3928C787.248 23.1376 787.762 24.9773 789.593 24.8247C791.05 24.7033 793.475 14.8598 794.341 13.1282C796.646 8.51792 802.041 6.75879 806.848 6.75879C815.173 6.75879 823.739 12.9777 827.404 20.3082C830.644 26.7889 847.486 13.2349 854.271 19.266C858.029 22.6064 860.525 25.5585 860.525 30.9625C860.525 32.7538 861.018 34.8698 859.714 36.1738C857.31 38.5775 866.586 39.2482 867.705 39.7059C875.123 42.7408 879.349 52.4762 883.918 58.3509C885.764 60.7252 884.622 68.2524 880.849 68.2524C878.959 68.2524 876.675 67.7268 878.822 69.8737C881.455 72.5064 883.614 75.332 886.002 78.1539C889.61 82.4171 891.793 88.7988 891.793 94.309C891.793 101.187 881.874 100.563 877.201 100.563C873.255 100.563 870.681 100.07 867.01 98.7096C865.363 98.0998 863.851 94.5729 862.609 95.8145C860.484 97.9397 863.478 104.442 860.293 107.627C856.78 111.14 851.029 111.391 845.933 110.927C840.844 110.465 836.475 106.979 833.426 103.168C833.364 103.091 824.559 112.336 822.54 113.07C819.325 114.239 812.131 117.063 808.933 114.575C806.846 112.953 804.868 111.887 803.721 109.364C802.839 107.422 804.05 104.635 802.158 103.689" stroke="black" stroke-width="3" stroke-linecap="round"/>
<path d="M678.531 109.527C678.794 111.629 686.282 115.053 688.479 115.053C691.829 115.053 692.344 112.294 694.558 110.079C697.087 107.551 699.328 111.777 701.712 113.088C702.808 113.691 709.464 117.262 710.585 115.299C712.455 112.028 713.878 107.646 716.542 104.983C717.003 104.522 723.048 109.544 724.279 110.079C727.911 111.659 730.551 113.439 734.626 112.812C737.581 112.357 738.387 109.776 739.6 107.593C740.767 105.493 740.575 105.15 742.21 107.193C744.19 109.668 749.608 111.412 752.557 111.707C758.562 112.307 762.79 109.232 767.264 105.781C768.443 104.871 769.814 101.024 771.255 102.465C775.696 106.906 783.356 108.421 789.339 108.421C793.927 108.421 798.555 106.114 801.774 102.895" stroke="black" stroke-width="3" stroke-linecap="round"/>
</svg>
