<svg width="709" height="49" viewBox="0 0 709 49" fill="none" xmlns="http://www.w3.org/2000/svg">
<path d="M4.28967 21.1697C4.28967 29.0281 0.141908 41.69 10.2906 45.3804C22.3297 49.7583 26.2763 37.4526 26.638 26.9637C26.7867 22.6513 27.0055 19.6749 23.8444 16.5138C20.2714 12.9408 18.4958 13.0957 14.0671 11.3923C9.9318 9.80184 8.09037 13.2642 4.75526 15.117C0.610373 17.4198 1.90169 23.1148 3.35849 26.7568" stroke="black" stroke-opacity="0.99" stroke-width="3" stroke-linecap="round"/>
<path d="M39.6738 9.99561C39.6738 20.8976 40.9377 32.4109 44.3297 42.5869" stroke="black" stroke-opacity="0.99" stroke-width="3" stroke-linecap="round"/>
<path d="M38.7432 11.8579C45.8523 11.8579 65.7474 6.40355 65.7474 17.445C65.7474 23.5184 60.7313 28.4547 55.5044 31.2057C51.5335 33.2957 45.958 32.3438 41.5367 32.3438" stroke="black" stroke-opacity="0.99" stroke-width="3" stroke-linecap="round"/>
<path d="M85.3019 9.99561C85.3019 16.6239 84.8932 25.806 87.6298 31.8266C89.5152 35.9745 88.8798 41.3622 90.889 45.3804" stroke="black" stroke-opacity="0.99" stroke-width="3" stroke-linecap="round"/>
<path d="M85.3018 10.9268H109.512" stroke="black" stroke-opacity="0.99" stroke-width="3" stroke-linecap="round"/>
<path d="M138.379 9.99561C138.379 22.1322 134.654 33.4372 134.654 45.3804" stroke="black" stroke-opacity="0.99" stroke-width="3" stroke-linecap="round"/>
<path d="M140.242 9.06433C140.242 14.2255 145.737 21.4503 148.623 25.6186C151.785 30.1864 154.284 34.8984 157.003 39.7933" stroke="black" stroke-opacity="0.99" stroke-width="3" stroke-linecap="round"/>
<path d="M131.861 27.688H157.003" stroke="black" stroke-opacity="0.99" stroke-width="3" stroke-linecap="round"/>
<path d="M178.42 10.9268C178.42 13.3897 177.85 16.6163 178.886 18.8935C180.293 21.99 179.564 27.8915 181.679 30.4298C182.886 31.8787 184.007 41.7255 184.007 41.6557" stroke="black" stroke-opacity="0.99" stroke-width="3" stroke-linecap="round"/>
<path d="M184.007 30.4815C189.03 30.4815 195.396 29.9083 199.837 27.688" stroke="black" stroke-opacity="0.99" stroke-width="3" stroke-linecap="round"/>
<path d="M199.837 9.99561C199.837 12.4788 199.837 14.9619 199.837 17.445C199.837 20.6816 201.463 23.3666 201.699 26.5499C201.861 28.7285 204.708 38.4311 205.424 36.9998" stroke="black" stroke-opacity="0.99" stroke-width="3" stroke-linecap="round"/>
<path d="M222.186 9.99561C222.186 20.3861 225.66 29.7548 226.841 39.7934C227.243 43.2082 230.351 36.8211 230.566 36.0686C232.058 30.8479 240.24 25.4637 244.068 21.6354C245.941 19.7624 247.005 17.6152 248.466 15.7896C248.904 15.242 250.121 9.7715 250.121 13.3065C250.121 20.8939 250.121 28.4813 250.121 36.0686" stroke="black" stroke-opacity="0.99" stroke-width="3" stroke-linecap="round"/>
<path d="M275.263 13.7203C275.547 11.1632 280.285 11.4737 282.247 11.9096C285.457 12.6229 284.575 17.1515 284.575 19.5143C284.575 24.2855 284.242 26.491 279.453 28.6192C277.098 29.6657 272.678 28.6192 276.194 28.6192C277.505 28.6192 278.815 28.6192 280.126 28.6192C285.903 28.6192 287.921 36.7519 289.8 41.4487C290.989 44.4209 288.262 46.1665 285.506 46.3116C281.794 46.507 265.951 48.1887 265.951 42.5869" stroke="black" stroke-opacity="0.99" stroke-width="3" stroke-linecap="round"/>
<path d="M295.749 11.8579C295.956 13.5113 298.267 15.1519 299.474 16.1C301.96 18.0533 304.991 22.8739 305.94 25.7221C306.612 27.7387 308.524 30.3134 309.717 32.1369C310.939 34.0067 313.633 34.5898 314.373 36.0686" stroke="black" stroke-opacity="0.99" stroke-width="3" stroke-linecap="round"/>
<path d="M319.96 15.5826C319.96 25.9944 313.452 36.9837 307.854 45.3804" stroke="black" stroke-opacity="0.99" stroke-width="3" stroke-linecap="round"/>
<path d="M345.102 14.6515C345.102 19.9417 345.378 24.8754 346.55 30.0677C347.166 32.7942 348.732 40.6494 351.154 42.5869C354.015 44.8754 352.719 46.0099 354.879 42.1213C356.953 38.3884 360.607 36.153 363.208 32.8095C364.988 30.5213 365.601 27.4244 366.726 24.8945C367.46 23.2417 369.549 15.9807 369.312 20.2386C369.08 24.4197 366.667 42.1954 371.175 44.4492" stroke="black" stroke-opacity="0.99" stroke-width="3" stroke-linecap="round"/>
<path d="M353.482 2.54617C356.772 2.54617 369.781 4.40351 371.175 1.61499" stroke="black" stroke-opacity="0.99" stroke-width="3" stroke-linecap="round"/>
<path d="M396.316 16.5138C396.316 24.4141 395.533 35.8253 400.04 42.5868" stroke="black" stroke-opacity="0.99" stroke-width="3" stroke-linecap="round"/>
<path d="M385.142 15.5826H411.215" stroke="black" stroke-opacity="0.99" stroke-width="3" stroke-linecap="round"/>
<path d="M427.045 12.7891C427.045 23.433 431.701 33.1107 431.701 43.518" stroke="black" stroke-opacity="0.99" stroke-width="3" stroke-linecap="round"/>
<path d="M427.977 10.9268H441.944" stroke="black" stroke-opacity="0.99" stroke-width="3" stroke-linecap="round"/>
<path d="M430.77 28.6191H444.737" stroke="black" stroke-opacity="0.99" stroke-width="3" stroke-linecap="round"/>
<path d="M603.512 16.468C603.512 20.4479 601.642 45.7405 605.531 45.7405" stroke="black" stroke-opacity="0.99" stroke-width="3" stroke-linecap="round"/>
<path d="M602.503 15.4586C605.84 15.8294 610.877 22.1131 612.821 24.5432C615.943 28.4455 621.246 30.7915 623.7 35.0857C625.601 38.4123 625.489 34.6426 625.775 33.0669C626.648 28.2681 628.674 23.9308 630.542 19.4962C631.072 18.2366 631.775 14.2901 631.775 17.4774C631.775 20.5532 633.028 25.2234 634.299 28.02C636.418 32.6832 641.869 39.7138 641.869 44.7311" stroke="black" stroke-opacity="0.99" stroke-width="3" stroke-linecap="round"/>
<path d="M651.963 14.4492C651.963 20.7219 652.833 26.4585 654.991 32.394C656.106 35.4606 658.019 44.9659 658.019 41.7029" stroke="black" stroke-opacity="0.99" stroke-width="3" stroke-linecap="round"/>
<path d="M653.981 28.5808C659.814 28.5808 665.498 27.5714 671.141 27.5714" stroke="black" stroke-opacity="0.99" stroke-width="3" stroke-linecap="round"/>
<path d="M671.142 12.4304C671.142 22.7865 672.683 33.6814 677.198 42.7122" stroke="black" stroke-opacity="0.99" stroke-width="3" stroke-linecap="round"/>
<path d="M689.31 11.421C689.31 16.6067 688.627 22.2398 689.535 27.347C690.117 30.6248 691.329 34.3995 691.329 37.6653" stroke="black" stroke-opacity="0.99" stroke-width="3" stroke-linecap="round"/>
<path d="M690.32 11.421H707.48" stroke="black" stroke-opacity="0.99" stroke-width="3" stroke-linecap="round"/>
<path d="M692.339 25.5526C695.105 25.5526 704.452 23.9623 704.452 27.5714" stroke="black" stroke-opacity="0.99" stroke-width="3" stroke-linecap="round"/>
<path d="M692.339 34.6371C695.338 34.6371 704.07 33.8742 705.461 36.6559" stroke="black" stroke-opacity="0.99" stroke-width="3" stroke-linecap="round"/>
</svg>
