<svg width="285" height="203" viewBox="0 0 285 203" fill="none" xmlns="http://www.w3.org/2000/svg">
<path d="M2.03571 136.987C5.08858 136.647 8.04664 132.762 10.0373 130.856C16.3572 124.803 24.4252 120.792 31.3922 115.528C44.4328 105.675 56.5536 94.6278 70.4131 85.8595C84.1773 77.1515 98.572 69.4552 112.396 60.8155C124.095 53.5036 137.446 49.2535 149.858 43.4614C171.643 33.2949 195.219 27.4455 217.352 18.3655C225.95 14.8378 235.095 11.938 243.123 7.1944C246.439 5.23479 251.641 2.3103 255.489 2.3103" stroke="black" stroke-opacity="0.99" stroke-width="3" stroke-linecap="round"/>
<path d="M7.64722 150.08C34.4485 134.85 60.6868 118.665 87.3515 103.318C94.3054 99.3151 101.369 95.2696 108.551 91.6789C115.986 87.9614 124.196 85.8665 131.308 81.599C147.211 72.0574 165.054 65.7082 181.604 57.2824C188.817 53.6105 195.868 51.1197 203.323 48.1377C209.668 45.5997 217.115 42.9449 222.963 39.5126C230.197 35.2665 237.242 31.1089 244.994 27.77C250.987 25.1884 260.019 20.0801 266.712 20.0801" stroke="black" stroke-opacity="0.99" stroke-width="3" stroke-linecap="round"/>
<path d="M16.9998 167.85C22.0343 167.85 26.4461 165.482 30.8207 163.174C38.4808 159.133 46.023 154.863 53.6824 150.808C74.1411 139.977 93.8492 127.577 114.63 117.398C130.65 109.552 146.012 100.473 161.808 92.1985C166.006 89.9994 170.284 88.8989 174.642 87.3144C177.405 86.3096 180.648 82.5515 182.955 80.6637C191.906 73.3405 202.781 70.1133 211.74 63.1017C219.043 57.3862 226.147 51.4829 234.238 46.8907C248.686 38.6905 265.164 32.959 278.87 23.8211" stroke="black" stroke-opacity="0.99" stroke-width="3" stroke-linecap="round"/>
<path d="M29.1581 184.685C38.8498 184.685 46.8671 179.619 55.0334 174.761C62.3485 170.408 69.6197 166.027 76.9598 161.719C85.3079 156.819 94.2091 153.155 102.108 147.482C116.521 137.131 130.93 127.997 146.169 118.957C160.454 110.482 174.54 101.529 189.034 93.4455C196.638 89.2052 204.119 85.3784 211.948 81.599C222.748 76.3851 232.809 70.1217 243.383 64.5046C250.397 60.7786 257.723 56.8426 265.05 53.7492C269.58 51.8362 274.925 47.2025 279.806 47.2025" stroke="black" stroke-opacity="0.99" stroke-width="3" stroke-linecap="round"/>
<path d="M41.3163 200.584C44.8228 200.584 47.4915 199.142 50.565 197.57C59.3512 193.077 67.553 187.574 76.1285 182.71C85.6954 177.284 95.6744 172.528 105.121 166.915C114.086 161.588 122.043 154.673 130.997 149.301C141.888 142.766 153.268 136.881 164.458 130.856C169.686 128.041 175.182 124.92 180.617 122.542C185.495 120.408 189.352 116.601 193.763 113.605C200.682 108.905 207.028 103.788 214.13 99.3687C224.056 93.1929 234.384 86.752 243.85 79.9363C251.352 74.5349 260.432 70.5374 269.05 67.3623C271.44 66.482 281.694 62.1311 282.611 60.296" stroke="black" stroke-opacity="0.99" stroke-width="3" stroke-linecap="round"/>
</svg>
