<svg width="325" height="219" viewBox="0 0 325 219" fill="none" xmlns="http://www.w3.org/2000/svg">
<path d="M2.2644 68.8113C2.2644 95.2406 13.0514 119.664 18.6065 145.382C22.3972 162.932 34.2896 214.867 34.2896 196.912" stroke="black" stroke-opacity="0.99" stroke-width="3" stroke-linecap="round"/>
<path d="M3.4505 72.3697C43.3122 61.7969 83.1745 52.568 122.062 39.1584C136.344 34.2336 149.918 28.3139 164.828 25.5181C174.68 23.6708 184.95 20.9107 194.284 17.2812C203.073 13.8631 214.268 9.75855 223.673 8.58297C239.497 6.60492 255.46 3.57492 271.447 3.57492C275.713 3.57492 289.305 -1.26296 289.305 6.01305C289.305 12.1328 292.221 18.0596 294.049 23.8048C296.608 31.8461 297.981 40.5807 301.166 48.3838C307.549 64.0213 314.705 78.89 318.958 95.3672C319.843 98.798 322.516 102.601 322.516 106.174C322.516 108.854 322.924 107.953 319.221 107.953C306.01 107.953 292.741 113.643 279.816 115.992C247.132 121.935 215.551 134.846 185.322 148.281C152.418 162.905 118.577 175.909 85.8198 190.322C69.0289 197.71 54.1325 207.765 38.441 216.483C34.9597 218.417 34.4247 208.698 34.2895 206.401C34.0978 203.142 30.7312 200.294 30.7312 196.912" stroke="black" stroke-opacity="0.99" stroke-width="3" stroke-linecap="round"/>
<path d="M35.452 65.2864C35.452 71.4391 38.1551 77.2448 39.808 83.0731C42.2431 91.6601 44.4935 100.28 47.0074 108.846C52.2732 126.789 59.1813 144.088 64.6126 161.934C66.5924 168.439 68.8221 174.84 71.1162 181.263C72.0716 183.938 72.4233 186.586 73.8084 189.158C74.3565 190.176 76.4082 195.114 74.6554 191.608" stroke="black" stroke-opacity="0.99" stroke-width="3" stroke-linecap="round"/>
<path d="M63.7656 56.03C63.7656 62.8261 68.8785 70.0222 71.3885 76.2972C74.5478 84.1953 77.4412 92.1751 81.5524 99.6499C85.3274 106.514 88.5918 113.683 92.5027 120.462C96.3771 127.177 98.5449 134.327 101.85 141.213C105.16 148.109 105.791 156.352 109.775 162.992C111.099 165.2 112.143 168.401 113.042 170.918C113.821 173.098 116 177.329 114.403 172.007" stroke="black" stroke-opacity="0.99" stroke-width="3" stroke-linecap="round"/>
<path d="M90.9902 48.9517C90.9902 54.635 95.571 59.5007 98.3106 64.1369C104.169 74.0509 109.747 84.0825 115.462 94.084C123.162 107.56 131.329 120.74 139.208 134.074C142.911 140.341 146.32 146.767 150.098 152.95C151.086 154.566 152.491 156.355 153.728 157.729C154.289 158.352 155.803 161.191 155.24 158.939" stroke="black" stroke-opacity="0.99" stroke-width="3" stroke-linecap="round"/>
<path d="M132.916 37.5173C132.916 43.9146 135.019 49.2618 137.635 55.0923C141.286 63.2282 145.054 71.2925 148.676 79.4432C153.757 90.8759 158.988 102.223 164.799 113.292C168.714 120.749 172.365 128.369 176.596 135.647C178.279 138.54 179.309 141.794 180.952 144.782C181.902 146.509 183.437 148.752 183.009 145.327" stroke="black" stroke-opacity="0.99" stroke-width="3" stroke-linecap="round"/>
<path d="M177.02 25.5385C177.02 29.3237 180.352 33.6119 182.162 36.7913C186.368 44.179 189.699 51.9739 193.597 59.5087C200.887 73.6041 206.394 88.6168 213.38 102.856C216.541 109.301 219.505 115.764 223.574 121.641C224.744 123.331 225.838 125.281 226.841 127.086C227.685 128.606 229.222 130.487 227.658 127.358" stroke="black" stroke-opacity="0.99" stroke-width="3" stroke-linecap="round"/>
<path d="M235.825 8.11475C235.825 16.2067 239.895 23.0502 243.024 30.3179C246.1 37.4614 249.587 44.0415 253.249 50.8876C256.27 56.5361 260.496 61.5045 263.715 67.0408C266.634 72.0617 268.292 77.5301 270.672 82.7101C272.316 86.2879 275.295 91.7676 275.573 95.6569C275.721 97.7299 277.175 101.625 278.416 103.28C279.858 105.202 280.454 107.85 281.441 109.935C281.87 110.84 282.651 112.501 282.651 113.474C282.651 114.137 283.796 117.235 283.196 114.835" stroke="black" stroke-opacity="0.99" stroke-width="3" stroke-linecap="round"/>
<path d="M32.7761 75.0414C30.6157 75.3115 36.6378 88.201 37.2332 89.6235C39.2204 94.3705 40.3126 99.8906 42.7909 104.371C44.6711 107.769 46.0061 111.478 47.8534 114.908C48.8244 116.712 50.9675 117.303 53.0809 117.605C54.5939 117.821 56.0984 116.989 57.5381 116.669C58.45 116.466 61.4171 116.649 61.5 115.156C61.5819 113.683 60.5361 112.528 59.9042 111.194C57.3236 105.746 55.6545 99.3987 52.8058 94.1082C49.7502 88.4336 48.1652 82.1072 45.4047 76.2795C43.5524 72.369 42.3361 67.7632 39.2142 64.6414C36.6923 62.1195 31.9371 67.7014 31.3178 69.8689C30.0579 74.2786 32.856 77.7575 34.2618 81.9748" stroke="black" stroke-opacity="0.99" stroke-width="3" stroke-linecap="round"/>
<path d="M32.8808 79.0377C32.8808 83.4134 35.4952 87.393 37.359 91.2448C39.1665 94.9803 40.7094 100.324 43.7013 103.316C44.9041 104.518 43.1849 98.4172 43.1102 98.1781C42.4483 96.06 41.8766 93.7886 40.6552 91.9041C40.4861 91.6433 39.4588 90.0578 39.4276 91.0857C39.3119 94.9036 41.5539 99.2622 42.792 102.77C44.5314 107.699 46.3623 115.388 50.2708 119.296C51.3546 120.38 50.3489 115.309 50.2254 115.023C49.2075 112.665 47.9936 110.281 46.4518 108.226C46.3382 108.074 44.9248 105.821 44.7697 106.907C44.38 109.635 47.4673 113.965 49.0206 116.046C49.1114 116.167 52.4541 120.518 52.5213 118.637C52.6833 114.102 51.6577 109.172 48.9296 105.452C47.3483 103.296 49.006 108.999 49.2706 109.544C50.2776 111.621 51.5791 114.579 53.7488 115.773C55.0991 116.515 55.1332 114.193 54.8855 113.5C54.6879 112.946 52.164 110.513 52.1121 111.863C52.0133 114.432 53.0294 115.902 55.7947 116.546C57.4234 116.925 55.5639 115.045 54.3626 115.045C52.9902 115.045 53.1584 116.56 53.3624 117.682C53.812 120.155 56.7163 117.976 57.8406 117.91C58.5128 117.87 59.4773 118.217 59.4773 117.296C59.4773 114.742 57.2246 111.737 56.1812 109.476C53.8175 104.355 51.1246 99.131 48.2704 94.2682C48.1123 93.9989 47.034 91.6977 46.5882 91.6086C46.1518 91.5213 47.7367 96.7647 47.8385 97.0415C49.4416 101.402 51.4204 106.143 53.9762 110.044C54.3105 110.555 54.6621 110.634 54.3853 109.862C52.5357 104.703 50.9747 99.4549 49.3388 94.2228C47.0923 87.0377 45.1093 79.7893 43.0193 72.5591C42.2456 69.8825 41.539 66.8116 40.0641 64.3982C39.6007 63.6399 39.4038 64.0881 39.4504 64.7165C39.7584 68.8757 40.612 72.9698 41.4962 77.0373C43.3387 85.5124 46.1116 93.6341 48.6569 101.906C49.0362 103.139 49.1187 102.563 48.7478 101.679C46.9635 97.424 44.9851 93.2336 43.0648 89.0398C40.8657 84.2375 38.8968 77.2794 35.0176 73.4001C34.2814 72.6639 34.4859 73.8717 34.5175 74.4004C34.7276 77.9194 36.5268 81.485 37.8818 84.6753C39.0669 87.4655 40.2793 90.2707 41.6099 92.9952C41.9014 93.5921 42.5595 95.3309 42.6783 94.6774C42.9374 93.2526 42.2789 91.6359 41.8145 90.3356C40.5209 86.7135 39.0683 83.0904 37.0407 79.8106C36.2264 78.4933 34.4029 74.7567 34.5175 78.3103C34.5985 80.8207 35.855 83.1459 36.8362 85.4027C38.719 89.7332 40.7232 94.068 42.8829 98.2691C43.2611 99.0048 46.7928 105.514 46.7928 102.179C46.7928 95.4016 46.9387 86.9543 42.2691 81.4246C39.8265 78.532 38.3338 79.0546 38.6547 82.4248C39.3067 89.2701 43.1102 97.1499 46.7701 102.884C49.6262 107.358 48.8531 101.416 48.8387 99.2238C48.7905 91.8952 47.6566 85.0964 43.9286 78.7195C43.137 77.3654 41.4267 74.5367 39.6322 74.5367C38.9609 74.5367 37.7917 74.7644 37.1771 74.4913C36.6081 74.2384 36.2328 72.3954 36.4724 72.5818C37.1523 73.1106 38.0981 73.7725 39.0184 73.7184C40.4369 73.635 39.8368 69.0119 39.8368 67.9899C39.8368 63.6107 33.6819 64.658 33.29 67.9899C33.0463 70.0608 29.3753 74.1874 31.8578 76.1735C32.5579 76.7335 33.3164 78.2612 33.9264 79.0377C34.5005 79.7683 36.6633 82.2657 37.5636 82.2657C38.71 82.2657 36.2389 80.2719 36.1542 79.1286C35.9985 77.0268 35.698 74.9699 35.745 72.8091C35.7942 70.5455 37.1662 69.2526 38.1774 67.3989C39.3057 65.3302 39.0184 68.3724 39.0184 69.1947C39.0184 71.5712 39.7003 73.9667 40.246 76.2644C40.3962 76.8968 41.9965 83.3568 42.6101 83.3568C43.4817 83.3568 39.997 73.9501 39.8368 73.3092" stroke="black" stroke-opacity="0.99" stroke-width="3" stroke-linecap="round"/>
<path d="M37.9346 67.551C35.7826 67.7901 35.5834 71.5113 34.9794 72.8703C34.0977 74.8541 34.2519 71.8277 34.2519 71.1427C34.2519 69.395 35.3577 68.5528 34.5702 70.9154C34.0384 72.5107 33.4336 74.0078 33.4336 75.7346C33.4336 77.1198 34.624 78.2625 35.3886 79.3263C37.317 82.0094 39.6738 84.2893 42.0263 86.6005C45.0869 89.6074 48.0512 92.7391 51.1192 95.6934C52.4299 96.9555 54.3946 98.2433 55.211 99.8761C55.7213 100.897 55.8188 101.701 56.2566 102.74C57.32 105.266 57.5751 108.604 57.5751 111.333C57.5751 112.169 57.9759 114.13 56.7567 114.197C55.3378 114.276 54.4399 114.297 53.3924 113.288C50.4017 110.408 47.1342 107.637 45.2998 103.968" stroke="black" stroke-opacity="0.99" stroke-width="3" stroke-linecap="round"/>
<path d="M32.7761 75.0414C30.6157 75.3115 36.6378 88.201 37.2332 89.6235C39.2204 94.3705 40.3126 99.8906 42.7909 104.371C44.6711 107.769 46.0061 111.478 47.8534 114.908C48.8244 116.712 50.9675 117.303 53.0809 117.605C54.5939 117.821 56.0984 116.989 57.5381 116.669C58.45 116.466 61.4171 116.649 61.5 115.156C61.5819 113.683 60.5361 112.528 59.9042 111.194C57.3236 105.746 55.6545 99.3987 52.8058 94.1082C49.7502 88.4336 48.1652 82.1072 45.4047 76.2795C43.5524 72.369 42.3361 67.7632 39.2142 64.6414C36.6923 62.1195 31.9371 67.7014 31.3178 69.8689C30.0579 74.2786 32.856 77.7575 34.2618 81.9748" stroke="black" stroke-opacity="0.99" stroke-width="3" stroke-linecap="round"/>
<path d="M37.9346 67.551C35.7826 67.7901 35.5834 71.5113 34.9794 72.8703C34.0977 74.8541 34.2519 71.8277 34.2519 71.1427C34.2519 69.395 35.3577 68.5528 34.5702 70.9154C34.0384 72.5107 33.4336 74.0078 33.4336 75.7346C33.4336 77.1198 34.624 78.2625 35.3886 79.3263C37.317 82.0094 39.6738 84.2893 42.0263 86.6005C45.0869 89.6074 48.0512 92.7391 51.1192 95.6934C52.4299 96.9555 54.3946 98.2433 55.211 99.8761C55.7213 100.897 55.8188 101.701 56.2566 102.74C57.32 105.266 57.5751 108.604 57.5751 111.333C57.5751 112.169 57.9759 114.13 56.7567 114.197C55.3378 114.276 54.4399 114.297 53.3924 113.288C50.4017 110.408 47.1342 107.637 45.2998 103.968" stroke="black" stroke-opacity="0.99" stroke-width="3" stroke-linecap="round"/>
<path d="M233.776 19.0414C231.616 19.3115 237.638 32.201 238.233 33.6235C240.22 38.3705 241.313 43.8906 243.791 48.3707C245.671 51.7694 247.006 55.4776 248.853 58.9083C249.824 60.7116 251.968 61.3027 254.081 61.6046C255.594 61.8207 257.098 60.9891 258.538 60.6691C259.45 60.4665 262.417 60.6487 262.5 59.1559C262.582 57.6827 261.536 56.528 260.904 55.194C258.324 49.7459 256.655 43.3987 253.806 38.1082C250.75 32.4336 249.165 26.1072 246.405 20.2795C244.552 16.369 243.336 11.7632 240.214 8.64136C237.692 6.11948 232.937 11.7014 232.318 13.8689C231.058 18.2786 233.856 21.7575 235.262 25.9748" stroke="black" stroke-opacity="0.99" stroke-width="3" stroke-linecap="round"/>
<path d="M234.881 22.0377C234.881 26.4134 237.495 30.393 239.359 34.2448C241.166 37.9803 242.709 43.3238 245.701 46.3156C246.904 47.5184 245.185 41.4172 245.11 41.1781C244.448 39.06 243.877 36.7886 242.655 34.9041C242.486 34.6433 241.459 33.0578 241.428 34.0857C241.312 37.9036 243.554 42.2622 244.792 45.77C246.531 50.6985 248.362 58.3878 252.271 62.2963C253.355 63.3801 252.349 58.3086 252.225 58.0226C251.207 55.6654 249.994 53.2815 248.452 51.2257C248.338 51.0742 246.925 48.821 246.77 49.9073C246.38 52.6347 249.467 56.9647 251.021 59.0456C251.111 59.1673 254.454 63.5184 254.521 61.637C254.683 57.1016 253.658 52.1724 250.93 48.4524C249.348 46.2961 251.006 51.9985 251.271 52.5442C252.278 54.6212 253.579 57.5794 255.749 58.7728C257.099 59.5154 257.133 57.1933 256.885 56.4996C256.688 55.9463 254.164 53.5133 254.112 54.8629C254.013 57.4322 255.029 58.9017 257.795 59.5457C259.423 59.925 257.564 58.0454 256.363 58.0454C254.99 58.0454 255.158 59.5605 255.362 60.6823C255.812 63.1551 258.716 60.9758 259.841 60.9096C260.513 60.8701 261.477 61.2171 261.477 60.2958C261.477 57.7416 259.225 54.7367 258.181 52.476C255.817 47.3546 253.125 42.131 250.27 37.2682C250.112 36.9989 249.034 34.6977 248.588 34.6086C248.152 34.5213 249.737 39.7647 249.838 40.0415C251.442 44.402 253.42 49.1433 255.976 53.0443C256.31 53.5546 256.662 53.6344 256.385 52.8624C254.536 47.703 252.975 42.4549 251.339 37.2228C249.092 30.0377 247.109 22.7893 245.019 15.5591C244.246 12.8825 243.539 9.81164 242.064 7.39823C241.601 6.63994 241.404 7.08809 241.45 7.71648C241.758 11.8757 242.612 15.9698 243.496 20.0373C245.339 28.5124 248.112 36.6341 250.657 44.9062C251.036 46.1392 251.119 45.5634 250.748 44.6789C248.963 40.424 246.985 36.2336 245.065 32.0398C242.866 27.2375 240.897 20.2794 237.018 16.4001C236.281 15.6639 236.486 16.8717 236.517 17.4004C236.728 20.9194 238.527 24.485 239.882 27.6753C241.067 30.4655 242.279 33.2707 243.61 35.9952C243.901 36.5921 244.559 38.3309 244.678 37.6774C244.937 36.2526 244.279 34.6359 243.814 33.3356C242.521 29.7135 241.068 26.0904 239.041 22.8106C238.226 21.4933 236.403 17.7567 236.517 21.3103C236.598 23.8207 237.855 26.1459 238.836 28.4027C240.719 32.7332 242.723 37.068 244.883 41.2691C245.261 42.0048 248.793 48.5141 248.793 45.179C248.793 38.4016 248.939 29.9543 244.269 24.4246C241.826 21.532 240.334 22.0546 240.655 25.4248C241.307 32.2701 245.11 40.1499 248.77 45.8837C251.626 50.3583 250.853 44.4156 250.839 42.2238C250.79 34.8952 249.657 28.0964 245.929 21.7195C245.137 20.3654 243.427 17.5367 241.632 17.5367C240.961 17.5367 239.792 17.7644 239.177 17.4913C238.608 17.2384 238.233 15.3954 238.472 15.5818C239.152 16.1106 240.098 16.7725 241.018 16.7184C242.437 16.635 241.837 12.0119 241.837 10.9899C241.837 6.61074 235.682 7.65802 235.29 10.9899C235.046 13.0608 231.375 17.1874 233.858 19.1735C234.558 19.7335 235.316 21.2612 235.926 22.0377C236.501 22.7683 238.663 25.2657 239.564 25.2657C240.71 25.2657 238.239 23.2719 238.154 22.1286C237.999 20.0268 237.698 17.9699 237.745 15.8091C237.794 13.5455 239.166 12.2526 240.177 10.3989C241.306 8.33019 241.018 11.3724 241.018 12.1947C241.018 14.5712 241.7 16.9667 242.246 19.2644C242.396 19.8968 243.997 26.3568 244.61 26.3568C245.482 26.3568 241.997 16.9501 241.837 16.3092" stroke="black" stroke-opacity="0.99" stroke-width="3" stroke-linecap="round"/>
<path d="M175.776 34.0414C173.616 34.3115 179.638 47.201 180.233 48.6235C182.22 53.3705 183.313 58.8906 185.791 63.3707C187.671 66.7694 189.006 70.4776 190.853 73.9083C191.824 75.7116 193.968 76.3027 196.081 76.6046C197.594 76.8207 199.098 75.9891 200.538 75.6691C201.45 75.4665 204.417 75.6487 204.5 74.1559C204.582 72.6827 203.536 71.528 202.904 70.194C200.324 64.7459 198.655 58.3987 195.806 53.1082C192.75 47.4336 191.165 41.1072 188.405 35.2795C186.552 31.369 185.336 26.7632 182.214 23.6414C179.692 21.1195 174.937 26.7014 174.318 28.8689C173.058 33.2786 175.856 36.7575 177.262 40.9748" stroke="black" stroke-opacity="0.99" stroke-width="3" stroke-linecap="round"/>
<path d="M176.881 37.0377C176.881 41.4134 179.495 45.393 181.359 49.2448C183.166 52.9803 184.709 58.3238 187.701 61.3156C188.904 62.5184 187.185 56.4172 187.11 56.1781C186.448 54.06 185.877 51.7886 184.655 49.9041C184.486 49.6433 183.459 48.0578 183.428 49.0857C183.312 52.9036 185.554 57.2622 186.792 60.77C188.531 65.6985 190.362 73.3878 194.271 77.2963C195.355 78.3801 194.349 73.3086 194.225 73.0226C193.207 70.6654 191.994 68.2815 190.452 66.2257C190.338 66.0742 188.925 63.821 188.77 64.9073C188.38 67.6347 191.467 71.9647 193.021 74.0456C193.111 74.1673 196.454 78.5184 196.521 76.637C196.683 72.1016 195.658 67.1724 192.93 63.4524C191.348 61.2961 193.006 66.9985 193.271 67.5442C194.278 69.6212 195.579 72.5794 197.749 73.7728C199.099 74.5154 199.133 72.1933 198.885 71.4996C198.688 70.9463 196.164 68.5133 196.112 69.8629C196.013 72.4322 197.029 73.9017 199.795 74.5457C201.423 74.925 199.564 73.0454 198.363 73.0454C196.99 73.0454 197.158 74.5605 197.362 75.6823C197.812 78.1551 200.716 75.9758 201.841 75.9096C202.513 75.8701 203.477 76.2171 203.477 75.2958C203.477 72.7416 201.225 69.7367 200.181 67.476C197.817 62.3546 195.125 57.131 192.27 52.2682C192.112 51.9989 191.034 49.6977 190.588 49.6086C190.152 49.5213 191.737 54.7647 191.838 55.0415C193.442 59.402 195.42 64.1433 197.976 68.0443C198.31 68.5546 198.662 68.6344 198.385 67.8624C196.536 62.703 194.975 57.4549 193.339 52.2228C191.092 45.0377 189.109 37.7893 187.019 30.5591C186.246 27.8825 185.539 24.8116 184.064 22.3982C183.601 21.6399 183.404 22.0881 183.45 22.7165C183.758 26.8757 184.612 30.9698 185.496 35.0373C187.339 43.5124 190.112 51.6341 192.657 59.9062C193.036 61.1392 193.119 60.5634 192.748 59.6789C190.963 55.424 188.985 51.2336 187.065 47.0398C184.866 42.2375 182.897 35.2794 179.018 31.4001C178.281 30.6639 178.486 31.8717 178.517 32.4004C178.728 35.9194 180.527 39.485 181.882 42.6753C183.067 45.4655 184.279 48.2707 185.61 50.9952C185.901 51.5921 186.559 53.3309 186.678 52.6774C186.937 51.2526 186.279 49.6359 185.814 48.3356C184.521 44.7135 183.068 41.0904 181.041 37.8106C180.226 36.4933 178.403 32.7567 178.517 36.3103C178.598 38.8207 179.855 41.1459 180.836 43.4027C182.719 47.7332 184.723 52.068 186.883 56.2691C187.261 57.0048 190.793 63.5141 190.793 60.179C190.793 53.4016 190.939 44.9543 186.269 39.4246C183.826 36.532 182.334 37.0546 182.655 40.4248C183.307 47.2701 187.11 55.1499 190.77 60.8837C193.626 65.3583 192.853 59.4156 192.839 57.2238C192.79 49.8952 191.657 43.0964 187.929 36.7195C187.137 35.3654 185.427 32.5367 183.632 32.5367C182.961 32.5367 181.792 32.7644 181.177 32.4913C180.608 32.2384 180.233 30.3954 180.472 30.5818C181.152 31.1106 182.098 31.7725 183.018 31.7184C184.437 31.635 183.837 27.0119 183.837 25.9899C183.837 21.6107 177.682 22.658 177.29 25.9899C177.046 28.0608 173.375 32.1874 175.858 34.1735C176.558 34.7335 177.316 36.2612 177.926 37.0377C178.501 37.7683 180.663 40.2657 181.564 40.2657C182.71 40.2657 180.239 38.2719 180.154 37.1286C179.999 35.0268 179.698 32.9699 179.745 30.8091C179.794 28.5455 181.166 27.2526 182.177 25.3989C183.306 23.3302 183.018 26.3724 183.018 27.1947C183.018 29.5712 183.7 31.9667 184.246 34.2644C184.396 34.8968 185.997 41.3568 186.61 41.3568C187.482 41.3568 183.997 31.9501 183.837 31.3092" stroke="black" stroke-opacity="0.99" stroke-width="3" stroke-linecap="round"/>
<path d="M179.501 27C177.349 27.2391 177.15 30.9603 176.546 32.3193C175.664 34.3031 175.818 31.2767 175.818 30.5917C175.818 28.8439 176.924 28.0018 176.137 30.3644C175.605 31.9597 175 33.4568 175 35.1836C175 36.5687 176.19 37.7115 176.955 38.7752C178.883 41.4583 181.24 43.7383 183.593 46.0495C186.653 49.0563 189.618 52.188 192.686 55.1424C193.996 56.4045 195.961 57.6923 196.777 59.3251C197.288 60.3457 197.385 61.1495 197.823 62.1893C198.886 64.7149 199.141 68.0531 199.141 70.782C199.141 71.6179 199.542 73.5786 198.323 73.6463C196.904 73.7251 196.006 73.7457 194.959 72.737C191.968 69.8571 188.701 67.0857 186.866 63.4168" stroke="black" stroke-opacity="0.99" stroke-width="3" stroke-linecap="round"/>
<path d="M128.776 48.0414C126.616 48.3115 132.638 61.201 133.233 62.6235C135.22 67.3705 136.313 72.8906 138.791 77.3707C140.671 80.7694 142.006 84.4776 143.853 87.9083C144.824 89.7116 146.968 90.3027 149.081 90.6046C150.594 90.8207 152.098 89.9891 153.538 89.6691C154.45 89.4665 157.417 89.6487 157.5 88.1559C157.582 86.6827 156.536 85.528 155.904 84.194C153.324 78.7459 151.655 72.3987 148.806 67.1082C145.75 61.4336 144.165 55.1072 141.405 49.2795C139.552 45.369 138.336 40.7632 135.214 37.6414C132.692 35.1195 127.937 40.7014 127.318 42.8689C126.058 47.2786 128.856 50.7575 130.262 54.9748" stroke="black" stroke-opacity="0.99" stroke-width="3" stroke-linecap="round"/>
<path d="M129.881 51.0377C129.881 55.4134 132.495 59.393 134.359 63.2448C136.166 66.9803 137.709 72.3238 140.701 75.3156C141.904 76.5184 140.185 70.4172 140.11 70.1781C139.448 68.06 138.877 65.7886 137.655 63.9041C137.486 63.6433 136.459 62.0578 136.428 63.0857C136.312 66.9036 138.554 71.2622 139.792 74.77C141.531 79.6985 143.362 87.3878 147.271 91.2963C148.355 92.3801 147.349 87.3086 147.225 87.0226C146.207 84.6654 144.994 82.2815 143.452 80.2257C143.338 80.0742 141.925 77.821 141.77 78.9073C141.38 81.6347 144.467 85.9647 146.021 88.0456C146.111 88.1673 149.454 92.5184 149.521 90.637C149.683 86.1016 148.658 81.1724 145.93 77.4524C144.348 75.2961 146.006 80.9985 146.271 81.5442C147.278 83.6212 148.579 86.5794 150.749 87.7728C152.099 88.5154 152.133 86.1933 151.885 85.4996C151.688 84.9463 149.164 82.5133 149.112 83.8629C149.013 86.4322 150.029 87.9017 152.795 88.5457C154.423 88.925 152.564 87.0454 151.363 87.0454C149.99 87.0454 150.158 88.5605 150.362 89.6823C150.812 92.1551 153.716 89.9758 154.841 89.9096C155.513 89.8701 156.477 90.2171 156.477 89.2958C156.477 86.7416 154.225 83.7367 153.181 81.476C150.817 76.3546 148.125 71.131 145.27 66.2682C145.112 65.9989 144.034 63.6977 143.588 63.6086C143.152 63.5213 144.737 68.7647 144.838 69.0415C146.442 73.402 148.42 78.1433 150.976 82.0443C151.31 82.5546 151.662 82.6344 151.385 81.8624C149.536 76.703 147.975 71.4549 146.339 66.2228C144.092 59.0377 142.109 51.7893 140.019 44.5591C139.246 41.8825 138.539 38.8116 137.064 36.3982C136.601 35.6399 136.404 36.0881 136.45 36.7165C136.758 40.8757 137.612 44.9698 138.496 49.0373C140.339 57.5124 143.112 65.6341 145.657 73.9062C146.036 75.1392 146.119 74.5634 145.748 73.6789C143.963 69.424 141.985 65.2336 140.065 61.0398C137.866 56.2375 135.897 49.2794 132.018 45.4001C131.281 44.6639 131.486 45.8717 131.517 46.4004C131.728 49.9194 133.527 53.485 134.882 56.6753C136.067 59.4655 137.279 62.2707 138.61 64.9952C138.901 65.5921 139.559 67.3309 139.678 66.6774C139.937 65.2526 139.279 63.6359 138.814 62.3356C137.521 58.7135 136.068 55.0904 134.041 51.8106C133.226 50.4933 131.403 46.7567 131.517 50.3103C131.598 52.8207 132.855 55.1459 133.836 57.4027C135.719 61.7332 137.723 66.068 139.883 70.2691C140.261 71.0048 143.793 77.5141 143.793 74.179C143.793 67.4016 143.939 58.9543 139.269 53.4246C136.826 50.532 135.334 51.0546 135.655 54.4248C136.307 61.2701 140.11 69.1499 143.77 74.8837C146.626 79.3583 145.853 73.4156 145.839 71.2238C145.79 63.8952 144.657 57.0964 140.929 50.7195C140.137 49.3654 138.427 46.5367 136.632 46.5367C135.961 46.5367 134.792 46.7644 134.177 46.4913C133.608 46.2384 133.233 44.3954 133.472 44.5818C134.152 45.1106 135.098 45.7725 136.018 45.7184C137.437 45.635 136.837 41.0119 136.837 39.9899C136.837 35.6107 130.682 36.658 130.29 39.9899C130.046 42.0608 126.375 46.1874 128.858 48.1735C129.558 48.7335 130.316 50.2612 130.926 51.0377C131.501 51.7683 133.663 54.2657 134.564 54.2657C135.71 54.2657 133.239 52.2719 133.154 51.1286C132.999 49.0268 132.698 46.9699 132.745 44.8091C132.794 42.5455 134.166 41.2526 135.177 39.3989C136.306 37.3302 136.018 40.3724 136.018 41.1947C136.018 43.5712 136.7 45.9667 137.246 48.2644C137.396 48.8968 138.997 55.3568 139.61 55.3568C140.482 55.3568 136.997 45.9501 136.837 45.3092" stroke="black" stroke-opacity="0.99" stroke-width="3" stroke-linecap="round"/>
<path d="M132.501 41C130.349 41.2391 130.15 44.9603 129.546 46.3193C128.664 48.3031 128.818 45.2767 128.818 44.5917C128.818 42.8439 129.924 42.0018 129.137 44.3644C128.605 45.9597 128 47.4568 128 49.1836C128 50.5687 129.19 51.7115 129.955 52.7752C131.883 55.4583 134.24 57.7383 136.593 60.0495C139.653 63.0563 142.618 66.188 145.686 69.1424C146.996 70.4045 148.961 71.6923 149.777 73.3251C150.288 74.3457 150.385 75.1495 150.823 76.1893C151.886 78.7149 152.141 82.0531 152.141 84.782C152.141 85.6179 152.542 87.5786 151.323 87.6463C149.904 87.7251 149.006 87.7457 147.959 86.737C144.968 83.8571 141.701 81.0857 139.866 77.4168" stroke="black" stroke-opacity="0.99" stroke-width="3" stroke-linecap="round"/>
<path d="M63.7761 68.0414C61.6157 68.3115 67.6378 81.201 68.2332 82.6235C70.2204 87.3705 71.3126 92.8906 73.7909 97.3707C75.6711 100.769 77.0061 104.478 78.8534 107.908C79.8244 109.712 81.9675 110.303 84.0809 110.605C85.5939 110.821 87.0984 109.989 88.5381 109.669C89.45 109.466 92.4171 109.649 92.5 108.156C92.5819 106.683 91.5361 105.528 90.9042 104.194C88.3236 98.7459 86.6545 92.3987 83.8058 87.1082C80.7502 81.4336 79.1652 75.1072 76.4047 69.2795C74.5524 65.369 73.3361 60.7632 70.2142 57.6414C67.6923 55.1195 62.9371 60.7014 62.3178 62.8689C61.0579 67.2786 63.856 70.7575 65.2618 74.9748" stroke="black" stroke-opacity="0.99" stroke-width="3" stroke-linecap="round"/>
<path d="M64.8808 71.0377C64.8808 75.4134 67.4952 79.393 69.359 83.2448C71.1665 86.9803 72.7094 92.3238 75.7013 95.3156C76.9041 96.5184 75.1849 90.4172 75.1102 90.1781C74.4483 88.06 73.8766 85.7886 72.6552 83.9041C72.4861 83.6433 71.4588 82.0578 71.4276 83.0857C71.3119 86.9036 73.5539 91.2622 74.792 94.77C76.5314 99.6985 78.3623 107.388 82.2708 111.296C83.3546 112.38 82.3489 107.309 82.2254 107.023C81.2075 104.665 79.9936 102.281 78.4518 100.226C78.3382 100.074 76.9248 97.821 76.7697 98.9073C76.38 101.635 79.4673 105.965 81.0206 108.046C81.1114 108.167 84.4541 112.518 84.5213 110.637C84.6833 106.102 83.6577 101.172 80.9296 97.4524C79.3483 95.2961 81.006 100.999 81.2706 101.544C82.2776 103.621 83.5791 106.579 85.7488 107.773C87.0991 108.515 87.1332 106.193 86.8855 105.5C86.6879 104.946 84.164 102.513 84.1121 103.863C84.0133 106.432 85.0294 107.902 87.7947 108.546C89.4234 108.925 87.5639 107.045 86.3626 107.045C84.9902 107.045 85.1584 108.56 85.3624 109.682C85.812 112.155 88.7163 109.976 89.8406 109.91C90.5128 109.87 91.4773 110.217 91.4773 109.296C91.4773 106.742 89.2246 103.737 88.1812 101.476C85.8175 96.3546 83.1246 91.131 80.2704 86.2682C80.1123 85.9989 79.034 83.6977 78.5882 83.6086C78.1518 83.5213 79.7367 88.7647 79.8385 89.0415C81.4416 93.402 83.4204 98.1433 85.9762 102.044C86.3105 102.555 86.6621 102.634 86.3853 101.862C84.5357 96.703 82.9747 91.4549 81.3388 86.2228C79.0923 79.0377 77.1093 71.7893 75.0193 64.5591C74.2456 61.8825 73.539 58.8116 72.0641 56.3982C71.6007 55.6399 71.4038 56.0881 71.4504 56.7165C71.7584 60.8757 72.612 64.9698 73.4962 69.0373C75.3387 77.5124 78.1116 85.6341 80.6569 93.9062C81.0362 95.1392 81.1187 94.5634 80.7478 93.6789C78.9635 89.424 76.9851 85.2336 75.0648 81.0398C72.8657 76.2375 70.8968 69.2794 67.0176 65.4001C66.2814 64.6639 66.4859 65.8717 66.5175 66.4004C66.7276 69.9194 68.5268 73.485 69.8818 76.6753C71.0669 79.4655 72.2793 82.2707 73.6099 84.9952C73.9014 85.5921 74.5595 87.3309 74.6783 86.6774C74.9374 85.2526 74.2789 83.6359 73.8145 82.3356C72.5209 78.7135 71.0683 75.0904 69.0407 71.8106C68.2264 70.4933 66.4029 66.7567 66.5175 70.3103C66.5985 72.8207 67.855 75.1459 68.8362 77.4027C70.719 81.7332 72.7232 86.068 74.8829 90.2691C75.2611 91.0048 78.7928 97.5141 78.7928 94.179C78.7928 87.4016 78.9387 78.9543 74.2691 73.4246C71.8265 70.532 70.3338 71.0546 70.6547 74.4248C71.3067 81.2701 75.1102 89.1499 78.7701 94.8837C81.6262 99.3583 80.8531 93.4156 80.8387 91.2238C80.7905 83.8952 79.6566 77.0964 75.9286 70.7195C75.137 69.3654 73.4267 66.5367 71.6322 66.5367C70.9609 66.5367 69.7917 66.7644 69.1771 66.4913C68.6081 66.2384 68.2328 64.3954 68.4724 64.5818C69.1523 65.1106 70.0981 65.7725 71.0184 65.7184C72.4369 65.635 71.8368 61.0119 71.8368 59.9899C71.8368 55.6107 65.6819 56.658 65.29 59.9899C65.0463 62.0608 61.3753 66.1874 63.8578 68.1735C64.5579 68.7335 65.3164 70.2612 65.9264 71.0377C66.5005 71.7683 68.6633 74.2657 69.5636 74.2657C70.71 74.2657 68.2389 72.2719 68.1542 71.1286C67.9985 69.0268 67.698 66.9699 67.745 64.8091C67.7942 62.5455 69.1662 61.2526 70.1774 59.3989C71.3057 57.3302 71.0184 60.3724 71.0184 61.1947C71.0184 63.5712 71.7003 65.9667 72.246 68.2644C72.3962 68.8968 73.9965 75.3568 74.6101 75.3568C75.4817 75.3568 71.997 65.9501 71.8368 65.3092" stroke="black" stroke-opacity="0.99" stroke-width="3" stroke-linecap="round"/>
<path d="M67.501 61C65.349 61.2391 65.1498 64.9603 64.5458 66.3193C63.6641 68.3031 63.8184 65.2767 63.8184 64.5917C63.8184 62.8439 64.9241 62.0018 64.1366 64.3644C63.6048 65.9597 63 67.4568 63 69.1836C63 70.5687 64.1904 71.7115 64.955 72.7752C66.8834 75.4583 69.2402 77.7383 71.5927 80.0495C74.6533 83.0563 77.6176 86.188 80.6856 89.1424C81.9963 90.4045 83.961 91.6923 84.7774 93.3251C85.2877 94.3457 85.3852 95.1495 85.823 96.1893C86.8864 98.7149 87.1415 102.053 87.1415 104.782C87.1415 105.618 87.5423 107.579 86.3231 107.646C84.9042 107.725 84.0063 107.746 82.9588 106.737C79.9681 103.857 76.7006 101.086 74.8662 97.4168" stroke="black" stroke-opacity="0.99" stroke-width="3" stroke-linecap="round"/>
</svg>
