<svg width="325" height="170" viewBox="0 0 325 170" fill="none" xmlns="http://www.w3.org/2000/svg">
<path d="M2.0892 132.131C2.0892 128.382 1.24105 124.842 4.77539 122.878C7.19175 121.536 11.0293 120.909 13.6962 120.192C16.9975 119.305 19.8275 118.401 23.2802 118.401C26.9082 118.401 29.8297 116.496 33.1296 115.417C37.1377 114.106 42.4031 112.954 46.5605 112.465C51.1662 111.923 56.1973 110.911 60.5884 109.447C65.6067 107.775 71.33 106.133 76.0422 103.777C82.2152 100.69 88.7038 98.4828 94.6134 94.3915C99.3646 91.1022 105.061 88.7724 110.366 86.4988C113.765 85.0419 118.254 85.1582 121.144 83.0499C130.166 76.466 140.864 72.8366 150.791 67.795C157.533 64.3712 163.778 60.0021 170.755 57.0502C173.236 56.0005 175.723 55.8184 178.184 54.8615C182.411 53.2175 186.656 51.8409 190.719 49.7544C199.872 45.0541 209.36 41.1322 219.073 37.7826C225.777 35.471 231.586 30.7989 238.076 27.9333C241.441 26.4475 244.703 24.7185 248.091 23.2905C251.136 22.0069 254.716 19.5233 257.874 18.7804C265.786 16.9186 273.176 12.3091 280.922 9.72693C288.061 7.34724 291.669 2 299.593 2C302.819 2 304.541 2.23622 307.286 4.18874C313.025 8.26948 319.656 12.1274 319.656 19.7753C319.656 24.0708 320.253 28.5986 320.253 33.0404C320.253 38.0054 318.418 40.8446 314.881 44.382C310.831 48.4313 305.781 51.8044 301.616 55.5911C292.365 64.0005 280.372 69.6907 268.552 73.0679C263.217 74.5922 258.458 78.2635 253.43 80.4632C247.729 82.9574 242.298 86.0125 236.683 88.8202C233.138 90.5927 229.546 91.5558 225.938 93.0319C222.015 94.6366 218.434 96.9397 214.596 98.7027C210.75 100.47 206.91 102.299 203.222 104.374C199.27 106.596 194.762 107.565 190.852 109.912C186.53 112.505 181.876 114.572 177.288 116.611C176.407 117.002 175.454 118.369 174.834 119.098C172.278 122.105 169.37 125.151 165.781 126.891C161.521 128.957 157.548 131.642 153.146 133.623C150.104 134.992 146.548 135.771 143.694 137.503C140.906 139.196 137.576 139.757 134.608 141.085C130.95 142.721 126.38 144.285 122.371 144.633C112.609 145.482 103.368 149.206 93.718 150.636C85.1845 151.9 76.3665 155.411 67.7515 155.411C62.9809 155.411 57.3234 156.121 52.8283 154.516C50.5815 153.713 47.4502 153.927 45.0682 153.587C42.6855 153.247 40.3125 152.495 37.905 152.426C32.0492 152.259 26.213 149.106 20.594 147.784C11.1883 145.57 2.68613 141.038 2.68613 130.34" stroke="#E21D20" stroke-width="3" stroke-linecap="round"/>
<path d="M5.07328 133.922C4.641 133.922 7.66994 136.283 8.3564 136.608C10.0041 137.388 11.2545 138.541 12.7007 139.626C14.0313 140.624 15.7331 140.741 17.1445 141.682C20.1585 143.691 23.8117 143.722 27.1265 144.965C30.6114 146.272 34.3792 146.638 38.0371 147.187C49.897 148.966 62.5117 148.69 74.4498 148.248C80.1087 148.039 85.8619 145.54 91.3629 144.202C94.7728 143.373 97.8117 141.902 101.245 141.085C105.949 139.965 110.647 138.663 115.373 137.636C117.842 137.099 121.343 137.245 123.564 136.011C125.216 135.093 127.955 134.021 129.832 133.922C137.17 133.536 144.758 128.179 151.321 124.835C157.788 121.541 165.74 120.585 171.617 116.014C175 113.383 179.114 111.652 182.826 109.58C185.698 107.977 188.662 107.729 191.647 106.463C200.823 102.57 209.838 98.6323 219.006 94.5576C225.259 91.7785 231.696 88.6696 237.677 85.3051C241.396 83.2131 245.367 80.1196 249.549 79.0042C251.348 78.5246 254.788 77.6782 256.248 76.4838C258.698 74.4797 262.332 74.3095 264.738 72.438C266.515 71.0556 268.77 70.0545 270.84 69.188C275.489 67.2419 279.556 63.9792 283.84 61.3616C287.39 59.1923 290.465 56.2622 293.391 53.3362C295.776 50.9507 298.622 49.5674 301.151 47.4001C303.9 45.0433 306.676 42.7699 309.242 40.2038C311.399 38.0471 314.21 36.6949 316.372 34.5329C319.249 31.6561 321.377 30.7911 323.237 27.0713" stroke="black" stroke-width="3" stroke-linecap="round"/>
<path d="M80.2871 156.008C82.7311 158.794 86.4228 162.658 89.838 164.365" stroke="#E21D20" stroke-width="3" stroke-linecap="round"/>
<path d="M254.762 81.9619C255.618 82.057 256.806 83.5803 257.478 84.1124C258.243 84.7177 258.72 85.5061 259.515 86.0365" stroke="#E21D20" stroke-width="3" stroke-linecap="round"/>
<path d="M120.098 84.3599C126.028 84.3599 131.737 83.874 137.612 83.5179C138.245 83.4795 142.234 83.1251 141.75 83.3976C140.211 84.2629 138.562 84.7335 136.962 85.4665C128.027 89.5617 120.096 94.9792 111.87 100.286C107.82 102.899 103.669 105.331 99.4566 107.672C97.7584 108.615 95.2827 109.883 93.8752 111.208C93.0537 111.981 96.0465 110.59 97.1471 110.342C101.652 109.327 106.26 108.818 110.788 107.744C118.453 105.925 126.682 104.548 133.257 99.9732C134.982 98.7737 134.747 99.5384 133.69 100.839C130.87 104.311 126.048 107.305 122.504 110.005C120.819 111.289 119.146 113.189 117.307 114.239C117.119 114.347 116.204 115.801 116.297 115.875C116.789 116.269 118.162 115.829 118.679 115.755C120.781 115.455 122.909 115.471 125.006 115.105C131.652 113.947 138.222 112.129 144.709 110.294C149.974 108.805 155.844 107.158 160.803 104.809C164.317 103.144 167.787 101.232 171.461 99.9492C175.158 98.6581 180.505 97.5869 183.658 95.1617C184.987 94.1392 185.709 92.499 186.785 91.2885C187.452 90.5382 187.218 89.6606 187.218 91.2885C187.218 92.5991 187.262 93.8219 186.882 95.0895C185.807 98.6712 184.909 100.627 181.974 103.029C179.078 105.397 175.197 107.581 172.712 110.342C169.84 113.533 166.266 116.305 164.267 120.302" stroke="black" stroke-width="3" stroke-linecap="round"/>
<path d="M55.3223 157.38C55.3223 159.441 57.7701 161.704 59.0275 163.176C60.7671 165.211 62.997 166.337 65.3692 167.427C66.6834 168.031 68.96 167.569 70.2739 167.522C72.2368 167.452 73.8196 167.343 75.6299 166.786C77.1657 166.313 78.6534 165.437 80.1427 164.815C82.2443 163.936 84.1914 162.365 86.3182 161.656" stroke="#E21D20" stroke-width="3" stroke-linecap="round"/>
<path d="M114.963 147.333C114.963 148.016 116.916 150.695 117.101 150.326" stroke="#E21D20" stroke-width="3" stroke-linecap="round"/>
<path d="M284.051 68.4541C284.051 70.8983 285.765 73.0923 287.043 75.0689C287.257 75.3982 289.396 78.0727 289.609 77.8598" stroke="#E21D20" stroke-width="3" stroke-linecap="round"/>
<path d="M104.462 90.1592C107.291 90.1592 109.107 91.0615 111.721 91.369C113.473 91.5752 113.033 91.7155 112.023 92.2764C110.357 93.2017 108.677 93.8749 107.217 95.3345C100.436 102.115 93.1305 108.144 86.3144 114.96C86.0776 115.197 83.4286 117.117 84.2309 117.346C85.5826 117.733 86.8067 116.841 88.1291 116.775C91.9733 116.583 96.4558 115.194 100.227 114.355C101.185 114.143 109.459 112.436 109.166 113.146C107.912 116.192 105.193 118.306 103.857 121.312C103.675 121.721 102.189 126.127 103.117 125.714C104.238 125.216 105.591 124.797 106.881 124.336C111.145 122.814 116.858 121.277 121.399 121.009C130.401 120.48 139.343 116.782 147.679 113.751C150.903 112.578 154.039 110.832 157.391 110.088C158.026 109.946 160.718 108.372 160.718 109.516C160.718 110.405 159.25 111.771 158.769 112.541C157.633 114.358 155.334 115.505 154.703 117.716C154.313 119.079 153.42 124.484 152.854 122.219" stroke="#E2901D" stroke-width="3" stroke-linecap="round"/>
</svg>
