<svg width="482" height="408" viewBox="0 0 482 408" fill="none" xmlns="http://www.w3.org/2000/svg">
<path d="M67.0892 258.131C67.0892 254.382 66.241 250.842 69.7754 248.878C72.1918 247.536 76.0293 246.909 78.6962 246.192C81.9975 245.305 84.8275 244.401 88.2802 244.401C91.9082 244.401 94.8297 242.496 98.1296 241.417C102.138 240.106 107.403 238.954 111.561 238.465C116.166 237.923 121.197 236.911 125.588 235.447C130.607 233.775 136.33 232.133 141.042 229.777C147.215 226.69 153.704 224.483 159.613 220.392C164.365 217.102 170.061 214.772 175.366 212.499C178.765 211.042 183.254 211.158 186.144 209.05C195.166 202.466 205.864 198.837 215.791 193.795C222.533 190.371 228.778 186.002 235.755 183.05C238.236 182.001 240.723 181.818 243.184 180.861C247.411 179.218 251.656 177.841 255.719 175.754C264.872 171.054 274.36 167.132 284.073 163.783C290.777 161.471 296.586 156.799 303.076 153.933C306.441 152.447 309.703 150.718 313.091 149.291C316.136 148.007 319.716 145.523 322.874 144.78C330.786 142.919 338.176 138.309 345.922 135.727C353.061 133.347 356.669 128 364.593 128C367.819 128 369.541 128.236 372.286 130.189C378.025 134.269 384.656 138.127 384.656 145.775C384.656 150.071 385.253 154.599 385.253 159.04C385.253 164.005 383.418 166.845 379.881 170.382C375.831 174.431 370.781 177.804 366.616 181.591C357.365 190 345.372 195.691 333.552 199.068C328.217 200.592 323.458 204.263 318.43 206.463C312.729 208.957 307.298 212.012 301.683 214.82C298.138 216.593 294.546 217.556 290.938 219.032C287.015 220.637 283.434 222.94 279.596 224.703C275.75 226.47 271.91 228.299 268.222 230.374C264.27 232.596 259.762 233.565 255.852 235.912C251.53 238.505 246.876 240.572 242.288 242.611C241.407 243.002 240.454 244.369 239.834 245.098C237.278 248.105 234.37 251.151 230.781 252.891C226.521 254.957 222.548 257.642 218.146 259.623C215.104 260.992 211.548 261.771 208.694 263.503C205.906 265.196 202.576 265.757 199.608 267.085C195.95 268.721 191.38 270.285 187.371 270.633C177.609 271.482 168.368 275.206 158.718 276.636C150.185 277.9 141.367 281.411 132.752 281.411C127.981 281.411 122.323 282.121 117.828 280.516C115.581 279.713 112.45 279.927 110.068 279.587C107.685 279.247 105.313 278.495 102.905 278.426C97.0492 278.259 91.213 275.106 85.594 273.784C76.1883 271.57 67.6861 267.038 67.6861 256.34" stroke="#E21D20" stroke-width="3" stroke-linecap="round"/>
<path d="M70.0733 259.922C69.641 259.922 72.6699 262.283 73.3564 262.608C75.0041 263.388 76.2545 264.541 77.7007 265.626C79.0313 266.624 80.7331 266.741 82.1445 267.682C85.1585 269.691 88.8117 269.722 92.1265 270.965C95.6114 272.272 99.3792 272.638 103.037 273.187C114.897 274.966 127.512 274.69 139.45 274.248C145.109 274.039 150.862 271.54 156.363 270.202C159.773 269.373 162.812 267.902 166.245 267.085C170.949 265.965 175.647 264.663 180.373 263.636C182.842 263.099 186.343 263.245 188.564 262.011C190.216 261.093 192.955 260.021 194.832 259.922C202.17 259.536 209.758 254.179 216.321 250.835C222.788 247.541 230.74 246.585 236.617 242.014C240 239.383 244.114 237.652 247.826 235.58C250.698 233.977 253.662 233.729 256.647 232.463C265.823 228.57 274.838 224.632 284.006 220.558C290.259 217.779 296.696 214.67 302.677 211.305C306.396 209.213 310.367 206.12 314.549 205.004C316.348 204.525 319.788 203.678 321.248 202.484C323.698 200.48 327.332 200.309 329.738 198.438C331.515 197.056 333.77 196.055 335.84 195.188C340.489 193.242 344.556 189.979 348.84 187.362C352.39 185.192 355.465 182.262 358.391 179.336C360.776 176.951 363.622 175.567 366.151 173.4C368.9 171.043 371.676 168.77 374.242 166.204C376.399 164.047 379.21 162.695 381.372 160.533C384.249 157.656 386.377 156.791 388.237 153.071" stroke="black" stroke-width="3" stroke-linecap="round"/>
<path d="M145.287 282.008C147.731 284.794 151.423 288.658 154.838 290.365" stroke="#E21D20" stroke-width="3" stroke-linecap="round"/>
<path d="M319.762 207.962C320.618 208.057 321.806 209.58 322.478 210.112C323.243 210.718 323.72 211.506 324.515 212.037" stroke="#E21D20" stroke-width="3" stroke-linecap="round"/>
<path d="M185.098 210.36C191.028 210.36 196.737 209.874 202.612 209.518C203.245 209.48 207.234 209.125 206.75 209.398C205.211 210.263 203.562 210.734 201.962 211.467C193.027 215.562 185.096 220.979 176.87 226.286C172.82 228.899 168.669 231.331 164.457 233.672C162.758 234.615 160.283 235.883 158.875 237.208C158.054 237.981 161.046 236.59 162.147 236.342C166.652 235.327 171.26 234.818 175.788 233.744C183.453 231.925 191.682 230.548 198.257 225.973C199.982 224.774 199.747 225.538 198.69 226.839C195.87 230.311 191.048 233.305 187.504 236.005C185.819 237.289 184.146 239.189 182.307 240.239C182.119 240.347 181.204 241.801 181.297 241.875C181.789 242.269 183.162 241.829 183.679 241.755C185.781 241.455 187.909 241.471 190.006 241.105C196.652 239.947 203.222 238.129 209.709 236.294C214.974 234.805 220.844 233.158 225.803 230.809C229.317 229.144 232.787 227.232 236.461 225.949C240.158 224.658 245.505 223.587 248.658 221.162C249.987 220.139 250.709 218.499 251.785 217.288C252.452 216.538 252.218 215.661 252.218 217.288C252.218 218.599 252.262 219.822 251.882 221.09C250.807 224.671 249.909 226.627 246.974 229.029C244.078 231.397 240.197 233.581 237.712 236.342C234.84 239.533 231.266 242.305 229.267 246.302" stroke="black" stroke-width="3" stroke-linecap="round"/>
<path d="M120.322 283.38C120.322 285.441 122.77 287.704 124.028 289.176C125.767 291.211 127.997 292.337 130.369 293.427C131.683 294.031 133.96 293.569 135.274 293.522C137.237 293.452 138.82 293.343 140.63 292.786C142.166 292.313 143.653 291.437 145.143 290.815C147.244 289.936 149.191 288.365 151.318 287.656" stroke="#E21D20" stroke-width="3" stroke-linecap="round"/>
<path d="M179.963 273.333C179.963 274.016 181.916 276.695 182.101 276.326" stroke="#E21D20" stroke-width="3" stroke-linecap="round"/>
<path d="M349.051 194.454C349.051 196.898 350.765 199.092 352.043 201.069C352.257 201.398 354.396 204.073 354.609 203.86" stroke="#E21D20" stroke-width="3" stroke-linecap="round"/>
<path d="M169.462 216.159C172.291 216.159 174.107 217.061 176.721 217.369C178.473 217.575 178.033 217.716 177.023 218.276C175.357 219.202 173.677 219.875 172.217 221.334C165.436 228.115 158.131 234.144 151.314 240.96C151.078 241.197 148.429 243.117 149.231 243.346C150.583 243.733 151.807 242.841 153.129 242.775C156.973 242.583 161.456 241.194 165.227 240.355C166.185 240.143 174.459 238.436 174.166 239.146C172.912 242.192 170.193 244.306 168.857 247.312C168.675 247.721 167.189 252.127 168.117 251.714C169.238 251.216 170.591 250.797 171.881 250.336C176.145 248.814 181.858 247.277 186.399 247.009C195.401 246.48 204.343 242.782 212.679 239.751C215.903 238.578 219.039 236.832 222.391 236.088C223.026 235.946 225.718 234.372 225.718 235.516C225.718 236.405 224.25 237.771 223.769 238.541C222.633 240.358 220.334 241.505 219.703 243.716C219.313 245.079 218.42 250.484 217.854 248.219" stroke="#E2901D" stroke-width="3" stroke-linecap="round"/>
<path d="M64.3727 392.5C-2.62715 338 -1.11488 288.594 4.37271 216C17.2422 45.7519 302.984 201.339 418.373 75.5C432.82 59.7438 465.373 4 465.373 4C465.373 4 505.873 103 452.873 216C399.873 329 131.373 447 64.3727 392.5Z" stroke="black" stroke-width="3"/>
</svg>
