<svg width="205" height="177" viewBox="0 0 205 177" fill="none" xmlns="http://www.w3.org/2000/svg">
<path d="M14.6416 9.65442V61.534" stroke="#E2901D" stroke-width="3" stroke-linecap="round"/>
<path d="M14.6417 13.9069C14.6417 17.153 17.1125 19.5188 18.8469 22.0337C23.0021 28.0588 26.7761 34.9589 32.3129 39.8939C34.9084 42.2073 36.7695 45.9992 39.5892 47.879C40.4653 48.463 37.6411 47.0794 36.6598 46.6978C33.8964 45.6231 30.3168 45.6666 27.399 45.3748C25.1606 45.151 0.485459 40.7449 2.07342 38.7599C4.1364 36.1812 8.57225 35.1011 11.287 33.3735C18.0066 29.0974 24.7937 23.0971 32.0766 19.8603C34.2773 18.8822 42.2136 13.1049 40.1562 17.734C38.1944 22.1482 36.0261 25.8665 33.3524 29.8771C29.6266 35.4658 25.235 42.1964 22.4378 48.257C20.7797 51.8497 19.4236 55.7123 17.7601 59.455C17.2394 60.6267 16.261 64.7726 15.4922 63.235" stroke="#E2901D" stroke-width="3" stroke-linecap="round"/>
<path d="M104.793 2V41.9728" stroke="#E2901D" stroke-width="3" stroke-linecap="round"/>
<path d="M104.793 2.85059C105.422 5.99768 109.135 9.59028 111.218 11.8279C115.715 16.6576 119.588 22.461 123.409 27.8454C124.927 29.9849 126.379 31.3353 128.086 33.0428C130.132 35.0881 122.507 31.5142 119.723 30.7276C117.513 30.103 90.0961 25.108 92.1771 21.9865C94.1503 19.0266 102.594 18.1158 105.69 17.2616C110.779 15.8579 115.723 13.959 120.763 12.3949C122.158 11.9619 128.308 10.6879 124.685 13.1037C119.295 16.6966 114.358 22.8937 110.463 27.9871C107.82 31.4431 107.824 40.8826 103.942 42.8234" stroke="#E2901D" stroke-width="3" stroke-linecap="round"/>
<path d="M187.289 34.3185C190.33 34.6986 186.58 52.9059 186.25 54.1631C184.947 59.1235 184.503 64.4268 183.037 69.2829C182.601 70.7261 182.187 72.2081 182.187 70.0388" stroke="#E2901D" stroke-width="3" stroke-linecap="round"/>
<path d="M189.841 34.3185C190.39 40.8975 196.61 46.8834 199.669 52.4622C201.026 54.9365 202.519 57.7402 203.26 60.4945C203.687 62.0808 198.7 59.1595 198.252 58.9353C191.935 55.7768 185.065 53.1503 178.502 50.5249C173.731 48.6166 183.696 45.6577 184.738 45.3748C190.038 43.9362 195.324 41.401 200.898 41.1224C204.295 40.9525 200.502 45.675 199.622 47.0285C194.432 55.0123 188.432 61.8587 183.888 70.0388" stroke="#E2901D" stroke-width="3" stroke-linecap="round"/>
<path d="M149.019 108.311V155.087" stroke="#E2901D" stroke-width="3" stroke-linecap="round"/>
<path d="M149.869 110.862C152.382 117.259 157.65 122.773 161.586 128.344C164.323 132.218 167.018 136.324 170.28 139.779C170.645 140.165 173.528 143.18 171.792 143.18C166.941 143.18 161.148 140.97 156.294 140.204C155.074 140.011 133.683 136.639 137.678 132.786C140.669 129.901 145.601 127.58 149.396 125.982C156.568 122.962 163.366 118.824 170.233 115.162C172.292 114.064 179.191 110.361 174.863 114.689C170.846 118.707 166.663 123.136 163.665 128.061C158.501 136.545 153.654 145.157 148.168 153.386" stroke="#E2901D" stroke-width="3" stroke-linecap="round"/>
<path d="M78.4277 137.227V173.798" stroke="#E2901D" stroke-width="3" stroke-linecap="round"/>
<path d="M80.1285 139.779C80.6844 145.893 87.5752 152.375 91.1848 156.977C93.25 159.61 95.3276 162.288 97.1382 165.104C98.1214 166.633 95.4864 164.645 95.0593 164.443C88.0484 161.122 79.4115 161.296 72.0017 159.151C66.5771 157.58 80.6279 151.513 81.0263 151.355C83.8386 150.239 92.4055 146.506 95.8153 147.48C98.3547 148.206 92.3418 152.309 92.0826 152.536C88.0696 156.047 84.218 160.597 81.4988 165.199C79.9201 167.87 76.7266 171.463 76.7266 174.648" stroke="#E2901D" stroke-width="3" stroke-linecap="round"/>
<path d="M20.5949 92.1515C20.5949 84.8986 20.2586 106.801 18.3269 113.792C16.6924 119.707 14.5203 125.891 13.8383 132.03C13.8114 132.272 13.791 135.097 13.791 133.825" stroke="#E2901D" stroke-width="3" stroke-linecap="round"/>
<path d="M21.4458 91.301C21.4458 102.283 29.0546 112.85 33.825 122.391C34.9365 124.614 35.9043 126.68 32.7383 125.273C25.7779 122.18 17.8343 121.725 10.5312 119.792C2.62784 117.7 5.48792 113.848 11.8069 110.909C18.6209 107.74 25.9541 105.254 32.9745 102.546C33.5571 102.322 38.4554 99.3419 38.4554 101.507C38.4554 103.39 34.8167 107.175 33.5415 108.5C30.8909 111.252 27.3045 114.506 25.2729 117.666C22.8786 121.391 19.6533 124.747 17.6658 128.722C17.0286 129.997 14.5745 136.309 13.7914 135.526" stroke="#E2901D" stroke-width="3" stroke-linecap="round"/>
</svg>
