<svg width="115" height="77" viewBox="0 0 115 77" fill="none" xmlns="http://www.w3.org/2000/svg">
<path d="M9.25035 46.3425C9.25035 45.4735 9.23638 48.8323 9.25035 49.335C9.3428 52.6632 11.564 55.8686 12.8248 58.8945C14.5416 63.0148 15.4558 72.6373 19.7242 74.7715" stroke="black" stroke-opacity="0.99" stroke-width="3" stroke-linecap="round"/>
<path d="M1.76855 50.8313C8.30022 47.5654 14.3154 42.6589 21.22 40.3574" stroke="black" stroke-opacity="0.99" stroke-width="3" stroke-linecap="round"/>
<path d="M26.457 37.3649C26.457 42.2073 29.4999 47.9651 31.8602 52.1613C32.5786 53.4385 36.1827 59.0825 36.1827 59.0607" stroke="black" stroke-opacity="0.99" stroke-width="3" stroke-linecap="round"/>
<path d="M25.709 36.6168C25.9414 34.7573 32.9603 34.3724 34.6866 34.3724" stroke="black" stroke-opacity="0.99" stroke-width="3" stroke-linecap="round"/>
<path d="M30.9463 47.8388C32.3989 45.5938 36.4415 43.35 39.1757 43.35" stroke="black" stroke-opacity="0.99" stroke-width="3" stroke-linecap="round"/>
<path d="M37.6797 57.5644C38.7664 53.9421 45.5436 52.3275 48.9016 52.3275" stroke="black" stroke-opacity="0.99" stroke-width="3" stroke-linecap="round"/>
<path d="M48.9014 26.1429C48.9014 29.1893 51.3157 32.7055 52.642 35.453C54.2116 38.7043 55.9969 42.1926 57.1308 45.5943" stroke="black" stroke-opacity="0.99" stroke-width="3" stroke-linecap="round"/>
<path d="M49.6494 26.8911C56.0185 26.8911 59.146 28.9688 64.0302 32.8762C66.2281 34.6345 71.6258 37.178 72.8415 39.6093" stroke="black" stroke-opacity="0.99" stroke-width="3" stroke-linecap="round"/>
<path d="M54.1377 36.6168C57.2316 36.3074 59.9506 34.3724 63.1153 34.3724" stroke="black" stroke-opacity="0.99" stroke-width="3" stroke-linecap="round"/>
<path d="M77.3301 15.6691C81.302 18.4189 84.7053 22.0247 87.222 26.143C88.0828 27.5516 90.0792 28.4491 90.7964 29.8836" stroke="black" stroke-opacity="0.99" stroke-width="3" stroke-linecap="round"/>
<path d="M70.5974 18.6616C69.5299 18.5091 75.3356 14.6644 76.0006 14.1728C77.8261 12.8236 80.9652 10.4322 83.3157 10.4322" stroke="black" stroke-opacity="0.99" stroke-width="3" stroke-linecap="round"/>
<path d="M98.2773 4.44714C98.2773 10.2248 104.834 17.6493 108.003 22.4023" stroke="black" stroke-opacity="0.99" stroke-width="3" stroke-linecap="round"/>
<path d="M98.2773 4.44715C100.983 2.28259 113.24 -0.146501 113.24 5.36153C113.24 10.7266 111.687 17.1654 105.011 17.1654" stroke="black" stroke-opacity="0.99" stroke-width="3" stroke-linecap="round"/>
<path d="M107.615 21.1833C107.615 21.738 108.187 22.3447 108.554 22.7263C108.992 23.1803 109.495 24.0857 110.03 24.3532" stroke="black" stroke-opacity="0.99" stroke-width="3" stroke-linecap="round"/>
</svg>
