<svg width="77" height="185" viewBox="0 0 77 185" fill="none" xmlns="http://www.w3.org/2000/svg">
<path d="M55.5422 2.99118C48.9169 2.99118 42.5873 15.2487 38.7858 19.4857C29.679 29.636 18.5533 40.4057 13.1276 53.1948C5.58497 70.9739 2.52398 90.5805 2.52398 109.813C2.52398 130.063 0.437262 148.592 10.3131 166.824C13.9562 173.55 20.2375 177.805 27.2004 180.242C34.7591 182.888 38.4601 171.827 41.404 166.497C46.5127 157.246 50.6281 146.356 53.1858 136.126C56.1734 124.176 60.2559 112.328 62.6113 100.257C66.7399 79.0973 70.3163 57.9601 74.1313 36.7657C75.7666 27.6804 77.2666 13.9945 69.6804 6.78754C68.1569 5.34022 64.8773 4.94009 63.7895 3.58027C61.7833 1.07256 52.0194 2.96759 50.8295 5.34754" stroke="black" stroke-opacity="0.99" stroke-width="3" stroke-linecap="round"/>
<path d="M66.2605 4.05481C65.7383 9.01569 60.3848 14.5594 57.5576 18.4146C53.362 24.136 49.5836 30.1981 46.6789 36.6908C41.6899 47.8427 38.4592 59.4846 36.1484 71.459C32.8998 88.2928 28.6342 104.676 27.1409 121.849C26.0373 134.54 26.3141 147.371 26.3141 160.185C26.3141 164.433 26.5375 168.369 27.0538 172.5C27.3321 174.726 27.4321 181.631 29.4471 182.639" stroke="black" stroke-opacity="0.99" stroke-width="3" stroke-linecap="round"/>
</svg>
