<svg width="135" height="154" viewBox="0 0 135 154" fill="none" xmlns="http://www.w3.org/2000/svg">
<path d="M119.746 17.6531C119.3 14.0834 102.52 9.99442 99.259 8.29311C91.4057 4.19574 82.508 2.33675 73.7317 2.33675C56.5289 2.33675 30.1471 2.01433 22.5462 21.7768C14.8528 41.7795 7.8184 63.5399 4.28438 84.744C0.622487 106.715 0.22226 133.69 21.9571 146.533C42.3423 158.579 70.4526 147.952 88.1971 136.911C93.9052 133.36 97.4965 128.352 102.204 123.559C107.41 118.259 113.096 113.297 117.39 107.195C123.412 98.6366 127.872 84.8746 130.088 74.5986C134.054 56.2099 136.739 11.7622 107.964 11.7622" stroke="black" stroke-opacity="0.99" stroke-width="3" stroke-linecap="round"/>
<path d="M19.0977 78.612C19.0977 86.2454 20.2642 93.7073 20.2642 101.36C20.2642 102.408 20.2642 103.456 20.2642 104.504C20.2642 104.977 20.9574 103.693 21.4308 103.693C25.179 103.693 28.3644 104.113 31.8328 105.703C34.7159 107.024 36.9208 108.735 39.5128 110.401C41.1253 111.438 43.0125 113.557 43.0125 110.693C43.0125 108.885 42.4466 106.008 43.369 104.471C45.1523 101.499 47.2077 98.0076 49.6879 95.5274C50.0926 95.1227 54.1895 92.4823 53.3821 91.574C52.1015 90.1333 48.7669 89.2234 47.1279 87.9122C43.3084 84.8566 38.9295 80.6557 38.9295 75.4039C38.9295 72.4052 32.1609 76.7909 30.3098 76.8621C26.7782 76.998 23.2158 76.8621 19.6809 76.8621" stroke="#E2901D" stroke-width="3" stroke-linecap="round"/>
<path d="M39.4785 29.3809C39.4785 37.0143 40.6451 44.4763 40.6451 52.1292C40.6451 53.177 40.6451 54.2247 40.6451 55.2725C40.6451 55.7459 41.3382 54.4624 41.8117 54.4624C45.5599 54.4624 48.7453 54.8818 52.2137 56.4715C55.0968 57.7929 57.3016 59.5039 59.8936 61.1702C61.5062 62.2068 63.3934 64.3255 63.3934 61.4618C63.3934 59.6542 62.8275 56.7773 63.7498 55.2401C65.5332 52.2679 67.5885 48.7766 70.0688 46.2963C70.4734 45.8917 74.5704 43.2513 73.763 42.3429C72.4824 40.9023 69.1478 39.9923 67.5088 38.6812C63.6892 35.6255 59.3103 31.4247 59.3103 26.1728C59.3103 23.1742 52.5417 27.5599 50.6906 27.6311C47.1591 27.7669 43.5966 27.6311 40.0618 27.6311" stroke="#E2901D" stroke-width="3" stroke-linecap="round"/>
<path d="M77.4785 62.3809C77.4785 70.0143 78.6451 77.4763 78.6451 85.1292C78.6451 86.177 78.6451 87.2247 78.6451 88.2725C78.6451 88.7459 79.3382 87.4624 79.8117 87.4624C83.5599 87.4624 86.7453 87.8818 90.2137 89.4715C93.0968 90.7929 95.3016 92.5039 97.8936 94.1702C99.5062 95.2068 101.393 97.3255 101.393 94.4618C101.393 92.6542 100.827 89.7773 101.75 88.2401C103.533 85.2679 105.589 81.7766 108.069 79.2963C108.473 78.8917 112.57 76.2513 111.763 75.3429C110.482 73.9023 107.148 72.9923 105.509 71.6812C101.689 68.6255 97.3103 64.4247 97.3103 59.1728C97.3103 56.1742 90.5417 60.5599 88.6906 60.6311C85.1591 60.7669 81.5966 60.6311 78.0618 60.6311" stroke="#E2901D" stroke-width="3" stroke-linecap="round"/>
</svg>
