<svg width="184" height="215" viewBox="0 0 184 215" fill="none" xmlns="http://www.w3.org/2000/svg">
<path d="M21.9094 23.3804C41.0883 23.3804 59.0993 16.4845 77.3494 11.0095C93.4504 6.17917 109.877 2.6062 126.768 2.17312C139.489 1.84692 145.01 5.09874 153.866 13.9549C163.014 23.1028 168.324 41.7891 170.295 54.6022C174.895 84.5025 180.964 112.798 180.964 143.293C180.964 156.748 183.355 172.856 180.375 185.97C179.16 191.316 179.188 198.608 176.251 203.38C172.688 209.171 165.407 211.009 159.233 212.479C146.055 215.616 141.134 197.345 139.466 187.148C136.069 166.389 136.002 144.584 134.949 123.526C134.384 112.211 135.308 98.5128 131.938 87.6568C129.796 80.7546 118.392 72.1962 112.368 68.4131C105.707 64.2308 98.8888 59.8768 91.553 57.024C84.979 54.4675 76.0013 55.1913 69.0366 55.1913C52.9456 55.1913 40.2237 62.1452 24.9203 65.2059C16.123 66.9653 4.85526 68.3138 2.99298 58.0713C0.982484 47.0136 0.841538 34.3682 9.47299 25.7368C14.6545 20.5553 22.2849 21.024 28.9784 21.024" stroke="black" stroke-opacity="0.99" stroke-width="3" stroke-linecap="round"/>
<path d="M27.8226 24.274C27.8226 24.1326 27.4562 26.0929 27.427 26.6476C27.329 28.5091 25.8391 31.0824 25.1414 32.8013C22.3286 39.7302 21.8887 46.2292 21.8887 53.5481C21.8887 55.1675 22.0947 56.9629 23.2513 58.1195C23.5069 58.3751 24.5346 59.7429 24.6359 60.0974C24.869 60.9133 25.6484 61.2677 25.8666 62.0315C26.1279 62.9458 26.7451 64.0784 27.0314 62.6468" stroke="black" stroke-opacity="0.99" stroke-width="3" stroke-linecap="round"/>
<path d="M46.416 21.9004C46.416 25.9871 43.9938 30.5232 43.0534 34.4935C42.2255 37.989 41.9166 42.3924 42.5479 45.9439C42.9848 48.401 44.3373 50.182 45.427 52.3613C45.7303 52.9679 48.7896 57.1255 48.7896 56.7129" stroke="black" stroke-opacity="0.99" stroke-width="3" stroke-linecap="round"/>
<path d="M72.13 12.4061C72.13 15.7395 70.9494 18.2221 69.6685 21.2851C67.5433 26.3671 64.7618 32.0418 64.2181 37.6144C63.8047 41.8519 62.7362 49.2971 66.1961 52.757" stroke="black" stroke-opacity="0.99" stroke-width="3" stroke-linecap="round"/>
<path d="M93.492 9.24133C93.492 10.1228 93.0096 10.7454 92.6568 11.549C91.0702 15.163 89.3844 18.6494 87.3383 22.0323C83.2802 28.7416 80.165 35.543 78.0637 43.1307C76.8449 47.5322 77.0546 51.7076 78.4593 55.9217" stroke="black" stroke-opacity="0.99" stroke-width="3" stroke-linecap="round"/>
<path d="M124.348 2.91187C124.079 5.59771 121.162 8.8196 119.909 11.1315C117.916 14.8064 116.439 18.8106 115.447 22.8895C113.887 29.3045 113.06 35.5775 111.997 42.0759C111.118 47.4473 110.898 52.6542 110.898 58.0975C110.898 60.266 110.898 62.4345 110.898 64.6029C110.898 65.0365 110.783 68.0194 111.293 66.9985" stroke="black" stroke-opacity="0.99" stroke-width="3" stroke-linecap="round"/>
<path d="M159.556 21.9004C159.298 22.6108 158.537 23.0353 157.974 23.4828C156.385 24.7445 155.083 26.2823 153.578 27.6365C150.525 30.3848 147.174 33.214 144.545 36.3836C141.203 40.4141 138.607 44.7148 135.996 49.2405C131.738 56.6211 130.426 65.7519 128.216 73.8114C127.73 75.5835 127.117 78.1897 127.117 80.053" stroke="black" stroke-opacity="0.99" stroke-width="3" stroke-linecap="round"/>
<path d="M170.237 58.2953C163.136 64.6864 154.224 69.166 148.392 76.9982C144.885 81.7073 142.193 86.2649 139.864 91.6133C137.973 95.9567 135.425 102.199 135.425 106.954" stroke="black" stroke-opacity="0.99" stroke-width="3" stroke-linecap="round"/>
<path d="M174.985 91.1298C174.069 91.3128 173.318 92.385 172.589 92.9319C170.541 94.4683 168.517 96.1335 166.545 97.767C162.365 101.23 158.485 105.169 155.381 109.635C150.935 116.03 147.283 122.16 144.546 129.459C143.062 133.415 141.284 137.137 140.546 141.195C140.142 143.418 138.59 145.494 138.59 147.7" stroke="black" stroke-opacity="0.99" stroke-width="3" stroke-linecap="round"/>
<path d="M178.545 130.689C176.462 132.773 173.156 133.922 170.677 135.481C165.17 138.945 159.977 142.928 155.381 147.524C150.704 152.201 146.51 157.176 143.931 163.326C142.364 167.061 140.963 170.942 139.777 174.798C139.299 176.351 138.666 178.839 137.799 180.139" stroke="black" stroke-opacity="0.99" stroke-width="3" stroke-linecap="round"/>
<path d="M180.919 161.942C178.889 162.28 176.676 164.16 175.051 165.282C172.472 167.063 169.894 169.059 167.491 171.062C163.398 174.473 161.224 179.728 158.282 184.007C155.55 187.98 152.809 191.874 150.48 196.095C149.618 197.656 149.19 199.306 148.48 200.93C147.622 202.891 146.502 209.18 146.502 207.04" stroke="black" stroke-opacity="0.99" stroke-width="3" stroke-linecap="round"/>
<path d="M145.075 8.84814C143.67 9.00429 140.729 13.0488 139.889 14.1591C137.594 17.1924 135.253 20.2204 133.828 23.7813C130.918 31.0576 127.262 37.8438 124.956 45.2751C122.201 54.1524 121.457 62.617 121.457 71.8299" stroke="#E21D20" stroke-width="3" stroke-linecap="round"/>
<path d="M165.32 43.1506C164.585 43.1506 164.207 43.29 163.601 43.7442C158.421 47.6293 154.125 52.508 149.637 57.1778C145.5 61.4812 137.28 67.2141 135.516 73.8293C134.685 76.9454 132.704 79.9569 132.704 83.0766" stroke="#E21D20" stroke-width="3" stroke-linecap="round"/>
<path d="M172.63 78.0156C167.905 78.0156 163.821 81.1857 160.258 84.0764C157.482 86.3291 153.5 88.466 151.542 91.5117C149.054 95.3819 146.42 99.2554 144.388 103.321C143.383 105.331 142.892 107.521 142.138 109.631C141.486 111.457 141.176 114.387 140.295 115.973C138.978 118.344 137.765 122.528 137.765 125.252" stroke="#E21D20" stroke-width="3" stroke-linecap="round"/>
<path d="M178.816 114.005C170.684 114.005 164.373 120.069 158.134 124.69C153.683 127.987 151.571 134.846 148.512 139.217C145.51 143.505 144.659 148.802 141.951 153.056C140.517 155.311 139.452 160.21 139.452 162.929" stroke="#E21D20" stroke-width="3" stroke-linecap="round"/>
<path d="M181.627 151.12C173.581 151.12 165.748 154.824 159.696 159.867C158.546 160.825 157.665 162.108 156.791 163.303C152.277 169.473 147.437 175.728 143.826 182.485C143.485 183.123 143.614 184.454 143.107 184.86C142.299 185.506 142.826 188.899 142.826 189.921" stroke="#E21D20" stroke-width="3" stroke-linecap="round"/>
<path d="M181.627 175.862C179.591 175.862 177.644 177.088 176.003 178.237C173.602 179.917 170.857 180.79 168.568 182.61C164.295 186.01 160.425 190.154 157.727 194.951C155.322 199.226 153.51 203.665 153.51 208.478" stroke="#E21D20" stroke-width="3" stroke-linecap="round"/>
<path d="M107.398 5.47412C107.23 6.99162 105.748 8.18783 105.149 9.53545C103.854 12.45 102.18 15.1739 100.65 17.9705C98.0394 22.7449 95.7195 28.5605 94.7146 33.8722C93.848 38.4526 93.34 42.6732 93.34 47.337C93.34 49.1792 92.6007 54.0278 94.4647 54.9598" stroke="#E21D20" stroke-width="3" stroke-linecap="round"/>
<path d="M82.0928 8.84814C82.0928 11.94 79.6154 15.3201 78.5938 18.2829C77.5088 21.4293 76.0087 24.1618 75.2198 27.4053C73.284 35.3636 71.9707 42.8402 71.9707 51.0234" stroke="#E21D20" stroke-width="3" stroke-linecap="round"/>
<path d="M57.9134 17.8455C57.6274 20.4188 55.9547 23.2948 55.2266 25.8431C54.276 29.1704 54.5393 33.4671 54.5393 36.9337C54.5393 40.4469 54.5664 43.908 55.3828 47.3369C55.8182 49.1656 56.1301 54.0681 57.9134 54.9597" stroke="#E21D20" stroke-width="3" stroke-linecap="round"/>
<path d="M35.4193 22.3442C35.4193 30.6373 33.1699 38.823 33.1699 47.212C33.1699 51.9939 35.0838 55.0781 36.5439 59.4585" stroke="#E21D20" stroke-width="3" stroke-linecap="round"/>
<path d="M20.7982 23.4689C20.7982 28.3407 16.8224 34.01 14.8624 38.4645C13.1265 42.4097 11.8008 46.1765 11.8008 50.4611C11.8008 54.31 13.0817 61.9473 17.4242 63.3948" stroke="#E21D20" stroke-width="3" stroke-linecap="round"/>
</svg>
