<svg width="78" height="90" viewBox="0 0 78 90" fill="none" xmlns="http://www.w3.org/2000/svg">
<path d="M31.9785 2.14038C27.187 2.14038 22.5972 7.49042 18.5603 9.73311C14.4964 11.9908 11.8913 15.0184 9.59304 18.8967C2.58159 30.7286 0.739354 50.7587 2.78577 64.0604C4.52948 75.3945 16.0908 85.2066 27.2658 86.7077C37.369 88.0648 57.1197 89.2959 64.3785 80.424C69.1592 74.5809 74.5336 67.7143 75.5058 59.9368C76.2089 54.3123 75.5712 48.2543 75.5712 42.5913C75.5712 38.6293 76.5358 33.0049 74.9167 29.304C72.6343 24.0872 67.7358 12.4891 61.9567 10.3877C58.6155 9.17269 55.2575 7.20429 52.0076 5.67493C43.9956 1.90455 32.3741 4.49675 23.7312 4.49675" stroke="black" stroke-opacity="0.99" stroke-width="3" stroke-linecap="round"/>
<path d="M25.6727 7.34497C25.2133 7.34497 24.2402 7.35589 24.7439 7.98555C25.0222 8.33342 23.7539 9.70123 23.4948 9.92329C22.5346 10.7463 21.117 11.8744 20.4841 12.982C19.6205 14.4934 18.3091 15.9859 17.6015 17.5782C17.5082 17.788 17.2857 18.2668 17.7296 18.2668C17.8984 18.2668 18.0187 17.335 18.178 17.1458C18.7387 16.4799 19.2914 15.574 19.7634 14.8397C20.4829 13.7206 20.4991 13.6462 19.0428 13.6867C17.7107 13.7237 16.8996 14.3885 16.0161 15.2721C14.4199 16.8682 13.5955 19.367 12.5409 21.3255C7.99344 29.7709 6.64763 39.1722 6.64763 48.7102C6.64763 51.1817 6.35938 53.5891 6.35938 56.0768C6.35938 58.1295 7.22415 60.1032 7.22415 62.1142C7.22415 63.7253 8.3849 65.3325 9.08182 66.7264C10.0626 68.6878 11.3352 70.8587 12.9893 72.3474C13.7688 73.049 14.3064 73.965 14.9431 74.7976C15.7766 75.8876 16.7945 76.585 17.7456 77.5361C18.0163 77.8068 18.2832 77.9309 18.6104 78.1126C19.4257 78.5655 17.3145 76.9003 17.2171 76.8154C15.4437 75.2694 13.6105 73.8031 11.8683 72.2193C10.5693 71.0383 8.14239 68.6779 7.81669 66.8865C7.7381 66.4543 7.1873 65.3715 7.28821 65.5733C7.77488 66.5467 8.28649 67.5981 8.95371 68.4559C9.74721 69.4761 10.4105 70.6401 11.2598 71.6108C12.1423 72.6194 13.5161 73.3065 14.4947 74.2852C16.6501 76.4406 18.5119 78.2684 21.2207 79.698C26.9598 82.727 32.2456 84.1717 38.8366 84.0219C39.8144 83.9997 40.7299 83.4418 41.6231 83.0931C43.9394 82.1886 46.2754 81.3087 48.5894 80.4187C48.9026 80.2982 50.1287 79.858 49.8865 80.1144C48.1784 81.923 46.3716 82.9879 43.8331 83.1571C41.264 83.3284 48.979 83.5407 51.552 83.4454C54.3043 83.3435 55.6748 81.7609 57.4453 79.9222C59.2851 78.0117 61.2019 76.4721 62.7941 74.3492C64.2283 72.437 65.6827 70.5006 67.054 68.52C67.8983 67.3004 68.1812 65.6618 68.9116 64.2922C69.421 63.3371 70.2694 62.4239 70.5771 61.3776C71.2077 59.2338 71.504 57.0797 72.0184 54.9077C72.603 52.4393 72.7336 49.8892 73.2996 47.413C73.8114 45.1737 73.812 42.7969 73.812 40.4948C73.812 38.9449 73.5238 37.347 73.5238 35.8826C73.5238 34.5634 72.9473 33.4545 72.9473 32.1353" stroke="#E21D20" stroke-width="7" stroke-linecap="round"/>
<path d="M72.9465 32.1353C70.4547 40.6695 67.7092 48.21 62.3449 55.196C62.2016 55.3827 60.4694 57.7324 61.2559 56.5732C62.7665 54.3472 64.6719 52.4501 65.804 49.9433C66.5793 48.2266 66.9597 46.6956 67.4695 44.8827C67.823 43.6259 68.9108 41.776 68.9108 40.4948C68.9108 40.0651 68.391 40.7545 68.3343 40.8471C67.6472 41.9681 67.4449 43.4279 67.1813 44.6905C66.3347 48.7451 65.9669 52.8732 65.1795 56.9416C64.9144 58.3112 63.8395 62.3196 64.619 63.6836C65.0574 64.4508 67.0831 63.0718 67.3574 62.8829C69.4786 61.4225 70.999 59.3309 71.5852 56.8134C72.1708 54.2989 72.7147 50.6347 69.6315 49.607C67.4503 48.8799 63.5844 49.4278 61.8965 50.8401C59.6412 52.7272 57.3805 56.6246 57.3805 59.648C57.3805 61.1568 57.1768 63.1114 59.3823 62.0822C61.6039 61.0454 64.1917 57.4886 63.9944 54.9237C63.9151 53.8932 63.0103 53.733 62.0887 53.8188C59.5937 54.0508 57.8272 56.6402 56.7079 58.6231C54.5272 62.486 51.6816 68.7298 53.4089 73.3563C54.7308 76.8971 58.6051 74.9519 60.199 72.8439C61.2817 71.4119 62.94 66.7861 61.0638 65.2851C58.4134 63.1648 54.3855 66.6399 53.0566 68.8082C52.8433 69.1561 51.9202 70.2673 52.384 70.6979C53.302 71.5504 55.4892 71.3457 56.5797 71.2104C58.8614 70.9274 60.5455 70.1246 61.8325 68.1356C62.684 66.8196 63.2777 64.2681 62.5371 62.7868C61.7489 61.2104 58.5153 61.7923 57.2203 62.0181C54.1545 62.5529 52.0701 64.5657 50.238 66.9506C47.9187 69.9697 45.7701 74.5737 46.7629 78.545C47.3625 80.9432 53.5882 74.8768 53.0085 72.0752C52.3484 68.8847 42.883 69.5676 40.7415 70.1214C37.9432 70.8451 36.3102 72.8814 36.6578 75.6624C36.7365 76.2915 36.9862 76.737 37.4585 77.1678C37.5345 77.237 39.4149 78.3008 38.5795 78.4169C35.3293 78.8683 31.6757 78.1744 28.4264 78.0005C27.3763 77.9443 24.3106 77.5413 25.2716 77.9685C25.8441 78.2229 28.8424 78.929 28.4584 78.609C25.309 75.9845 22.4547 72.8231 19.7626 69.7371C17.0942 66.6781 15.7657 62.7277 15.1665 58.7512C14.944 57.2749 13.4957 52.0945 14.7181 50.8721" stroke="#E21D20" stroke-width="7" stroke-linecap="round"/>
<path d="M24.2314 11.6688C24.2314 15.1615 22.4029 18.1359 21.9254 21.5978C21.4511 25.036 20.4841 28.1797 20.4841 31.7028C20.4841 38.2398 21.9449 44.3843 24.9521 50.1674C26.1737 52.5168 27.4863 54.0422 29.4201 55.7725C29.8786 56.1827 30.617 56.1836 31.1497 56.5091C31.8428 56.9327 32.4281 57.4311 33.1675 57.7903C34.1465 58.2658 35.0777 58.7315 36.0501 59.2316C41.834 62.2062 47.6715 59.2661 52.9293 56.6373C53.1415 56.5311 55.0299 55.3278 55.1713 55.5163C55.6236 56.1194 45.8272 64.4908 45.1463 65.1089C41.8437 68.1066 38.6119 69.4316 34.1764 69.5929C32.375 69.6584 30.2546 69.8405 28.5553 69.1285C26.1897 68.1372 24.2015 65.598 22.8382 63.5235C21.3641 61.2803 20.6615 58.665 19.331 56.349C15.9238 50.4178 15.0553 42.9106 13.6139 36.315C12.8739 32.929 12.2347 29.6079 12.4288 26.1138C12.5165 24.5355 13.1773 23.0112 14.2865 21.902C15.4857 20.7028 15.0286 23.671 14.9751 24.2722C14.4438 30.2496 11.8089 35.9439 11.1157 41.9521C10.783 44.8347 10.6833 47.6847 10.6833 50.5838C10.6833 52.1135 10.3812 54.0588 10.9075 55.5323C12.0447 58.7166 15.4641 61.7925 18.0018 63.9398C21.6507 67.0273 13.3952 55.5583 10.8754 51.4966C9.18885 48.778 7.65401 45.9357 6.80778 42.8328C6.73789 42.5766 6.35938 40.7901 6.35938 41.1513C6.35938 46.188 7.64122 51.8234 9.70638 56.381C10.9909 59.2159 12.5081 62.029 13.9822 64.7726C15.0559 66.7708 16.2538 68.7185 18.162 70.0093C18.7771 70.4254 19.7129 71.0179 20.4841 71.1143C20.5225 71.1191 18.5412 63.5508 18.3221 62.9149C17.4256 60.3128 16.5982 57.4647 15.3114 55.0198C15.2673 54.936 14.0999 53.3334 13.9182 53.9468C13.472 55.4525 15.1114 57.5366 15.8719 58.623C17.7097 61.2484 20.3625 63.7194 23.5268 64.5804C25.9954 65.2521 28.3121 64.3222 29.7884 62.2743C30.6012 61.1469 31.6148 59.0273 30.8294 57.6622C29.9112 56.0663 26.6197 53.385 24.5838 53.4664C24.2422 53.4801 26.4743 55.7093 26.6977 55.9326C28.2278 57.4628 29.7078 59.0747 31.4379 60.3846C32.047 60.8458 33.9709 61.1754 33.3597 61.6338C32.6188 62.1894 28.5592 58.7752 28.0429 58.3668C25.6613 56.4829 19.5203 49.7326 21.8293 51.7048C27.3256 56.3996 31.6206 62.446 35.6978 68.3278C35.9372 68.6732 37.0927 69.7218 37.1391 70.1854C37.1907 70.7017 36.2661 69.614 35.8899 69.2566C33.9991 67.4603 32.3367 65.4179 30.7173 63.3793C25.8621 57.2675 22.7452 50.7327 19.9236 43.5375C18.828 40.7437 18.178 38.7188 18.178 35.7385C18.178 34.5316 18.5434 32.5515 18.0339 31.4306C17.9689 31.2877 17.8635 30.8274 17.8897 30.9822C19.6622 41.4484 21.1515 51.9619 22.8862 62.4345C22.9534 62.84 23.5808 71.202 25.4806 72.5235C26.5062 73.237 27.6237 73.9122 28.8116 74.3172C31.619 75.2743 35.2311 75.9506 38.196 75.9506C39.6715 75.9506 38.9608 75.1571 38.228 74.3812C36.6076 72.6654 35.349 70.6616 33.744 68.9363C32.6987 67.8126 31.5334 67.0399 30.0607 66.6623C29.6195 66.5492 33.2072 66.63 33.8721 66.7423C35.8641 67.079 38.3225 68.1207 40.374 67.8794C41.8856 67.7015 37.8729 65.1235 37.6195 64.9968C36.4993 64.4367 38.1255 64.7085 38.6124 64.7085C40.6735 64.7085 42.7501 64.7641 44.7939 65.0608C47.4749 65.45 46.4646 69.3502 46.4274 71.3385C46.3188 77.1499 41.8143 76.2389 37.4914 76.2389C33.5945 76.2389 29.6977 76.2389 25.8009 76.2389C22.8938 76.2389 17.9101 77.1981 15.2954 75.5343C12.8428 73.9735 10.9494 70.6398 10.1708 67.8794C10.0578 67.4788 10.1067 67.0267 10.1067 66.6142C10.1067 65.8581 10.5173 68.0705 10.6833 68.8082C11.2842 71.479 11.9332 76.8154 15.5196 76.8154C23.9966 76.8154 32.4735 76.8154 40.9505 76.8154" stroke="#E21D20" stroke-width="7" stroke-linecap="round"/>
<path d="M30.5733 4.17407C29.3302 8.03716 27.9338 11.8315 26.7619 15.6404C26.2213 17.3973 25.9741 19.1276 25.5288 20.9091C24.2074 26.1945 24.8081 32.185 24.8081 37.6121C24.8081 42.0629 26.9636 45.8335 29.2761 49.4308C31.0066 52.1226 34.6638 53.87 37.7798 54.3152C39.3906 54.5453 41.1842 54.3312 42.8083 54.3312C50.5548 54.3312 56.7016 51.1068 60.7765 44.4663C62.1175 42.281 63.5242 40.1796 64.8121 37.9645C65.9351 36.0329 66.6148 33.8517 67.9029 31.9911C68.7781 30.7268 69.5237 29.4748 70.4812 28.2437C71.1178 27.4252 72.3709 25.986 72.3709 24.9287" stroke="black" stroke-opacity="0.99" stroke-width="3" stroke-linecap="round"/>
</svg>
