<svg width="108" height="39" viewBox="0 0 108 39" fill="none" xmlns="http://www.w3.org/2000/svg">
<path d="M2.51192 7.46802C2.51192 11.4479 0.641987 36.7405 4.5307 36.7405" stroke="black" stroke-opacity="0.99" stroke-width="3" stroke-linecap="round"/>
<path d="M1.50293 6.45862C4.84011 6.82942 9.8771 13.1131 11.8212 15.5432C14.9431 19.4455 20.2464 21.7915 22.7002 26.0857C24.6011 29.4123 24.4886 25.6426 24.7751 24.0669C25.6476 19.2681 27.6744 14.9308 29.5417 10.4962C30.072 9.2366 30.7754 5.29008 30.7754 8.47741C30.7754 11.5532 32.0277 16.2234 33.2988 19.02C35.4185 23.6832 40.8693 30.7138 40.8693 35.7311" stroke="black" stroke-opacity="0.99" stroke-width="3" stroke-linecap="round"/>
<path d="M50.9629 5.44922C50.9629 11.7219 51.8327 17.4585 53.9911 23.394C55.1062 26.4606 57.0193 35.9659 57.0193 32.7029" stroke="black" stroke-opacity="0.99" stroke-width="3" stroke-linecap="round"/>
<path d="M52.9814 19.5808C58.8137 19.5808 64.498 18.5714 70.1411 18.5714" stroke="black" stroke-opacity="0.99" stroke-width="3" stroke-linecap="round"/>
<path d="M70.1416 3.43042C70.1416 13.7865 71.6825 24.6814 76.198 33.7122" stroke="black" stroke-opacity="0.99" stroke-width="3" stroke-linecap="round"/>
<path d="M88.3104 2.42102C88.3104 7.60671 87.6267 13.2398 88.5347 18.347C89.1174 21.6248 90.3291 25.3995 90.3291 28.6653" stroke="black" stroke-opacity="0.99" stroke-width="3" stroke-linecap="round"/>
<path d="M89.3203 2.42102H106.48" stroke="black" stroke-opacity="0.99" stroke-width="3" stroke-linecap="round"/>
<path d="M91.3389 16.5526C94.1051 16.5526 103.452 14.9623 103.452 18.5714" stroke="black" stroke-opacity="0.99" stroke-width="3" stroke-linecap="round"/>
<path d="M91.3389 25.6371C94.3379 25.6371 103.07 24.8742 104.461 27.6559" stroke="black" stroke-opacity="0.99" stroke-width="3" stroke-linecap="round"/>
</svg>
