<svg width="295.022308" height="76.000488" viewBox="0 0 295.022 76.0005" fill="none" xmlns="http://www.w3.org/2000/svg" xmlns:xlink="http://www.w3.org/1999/xlink">
	<desc>
			Created with Pixso.
	</desc>
	<defs/>
	<path id="Vector 285" d="M165.5 5.9C162.84 5.36 160.99 2.46 158.3 1.77C152.89 0.4 152.78 4.33 151.04 8.96C148.47 15.8 144.39 22.46 143.41 29.86C142.65 35.61 142.26 41.54 142.65 47.34C143.07 53.57 148.64 58.4 154.24 60.17C158.93 61.65 161.35 57.66 165.5 57.66" stroke="#E21D20" stroke-opacity="1.000000" stroke-width="3.000000"/>
	<path id="Vector 286" d="M189.16 10.58C189.28 8.44 190.5 -3.55 190.5 3.92C190.5 12.14 188.91 20.32 188.53 28.56C188.14 37.19 186.5 45.89 186.5 54.5C186.5 57.63 186.5 66.99 186.5 63.87" stroke="#E21D20" stroke-opacity="1.000000" stroke-width="3.000000"/>
	<path id="Vector 287" d="M192.5 2.5C192.5 7.19 193.9 10.6 195.92 14.87C199.55 22.51 203.06 30.18 206.55 37.86C207.19 39.26 216.21 60.77 216.5 60.49" stroke="#E21D20" stroke-opacity="1.000000" stroke-width="3.000000"/>
	<path id="Vector 288" d="M233.5 3.5C233.5 14.23 234.34 24.28 236.6 34.88C238.4 43.34 240.06 51.93 242.24 60.31C242.88 62.77 244.06 65.76 244.26 68.25C244.41 70.1 247.62 60.81 248 59.68C252.19 46.93 258.69 34.74 263.39 22.11C264.9 18.07 265.81 13.91 266.98 9.75C267.59 7.59 267.8 9.26 267.8 10.49C267.8 12.93 267.8 15.37 267.8 17.81C267.8 29.21 268.34 40.36 269.3 51.7C269.72 56.62 270.5 61.49 270.5 66.41" stroke="#E21D20" stroke-opacity="1.000000" stroke-width="3.000000"/>
	<path id="Vector 291" d="M1.5 2.5C1.5 11.71 2.41 20.67 3.22 29.85C4.06 39.4 4.65 49.15 5.9 58.64C6.43 62.68 6.08 67.93 7.8 71.66C8.24 72.61 7.64 73.52 8.34 74.36C9 75.15 7.38 72.33 7.38 71.14" stroke="#E21D20" stroke-opacity="1.000000" stroke-width="3.000000"/>
	<path id="Vector 292" d="M1.5 4.5C1.57 5.2 2.08 5.59 2.57 6.07C4.32 7.81 5.66 9.76 7.02 11.8C10.77 17.42 14.13 23.26 17.99 28.8C19.52 31 21.03 33.23 22.59 35.42C23.2 36.27 24.67 37.25 24.9 38.28C25.58 41.31 25.94 37.53 26 36.45C26.49 28.21 30.24 21.22 31.7 13.27C32.11 11.03 33.79 4.76 33.79 10.4C33.79 17.39 37.6 24.08 39.52 30.69C40.5 34.07 41.5 37.41 42.38 40.81C43.1 43.57 43.28 46.73 44.46 49.35C46.03 52.78 47.33 56.61 48.37 60.21C48.95 62.21 49.89 68.7 51.5 69.5" stroke="#E21D20" stroke-opacity="1.000000" stroke-width="3.000000"/>
	<path id="Vector 293" d="M60.5 7.64C60.5 6.94 60.5 8.98 60.5 9.23C60.5 12.48 61.98 15.28 63 18.33C66.51 28.81 71.08 38.93 75.26 49.12C77.3 54.06 77.98 59.69 80.08 64.54C80.54 65.6 81.99 71.93 81.32 68.47" stroke="#E21D20" stroke-opacity="1.000000" stroke-width="3.000000"/>
	<path id="Vector 294" d="M75.5 43.56C75.74 41.58 84.05 40.5 85.8 40.5C90.52 40.5 93.88 40.46 97.09 44.1C101.37 48.97 104.45 55 103.23 61.68C102.61 65.02 97.64 68.09 94.52 68.09C91.95 68.09 80.98 69.28 80.12 67.58" stroke="#E21D20" stroke-opacity="1.000000" stroke-width="3.000000"/>
	<path id="Vector 295" d="M108.5 5.5C108.5 10.48 109.16 15.37 110.11 20.28C111.71 28.48 113.53 36.72 115.37 44.86C116.89 51.58 119.5 71.97 119.5 65.1" stroke="#E21D20" stroke-opacity="1.000000" stroke-width="3.000000"/>
	<path id="Vector 477" d="M293.41 3.66C293.41 0.88 293.41 9.22 293.41 11.99C293.41 18.33 291.33 24.48 291.33 30.75C291.33 36.05 290.43 41.93 289.48 47.2C289.22 48.6 289.46 57.66 288.2 52.64" stroke="#E21D20" stroke-opacity="1.000000" stroke-width="3.000000" stroke-linecap="round"/>
	<path id="Vector 478" d="M288.2 68.27C290.33 68.27 294.37 68.24 293.35 64.68C292.98 63.38 290.29 68.21 290.29 69.32" stroke="#E21D20" stroke-opacity="1.000000" stroke-width="3.000000" stroke-linecap="round"/>
</svg>
