<svg width="555" height="557" viewBox="0 0 555 557" fill="none" xmlns="http://www.w3.org/2000/svg">
<path d="M213.056 169.097C197.003 169.097 181.399 175.092 165.456 170.368C157.82 168.106 148.195 163.713 141.54 170.368C138.528 173.38 128.855 182.808 134.55 187.237C141.975 193.012 147.79 195.093 157.368 195.093C161.461 195.093 165.129 193.026 168.575 190.934C172.886 188.316 179.213 188.036 183.941 186.197C190.525 183.637 197.624 180.903 204.218 179.438C206.226 178.992 208.667 177.808 210.168 176.607C212.423 174.803 215.065 168.2 214.096 170.137" stroke="black" stroke-opacity="0.99" stroke-width="3" stroke-linecap="round"/>
<path d="M175.622 194.054C175.622 219.657 191.236 238.391 203.177 259.62C206.352 265.265 210.474 270.054 214.096 275.391C217.128 279.86 219.232 284.709 222.992 288.678C224.98 290.776 226.972 295.957 230.213 295.957C234.603 295.957 239.86 290.989 242.691 288.158C250.755 280.094 262.661 278.422 270.824 271.001C272.551 269.431 275.479 268.677 277.525 267.361C280.246 265.612 282.359 263.177 285.266 261.642C292.498 257.825 299.047 251.191 305.6 246.276C313.016 240.714 318.95 233.448 326.339 227.906C330.658 224.666 335.107 221.699 338.412 217.45C340.836 214.334 343.868 211.876 346.153 208.38C347.816 205.838 349.601 201.689 352.392 200.293" stroke="black" stroke-opacity="0.99" stroke-width="3" stroke-linecap="round"/>
<path d="M287.924 164.938C288.118 163.388 295.407 158.99 296.762 158.237C302.686 154.946 308.209 150.925 313.919 147.261C319.806 143.485 328.215 139.79 332.636 134.264C336.533 129.393 344.577 128.11 350.082 131.895C353.987 134.58 349.922 139.922 349.331 142.582C346.843 153.78 348.636 162.829 349.274 174.297C349.451 177.499 351.267 184.333 352.913 187.295C353.913 189.094 355.69 196.819 356.552 195.093" stroke="black" stroke-opacity="0.99" stroke-width="3" stroke-linecap="round"/>
<path d="M338.357 105.12C338.357 113.275 343.817 121.966 347.254 129.151C349.286 133.401 351.844 137.671 353.435 142.091C354.595 145.315 355.614 150.526 357.594 153.298C358.019 153.892 361.64 165.321 363.082 169.358C365.886 177.209 369.459 185.924 373.192 193.389C380.012 207.029 390.562 218.632 397.627 231.978C400.106 236.66 403.862 243.297 407.564 246.998C410.399 249.834 414.976 251.788 416.344 255.894" stroke="black" stroke-opacity="0.99" stroke-width="3" stroke-linecap="round"/>
<path d="M228.653 293.876C229.045 297.793 234.793 302.476 236.914 305.834C239.636 310.143 243.453 315.339 247.601 318.37C253.192 322.456 266.064 338.544 262.968 332.35" stroke="black" stroke-opacity="0.99" stroke-width="3" stroke-linecap="round"/>
<path d="M26 329.437C32.4085 323.029 37.3458 314.859 44.3641 309.033C48.3433 305.729 52.5058 302.406 56.7017 299.376C57.5621 298.755 58.0589 298.012 58.3625 296.98C58.8738 295.241 61.6759 294.145 63.0603 293.136C72.7931 286.039 81.9193 277.105 92.6231 271.45C94.3312 270.548 95.3716 269.24 96.8464 268.034C98.0951 267.012 100.052 266.261 101.497 265.519C108.675 261.833 116.272 259.106 124.131 257.262C133.328 255.105 141.237 255.705 150.325 257.784C156.573 259.213 162.671 261.054 168.357 264.071C174.385 267.27 179.499 271.957 185.298 275.531C186.285 276.14 188.114 276.474 188.714 277.524C188.982 277.994 192.093 278.474 192.748 278.829C196.638 280.941 200.029 283.408 203.662 285.876C208.79 289.359 214.555 294.85 217.328 300.396" stroke="black" stroke-opacity="0.99" stroke-width="3" stroke-linecap="round"/>
<path d="M154.121 197.472C151.715 197.472 147.715 196.715 147.715 200.034C147.715 202.224 151.872 201.457 152.84 200.248C153.722 199.145 152.147 199.891 151.653 200.366C150.515 201.463 149.825 202.91 149.328 204.4C149.004 205.373 148.466 207.162 149.755 207.626C151.155 208.13 151.942 207.327 152.318 206.013C152.423 205.646 153.267 203.959 153.006 203.901C151.457 203.557 150.921 205.996 150.728 207.057C150.158 210.193 154.132 210.284 156.446 210.284C159.118 210.284 162.215 209.045 164.608 207.911C167.624 206.482 171.713 205.586 175.047 205.586" stroke="black" stroke-opacity="0.99" stroke-width="3" stroke-linecap="round"/>
<path d="M356.98 127.859C365.485 127.859 373.582 124.443 382.154 124.443C388.074 124.443 392.87 128.136 397.457 131.703C402.055 135.279 404.5 141.343 404.789 147.125C405.525 161.849 397.672 174.398 394.136 188.29C392.144 196.115 391.573 203.648 391.573 211.66C391.573 218.706 394.086 225.298 396.437 231.828C398.565 237.738 401.769 243.378 403.863 249.243C404.951 252.289 406.521 256.117 406.521 259.397" stroke="black" stroke-opacity="0.99" stroke-width="3" stroke-linecap="round"/>
<path d="M334.385 46C336.647 46 338.909 46 341.17 46C343.594 46 345.14 46.6127 347.434 47.1863C349.568 47.7197 351.547 48.3996 353.65 49.0844C358.685 50.7234 364.942 51.1473 369.428 54.1381C371.995 55.849 374.274 57.89 376.665 59.8324C379.775 62.3596 383.801 63.6343 386.416 66.9028C389.149 70.3193 393.92 77.4953 391.612 82.1112C387.338 90.6602 381.23 98.2918 378.705 107.736C376.11 117.444 377.021 127.197 376.641 137.085C376.354 144.542 374.529 151.832 374.529 159.34C374.529 161.473 374.093 164.331 374.743 166.41C375.537 168.953 377.946 170.57 377.946 173.267" stroke="black" stroke-opacity="0.99" stroke-width="3" stroke-linecap="round"/>
<path d="M223.038 340.241C231.748 340.241 240.457 340.241 249.167 340.241C257.165 340.241 265.805 339.08 273.682 340.655C277.917 341.502 281.967 342.009 286.171 343.144C292.193 344.769 298.008 346.496 303.912 348.535C309.005 350.295 314.76 352.729 318.405 356.83C323.21 362.235 328.694 372.965 325.893 380.378C324.579 383.858 322.348 387.541 320.41 390.746C317.765 395.121 314.712 399.227 310.755 402.451C306.683 405.77 302.49 405.769 297.461 405.769C291.693 405.769 287.5 403.476 284.189 398.903C280.076 393.224 276.178 387.25 274.258 380.424C272.636 374.657 272.445 368.201 269.673 362.821C268.836 361.195 266.216 361.793 264.743 361.807C260.627 361.847 256.626 362.636 252.485 362.636C247.708 362.636 242.93 362.636 238.153 362.636C234.282 362.636 230.411 362.636 226.541 362.636C224.029 362.636 221.795 363.466 219.306 363.466" stroke="black" stroke-opacity="0.99" stroke-width="3" stroke-linecap="round"/>
<path d="M305.571 361.807C302.154 361.807 297.867 361.125 294.811 362.844C291.245 364.85 290.496 367.967 288.982 371.668C287.085 376.305 285.655 381.502 287.553 386.507C289.544 391.756 293.5 392.967 298.889 393.304C303.815 393.612 308.552 391.416 312.299 388.35C315.772 385.509 316.735 379.129 316.331 374.894C315.997 371.388 311.368 368.782 308.981 366.784C305.638 363.985 300.747 360.41 296.862 364.295" stroke="black" stroke-opacity="0.99" stroke-width="3" stroke-linecap="round"/>
<path d="M299.35 376.737C299.253 377.515 297.863 378.833 297.437 379.479C295.887 381.834 293.961 383.785 291.977 385.769C289.456 388.29 287.026 391.202 285.157 394.248C282.286 398.926 278.593 403.553 276.954 408.88C276.402 410.673 274.997 412.887 274.028 414.502C272.66 416.781 271.12 419.35 270.226 421.852C270.001 422.483 269.656 423.162 269.512 423.81C269.417 424.238 268.732 425.023 269.166 425.077C271.448 425.363 274.943 422.835 277.115 422.174C279.706 421.386 282.482 421.317 285.18 421.137C287.072 421.011 290.609 420.687 291.861 422.566C292.704 423.83 295.287 427.963 292.53 428.672C287.843 429.877 283.088 431.006 278.198 430.63C275.915 430.455 272.396 430.217 270.318 429.179C269.056 428.548 268.659 427.899 268.659 426.506" stroke="black" stroke-opacity="0.99" stroke-width="3" stroke-linecap="round"/>
<path d="M304.741 375.908C304.741 374.469 304.897 373.184 305.156 371.76C305.422 370.296 307.868 366.56 306.815 367.613" stroke="black" stroke-opacity="0.99" stroke-width="3" stroke-linecap="round"/>
<path d="M297.691 372.59C296.558 372.59 291.456 371.788 290.641 373.42" stroke="black" stroke-opacity="0.99" stroke-width="3" stroke-linecap="round"/>
<path d="M301.838 380.47C301.838 383.238 302.253 391.533 302.253 388.764" stroke="black" stroke-opacity="0.99" stroke-width="3" stroke-linecap="round"/>
<path d="M305.156 374.249C309.374 374.601 313.24 376.694 316.769 378.811" stroke="black" stroke-opacity="0.99" stroke-width="3" stroke-linecap="round"/>
<path d="M312.814 353.6C313.671 349.673 315.991 346.434 317.91 342.958C320.686 337.93 323.666 332.974 326.342 327.897C329.598 321.722 332.161 315.374 336.15 309.612C336.872 308.569 336.922 307.274 337.48 306.118C339.347 302.25 341.555 298.521 343.5 294.687C349.006 283.835 354.8 273.211 361.83 263.28C363.981 260.241 367.162 254.983 371.457 254.983C373.733 254.983 375.858 252.954 378.153 252.954" stroke="black" stroke-opacity="0.99" stroke-width="3" stroke-linecap="round"/>
<path d="M62.2852 290.833C61.5625 290.652 59.7015 287.927 59.0146 287.274C57.3147 285.659 56.4877 283.018 55.2208 281.047C53.6436 278.594 52.2447 275.436 51.9503 272.491C51.2073 265.062 55.2418 260.049 61.3433 255.982C66.194 252.748 71.006 250.001 76.5186 247.976C80.0962 246.661 83.7051 245.611 87.4029 244.705C90.0465 244.058 92.7163 244.447 95.3307 243.685C106.069 240.552 116.592 238.196 126.78 233.611C129.821 232.243 132.823 231.054 135.99 230.079C137.41 229.642 138.819 229.159 140.255 228.771C141.468 228.443 142.519 227.319 143.761 227.253C144.41 227.219 145.263 226.64 145.854 226.809C146.946 227.12 149.033 230.145 149.779 231.021C152.661 234.404 156.351 237.088 160.218 239.263C163.031 240.845 165.522 241.214 168.669 242.089C170.959 242.725 173.386 242.01 175.681 242.69C177.332 243.179 180.468 243.266 182.144 243.266C183.635 243.266 185.127 243.266 186.618 243.266" stroke="black" stroke-opacity="0.99" stroke-width="3" stroke-linecap="round"/>
<path d="M176.257 267.756C176.257 261.566 180.788 255.269 182.85 249.598C184.31 245.583 186.175 241.797 188.031 238.085" stroke="black" stroke-opacity="0.99" stroke-width="3" stroke-linecap="round"/>
<path d="M137.027 180.196C137.027 181.912 136.34 186.815 138.218 187.809C139.674 188.58 140.622 176.63 140.867 175.197C140.95 174.706 141.76 170.619 141.794 171.391C141.907 173.996 142.141 176.38 142.853 178.938C143.122 179.903 147.419 190.595 148.348 187.578C149.282 184.54 149.539 180.7 149.539 177.548C149.539 175.225 149.617 179.596 149.672 179.997C150.238 184.163 152.361 187.806 154.637 191.252C158.284 196.775 157.262 186.746 157.583 184.433C157.836 182.611 157.881 180.839 157.881 179.004C157.881 177.129 157.921 179.783 158.146 180.328C158.492 181.166 163.706 188.697 163.839 184.83C163.913 182.706 163.839 180.567 163.839 178.441C163.839 176.738 163.064 174.521 164.237 176.654C165.833 179.556 173.081 186.166 176.816 185.889C179.484 185.692 177.696 174.966 180.258 174.966C181.562 174.966 184.269 177.18 185.422 177.812C187.472 178.936 189.708 179.851 192.042 180.163C194.852 180.537 194.007 176.388 196.015 175.561C197.047 175.137 200.997 181.225 203.463 180.13C205.939 179.029 203.945 176.086 207.336 177.217" stroke="#E21D20" stroke-width="3" stroke-linecap="round"/>
<path d="M288.545 168.34C288.901 165.137 295.69 162.478 297.888 160.728C301.21 158.083 304.227 154.708 307.854 152.492C311.436 150.303 314.912 148.365 318.131 145.641C320.451 143.677 322.389 141.84 325.086 140.312C329.811 137.634 334.572 135.157 339.308 132.526C344.806 129.472 350.138 132.767 353.946 136.574" stroke="#E21D20" stroke-width="3" stroke-linecap="round"/>
<path d="M286.053 131.592C302.884 131.592 319.638 131.059 336.193 128.512C338.941 128.089 345.763 125.421 348.339 127.855C350.289 129.696 352.076 132.717 352.076 135.329" stroke="#E21D20" stroke-width="3" stroke-linecap="round"/>
<path d="M277.003 424.537C276.229 424.537 269.961 424.605 273.353 425.932C275.61 426.815 278.262 427.535 280.696 427.581C282.778 427.62 281.644 426.702 280.118 426.566C277.853 426.365 275.624 426.312 273.353 426.312C272.39 426.312 273.973 426.779 274.156 426.82C278.091 427.705 281.763 426.789 285.403 425.1C287.665 424.051 285.052 424.283 284.233 424.283C283.103 424.283 282.052 424.371 280.935 424.537C280.41 424.614 279.369 424.737 279.089 425.298C278.788 425.9 280.976 426.419 281.26 426.51C282.339 426.856 285.495 428.099 286.644 427.525C287.787 426.953 286.98 425.707 286.249 425.298C285.353 424.796 282.289 424.184 281.429 425.044C280.201 426.272 284.736 426.786 285.107 426.806C287.197 426.916 289.178 427.092 290.322 425.058C290.643 424.488 291.019 423.585 290.449 423.014C288.798 421.364 283.329 422.793 282.331 424.79" stroke="#E2901D" stroke-width="3" stroke-linecap="round"/>
<path d="M244.39 36.9531C244.39 18.5729 261.911 4.05446 279.481 4.05446C287.846 4.05446 300.795 2.10263 307.506 8.44095C309.5 10.3236 316.767 16.4053 316.767 15.569C316.767 10.3584 329.41 7.38469 333.155 5.6994C338.411 3.33399 343.843 2.40226 349.604 1.92215C351.574 1.75804 354.305 1.45292 356.245 1.86122C364.499 3.59896 373.115 7.69832 380.858 10.6342C388.263 13.4418 397.071 15.9894 404.253 19.6508C415.574 25.4225 413.269 69.3999 413.269 56.6922" stroke="black" stroke-width="3" stroke-linecap="round"/>
<path d="M413.27 56.6923C417.479 56.2246 423.028 52.8996 427.343 51.7575C432.557 50.3773 437.453 49.7215 442.878 50.1735C449.946 50.7625 459.614 56.0702 463.47 62.1754C468.467 70.0872 473.96 77.1416 474.741 86.9103C475.211 92.7875 475.892 98.3721 475.777 104.334C475.691 108.785 472.487 112.675 472.487 117.006C472.487 117.152 499.389 121.644 503.192 122.49C510.592 124.134 513.793 128.907 517.448 134.796C525.658 148.022 527.717 174.629 509.772 180.61" stroke="black" stroke-width="3" stroke-linecap="round"/>
<path d="M509.772 180.61C527.502 180.61 536.339 187.808 544.255 203.639C549.813 214.755 551.444 227.375 551.444 239.584C551.444 252.353 541.87 258.97 536.944 269.437C536.36 270.677 539.341 271.526 540.478 272.726C543.397 275.808 544.652 279.978 546.509 283.693C550.967 292.609 552.541 300.272 552.541 310.133C552.541 327.434 535.754 354.973 516.352 354.973" stroke="black" stroke-width="3" stroke-linecap="round"/>
<path d="M516.352 354.973C516.352 358.156 519.929 360.353 521.348 363.319C524.34 369.577 526.222 374.877 526.222 381.84C526.222 393.588 516.736 403.449 508.919 411.266C497.274 422.911 484.084 425.487 468.588 428.446C461.359 429.827 453.379 430.762 446.778 426.802C444.228 425.272 438.545 418.68 439.649 421.44C443.971 432.245 438.213 443.053 429.171 449.343C423.251 453.461 418.406 457.795 411.564 460.248C406.418 462.093 402.274 465.781 396.394 464.148C387.101 461.566 378.454 456.366 369.892 452.085C367.319 450.798 361.897 446.41 361.729 449.282C361.072 460.436 356.636 468.941 350.762 478.404C346.332 485.541 341.147 493.261 334.313 498.386C327.728 503.326 319.306 503.312 311.528 504.357C299.241 506.007 279.788 508.411 271.806 496.437" stroke="black" stroke-width="3" stroke-linecap="round"/>
<path d="M271.806 496.437C271.806 516.488 251.471 534.819 232.327 534.819C221.819 534.819 211.636 523.578 207.105 515.019C205.752 512.463 201.343 496.896 198.576 499.971C190.34 509.121 184.079 520.12 175.73 529.396C167.659 538.364 156.083 546.923 144.537 550.659C134.963 553.756 115.018 559.262 106.703 551.268C97.4849 542.404 96.9479 525.24 95.0061 513.374C94.4886 510.211 94.33 507.296 94.1532 504.113C93.9856 501.096 84.9637 508.08 83.8572 508.926C73.4108 516.915 49.7464 529.405 39.0785 515.689C33.6495 508.709 28.9735 497.686 26.6501 489.248C23.9694 479.513 22.0948 467.881 25.6754 458.116C27.1165 454.186 34.0237 448.186 28.356 448.186C25.294 448.186 21.1661 446.141 18.4864 444.652C14.8953 442.657 9.7182 434.17 8.86052 430.396C6.7518 421.118 6.42359 412.941 6.42359 403.346C6.42359 396.357 6.80908 387.537 12.9424 382.937C16.9749 379.912 15.2315 380.544 13.0033 375.809C6.51101 362.013 2.03711 342.847 2.03711 327.679C2.03711 318.555 3.20735 311.323 9.16514 304.041C11.4417 301.259 17.0064 296.215 20.6797 295.755C21.7765 295.618 18.5986 288.479 18.2427 286.739C16.4636 278.041 15.1966 270.303 15.1966 261.395C15.1966 251.487 15.9734 242.126 20.7406 233.187C23.6761 227.683 27.0241 222.828 30.9757 218.017C35.5958 212.393 43.8739 210.423 50.5321 208.026C53.6588 206.9 89.0274 199.073 88.4264 194.866C87.3687 187.463 83.7083 180.7 83.2479 172.873C83.0402 169.341 81.1549 157.979 84.8319 155.936C89.4645 153.363 94.4074 153.195 99.6363 153.195" stroke="black" stroke-width="3" stroke-linecap="round"/>
<path d="M99.6357 151.002C99.6357 133.845 97.6004 115.332 112.308 103.299C116.531 99.843 123.883 98.3637 129.244 98.3637C136.483 98.3637 146.117 96.6738 153.126 98.6074C160.173 100.551 158.193 98.0727 156.904 92.2714C155.724 86.9637 155.563 81.9595 155.563 76.4923C155.563 71.7977 154.898 65.0651 160.193 63.0282C167.174 60.3435 172.235 56.6922 180.237 56.6922C186.987 56.6922 195.101 55.4294 201.621 57.2405C203.985 57.897 213.577 61.7085 212.344 57.5451C210.427 51.0752 203.002 23.7936 215.329 23.7936C220.794 23.7936 233.077 21.4613 237.566 25.1339C241.142 28.0598 246.583 36.7311 246.583 41.3395" stroke="black" stroke-width="3" stroke-linecap="round"/>
</svg>
