<svg width="52" height="102" viewBox="0 0 52 102" fill="none" xmlns="http://www.w3.org/2000/svg">
<path d="M9.28418 32.0155C7.67828 32.0155 6.07237 32.0155 4.46646 32.0155C1.17191 32.0155 2.03098 28.9901 2.0576 26.4617C2.19003 13.8804 11.5295 -0.811192 25.6109 2.00509C31.8623 3.25536 36.0108 12.9289 37.2537 18.4656C38.1901 22.6366 40.5923 30.0588 37.5549 33.8556C34.3121 37.909 29.7875 42.0253 27.6852 46.8032C22.5911 58.3809 28.2446 67.1329 33.3728 77.7839" stroke="#E21D20" stroke-width="3" stroke-linecap="round"/>
<path d="M40.8951 87.6286C40.8951 90.6322 39.7848 96.008 42.0995 98.2008C43.2575 99.2979 47.6763 101.729 48.7239 99.3718C51.5051 93.1139 47.9927 87.6286 41.4973 87.6286" stroke="#E21D20" stroke-width="3" stroke-linecap="round"/>
</svg>
