<svg width="71" height="63" viewBox="0 0 71 63" fill="none" xmlns="http://www.w3.org/2000/svg">
<path d="M2.37433 2.00415C2.37433 15.5531 0.389159 31.9536 4.69078 44.8584" stroke="#E21D20" stroke-width="3" stroke-linecap="round"/>
<path d="M7.00781 61.0736C9.44728 61.0736 12.4038 56.5604 10.2251 54.3817C8.99883 53.1554 5.64064 57.4945 8.16604 58.7572" stroke="#E21D20" stroke-width="3" stroke-linecap="round"/>
<path d="M27.856 2.00415C27.856 11.6346 27.856 21.265 27.856 30.8954C27.856 34.3876 26.5956 43.07 30.1725 44.8584" stroke="#E21D20" stroke-width="3" stroke-linecap="round"/>
<path d="M38.5368 56.4407C43.6268 56.6443 34.6535 59.9154 32.4883 59.9154C32.4883 56.1985 35.457 56.3174 38.48 56.4385L38.5368 56.4407Z" stroke="#E21D20" stroke-width="3" stroke-linecap="round"/>
<path d="M55.6528 2.00415C55.6528 7.19471 55.6528 12.3853 55.6528 17.5758C55.6528 19.4835 54.618 27.3522 56.2319 28.6433C57.7706 29.8742 60.2857 42.3787 60.2857 44.8584" stroke="#E21D20" stroke-width="3" stroke-linecap="round"/>
<path d="M63.7607 54.1243C64.324 59.1934 67.9081 54.976 68.9728 54.1243C69.1045 54.0189 66.0772 51.535 66.0772 56.4408" stroke="#E21D20" stroke-width="3" stroke-linecap="round"/>
</svg>
