<svg width="30" height="41" viewBox="0 0 30 41" fill="none" xmlns="http://www.w3.org/2000/svg">
<path d="M12.3727 1.79944C15.4135 2.17954 11.6634 20.3869 11.3332 21.6441C10.0305 26.6044 9.58623 31.9078 8.12026 36.7638C7.68457 38.207 7.26978 39.6891 7.26978 37.5198" stroke="#E2901D" stroke-width="3" stroke-linecap="round"/>
<path d="M14.9241 1.79944C15.4724 8.37842 21.6927 14.3644 24.752 19.9431C26.1089 22.4175 27.6014 25.2212 28.3429 27.9755C28.77 29.5618 23.7829 26.6404 23.3345 26.4162C17.0174 23.2577 10.1476 20.6312 3.58434 18.0059C-1.18643 16.0976 8.77878 13.1387 9.82123 12.8557C15.1212 11.4172 20.4068 8.882 25.9804 8.60332C29.3782 8.43343 25.5845 13.156 24.7047 14.5095C19.5152 22.4933 13.5152 29.3397 8.97074 37.5198" stroke="#E2901D" stroke-width="3" stroke-linecap="round"/>
</svg>
