<svg width="39.463745" height="43.827759" viewBox="0 0 39.4637 43.8278" fill="none" xmlns="http://www.w3.org/2000/svg" xmlns:xlink="http://www.w3.org/1999/xlink">
	<desc>
			Created with Pixso.
	</desc>
	<defs/>
	<path id="Vector 548" d="M14.27 1.5L14.27 41.47" stroke="#E2901D" stroke-opacity="1.000000" stroke-width="3.000000" stroke-linecap="round"/>
	<path id="Vector 549" d="M14.27 2.35C14.9 5.49 18.61 9.09 20.69 11.32C25.19 16.15 29.06 21.96 32.88 27.34C34.4 29.48 35.85 30.83 37.56 32.54C39.61 34.58 31.98 31.01 29.2 30.22C26.99 29.6 -0.43 24.6 1.65 21.48C3.63 18.52 12.07 17.61 15.17 16.76C20.25 15.35 25.2 13.45 30.24 11.89C31.63 11.46 37.78 10.18 34.16 12.6C28.77 16.19 23.83 22.39 19.94 27.48C17.29 30.94 17.3 40.38 13.42 42.32" stroke="#E2901D" stroke-opacity="1.000000" stroke-width="3.000000" stroke-linecap="round"/>
</svg>
