<svg width="41.520935" height="56.952271" viewBox="0 0 41.5209 56.9523" fill="none" xmlns="http://www.w3.org/2000/svg" xmlns:xlink="http://www.w3.org/1999/xlink">
	<desc>
			Created with Pixso.
	</desc>
	<defs/>
	<path id="Vector 546" d="M14.17 1.5L14.17 53.37" stroke="#E2901D" stroke-opacity="1.000000" stroke-width="3.000000" stroke-linecap="round"/>
	<path id="Vector 547" d="M14.17 5.75C14.17 8.99 16.64 11.36 18.38 13.87C22.53 19.9 26.31 26.8 31.84 31.73C34.44 34.05 36.3 37.84 39.12 39.72C39.99 40.3 37.17 38.92 36.19 38.54C33.43 37.46 29.85 37.51 26.93 37.22C24.69 36.99 0.01 32.59 1.6 30.6C3.67 28.02 8.1 26.94 10.82 25.21C17.54 20.94 24.32 14.94 31.61 11.7C33.81 10.72 41.74 4.95 39.69 9.57C37.72 13.99 35.56 17.71 32.88 21.72C29.16 27.31 24.76 34.04 21.97 40.1C20.31 43.69 18.95 47.55 17.29 51.3C16.77 52.47 15.79 56.61 15.02 55.08" stroke="#E2901D" stroke-opacity="1.000000" stroke-width="3.000000" stroke-linecap="round"/>
</svg>
