<svg width="35.744690" height="47.919434" viewBox="0 0 35.7447 47.9194" fill="none" xmlns="http://www.w3.org/2000/svg" xmlns:xlink="http://www.w3.org/1999/xlink">
	<desc>
			Created with Pixso.
	</desc>
	<defs/>
	<path id="Vector 556" d="M16.38 2.95C16.38 -4.3 16.04 17.6 14.11 24.59C12.48 30.5 10.3 36.69 9.62 42.83C9.6 43.07 9.58 45.89 9.58 44.62" stroke="#E2901D" stroke-opacity="1.000000" stroke-width="3.000000" stroke-linecap="round"/>
	<path id="Vector 557" d="M17.23 2.1C17.23 13.08 24.84 23.65 29.61 33.19C30.72 35.41 31.69 37.48 28.52 36.07C21.56 32.98 13.62 32.52 6.32 30.59C-1.59 28.5 1.27 24.64 7.59 21.71C14.41 18.54 21.74 16.05 28.76 13.34C29.34 13.12 34.24 10.14 34.24 12.3C34.24 14.19 30.6 17.97 29.33 19.3C26.68 22.05 23.09 25.3 21.06 28.46C18.66 32.19 15.44 35.54 13.45 39.52C12.81 40.79 10.36 47.11 9.58 46.32" stroke="#E2901D" stroke-opacity="1.000000" stroke-width="3.000000" stroke-linecap="round"/>
</svg>
