<svg width="29.604858" height="40.421326" viewBox="0 0 29.6049 40.4213" fill="none" xmlns="http://www.w3.org/2000/svg" xmlns:xlink="http://www.w3.org/1999/xlink">
	<desc>
			Created with Pixso.
	</desc>
	<defs/>
	<path id="Vector 554" d="M9.17 1.5L9.17 38.07" stroke="#E2901D" stroke-opacity="1.000000" stroke-width="3.000000" stroke-linecap="round"/>
	<path id="Vector 555" d="M10.87 4.05C11.43 10.16 18.32 16.64 21.93 21.25C24 23.88 26.07 26.56 27.88 29.37C28.87 30.9 26.23 28.91 25.81 28.71C18.79 25.39 10.16 25.56 2.75 23.42C-2.68 21.85 11.37 15.78 11.77 15.62C14.58 14.51 23.15 10.77 26.56 11.75C29.1 12.47 23.09 16.58 22.83 16.8C18.82 20.32 14.96 24.86 12.24 29.47C10.67 32.14 7.47 35.73 7.47 38.92" stroke="#E2901D" stroke-opacity="1.000000" stroke-width="3.000000" stroke-linecap="round"/>
</svg>
