<svg width="42.093475" height="49.776672" viewBox="0 0 42.0935 49.7767" fill="none" xmlns="http://www.w3.org/2000/svg" xmlns:xlink="http://www.w3.org/1999/xlink">
	<desc>
			Created with Pixso.
	</desc>
	<defs/>
	<path id="Vector 552" d="M13.35 1.5L13.35 48.27" stroke="#E2901D" stroke-opacity="1.000000" stroke-width="3.000000" stroke-linecap="round"/>
	<path id="Vector 553" d="M14.21 4.05C16.72 10.44 21.99 15.96 25.92 21.53C28.66 25.4 31.35 29.51 34.62 32.96C34.98 33.35 37.86 36.36 36.13 36.36C31.28 36.36 25.48 34.15 20.63 33.39C19.41 33.2 -1.98 29.82 2.01 25.97C5.01 23.09 9.94 20.76 13.73 19.17C20.9 16.15 27.7 12.01 34.57 8.35C36.63 7.25 43.53 3.55 39.2 7.87C35.18 11.89 31 16.32 28 21.25C22.84 29.73 17.99 38.34 12.5 46.57" stroke="#E2901D" stroke-opacity="1.000000" stroke-width="3.000000" stroke-linecap="round"/>
</svg>
